<svg width="362" height="364" viewBox="0 0 362 364" fill="none" xmlns="http://www.w3.org/2000/svg">
<mask id="path-1-inside-1_2_619" fill="white">
<path fill-rule="evenodd" clip-rule="evenodd" d="M0 0H326.763V18.1531H344.009V36.3071H361.255V363.07H34.4918V344.916H17.2461V326.763H0V0Z"/>
</mask>
<path d="M326.763 0H327.763V-1H326.763V0ZM0 0V-1H-1V0H0ZM326.763 18.1531H325.763V19.1531H326.763V18.1531ZM344.009 18.1531H345.009V17.1531H344.009V18.1531ZM344.009 36.3071H343.009V37.3071H344.009V36.3071ZM361.255 36.3071H362.255V35.3071H361.255V36.3071ZM361.255 363.07V364.07H362.255V363.07H361.255ZM34.4918 363.07H33.4918V364.07H34.4918V363.07ZM34.4918 344.916H35.4918V343.916H34.4918V344.916ZM17.2461 344.916H16.2461V345.916H17.2461V344.916ZM17.2461 326.763H18.2461V325.763H17.2461V326.763ZM0 326.763H-1V327.763H0V326.763ZM326.763 -1H0V1H326.763V-1ZM327.763 18.1531V0H325.763V18.1531H327.763ZM344.009 17.1531H326.763V19.1531H344.009V17.1531ZM345.009 36.3071V18.1531H343.009V36.3071H345.009ZM344.009 37.3071H361.255V35.3071H344.009V37.3071ZM360.255 36.3071V363.07H362.255V36.3071H360.255ZM361.255 362.07H34.4918V364.07H361.255V362.07ZM35.4918 363.07V344.916H33.4918V363.07H35.4918ZM17.2461 345.916H34.4918V343.916H17.2461V345.916ZM16.2461 326.763V344.916H18.2461V326.763H16.2461ZM0 327.763H17.2461V325.763H0V327.763ZM-1 0V326.763H1V0H-1Z" fill="white" mask="url(#path-1-inside-1_2_619)"/>
<path d="M32.24 63L39.89 42H44.3L51.98 63H47.87L41.3 44.16H42.89L36.32 63H32.24ZM35.78 58.17L36.83 55.11H47.39L48.44 58.17H35.78ZM59.6968 63.36C58.2968 63.36 57.0368 63.02 55.9168 62.34C54.8168 61.66 53.9468 60.73 53.3068 59.55C52.6668 58.35 52.3468 57.01 52.3468 55.53C52.3468 54.03 52.6668 52.7 53.3068 51.54C53.9468 50.36 54.8168 49.44 55.9168 48.78C57.0368 48.1 58.2968 47.76 59.6968 47.76C60.8168 47.76 61.7868 47.97 62.6068 48.39C63.4468 48.81 64.1168 49.39 64.6168 50.13V41.4H68.5168V63H64.6168V60.87C64.1568 61.53 63.5268 62.11 62.7268 62.61C61.9468 63.11 60.9368 63.36 59.6968 63.36ZM60.5368 59.97C61.3568 59.97 62.0768 59.78 62.6968 59.4C63.3368 59.02 63.8268 58.5 64.1668 57.84C64.5268 57.16 64.7068 56.4 64.7068 55.56C64.7068 54.7 64.5268 53.94 64.1668 53.28C63.8268 52.62 63.3368 52.1 62.6968 51.72C62.0768 51.34 61.3568 51.15 60.5368 51.15C59.7368 51.15 59.0168 51.34 58.3768 51.72C57.7368 52.1 57.2368 52.62 56.8768 53.28C56.5168 53.92 56.3368 54.67 56.3368 55.53C56.3368 56.39 56.5168 57.16 56.8768 57.84C57.2368 58.5 57.7368 59.02 58.3768 59.4C59.0168 59.78 59.7368 59.97 60.5368 59.97ZM71.3237 63V42H75.2237L85.0337 56.7V42H88.9337V63H85.0337L75.2237 48.33V63H71.3237ZM98.9359 63.36C97.4159 63.36 96.0759 63.04 94.9159 62.4C93.7559 61.74 92.8459 60.84 92.1859 59.7C91.5259 58.54 91.1959 57.2 91.1959 55.68C91.1959 54.14 91.5159 52.77 92.1559 51.57C92.8159 50.37 93.7259 49.44 94.8859 48.78C96.0459 48.1 97.3959 47.76 98.9359 47.76C100.416 47.76 101.716 48.08 102.836 48.72C103.956 49.36 104.826 50.23 105.446 51.33C106.086 52.43 106.406 53.68 106.406 55.08C106.406 55.28 106.406 55.5 106.406 55.74C106.406 55.98 106.386 56.23 106.346 56.49H94.0159V54.09H102.476C102.416 53.13 102.056 52.36 101.396 51.78C100.736 51.2 99.9259 50.91 98.9659 50.91C98.2459 50.91 97.5859 51.07 96.9859 51.39C96.3859 51.71 95.9059 52.19 95.5459 52.83C95.2059 53.45 95.0359 54.25 95.0359 55.23V56.07C95.0359 56.91 95.2059 57.64 95.5459 58.26C95.8859 58.88 96.3459 59.36 96.9259 59.7C97.5059 60.02 98.1659 60.18 98.9059 60.18C99.6659 60.18 100.306 60.01 100.826 59.67C101.346 59.33 101.746 58.88 102.026 58.32H105.986C105.706 59.26 105.236 60.12 104.576 60.9C103.936 61.66 103.136 62.26 102.176 62.7C101.216 63.14 100.136 63.36 98.9359 63.36ZM113.362 63.36C111.662 63.36 110.312 62.78 109.312 61.62C108.332 60.44 107.842 58.73 107.842 56.49V48.12H111.742V56.13C111.742 57.41 111.982 58.39 112.462 59.07C112.962 59.73 113.682 60.06 114.622 60.06C115.682 60.06 116.502 59.69 117.082 58.95C117.662 58.19 117.952 57.14 117.952 55.8V48.12H121.852V63H117.952V60.81C117.512 61.59 116.912 62.21 116.152 62.67C115.392 63.13 114.462 63.36 113.362 63.36ZM124.285 63V48.12H128.185V50.4C128.565 49.64 129.055 49.05 129.655 48.63C130.255 48.19 130.945 47.97 131.725 47.97H133.615V51.45H131.335C130.615 51.45 130.015 51.64 129.535 52.02C129.075 52.4 128.735 52.97 128.515 53.73C128.295 54.49 128.185 55.43 128.185 56.55V63H124.285ZM140.137 63.36C139.017 63.36 138.047 63.16 137.227 62.76C136.427 62.36 135.817 61.82 135.397 61.14C134.977 60.46 134.767 59.71 134.767 58.89C134.767 57.33 135.327 56.13 136.447 55.29C137.567 54.43 139.037 54 140.857 54C141.717 54 142.457 54.06 143.077 54.18C143.697 54.3 144.207 54.43 144.607 54.57V53.85C144.607 52.81 144.307 52.05 143.707 51.57C143.127 51.09 142.367 50.85 141.427 50.85C140.767 50.85 140.177 50.99 139.657 51.27C139.137 51.53 138.807 52 138.667 52.68H134.977C135.097 51.62 135.457 50.73 136.057 50.01C136.657 49.27 137.417 48.71 138.337 48.33C139.277 47.95 140.307 47.76 141.427 47.76C143.647 47.76 145.377 48.29 146.617 49.35C147.877 50.41 148.507 51.91 148.507 53.85V57.21C148.507 57.97 148.547 58.53 148.627 58.89C148.727 59.25 148.877 59.48 149.077 59.58C149.277 59.68 149.547 59.73 149.887 59.73H150.007V63H149.167C148.107 63 147.227 62.86 146.527 62.58C145.827 62.3 145.317 61.75 144.997 60.93C144.497 61.63 143.837 62.21 143.017 62.67C142.197 63.13 141.237 63.36 140.137 63.36ZM141.007 60.39C141.647 60.39 142.187 60.25 142.627 59.97C143.087 59.67 143.467 59.27 143.767 58.77C144.067 58.25 144.277 57.69 144.397 57.09C143.977 56.97 143.487 56.86 142.927 56.76C142.387 56.64 141.837 56.58 141.277 56.58C140.497 56.58 139.867 56.76 139.387 57.12C138.927 57.46 138.697 57.94 138.697 58.56C138.697 59.1 138.897 59.54 139.297 59.88C139.717 60.22 140.287 60.39 141.007 60.39ZM159.533 52.53V42H163.373L166.793 50.97H165.293L169.073 42H172.613V52.53H169.943L169.883 43.65L170.753 43.62L167.003 52.53H164.993L161.363 43.62L162.113 43.65V52.53H159.533ZM152.423 52.53V44.34H149.753V42H157.973V44.34H155.303V52.53H152.423ZM43.4 123.36C41.34 123.36 39.53 122.91 37.97 122.01C36.41 121.09 35.19 119.82 34.31 118.2C33.45 116.56 33.02 114.66 33.02 112.5C33.02 110.36 33.45 108.48 34.31 106.86C35.19 105.22 36.41 103.94 37.97 103.02C39.53 102.1 41.34 101.64 43.4 101.64C45.48 101.64 47.29 102.1 48.83 103.02C50.39 103.94 51.6 105.22 52.46 106.86C53.34 108.48 53.78 110.36 53.78 112.5C53.78 114.66 53.34 116.56 52.46 118.2C51.6 119.82 50.39 121.09 48.83 122.01C47.29 122.91 45.48 123.36 43.4 123.36ZM43.4 120.96C44.92 120.96 46.25 120.63 47.39 119.97C48.53 119.29 49.42 118.32 50.06 117.06C50.7 115.78 51.02 114.26 51.02 112.5C51.02 110.74 50.7 109.23 50.06 107.97C49.42 106.71 48.53 105.74 47.39 105.06C46.25 104.38 44.92 104.04 43.4 104.04C41.9 104.04 40.57 104.38 39.41 105.06C38.27 105.74 37.38 106.71 36.74 107.97C36.12 109.23 35.81 110.74 35.81 112.5C35.81 114.26 36.12 115.78 36.74 117.06C37.38 118.32 38.27 119.29 39.41 119.97C40.57 120.63 41.9 120.96 43.4 120.96ZM61.58 123.36C59.96 123.36 58.64 122.82 57.62 121.74C56.6 120.66 56.09 119 56.09 116.76V108.12H58.79V116.49C58.79 118.01 59.09 119.15 59.69 119.91C60.31 120.67 61.16 121.05 62.24 121.05C63.5 121.05 64.49 120.6 65.21 119.7C65.93 118.78 66.29 117.49 66.29 115.83V108.12H68.99V123H66.29V120.6C65.85 121.46 65.22 122.14 64.4 122.64C63.6 123.12 62.66 123.36 61.58 123.36ZM72.4426 123V108.12H75.1426V110.46C75.4826 109.68 75.9426 109.08 76.5226 108.66C77.1026 108.22 77.8126 108 78.6526 108H80.8726V110.52H78.3826C77.7426 110.52 77.1726 110.7 76.6726 111.06C76.1926 111.42 75.8126 112 75.5326 112.8C75.2726 113.58 75.1426 114.62 75.1426 115.92V123H72.4426ZM93.0676 123V108.12H95.7676V110.58C96.2476 109.7 96.9276 109.01 97.8076 108.51C98.6876 108.01 99.6876 107.76 100.808 107.76C102.568 107.76 103.968 108.3 105.008 109.38C106.048 110.46 106.568 112.12 106.568 114.36V123H103.868V114.63C103.868 113.11 103.548 111.97 102.908 111.21C102.288 110.45 101.358 110.07 100.118 110.07C98.8576 110.07 97.8176 110.53 96.9976 111.45C96.1776 112.35 95.7676 113.63 95.7676 115.29V123H93.0676ZM116.688 123.36C115.248 123.36 113.968 123.04 112.848 122.4C111.748 121.74 110.878 120.83 110.238 119.67C109.618 118.51 109.308 117.15 109.308 115.59C109.308 114.01 109.618 112.64 110.238 111.48C110.858 110.3 111.728 109.39 112.848 108.75C113.968 108.09 115.258 107.76 116.718 107.76C118.178 107.76 119.428 108.09 120.468 108.75C121.528 109.39 122.338 110.24 122.898 111.3C123.478 112.36 123.768 113.52 123.768 114.78C123.768 114.98 123.768 115.2 123.768 115.44C123.768 115.66 123.758 115.9 123.738 116.16H111.318V114.18H121.098C121.038 112.88 120.588 111.86 119.748 111.12C118.928 110.38 117.898 110.01 116.658 110.01C115.818 110.01 115.038 110.2 114.318 110.58C113.598 110.94 113.018 111.49 112.578 112.23C112.158 112.95 111.948 113.85 111.948 114.93V115.74C111.948 116.92 112.168 117.91 112.608 118.71C113.048 119.51 113.628 120.11 114.348 120.51C115.068 120.91 115.838 121.11 116.658 121.11C117.658 121.11 118.498 120.88 119.178 120.42C119.858 119.96 120.358 119.33 120.678 118.53H123.348C123.088 119.43 122.658 120.25 122.058 120.99C121.458 121.73 120.698 122.31 119.778 122.73C118.878 123.15 117.848 123.36 116.688 123.36ZM131.834 123.36C130.214 123.36 128.894 122.82 127.874 121.74C126.854 120.66 126.344 119 126.344 116.76V108.12H129.044V116.49C129.044 118.01 129.344 119.15 129.944 119.91C130.564 120.67 131.414 121.05 132.494 121.05C133.754 121.05 134.744 120.6 135.464 119.7C136.184 118.78 136.544 117.49 136.544 115.83V108.12H139.244V123H136.544V120.6C136.104 121.46 135.474 122.14 134.654 122.64C133.854 123.12 132.914 123.36 131.834 123.36ZM142.696 123V108.12H145.396V110.46C145.736 109.68 146.196 109.08 146.776 108.66C147.356 108.22 148.066 108 148.906 108H151.126V110.52H148.636C147.996 110.52 147.426 110.7 146.926 111.06C146.446 111.42 146.066 112 145.786 112.8C145.526 113.58 145.396 114.62 145.396 115.92V123H142.696ZM158.188 123.36C156.988 123.36 155.978 123.16 155.158 122.76C154.338 122.34 153.718 121.79 153.298 121.11C152.898 120.41 152.698 119.67 152.698 118.89C152.698 117.27 153.278 116.04 154.438 115.2C155.618 114.34 157.158 113.91 159.058 113.91C159.898 113.91 160.658 113.97 161.338 114.09C162.018 114.21 162.578 114.35 163.018 114.51V113.85C163.018 112.57 162.678 111.61 161.998 110.97C161.338 110.31 160.448 109.98 159.328 109.98C158.408 109.98 157.608 110.17 156.928 110.55C156.268 110.93 155.858 111.57 155.698 112.47H152.998C153.118 111.41 153.478 110.53 154.078 109.83C154.698 109.13 155.468 108.61 156.388 108.27C157.308 107.93 158.288 107.76 159.328 107.76C161.448 107.76 163.038 108.32 164.098 109.44C165.178 110.54 165.718 112.01 165.718 113.85V118.32C165.718 119.04 165.758 119.57 165.838 119.91C165.938 120.25 166.098 120.46 166.318 120.54C166.538 120.62 166.838 120.66 167.218 120.66H167.428V123H166.858C165.878 123 165.078 122.84 164.458 122.52C163.838 122.2 163.418 121.56 163.198 120.6C162.738 121.38 162.098 122.04 161.278 122.58C160.478 123.1 159.448 123.36 158.188 123.36ZM158.608 121.17C159.488 121.17 160.238 120.95 160.858 120.51C161.498 120.07 161.998 119.49 162.358 118.77C162.718 118.05 162.918 117.29 162.958 116.49C162.498 116.35 161.938 116.23 161.278 116.13C160.618 116.01 159.958 115.95 159.298 115.95C157.938 115.95 156.948 116.22 156.328 116.76C155.728 117.28 155.428 117.94 155.428 118.74C155.428 119.44 155.698 120.02 156.238 120.48C156.798 120.94 157.588 121.17 158.608 121.17ZM170.119 123V101.4H172.819V123H170.119ZM185.646 123V108.12H188.346V110.58C188.826 109.7 189.506 109.01 190.386 108.51C191.266 108.01 192.266 107.76 193.386 107.76C195.146 107.76 196.546 108.3 197.586 109.38C198.626 110.46 199.146 112.12 199.146 114.36V123H196.446V114.63C196.446 113.11 196.126 111.97 195.486 111.21C194.866 110.45 193.936 110.07 192.696 110.07C191.436 110.07 190.396 110.53 189.576 111.45C188.756 112.35 188.346 113.63 188.346 115.29V123H185.646ZM209.266 123.36C207.826 123.36 206.546 123.04 205.426 122.4C204.326 121.74 203.456 120.83 202.816 119.67C202.196 118.51 201.886 117.15 201.886 115.59C201.886 114.01 202.196 112.64 202.816 111.48C203.436 110.3 204.306 109.39 205.426 108.75C206.546 108.09 207.836 107.76 209.296 107.76C210.756 107.76 212.006 108.09 213.046 108.75C214.106 109.39 214.916 110.24 215.476 111.3C216.056 112.36 216.346 113.52 216.346 114.78C216.346 114.98 216.346 115.2 216.346 115.44C216.346 115.66 216.336 115.9 216.316 116.16H203.896V114.18H213.676C213.616 112.88 213.166 111.86 212.326 111.12C211.506 110.38 210.476 110.01 209.236 110.01C208.396 110.01 207.616 110.2 206.896 110.58C206.176 110.94 205.596 111.49 205.156 112.23C204.736 112.95 204.526 113.85 204.526 114.93V115.74C204.526 116.92 204.746 117.91 205.186 118.71C205.626 119.51 206.206 120.11 206.926 120.51C207.646 120.91 208.416 121.11 209.236 121.11C210.236 121.11 211.076 120.88 211.756 120.42C212.436 119.96 212.936 119.33 213.256 118.53H215.926C215.666 119.43 215.236 120.25 214.636 120.99C214.036 121.73 213.276 122.31 212.356 122.73C211.456 123.15 210.426 123.36 209.266 123.36ZM224.053 123C223.213 123 222.503 122.9 221.923 122.7C221.343 122.48 220.903 122.08 220.603 121.5C220.323 120.92 220.183 120.1 220.183 119.04V110.4H217.603V108.12H220.183V104.49H222.883V108.12H227.083V110.4H222.883V118.62C222.883 119.26 222.933 119.73 223.033 120.03C223.133 120.33 223.343 120.52 223.663 120.6C223.983 120.66 224.443 120.69 225.043 120.69H226.873V123H224.053ZM233.578 123L229.228 108.12H231.928L235.318 120.9L234.628 120.87L238.498 108.12H241.558L245.428 120.87L244.738 120.9L248.128 108.12H250.828L246.478 123H243.718L239.668 109.68H240.388L236.338 123H233.578ZM259.516 123.36C258.056 123.36 256.746 123.04 255.586 122.4C254.426 121.74 253.516 120.83 252.856 119.67C252.196 118.49 251.866 117.12 251.866 115.56C251.866 113.98 252.196 112.61 252.856 111.45C253.536 110.29 254.456 109.39 255.616 108.75C256.796 108.09 258.116 107.76 259.576 107.76C261.036 107.76 262.346 108.09 263.506 108.75C264.666 109.39 265.576 110.29 266.236 111.45C266.896 112.61 267.226 113.98 267.226 115.56C267.226 117.12 266.886 118.49 266.206 119.67C265.546 120.83 264.636 121.74 263.476 122.4C262.316 123.04 260.996 123.36 259.516 123.36ZM259.516 121.05C260.416 121.05 261.236 120.85 261.976 120.45C262.736 120.03 263.336 119.41 263.776 118.59C264.236 117.77 264.466 116.76 264.466 115.56C264.466 114.34 264.236 113.33 263.776 112.53C263.336 111.71 262.746 111.1 262.006 110.7C261.266 110.28 260.456 110.07 259.576 110.07C258.696 110.07 257.876 110.28 257.116 110.7C256.376 111.12 255.776 111.73 255.316 112.53C254.856 113.33 254.626 114.34 254.626 115.56C254.626 116.76 254.846 117.77 255.286 118.59C255.746 119.41 256.346 120.03 257.086 120.45C257.826 120.85 258.636 121.05 259.516 121.05ZM269.991 123V108.12H272.691V110.46C273.031 109.68 273.491 109.08 274.071 108.66C274.651 108.22 275.361 108 276.201 108H278.421V110.52H275.931C275.291 110.52 274.721 110.7 274.221 111.06C273.741 111.42 273.361 112 273.081 112.8C272.821 113.58 272.691 114.62 272.691 115.92V123H269.991ZM283.697 118.02L282.917 115.74L290.657 108.12H293.957L283.697 118.02ZM281.327 123V101.4H284.027V123H281.327ZM291.377 123L285.227 115.08L286.937 113.31L294.797 123H291.377ZM33.68 159.6V138.12H36.38V140.55C36.86 139.83 37.54 139.19 38.42 138.63C39.3 138.05 40.42 137.76 41.78 137.76C43.24 137.76 44.52 138.1 45.62 138.78C46.72 139.46 47.58 140.39 48.2 141.57C48.82 142.75 49.13 144.09 49.13 145.59C49.13 147.09 48.82 148.43 48.2 149.61C47.58 150.77 46.72 151.69 45.62 152.37C44.52 153.03 43.23 153.36 41.75 153.36C40.53 153.36 39.46 153.12 38.54 152.64C37.62 152.14 36.9 151.45 36.38 150.57V159.6H33.68ZM41.39 151.02C42.37 151.02 43.23 150.79 43.97 150.33C44.73 149.87 45.32 149.23 45.74 148.41C46.18 147.59 46.4 146.64 46.4 145.56C46.4 144.48 46.18 143.53 45.74 142.71C45.32 141.89 44.73 141.25 43.97 140.79C43.23 140.33 42.37 140.1 41.39 140.1C40.43 140.1 39.57 140.33 38.81 140.79C38.07 141.25 37.49 141.89 37.07 142.71C36.65 143.53 36.44 144.48 36.44 145.56C36.44 146.64 36.65 147.59 37.07 148.41C37.49 149.23 38.07 149.87 38.81 150.33C39.57 150.79 40.43 151.02 41.39 151.02ZM51.8769 153V131.4H54.5769V153H51.8769ZM62.9443 153.36C61.7443 153.36 60.7343 153.16 59.9143 152.76C59.0943 152.34 58.4743 151.79 58.0543 151.11C57.6543 150.41 57.4543 149.67 57.4543 148.89C57.4543 147.27 58.0343 146.04 59.1943 145.2C60.3743 144.34 61.9143 143.91 63.8143 143.91C64.6543 143.91 65.4143 143.97 66.0943 144.09C66.7743 144.21 67.3343 144.35 67.7743 144.51V143.85C67.7743 142.57 67.4343 141.61 66.7543 140.97C66.0943 140.31 65.2043 139.98 64.0843 139.98C63.1643 139.98 62.3643 140.17 61.6843 140.55C61.0243 140.93 60.6143 141.57 60.4543 142.47H57.7543C57.8743 141.41 58.2343 140.53 58.8343 139.83C59.4543 139.13 60.2243 138.61 61.1443 138.27C62.0643 137.93 63.0443 137.76 64.0843 137.76C66.2043 137.76 67.7943 138.32 68.8543 139.44C69.9343 140.54 70.4743 142.01 70.4743 143.85V148.32C70.4743 149.04 70.5143 149.57 70.5943 149.91C70.6943 150.25 70.8543 150.46 71.0743 150.54C71.2943 150.62 71.5943 150.66 71.9743 150.66H72.1843V153H71.6143C70.6343 153 69.8343 152.84 69.2143 152.52C68.5943 152.2 68.1743 151.56 67.9543 150.6C67.4943 151.38 66.8543 152.04 66.0343 152.58C65.2343 153.1 64.2043 153.36 62.9443 153.36ZM63.3643 151.17C64.2443 151.17 64.9943 150.95 65.6143 150.51C66.2543 150.07 66.7543 149.49 67.1143 148.77C67.4743 148.05 67.6743 147.29 67.7143 146.49C67.2543 146.35 66.6943 146.23 66.0343 146.13C65.3743 146.01 64.7143 145.95 64.0543 145.95C62.6943 145.95 61.7043 146.22 61.0843 146.76C60.4843 147.28 60.1843 147.94 60.1843 148.74C60.1843 149.44 60.4543 150.02 60.9943 150.48C61.5543 150.94 62.3443 151.17 63.3643 151.17ZM79.3269 153C78.4869 153 77.7769 152.9 77.1969 152.7C76.6169 152.48 76.1769 152.08 75.8769 151.5C75.5969 150.92 75.4569 150.1 75.4569 149.04V140.4H72.8769V138.12H75.4569V134.49H78.1569V138.12H82.3569V140.4H78.1569V148.62C78.1569 149.26 78.2069 149.73 78.3069 150.03C78.4069 150.33 78.6169 150.52 78.9369 150.6C79.2569 150.66 79.7169 150.69 80.3169 150.69H82.1469V153H79.3269ZM86.0309 153V135.51C86.0309 134.41 86.1709 133.57 86.4509 132.99C86.7309 132.39 87.1809 131.98 87.8009 131.76C88.4409 131.52 89.2809 131.4 90.3209 131.4H91.9409V133.71H90.8009C89.9609 133.71 89.4009 133.84 89.1209 134.1C88.8609 134.34 88.7309 134.88 88.7309 135.72V153H86.0309ZM83.8409 140.4V138.12H91.9409V140.4H83.8409ZM101.167 153.36C99.7066 153.36 98.3966 153.04 97.2366 152.4C96.0766 151.74 95.1666 150.83 94.5066 149.67C93.8466 148.49 93.5166 147.12 93.5166 145.56C93.5166 143.98 93.8466 142.61 94.5066 141.45C95.1866 140.29 96.1066 139.39 97.2666 138.75C98.4466 138.09 99.7666 137.76 101.227 137.76C102.687 137.76 103.997 138.09 105.157 138.75C106.317 139.39 107.227 140.29 107.887 141.45C108.547 142.61 108.877 143.98 108.877 145.56C108.877 147.12 108.537 148.49 107.857 149.67C107.197 150.83 106.287 151.74 105.127 152.4C103.967 153.04 102.647 153.36 101.167 153.36ZM101.167 151.05C102.067 151.05 102.887 150.85 103.627 150.45C104.387 150.03 104.987 149.41 105.427 148.59C105.887 147.77 106.117 146.76 106.117 145.56C106.117 144.34 105.887 143.33 105.427 142.53C104.987 141.71 104.397 141.1 103.657 140.7C102.917 140.28 102.107 140.07 101.227 140.07C100.347 140.07 99.5266 140.28 98.7666 140.7C98.0266 141.12 97.4266 141.73 96.9666 142.53C96.5066 143.33 96.2766 144.34 96.2766 145.56C96.2766 146.76 96.4966 147.77 96.9366 148.59C97.3966 149.41 97.9966 150.03 98.7366 150.45C99.4766 150.85 100.287 151.05 101.167 151.05ZM111.642 153V138.12H114.342V140.46C114.682 139.68 115.142 139.08 115.722 138.66C116.302 138.22 117.012 138 117.852 138H120.072V140.52H117.582C116.942 140.52 116.372 140.7 115.872 141.06C115.392 141.42 115.012 142 114.732 142.8C114.472 143.58 114.342 144.62 114.342 145.92V153H111.642ZM123.128 153V138.12H125.828V140.16C126.308 139.4 126.938 138.81 127.718 138.39C128.518 137.97 129.408 137.76 130.388 137.76C131.548 137.76 132.558 138 133.418 138.48C134.278 138.96 134.928 139.68 135.368 140.64C135.888 139.74 136.598 139.04 137.498 138.54C138.418 138.02 139.408 137.76 140.468 137.76C142.268 137.76 143.698 138.3 144.758 139.38C145.838 140.46 146.378 142.12 146.378 144.36V153H143.678V144.63C143.678 143.11 143.378 141.97 142.778 141.21C142.178 140.45 141.298 140.07 140.138 140.07C138.978 140.07 138.008 140.53 137.228 141.45C136.468 142.35 136.088 143.63 136.088 145.29V153H133.418V144.63C133.418 143.11 133.108 141.97 132.488 141.21C131.888 140.45 131.018 140.07 129.878 140.07C128.718 140.07 127.748 140.53 126.968 141.45C126.208 142.35 125.828 143.63 125.828 145.29V153H123.128ZM164.229 153C163.389 153 162.679 152.9 162.099 152.7C161.519 152.48 161.079 152.08 160.779 151.5C160.499 150.92 160.359 150.1 160.359 149.04V140.4H157.779V138.12H160.359V134.49H163.059V138.12H167.259V140.4H163.059V148.62C163.059 149.26 163.109 149.73 163.209 150.03C163.309 150.33 163.519 150.52 163.839 150.6C164.159 150.66 164.619 150.69 165.219 150.69H167.049V153H164.229ZM169.823 153V131.4H172.523V140.64C173.023 139.74 173.723 139.04 174.623 138.54C175.543 138.02 176.543 137.76 177.623 137.76C179.363 137.76 180.743 138.3 181.763 139.38C182.803 140.46 183.323 142.12 183.323 144.36V153H180.653V144.63C180.653 143.11 180.343 141.97 179.723 141.21C179.123 140.45 178.213 140.07 176.993 140.07C175.733 140.07 174.673 140.53 173.813 141.45C172.953 142.35 172.523 143.63 172.523 145.29V153H169.823ZM191.733 153.36C190.533 153.36 189.523 153.16 188.703 152.76C187.883 152.34 187.263 151.79 186.843 151.11C186.443 150.41 186.243 149.67 186.243 148.89C186.243 147.27 186.823 146.04 187.983 145.2C189.163 144.34 190.703 143.91 192.603 143.91C193.443 143.91 194.203 143.97 194.883 144.09C195.563 144.21 196.123 144.35 196.563 144.51V143.85C196.563 142.57 196.223 141.61 195.543 140.97C194.883 140.31 193.993 139.98 192.873 139.98C191.953 139.98 191.153 140.17 190.473 140.55C189.813 140.93 189.403 141.57 189.243 142.47H186.543C186.663 141.41 187.023 140.53 187.623 139.83C188.243 139.13 189.013 138.61 189.933 138.27C190.853 137.93 191.833 137.76 192.873 137.76C194.993 137.76 196.583 138.32 197.643 139.44C198.723 140.54 199.263 142.01 199.263 143.85V148.32C199.263 149.04 199.303 149.57 199.383 149.91C199.483 150.25 199.643 150.46 199.863 150.54C200.083 150.62 200.383 150.66 200.763 150.66H200.973V153H200.403C199.423 153 198.623 152.84 198.003 152.52C197.383 152.2 196.963 151.56 196.743 150.6C196.283 151.38 195.643 152.04 194.823 152.58C194.023 153.1 192.993 153.36 191.733 153.36ZM192.153 151.17C193.033 151.17 193.783 150.95 194.403 150.51C195.043 150.07 195.543 149.49 195.903 148.77C196.263 148.05 196.463 147.29 196.503 146.49C196.043 146.35 195.483 146.23 194.823 146.13C194.163 146.01 193.503 145.95 192.843 145.95C191.483 145.95 190.493 146.22 189.873 146.76C189.273 147.28 188.973 147.94 188.973 148.74C188.973 149.44 189.243 150.02 189.783 150.48C190.343 150.94 191.133 151.17 192.153 151.17ZM208.116 153C207.276 153 206.566 152.9 205.986 152.7C205.406 152.48 204.966 152.08 204.666 151.5C204.386 150.92 204.246 150.1 204.246 149.04V140.4H201.666V138.12H204.246V134.49H206.946V138.12H211.146V140.4H206.946V148.62C206.946 149.26 206.996 149.73 207.096 150.03C207.196 150.33 207.406 150.52 207.726 150.6C208.046 150.66 208.506 150.69 209.106 150.69H210.936V153H208.116ZM40.43 183.36C39.01 183.36 37.73 183.03 36.59 182.37C35.47 181.71 34.58 180.8 33.92 179.64C33.26 178.46 32.93 177.1 32.93 175.56C32.93 174 33.26 172.64 33.92 171.48C34.58 170.32 35.47 169.41 36.59 168.75C37.73 168.09 39.01 167.76 40.43 167.76C42.23 167.76 43.73 168.23 44.93 169.17C46.15 170.09 46.93 171.33 47.27 172.89H44.48C44.28 172.01 43.8 171.32 43.04 170.82C42.3 170.32 41.43 170.07 40.43 170.07C39.61 170.07 38.83 170.28 38.09 170.7C37.37 171.12 36.79 171.74 36.35 172.56C35.91 173.36 35.69 174.36 35.69 175.56C35.69 176.74 35.91 177.74 36.35 178.56C36.79 179.38 37.37 180 38.09 180.42C38.83 180.84 39.61 181.05 40.43 181.05C41.43 181.05 42.3 180.81 43.04 180.33C43.8 179.83 44.28 179.13 44.48 178.23H47.27C46.95 179.75 46.18 180.99 44.96 181.95C43.74 182.89 42.23 183.36 40.43 183.36ZM57.0455 183.36C55.5855 183.36 54.2755 183.04 53.1155 182.4C51.9555 181.74 51.0455 180.83 50.3855 179.67C49.7255 178.49 49.3955 177.12 49.3955 175.56C49.3955 173.98 49.7255 172.61 50.3855 171.45C51.0655 170.29 51.9855 169.39 53.1455 168.75C54.3255 168.09 55.6455 167.76 57.1055 167.76C58.5655 167.76 59.8755 168.09 61.0355 168.75C62.1955 169.39 63.1055 170.29 63.7655 171.45C64.4255 172.61 64.7555 173.98 64.7555 175.56C64.7555 177.12 64.4155 178.49 63.7355 179.67C63.0755 180.83 62.1655 181.74 61.0055 182.4C59.8455 183.04 58.5255 183.36 57.0455 183.36ZM57.0455 181.05C57.9455 181.05 58.7655 180.85 59.5055 180.45C60.2655 180.03 60.8655 179.41 61.3055 178.59C61.7655 177.77 61.9955 176.76 61.9955 175.56C61.9955 174.34 61.7655 173.33 61.3055 172.53C60.8655 171.71 60.2755 171.1 59.5355 170.7C58.7955 170.28 57.9855 170.07 57.1055 170.07C56.2255 170.07 55.4055 170.28 54.6455 170.7C53.9055 171.12 53.3055 171.73 52.8455 172.53C52.3855 173.33 52.1555 174.34 52.1555 175.56C52.1555 176.76 52.3755 177.77 52.8155 178.59C53.2755 179.41 53.8755 180.03 54.6155 180.45C55.3555 180.85 56.1655 181.05 57.0455 181.05ZM67.5207 183V168.12H70.2207V170.58C70.7007 169.7 71.3807 169.01 72.2607 168.51C73.1407 168.01 74.1407 167.76 75.2607 167.76C77.0207 167.76 78.4207 168.3 79.4607 169.38C80.5007 170.46 81.0207 172.12 81.0207 174.36V183H78.3207V174.63C78.3207 173.11 78.0007 171.97 77.3607 171.21C76.7407 170.45 75.8107 170.07 74.5707 170.07C73.3107 170.07 72.2707 170.53 71.4507 171.45C70.6307 172.35 70.2207 173.63 70.2207 175.29V183H67.5207ZM89.1413 183C88.3013 183 87.5913 182.9 87.0113 182.7C86.4313 182.48 85.9913 182.08 85.6913 181.5C85.4113 180.92 85.2713 180.1 85.2713 179.04V170.4H82.6913V168.12H85.2713V164.49H87.9713V168.12H92.1713V170.4H87.9713V178.62C87.9713 179.26 88.0213 179.73 88.1213 180.03C88.2213 180.33 88.4313 180.52 88.7513 180.6C89.0713 180.66 89.5313 180.69 90.1313 180.69H91.9613V183H89.1413ZM94.8854 183V168.12H97.5854V183H94.8854ZM94.5854 165.27V161.97H97.8554V165.27H94.5854ZM101.183 183V168.12H103.883V170.58C104.363 169.7 105.043 169.01 105.923 168.51C106.803 168.01 107.803 167.76 108.923 167.76C110.683 167.76 112.083 168.3 113.123 169.38C114.163 170.46 114.683 172.12 114.683 174.36V183H111.983V174.63C111.983 173.11 111.663 171.97 111.023 171.21C110.403 170.45 109.473 170.07 108.233 170.07C106.973 170.07 105.933 170.53 105.113 171.45C104.293 172.35 103.883 173.63 103.883 175.29V183H101.183ZM123.543 183.36C121.923 183.36 120.603 182.82 119.583 181.74C118.563 180.66 118.053 179 118.053 176.76V168.12H120.753V176.49C120.753 178.01 121.053 179.15 121.653 179.91C122.273 180.67 123.123 181.05 124.203 181.05C125.463 181.05 126.453 180.6 127.173 179.7C127.893 178.78 128.253 177.49 128.253 175.83V168.12H130.953V183H128.253V180.6C127.813 181.46 127.183 182.14 126.363 182.64C125.563 183.12 124.623 183.36 123.543 183.36ZM141.215 183.36C139.755 183.36 138.445 183.04 137.285 182.4C136.125 181.74 135.215 180.83 134.555 179.67C133.895 178.49 133.565 177.12 133.565 175.56C133.565 173.98 133.895 172.61 134.555 171.45C135.235 170.29 136.155 169.39 137.315 168.75C138.495 168.09 139.815 167.76 141.275 167.76C142.735 167.76 144.045 168.09 145.205 168.75C146.365 169.39 147.275 170.29 147.935 171.45C148.595 172.61 148.925 173.98 148.925 175.56C148.925 177.12 148.585 178.49 147.905 179.67C147.245 180.83 146.335 181.74 145.175 182.4C144.015 183.04 142.695 183.36 141.215 183.36ZM141.215 181.05C142.115 181.05 142.935 180.85 143.675 180.45C144.435 180.03 145.035 179.41 145.475 178.59C145.935 177.77 146.165 176.76 146.165 175.56C146.165 174.34 145.935 173.33 145.475 172.53C145.035 171.71 144.445 171.1 143.705 170.7C142.965 170.28 142.155 170.07 141.275 170.07C140.395 170.07 139.575 170.28 138.815 170.7C138.075 171.12 137.475 171.73 137.015 172.53C136.555 173.33 136.325 174.34 136.325 175.56C136.325 176.76 136.545 177.77 136.985 178.59C137.445 179.41 138.045 180.03 138.785 180.45C139.525 180.85 140.335 181.05 141.215 181.05ZM156.971 183.36C155.351 183.36 154.031 182.82 153.011 181.74C151.991 180.66 151.481 179 151.481 176.76V168.12H154.181V176.49C154.181 178.01 154.481 179.15 155.081 179.91C155.701 180.67 156.551 181.05 157.631 181.05C158.891 181.05 159.881 180.6 160.601 179.7C161.321 178.78 161.681 177.49 161.681 175.83V168.12H164.381V183H161.681V180.6C161.241 181.46 160.611 182.14 159.791 182.64C158.991 183.12 158.051 183.36 156.971 183.36ZM173.477 183.36C171.657 183.36 170.137 182.94 168.917 182.1C167.697 181.24 166.987 179.99 166.787 178.35H169.577C169.737 179.21 170.167 179.89 170.867 180.39C171.567 180.89 172.467 181.14 173.567 181.14C174.607 181.14 175.407 180.92 175.967 180.48C176.527 180.04 176.807 179.48 176.807 178.8C176.807 178.3 176.627 177.92 176.267 177.66C175.927 177.38 175.287 177.16 174.347 177C173.967 176.92 173.557 176.84 173.117 176.76C172.697 176.68 172.297 176.61 171.917 176.55C171.237 176.41 170.557 176.18 169.877 175.86C169.217 175.54 168.667 175.09 168.227 174.51C167.787 173.93 167.567 173.18 167.567 172.26C167.567 170.98 168.057 169.91 169.037 169.05C170.017 168.19 171.357 167.76 173.057 167.76C174.697 167.76 176.057 168.14 177.137 168.9C178.217 169.64 178.827 170.8 178.967 172.38H176.297C176.217 171.52 175.867 170.91 175.247 170.55C174.647 170.17 173.907 169.98 173.027 169.98C172.167 169.98 171.457 170.17 170.897 170.55C170.357 170.93 170.087 171.43 170.087 172.05C170.087 173.13 170.897 173.83 172.517 174.15C172.757 174.17 173.007 174.21 173.267 174.27C173.547 174.31 173.827 174.36 174.107 174.42C174.387 174.46 174.637 174.5 174.857 174.54C175.337 174.62 175.837 174.74 176.357 174.9C176.877 175.04 177.367 175.26 177.827 175.56C178.287 175.84 178.657 176.23 178.937 176.73C179.237 177.21 179.387 177.83 179.387 178.59C179.387 179.51 179.147 180.33 178.667 181.05C178.187 181.77 177.507 182.34 176.627 182.76C175.747 183.16 174.697 183.36 173.477 183.36ZM182.57 183V161.4H185.27V183H182.57ZM188.126 189.6V187.38H191.156C191.436 187.38 191.666 187.33 191.846 187.23C192.046 187.15 192.236 186.96 192.416 186.66C192.596 186.36 192.816 185.91 193.076 185.31L194.756 181.62L194.516 183.03L188.006 168.12H190.916L195.746 179.55L200.846 168.12H203.666L195.596 186.03C195.236 186.83 194.926 187.47 194.666 187.95C194.406 188.43 194.156 188.78 193.916 189C193.696 189.24 193.436 189.4 193.136 189.48C192.856 189.56 192.486 189.6 192.026 189.6H188.126ZM33.86 213V198.12H36.56V213H33.86ZM33.56 195.27V191.97H36.83V195.27H33.56ZM46.6674 213.36C45.1874 213.36 43.8974 213.02 42.7974 212.34C41.6974 211.66 40.8374 210.73 40.2174 209.55C39.5974 208.37 39.2874 207.03 39.2874 205.53C39.2874 204.03 39.5974 202.7 40.2174 201.54C40.8374 200.36 41.6974 199.44 42.7974 198.78C43.9174 198.1 45.2074 197.76 46.6674 197.76C47.8874 197.76 48.9574 198.01 49.8774 198.51C50.8174 198.99 51.5374 199.67 52.0374 200.55V191.4H54.7374V213H52.0374V210.57C51.5574 211.29 50.8774 211.94 49.9974 212.52C49.1374 213.08 48.0274 213.36 46.6674 213.36ZM47.0274 211.02C48.0074 211.02 48.8674 210.79 49.6074 210.33C50.3474 209.87 50.9274 209.23 51.3474 208.41C51.7674 207.59 51.9774 206.64 51.9774 205.56C51.9774 204.48 51.7674 203.53 51.3474 202.71C50.9274 201.89 50.3474 201.25 49.6074 200.79C48.8674 200.33 48.0074 200.1 47.0274 200.1C46.0674 200.1 45.2074 200.33 44.4474 200.79C43.6874 201.25 43.0974 201.89 42.6774 202.71C42.2574 203.51 42.0474 204.46 42.0474 205.56C42.0474 206.64 42.2574 207.59 42.6774 208.41C43.0974 209.23 43.6874 209.87 44.4474 210.33C45.2074 210.79 46.0674 211.02 47.0274 211.02ZM64.7443 213.36C63.3043 213.36 62.0243 213.04 60.9043 212.4C59.8043 211.74 58.9343 210.83 58.2943 209.67C57.6743 208.51 57.3643 207.15 57.3643 205.59C57.3643 204.01 57.6743 202.64 58.2943 201.48C58.9143 200.3 59.7843 199.39 60.9043 198.75C62.0243 198.09 63.3143 197.76 64.7743 197.76C66.2343 197.76 67.4843 198.09 68.5243 198.75C69.5843 199.39 70.3943 200.24 70.9543 201.3C71.5343 202.36 71.8243 203.52 71.8243 204.78C71.8243 204.98 71.8243 205.2 71.8243 205.44C71.8243 205.66 71.8143 205.9 71.7943 206.16H59.3743V204.18H69.1543C69.0943 202.88 68.6443 201.86 67.8043 201.12C66.9843 200.38 65.9543 200.01 64.7143 200.01C63.8743 200.01 63.0943 200.2 62.3743 200.58C61.6543 200.94 61.0743 201.49 60.6343 202.23C60.2143 202.95 60.0043 203.85 60.0043 204.93V205.74C60.0043 206.92 60.2243 207.91 60.6643 208.71C61.1043 209.51 61.6843 210.11 62.4043 210.51C63.1243 210.91 63.8943 211.11 64.7143 211.11C65.7143 211.11 66.5543 210.88 67.2343 210.42C67.9143 209.96 68.4143 209.33 68.7343 208.53H71.4043C71.1443 209.43 70.7143 210.25 70.1143 210.99C69.5143 211.73 68.7543 212.31 67.8343 212.73C66.9343 213.15 65.9043 213.36 64.7443 213.36ZM74.9035 213V198.12H77.6035V200.58C78.0835 199.7 78.7635 199.01 79.6435 198.51C80.5235 198.01 81.5235 197.76 82.6435 197.76C84.4035 197.76 85.8035 198.3 86.8435 199.38C87.8835 200.46 88.4035 202.12 88.4035 204.36V213H85.7035V204.63C85.7035 203.11 85.3835 201.97 84.7435 201.21C84.1235 200.45 83.1935 200.07 81.9535 200.07C80.6935 200.07 79.6535 200.53 78.8335 201.45C78.0135 202.35 77.6035 203.63 77.6035 205.29V213H74.9035ZM96.5241 213C95.6841 213 94.9741 212.9 94.3941 212.7C93.8141 212.48 93.3741 212.08 93.0741 211.5C92.7941 210.92 92.6541 210.1 92.6541 209.04V200.4H90.0741V198.12H92.6541V194.49H95.3541V198.12H99.5541V200.4H95.3541V208.62C95.3541 209.26 95.4041 209.73 95.5041 210.03C95.6041 210.33 95.8141 210.52 96.1341 210.6C96.4541 210.66 96.9141 210.69 97.5141 210.69H99.3441V213H96.5241ZM102.268 213V198.12H104.968V213H102.268ZM101.968 195.27V191.97H105.238V195.27H101.968ZM109.616 213V200.4H107.426V198.12H109.616V195.51C109.616 194.41 109.756 193.57 110.036 192.99C110.316 192.39 110.766 191.98 111.386 191.76C112.026 191.52 112.866 191.4 113.906 191.4H115.526V193.71H114.386C113.546 193.71 112.986 193.84 112.706 194.1C112.446 194.34 112.316 194.88 112.316 195.72V198.12H121.256V213H118.556V200.4H112.316V213H109.616ZM118.106 195.33V191.79H121.766V195.33H118.106ZM131.6 213.36C130.16 213.36 128.88 213.04 127.76 212.4C126.66 211.74 125.79 210.83 125.15 209.67C124.53 208.51 124.22 207.15 124.22 205.59C124.22 204.01 124.53 202.64 125.15 201.48C125.77 200.3 126.64 199.39 127.76 198.75C128.88 198.09 130.17 197.76 131.63 197.76C133.09 197.76 134.34 198.09 135.38 198.75C136.44 199.39 137.25 200.24 137.81 201.3C138.39 202.36 138.68 203.52 138.68 204.78C138.68 204.98 138.68 205.2 138.68 205.44C138.68 205.66 138.67 205.9 138.65 206.16H126.23V204.18H136.01C135.95 202.88 135.5 201.86 134.66 201.12C133.84 200.38 132.81 200.01 131.57 200.01C130.73 200.01 129.95 200.2 129.23 200.58C128.51 200.94 127.93 201.49 127.49 202.23C127.07 202.95 126.86 203.85 126.86 204.93V205.74C126.86 206.92 127.08 207.91 127.52 208.71C127.96 209.51 128.54 210.11 129.26 210.51C129.98 210.91 130.75 211.11 131.57 211.11C132.57 211.11 133.41 210.88 134.09 210.42C134.77 209.96 135.27 209.33 135.59 208.53H138.26C138 209.43 137.57 210.25 136.97 210.99C136.37 211.73 135.61 212.31 134.69 212.73C133.79 213.15 132.76 213.36 131.6 213.36ZM146.641 213.36C144.821 213.36 143.301 212.94 142.081 212.1C140.861 211.24 140.151 209.99 139.951 208.35H142.741C142.901 209.21 143.331 209.89 144.031 210.39C144.731 210.89 145.631 211.14 146.731 211.14C147.771 211.14 148.571 210.92 149.131 210.48C149.691 210.04 149.971 209.48 149.971 208.8C149.971 208.3 149.791 207.92 149.431 207.66C149.091 207.38 148.451 207.16 147.511 207C147.131 206.92 146.721 206.84 146.281 206.76C145.861 206.68 145.461 206.61 145.081 206.55C144.401 206.41 143.721 206.18 143.041 205.86C142.381 205.54 141.831 205.09 141.391 204.51C140.951 203.93 140.731 203.18 140.731 202.26C140.731 200.98 141.221 199.91 142.201 199.05C143.181 198.19 144.521 197.76 146.221 197.76C147.861 197.76 149.221 198.14 150.301 198.9C151.381 199.64 151.991 200.8 152.131 202.38H149.461C149.381 201.52 149.031 200.91 148.411 200.55C147.811 200.17 147.071 199.98 146.191 199.98C145.331 199.98 144.621 200.17 144.061 200.55C143.521 200.93 143.251 201.43 143.251 202.05C143.251 203.13 144.061 203.83 145.681 204.15C145.921 204.17 146.171 204.21 146.431 204.27C146.711 204.31 146.991 204.36 147.271 204.42C147.551 204.46 147.801 204.5 148.021 204.54C148.501 204.62 149.001 204.74 149.521 204.9C150.041 205.04 150.531 205.26 150.991 205.56C151.451 205.84 151.821 206.23 152.101 206.73C152.401 207.21 152.551 207.83 152.551 208.59C152.551 209.51 152.311 210.33 151.831 211.05C151.351 211.77 150.671 212.34 149.791 212.76C148.911 213.16 147.861 213.36 146.641 213.36ZM169.644 213.36C168.444 213.36 167.434 213.16 166.614 212.76C165.794 212.34 165.174 211.79 164.754 211.11C164.354 210.41 164.154 209.67 164.154 208.89C164.154 207.27 164.734 206.04 165.894 205.2C167.074 204.34 168.614 203.91 170.514 203.91C171.354 203.91 172.114 203.97 172.794 204.09C173.474 204.21 174.034 204.35 174.474 204.51V203.85C174.474 202.57 174.134 201.61 173.454 200.97C172.794 200.31 171.904 199.98 170.784 199.98C169.864 199.98 169.064 200.17 168.384 200.55C167.724 200.93 167.314 201.57 167.154 202.47H164.454C164.574 201.41 164.934 200.53 165.534 199.83C166.154 199.13 166.924 198.61 167.844 198.27C168.764 197.93 169.744 197.76 170.784 197.76C172.904 197.76 174.494 198.32 175.554 199.44C176.634 200.54 177.174 202.01 177.174 203.85V208.32C177.174 209.04 177.214 209.57 177.294 209.91C177.394 210.25 177.554 210.46 177.774 210.54C177.994 210.62 178.294 210.66 178.674 210.66H178.884V213H178.314C177.334 213 176.534 212.84 175.914 212.52C175.294 212.2 174.874 211.56 174.654 210.6C174.194 211.38 173.554 212.04 172.734 212.58C171.934 213.1 170.904 213.36 169.644 213.36ZM170.064 211.17C170.944 211.17 171.694 210.95 172.314 210.51C172.954 210.07 173.454 209.49 173.814 208.77C174.174 208.05 174.374 207.29 174.414 206.49C173.954 206.35 173.394 206.23 172.734 206.13C172.074 206.01 171.414 205.95 170.754 205.95C169.394 205.95 168.404 206.22 167.784 206.76C167.184 207.28 166.884 207.94 166.884 208.74C166.884 209.44 167.154 210.02 167.694 210.48C168.254 210.94 169.044 211.17 170.064 211.17ZM186.824 213.36C185.204 213.36 183.884 212.82 182.864 211.74C181.844 210.66 181.334 209 181.334 206.76V198.12H184.034V206.49C184.034 208.01 184.334 209.15 184.934 209.91C185.554 210.67 186.404 211.05 187.484 211.05C188.744 211.05 189.734 210.6 190.454 209.7C191.174 208.78 191.534 207.49 191.534 205.83V198.12H194.234V213H191.534V210.6C191.094 211.46 190.464 212.14 189.644 212.64C188.844 213.12 187.904 213.36 186.824 213.36ZM204.197 213.36C202.717 213.36 201.427 213.02 200.327 212.34C199.227 211.66 198.367 210.73 197.747 209.55C197.127 208.37 196.817 207.03 196.817 205.53C196.817 204.03 197.127 202.7 197.747 201.54C198.367 200.36 199.227 199.44 200.327 198.78C201.447 198.1 202.737 197.76 204.197 197.76C205.417 197.76 206.487 198.01 207.407 198.51C208.347 198.99 209.067 199.67 209.567 200.55V191.4H212.267V213H209.567V210.57C209.087 211.29 208.407 211.94 207.527 212.52C206.667 213.08 205.557 213.36 204.197 213.36ZM204.557 211.02C205.537 211.02 206.397 210.79 207.137 210.33C207.877 209.87 208.457 209.23 208.877 208.41C209.297 207.59 209.507 206.64 209.507 205.56C209.507 204.48 209.297 203.53 208.877 202.71C208.457 201.89 207.877 201.25 207.137 200.79C206.397 200.33 205.537 200.1 204.557 200.1C203.597 200.1 202.737 200.33 201.977 200.79C201.217 201.25 200.627 201.89 200.207 202.71C199.787 203.51 199.577 204.46 199.577 205.56C199.577 206.64 199.787 207.59 200.207 208.41C200.627 209.23 201.217 209.87 201.977 210.33C202.737 210.79 203.597 211.02 204.557 211.02ZM215.794 213V198.12H218.494V213H215.794ZM215.494 195.27V191.97H218.764V195.27H215.494ZM228.631 213.36C227.191 213.36 225.911 213.04 224.791 212.4C223.691 211.74 222.821 210.83 222.181 209.67C221.561 208.51 221.251 207.15 221.251 205.59C221.251 204.01 221.561 202.64 222.181 201.48C222.801 200.3 223.671 199.39 224.791 198.75C225.911 198.09 227.201 197.76 228.661 197.76C230.121 197.76 231.371 198.09 232.411 198.75C233.471 199.39 234.281 200.24 234.841 201.3C235.421 202.36 235.711 203.52 235.711 204.78C235.711 204.98 235.711 205.2 235.711 205.44C235.711 205.66 235.701 205.9 235.681 206.16H223.261V204.18H233.041C232.981 202.88 232.531 201.86 231.691 201.12C230.871 200.38 229.841 200.01 228.601 200.01C227.761 200.01 226.981 200.2 226.261 200.58C225.541 200.94 224.961 201.49 224.521 202.23C224.101 202.95 223.891 203.85 223.891 204.93V205.74C223.891 206.92 224.111 207.91 224.551 208.71C224.991 209.51 225.571 210.11 226.291 210.51C227.011 210.91 227.781 211.11 228.601 211.11C229.601 211.11 230.441 210.88 231.121 210.42C231.801 209.96 232.301 209.33 232.621 208.53H235.291C235.031 209.43 234.601 210.25 234.001 210.99C233.401 211.73 232.641 212.31 231.721 212.73C230.821 213.15 229.791 213.36 228.631 213.36ZM238.79 213V198.12H241.49V200.58C241.97 199.7 242.65 199.01 243.53 198.51C244.41 198.01 245.41 197.76 246.53 197.76C248.29 197.76 249.69 198.3 250.73 199.38C251.77 200.46 252.29 202.12 252.29 204.36V213H249.59V204.63C249.59 203.11 249.27 201.97 248.63 201.21C248.01 200.45 247.08 200.07 245.84 200.07C244.58 200.07 243.54 200.53 242.72 201.45C241.9 202.35 241.49 203.63 241.49 205.29V213H238.79ZM262.5 213.36C261.08 213.36 259.8 213.03 258.66 212.37C257.54 211.71 256.65 210.8 255.99 209.64C255.33 208.46 255 207.1 255 205.56C255 204 255.33 202.64 255.99 201.48C256.65 200.32 257.54 199.41 258.66 198.75C259.8 198.09 261.08 197.76 262.5 197.76C264.3 197.76 265.8 198.23 267 199.17C268.22 200.09 269 201.33 269.34 202.89H266.55C266.35 202.01 265.87 201.32 265.11 200.82C264.37 200.32 263.5 200.07 262.5 200.07C261.68 200.07 260.9 200.28 260.16 200.7C259.44 201.12 258.86 201.74 258.42 202.56C257.98 203.36 257.76 204.36 257.76 205.56C257.76 206.74 257.98 207.74 258.42 208.56C258.86 209.38 259.44 210 260.16 210.42C260.9 210.84 261.68 211.05 262.5 211.05C263.5 211.05 264.37 210.81 265.11 210.33C265.87 209.83 266.35 209.13 266.55 208.23H269.34C269.02 209.75 268.25 210.99 267.03 211.95C265.81 212.89 264.3 213.36 262.5 213.36ZM278.846 213.36C277.406 213.36 276.126 213.04 275.006 212.4C273.906 211.74 273.036 210.83 272.396 209.67C271.776 208.51 271.466 207.15 271.466 205.59C271.466 204.01 271.776 202.64 272.396 201.48C273.016 200.3 273.886 199.39 275.006 198.75C276.126 198.09 277.416 197.76 278.876 197.76C280.336 197.76 281.586 198.09 282.626 198.75C283.686 199.39 284.496 200.24 285.056 201.3C285.636 202.36 285.926 203.52 285.926 204.78C285.926 204.98 285.926 205.2 285.926 205.44C285.926 205.66 285.916 205.9 285.896 206.16H273.476V204.18H283.256C283.196 202.88 282.746 201.86 281.906 201.12C281.086 200.38 280.056 200.01 278.816 200.01C277.976 200.01 277.196 200.2 276.476 200.58C275.756 200.94 275.176 201.49 274.736 202.23C274.316 202.95 274.106 203.85 274.106 204.93V205.74C274.106 206.92 274.326 207.91 274.766 208.71C275.206 209.51 275.786 210.11 276.506 210.51C277.226 210.91 277.996 211.11 278.816 211.11C279.816 211.11 280.656 210.88 281.336 210.42C282.016 209.96 282.516 209.33 282.836 208.53H285.506C285.246 209.43 284.816 210.25 284.216 210.99C283.616 211.73 282.856 212.31 281.936 212.73C281.036 213.15 280.006 213.36 278.846 213.36ZM39.59 243.36C37.77 243.36 36.25 242.94 35.03 242.1C33.81 241.24 33.1 239.99 32.9 238.35H35.69C35.85 239.21 36.28 239.89 36.98 240.39C37.68 240.89 38.58 241.14 39.68 241.14C40.72 241.14 41.52 240.92 42.08 240.48C42.64 240.04 42.92 239.48 42.92 238.8C42.92 238.3 42.74 237.92 42.38 237.66C42.04 237.38 41.4 237.16 40.46 237C40.08 236.92 39.67 236.84 39.23 236.76C38.81 236.68 38.41 236.61 38.03 236.55C37.35 236.41 36.67 236.18 35.99 235.86C35.33 235.54 34.78 235.09 34.34 234.51C33.9 233.93 33.68 233.18 33.68 232.26C33.68 230.98 34.17 229.91 35.15 229.05C36.13 228.19 37.47 227.76 39.17 227.76C40.81 227.76 42.17 228.14 43.25 228.9C44.33 229.64 44.94 230.8 45.08 232.38H42.41C42.33 231.52 41.98 230.91 41.36 230.55C40.76 230.17 40.02 229.98 39.14 229.98C38.28 229.98 37.57 230.17 37.01 230.55C36.47 230.93 36.2 231.43 36.2 232.05C36.2 233.13 37.01 233.83 38.63 234.15C38.87 234.17 39.12 234.21 39.38 234.27C39.66 234.31 39.94 234.36 40.22 234.42C40.5 234.46 40.75 234.5 40.97 234.54C41.45 234.62 41.95 234.74 42.47 234.9C42.99 235.04 43.48 235.26 43.94 235.56C44.4 235.84 44.77 236.23 45.05 236.73C45.35 237.21 45.5 237.83 45.5 238.59C45.5 239.51 45.26 240.33 44.78 241.05C44.3 241.77 43.62 242.34 42.74 242.76C41.86 243.16 40.81 243.36 39.59 243.36ZM55.047 243.36C53.607 243.36 52.327 243.04 51.207 242.4C50.107 241.74 49.237 240.83 48.597 239.67C47.977 238.51 47.667 237.15 47.667 235.59C47.667 234.01 47.977 232.64 48.597 231.48C49.217 230.3 50.087 229.39 51.207 228.75C52.327 228.09 53.617 227.76 55.077 227.76C56.537 227.76 57.787 228.09 58.827 228.75C59.887 229.39 60.697 230.24 61.257 231.3C61.837 232.36 62.127 233.52 62.127 234.78C62.127 234.98 62.127 235.2 62.127 235.44C62.127 235.66 62.117 235.9 62.097 236.16H49.677V234.18H59.457C59.397 232.88 58.947 231.86 58.107 231.12C57.287 230.38 56.257 230.01 55.017 230.01C54.177 230.01 53.397 230.2 52.677 230.58C51.957 230.94 51.377 231.49 50.937 232.23C50.517 232.95 50.307 233.85 50.307 234.93V235.74C50.307 236.92 50.527 237.91 50.967 238.71C51.407 239.51 51.987 240.11 52.707 240.51C53.427 240.91 54.197 241.11 55.017 241.11C56.017 241.11 56.857 240.88 57.537 240.42C58.217 239.96 58.717 239.33 59.037 238.53H61.707C61.447 239.43 61.017 240.25 60.417 240.99C59.817 241.73 59.057 242.31 58.137 242.73C57.237 243.15 56.207 243.36 55.047 243.36ZM72.5263 249.96C71.2263 249.96 70.0363 249.73 68.9563 249.27C67.8763 248.83 66.9663 248.18 66.2263 247.32C65.5063 246.48 65.0463 245.45 64.8463 244.23H67.5163C67.7963 245.23 68.3863 246.04 69.2863 246.66C70.2063 247.3 71.2763 247.62 72.4963 247.62C73.4563 247.62 74.3163 247.41 75.0763 246.99C75.8363 246.59 76.4363 245.98 76.8763 245.16C77.3363 244.36 77.5663 243.37 77.5663 242.19V240.06C77.2463 240.6 76.8163 241.12 76.2763 241.62C75.7563 242.1 75.1263 242.5 74.3863 242.82C73.6663 243.12 72.8263 243.27 71.8663 243.27C70.4663 243.27 69.1963 242.93 68.0563 242.25C66.9163 241.57 66.0163 240.65 65.3563 239.49C64.6963 238.31 64.3663 236.98 64.3663 235.5C64.3663 234 64.6963 232.67 65.3563 231.51C66.0163 230.35 66.9163 229.44 68.0563 228.78C69.1963 228.1 70.4663 227.76 71.8663 227.76C73.1663 227.76 74.3063 228.05 75.2863 228.63C76.2863 229.21 77.0463 229.9 77.5663 230.7V228.12H80.2663V242.1C80.2663 243.74 79.9263 245.14 79.2462 246.3C78.5863 247.48 77.6663 248.38 76.4863 249C75.3263 249.64 74.0063 249.96 72.5263 249.96ZM72.2863 240.93C73.2863 240.93 74.1763 240.7 74.9563 240.24C75.7363 239.78 76.3463 239.14 76.7863 238.32C77.2263 237.5 77.4463 236.56 77.4463 235.5C77.4463 234.42 77.2263 233.48 76.7863 232.68C76.3463 231.86 75.7363 231.23 74.9563 230.79C74.1763 230.33 73.2863 230.1 72.2863 230.1C71.3063 230.1 70.4263 230.33 69.6463 230.79C68.8663 231.23 68.2463 231.86 67.7863 232.68C67.3463 233.48 67.1263 234.42 67.1263 235.5C67.1263 236.54 67.3463 237.48 67.7863 238.32C68.2463 239.14 68.8663 239.78 69.6463 240.24C70.4263 240.7 71.3063 240.93 72.2863 240.93ZM83.8698 243V228.12H86.5698V230.16C87.0498 229.4 87.6798 228.81 88.4598 228.39C89.2598 227.97 90.1498 227.76 91.1298 227.76C92.2898 227.76 93.2998 228 94.1598 228.48C95.0198 228.96 95.6698 229.68 96.1098 230.64C96.6298 229.74 97.3398 229.04 98.2398 228.54C99.1598 228.02 100.15 227.76 101.21 227.76C103.01 227.76 104.44 228.3 105.5 229.38C106.58 230.46 107.12 232.12 107.12 234.36V243H104.42V234.63C104.42 233.11 104.12 231.97 103.52 231.21C102.92 230.45 102.04 230.07 100.88 230.07C99.7198 230.07 98.7498 230.53 97.9698 231.45C97.2098 232.35 96.8298 233.63 96.8298 235.29V243H94.1598V234.63C94.1598 233.11 93.8498 231.97 93.2298 231.21C92.6298 230.45 91.7598 230.07 90.6198 230.07C89.4598 230.07 88.4898 230.53 87.7098 231.45C86.9498 232.35 86.5698 233.63 86.5698 235.29V243H83.8698ZM117.332 243.36C115.892 243.36 114.612 243.04 113.492 242.4C112.392 241.74 111.522 240.83 110.882 239.67C110.262 238.51 109.952 237.15 109.952 235.59C109.952 234.01 110.262 232.64 110.882 231.48C111.502 230.3 112.372 229.39 113.492 228.75C114.612 228.09 115.902 227.76 117.362 227.76C118.822 227.76 120.072 228.09 121.112 228.75C122.172 229.39 122.982 230.24 123.542 231.3C124.122 232.36 124.412 233.52 124.412 234.78C124.412 234.98 124.412 235.2 124.412 235.44C124.412 235.66 124.402 235.9 124.382 236.16H111.962V234.18H121.742C121.682 232.88 121.232 231.86 120.392 231.12C119.572 230.38 118.542 230.01 117.302 230.01C116.462 230.01 115.682 230.2 114.962 230.58C114.242 230.94 113.662 231.49 113.222 232.23C112.802 232.95 112.592 233.85 112.592 234.93V235.74C112.592 236.92 112.812 237.91 113.252 238.71C113.692 239.51 114.272 240.11 114.992 240.51C115.712 240.91 116.482 241.11 117.302 241.11C118.302 241.11 119.142 240.88 119.822 240.42C120.502 239.96 121.002 239.33 121.322 238.53H123.992C123.732 239.43 123.302 240.25 122.702 240.99C122.102 241.73 121.342 242.31 120.422 242.73C119.522 243.15 118.492 243.36 117.332 243.36ZM127.491 243V228.12H130.191V230.58C130.671 229.7 131.351 229.01 132.231 228.51C133.111 228.01 134.111 227.76 135.231 227.76C136.991 227.76 138.391 228.3 139.431 229.38C140.471 230.46 140.991 232.12 140.991 234.36V243H138.291V234.63C138.291 233.11 137.971 231.97 137.331 231.21C136.711 230.45 135.781 230.07 134.541 230.07C133.281 230.07 132.241 230.53 131.421 231.45C130.601 232.35 130.191 233.63 130.191 235.29V243H127.491ZM149.112 243C148.272 243 147.562 242.9 146.982 242.7C146.402 242.48 145.962 242.08 145.662 241.5C145.382 240.92 145.242 240.1 145.242 239.04V230.4H142.662V228.12H145.242V224.49H147.942V228.12H152.142V230.4H147.942V238.62C147.942 239.26 147.992 239.73 148.092 240.03C148.192 240.33 148.402 240.52 148.722 240.6C149.042 240.66 149.502 240.69 150.102 240.69H151.932V243H149.112ZM160.293 243.36C158.473 243.36 156.953 242.94 155.733 242.1C154.513 241.24 153.803 239.99 153.603 238.35H156.393C156.553 239.21 156.983 239.89 157.683 240.39C158.383 240.89 159.283 241.14 160.383 241.14C161.423 241.14 162.223 240.92 162.783 240.48C163.343 240.04 163.623 239.48 163.623 238.8C163.623 238.3 163.443 237.92 163.083 237.66C162.743 237.38 162.103 237.16 161.163 237C160.783 236.92 160.373 236.84 159.933 236.76C159.513 236.68 159.113 236.61 158.733 236.55C158.053 236.41 157.373 236.18 156.693 235.86C156.033 235.54 155.483 235.09 155.043 234.51C154.603 233.93 154.383 233.18 154.383 232.26C154.383 230.98 154.873 229.91 155.853 229.05C156.833 228.19 158.173 227.76 159.873 227.76C161.513 227.76 162.873 228.14 163.953 228.9C165.033 229.64 165.643 230.8 165.783 232.38H163.113C163.033 231.52 162.683 230.91 162.063 230.55C161.463 230.17 160.723 229.98 159.843 229.98C158.983 229.98 158.273 230.17 157.713 230.55C157.173 230.93 156.903 231.43 156.903 232.05C156.903 233.13 157.713 233.83 159.333 234.15C159.573 234.17 159.823 234.21 160.083 234.27C160.363 234.31 160.643 234.36 160.923 234.42C161.203 234.46 161.453 234.5 161.673 234.54C162.153 234.62 162.653 234.74 163.173 234.9C163.693 235.04 164.183 235.26 164.643 235.56C165.103 235.84 165.473 236.23 165.753 236.73C166.053 237.21 166.203 237.83 166.203 238.59C166.203 239.51 165.963 240.33 165.483 241.05C165.003 241.77 164.323 242.34 163.443 242.76C162.563 243.16 161.513 243.36 160.293 243.36ZM183.296 243.36C182.096 243.36 181.086 243.16 180.266 242.76C179.446 242.34 178.826 241.79 178.406 241.11C178.006 240.41 177.806 239.67 177.806 238.89C177.806 237.27 178.386 236.04 179.546 235.2C180.726 234.34 182.266 233.91 184.166 233.91C185.006 233.91 185.766 233.97 186.446 234.09C187.126 234.21 187.686 234.35 188.126 234.51V233.85C188.126 232.57 187.786 231.61 187.106 230.97C186.446 230.31 185.556 229.98 184.436 229.98C183.516 229.98 182.716 230.17 182.036 230.55C181.376 230.93 180.966 231.57 180.806 232.47H178.106C178.226 231.41 178.586 230.53 179.186 229.83C179.806 229.13 180.576 228.61 181.496 228.27C182.416 227.93 183.396 227.76 184.436 227.76C186.556 227.76 188.146 228.32 189.206 229.44C190.286 230.54 190.826 232.01 190.826 233.85V238.32C190.826 239.04 190.866 239.57 190.946 239.91C191.046 240.25 191.206 240.46 191.426 240.54C191.646 240.62 191.946 240.66 192.326 240.66H192.536V243H191.966C190.986 243 190.186 242.84 189.566 242.52C188.946 242.2 188.526 241.56 188.306 240.6C187.846 241.38 187.206 242.04 186.386 242.58C185.586 243.1 184.556 243.36 183.296 243.36ZM183.716 241.17C184.596 241.17 185.346 240.95 185.966 240.51C186.606 240.07 187.106 239.49 187.466 238.77C187.826 238.05 188.026 237.29 188.066 236.49C187.606 236.35 187.046 236.23 186.386 236.13C185.726 236.01 185.066 235.95 184.406 235.95C183.046 235.95 182.056 236.22 181.436 236.76C180.836 237.28 180.536 237.94 180.536 238.74C180.536 239.44 180.806 240.02 181.346 240.48C181.906 240.94 182.696 241.17 183.716 241.17ZM195.196 243V228.12H197.896V230.58C198.376 229.7 199.056 229.01 199.936 228.51C200.816 228.01 201.816 227.76 202.936 227.76C204.696 227.76 206.096 228.3 207.136 229.38C208.176 230.46 208.696 232.12 208.696 234.36V243H205.996V234.63C205.996 233.11 205.676 231.97 205.036 231.21C204.416 230.45 203.486 230.07 202.246 230.07C200.986 230.07 199.946 230.53 199.126 231.45C198.306 232.35 197.896 233.63 197.896 235.29V243H195.196ZM218.787 243.36C217.307 243.36 216.017 243.02 214.917 242.34C213.817 241.66 212.957 240.73 212.337 239.55C211.717 238.37 211.407 237.03 211.407 235.53C211.407 234.03 211.717 232.7 212.337 231.54C212.957 230.36 213.817 229.44 214.917 228.78C216.037 228.1 217.327 227.76 218.787 227.76C220.007 227.76 221.077 228.01 221.997 228.51C222.937 228.99 223.657 229.67 224.157 230.55V221.4H226.857V243H224.157V240.57C223.677 241.29 222.997 241.94 222.117 242.52C221.257 243.08 220.147 243.36 218.787 243.36ZM219.147 241.02C220.127 241.02 220.987 240.79 221.727 240.33C222.467 239.87 223.047 239.23 223.467 238.41C223.887 237.59 224.097 236.64 224.097 235.56C224.097 234.48 223.887 233.53 223.467 232.71C223.047 231.89 222.467 231.25 221.727 230.79C220.987 230.33 220.127 230.1 219.147 230.1C218.187 230.1 217.327 230.33 216.567 230.79C215.807 231.25 215.217 231.89 214.797 232.71C214.377 233.51 214.167 234.46 214.167 235.56C214.167 236.64 214.377 237.59 214.797 238.41C215.217 239.23 215.807 239.87 216.567 240.33C217.327 240.79 218.187 241.02 219.147 241.02ZM244.503 243C243.663 243 242.953 242.9 242.373 242.7C241.793 242.48 241.353 242.08 241.053 241.5C240.773 240.92 240.633 240.1 240.633 239.04V230.4H238.053V228.12H240.633V224.49H243.333V228.12H247.533V230.4H243.333V238.62C243.333 239.26 243.383 239.73 243.483 240.03C243.583 240.33 243.793 240.52 244.113 240.6C244.433 240.66 244.893 240.69 245.493 240.69H247.323V243H244.503ZM250.097 243V221.4H252.797V230.64C253.297 229.74 253.997 229.04 254.897 228.54C255.817 228.02 256.817 227.76 257.897 227.76C259.637 227.76 261.017 228.3 262.037 229.38C263.077 230.46 263.597 232.12 263.597 234.36V243H260.927V234.63C260.927 233.11 260.617 231.97 259.997 231.21C259.397 230.45 258.487 230.07 257.267 230.07C256.007 230.07 254.947 230.53 254.087 231.45C253.227 232.35 252.797 233.63 252.797 235.29V243H250.097ZM273.807 243.36C272.367 243.36 271.087 243.04 269.967 242.4C268.867 241.74 267.997 240.83 267.357 239.67C266.737 238.51 266.427 237.15 266.427 235.59C266.427 234.01 266.737 232.64 267.357 231.48C267.977 230.3 268.847 229.39 269.967 228.75C271.087 228.09 272.377 227.76 273.837 227.76C275.297 227.76 276.547 228.09 277.587 228.75C278.647 229.39 279.457 230.24 280.017 231.3C280.597 232.36 280.887 233.52 280.887 234.78C280.887 234.98 280.887 235.2 280.887 235.44C280.887 235.66 280.877 235.9 280.857 236.16H268.437V234.18H278.217C278.157 232.88 277.707 231.86 276.867 231.12C276.047 230.38 275.017 230.01 273.777 230.01C272.937 230.01 272.157 230.2 271.437 230.58C270.717 230.94 270.137 231.49 269.697 232.23C269.277 232.95 269.067 233.85 269.067 234.93V235.74C269.067 236.92 269.287 237.91 269.727 238.71C270.167 239.51 270.747 240.11 271.467 240.51C272.187 240.91 272.957 241.11 273.777 241.11C274.777 241.11 275.617 240.88 276.297 240.42C276.977 239.96 277.477 239.33 277.797 238.53H280.467C280.207 239.43 279.777 240.25 279.177 240.99C278.577 241.73 277.817 242.31 276.897 242.73C275.997 243.15 274.967 243.36 273.807 243.36ZM33.86 273V258.12H36.56V260.16C37.04 259.4 37.67 258.81 38.45 258.39C39.25 257.97 40.14 257.76 41.12 257.76C42.28 257.76 43.29 258 44.15 258.48C45.01 258.96 45.66 259.68 46.1 260.64C46.62 259.74 47.33 259.04 48.23 258.54C49.15 258.02 50.14 257.76 51.2 257.76C53 257.76 54.43 258.3 55.49 259.38C56.57 260.46 57.11 262.12 57.11 264.36V273H54.41V264.63C54.41 263.11 54.11 261.97 53.51 261.21C52.91 260.45 52.03 260.07 50.87 260.07C49.71 260.07 48.74 260.53 47.96 261.45C47.2 262.35 46.82 263.63 46.82 265.29V273H44.15V264.63C44.15 263.11 43.84 261.97 43.22 261.21C42.62 260.45 41.75 260.07 40.61 260.07C39.45 260.07 38.48 260.53 37.7 261.45C36.94 262.35 36.56 263.63 36.56 265.29V273H33.86ZM67.3224 273.36C65.8824 273.36 64.6024 273.04 63.4824 272.4C62.3824 271.74 61.5124 270.83 60.8724 269.67C60.2524 268.51 59.9424 267.15 59.9424 265.59C59.9424 264.01 60.2524 262.64 60.8724 261.48C61.4924 260.3 62.3624 259.39 63.4824 258.75C64.6024 258.09 65.8924 257.76 67.3524 257.76C68.8124 257.76 70.0624 258.09 71.1024 258.75C72.1624 259.39 72.9724 260.24 73.5324 261.3C74.1124 262.36 74.4024 263.52 74.4024 264.78C74.4024 264.98 74.4024 265.2 74.4024 265.44C74.4024 265.66 74.3924 265.9 74.3724 266.16H61.9524V264.18H71.7324C71.6724 262.88 71.2224 261.86 70.3824 261.12C69.5624 260.38 68.5324 260.01 67.2924 260.01C66.4524 260.01 65.6724 260.2 64.9524 260.58C64.2324 260.94 63.6524 261.49 63.2124 262.23C62.7924 262.95 62.5824 263.85 62.5824 264.93V265.74C62.5824 266.92 62.8024 267.91 63.2424 268.71C63.6824 269.51 64.2624 270.11 64.9824 270.51C65.7024 270.91 66.4724 271.11 67.2924 271.11C68.2924 271.11 69.1324 270.88 69.8124 270.42C70.4924 269.96 70.9924 269.33 71.3124 268.53H73.9824C73.7224 269.43 73.2924 270.25 72.6924 270.99C72.0924 271.73 71.3324 272.31 70.4124 272.73C69.5124 273.15 68.4824 273.36 67.3224 273.36ZM82.3634 273.36C80.5434 273.36 79.0234 272.94 77.8034 272.1C76.5834 271.24 75.8734 269.99 75.6734 268.35H78.4634C78.6234 269.21 79.0534 269.89 79.7534 270.39C80.4534 270.89 81.3534 271.14 82.4534 271.14C83.4934 271.14 84.2934 270.92 84.8534 270.48C85.4134 270.04 85.6934 269.48 85.6934 268.8C85.6934 268.3 85.5134 267.92 85.1534 267.66C84.8134 267.38 84.1734 267.16 83.2334 267C82.8534 266.92 82.4434 266.84 82.0034 266.76C81.5834 266.68 81.1834 266.61 80.8034 266.55C80.1234 266.41 79.4434 266.18 78.7634 265.86C78.1034 265.54 77.5534 265.09 77.1134 264.51C76.6734 263.93 76.4534 263.18 76.4534 262.26C76.4534 260.98 76.9434 259.91 77.9234 259.05C78.9034 258.19 80.2434 257.76 81.9434 257.76C83.5834 257.76 84.9434 258.14 86.0234 258.9C87.1034 259.64 87.7134 260.8 87.8534 262.38H85.1834C85.1034 261.52 84.7534 260.91 84.1334 260.55C83.5334 260.17 82.7934 259.98 81.9134 259.98C81.0534 259.98 80.3434 260.17 79.7834 260.55C79.2434 260.93 78.9734 261.43 78.9734 262.05C78.9734 263.13 79.7834 263.83 81.4034 264.15C81.6434 264.17 81.8934 264.21 82.1534 264.27C82.4334 264.31 82.7134 264.36 82.9934 264.42C83.2734 264.46 83.5234 264.5 83.7434 264.54C84.2234 264.62 84.7234 264.74 85.2434 264.9C85.7634 265.04 86.2534 265.26 86.7134 265.56C87.1734 265.84 87.5434 266.23 87.8234 266.73C88.1234 267.21 88.2734 267.83 88.2734 268.59C88.2734 269.51 88.0334 270.33 87.5534 271.05C87.0734 271.77 86.3934 272.34 85.5134 272.76C84.6334 273.16 83.5834 273.36 82.3634 273.36ZM96.7775 273.36C94.9575 273.36 93.4375 272.94 92.2175 272.1C90.9975 271.24 90.2875 269.99 90.0875 268.35H92.8775C93.0375 269.21 93.4675 269.89 94.1675 270.39C94.8675 270.89 95.7675 271.14 96.8675 271.14C97.9075 271.14 98.7075 270.92 99.2675 270.48C99.8275 270.04 100.108 269.48 100.108 268.8C100.108 268.3 99.9275 267.92 99.5675 267.66C99.2275 267.38 98.5875 267.16 97.6475 267C97.2675 266.92 96.8575 266.84 96.4175 266.76C95.9975 266.68 95.5975 266.61 95.2175 266.55C94.5375 266.41 93.8575 266.18 93.1775 265.86C92.5175 265.54 91.9675 265.09 91.5275 264.51C91.0875 263.93 90.8675 263.18 90.8675 262.26C90.8675 260.98 91.3575 259.91 92.3375 259.05C93.3175 258.19 94.6575 257.76 96.3575 257.76C97.9975 257.76 99.3575 258.14 100.438 258.9C101.518 259.64 102.128 260.8 102.268 262.38H99.5975C99.5175 261.52 99.1675 260.91 98.5475 260.55C97.9475 260.17 97.2075 259.98 96.3275 259.98C95.4675 259.98 94.7575 260.17 94.1975 260.55C93.6575 260.93 93.3875 261.43 93.3875 262.05C93.3875 263.13 94.1975 263.83 95.8175 264.15C96.0575 264.17 96.3075 264.21 96.5675 264.27C96.8475 264.31 97.1275 264.36 97.4075 264.42C97.6875 264.46 97.9375 264.5 98.1575 264.54C98.6375 264.62 99.1375 264.74 99.6575 264.9C100.178 265.04 100.668 265.26 101.128 265.56C101.588 265.84 101.958 266.23 102.238 266.73C102.538 267.21 102.688 267.83 102.688 268.59C102.688 269.51 102.448 270.33 101.968 271.05C101.488 271.77 100.808 272.34 99.9275 272.76C99.0475 273.16 97.9975 273.36 96.7775 273.36ZM110.142 273.36C108.942 273.36 107.932 273.16 107.112 272.76C106.292 272.34 105.672 271.79 105.252 271.11C104.852 270.41 104.652 269.67 104.652 268.89C104.652 267.27 105.232 266.04 106.392 265.2C107.572 264.34 109.112 263.91 111.012 263.91C111.852 263.91 112.612 263.97 113.292 264.09C113.972 264.21 114.532 264.35 114.972 264.51V263.85C114.972 262.57 114.632 261.61 113.952 260.97C113.292 260.31 112.402 259.98 111.282 259.98C110.362 259.98 109.562 260.17 108.882 260.55C108.222 260.93 107.812 261.57 107.652 262.47H104.952C105.072 261.41 105.432 260.53 106.032 259.83C106.652 259.13 107.422 258.61 108.342 258.27C109.262 257.93 110.242 257.76 111.282 257.76C113.402 257.76 114.992 258.32 116.052 259.44C117.132 260.54 117.672 262.01 117.672 263.85V268.32C117.672 269.04 117.712 269.57 117.792 269.91C117.892 270.25 118.052 270.46 118.272 270.54C118.492 270.62 118.792 270.66 119.172 270.66H119.382V273H118.812C117.832 273 117.032 272.84 116.412 272.52C115.792 272.2 115.372 271.56 115.152 270.6C114.692 271.38 114.052 272.04 113.232 272.58C112.432 273.1 111.402 273.36 110.142 273.36ZM110.562 271.17C111.442 271.17 112.192 270.95 112.812 270.51C113.452 270.07 113.952 269.49 114.312 268.77C114.672 268.05 114.872 267.29 114.912 266.49C114.452 266.35 113.892 266.23 113.232 266.13C112.572 266.01 111.912 265.95 111.252 265.95C109.892 265.95 108.902 266.22 108.282 266.76C107.682 267.28 107.382 267.94 107.382 268.74C107.382 269.44 107.652 270.02 108.192 270.48C108.752 270.94 109.542 271.17 110.562 271.17ZM129.362 279.96C128.062 279.96 126.872 279.73 125.792 279.27C124.712 278.83 123.802 278.18 123.062 277.32C122.342 276.48 121.882 275.45 121.682 274.23H124.352C124.632 275.23 125.222 276.04 126.122 276.66C127.042 277.3 128.112 277.62 129.332 277.62C130.292 277.62 131.152 277.41 131.912 276.99C132.672 276.59 133.272 275.98 133.712 275.16C134.172 274.36 134.402 273.37 134.402 272.19V270.06C134.082 270.6 133.652 271.12 133.112 271.62C132.592 272.1 131.962 272.5 131.222 272.82C130.502 273.12 129.662 273.27 128.702 273.27C127.302 273.27 126.032 272.93 124.892 272.25C123.752 271.57 122.852 270.65 122.192 269.49C121.532 268.31 121.202 266.98 121.202 265.5C121.202 264 121.532 262.67 122.192 261.51C122.852 260.35 123.752 259.44 124.892 258.78C126.032 258.1 127.302 257.76 128.702 257.76C130.002 257.76 131.142 258.05 132.122 258.63C133.122 259.21 133.882 259.9 134.402 260.7V258.12H137.102V272.1C137.102 273.74 136.762 275.14 136.082 276.3C135.422 277.48 134.502 278.38 133.322 279C132.162 279.64 130.842 279.96 129.362 279.96ZM129.122 270.93C130.122 270.93 131.012 270.7 131.792 270.24C132.572 269.78 133.182 269.14 133.622 268.32C134.062 267.5 134.282 266.56 134.282 265.5C134.282 264.42 134.062 263.48 133.622 262.68C133.182 261.86 132.572 261.23 131.792 260.79C131.012 260.33 130.122 260.1 129.122 260.1C128.142 260.1 127.262 260.33 126.482 260.79C125.702 261.23 125.082 261.86 124.622 262.68C124.182 263.48 123.962 264.42 123.962 265.5C123.962 266.54 124.182 267.48 124.622 268.32C125.082 269.14 125.702 269.78 126.482 270.24C127.262 270.7 128.142 270.93 129.122 270.93ZM147.186 273.36C145.746 273.36 144.466 273.04 143.346 272.4C142.246 271.74 141.376 270.83 140.736 269.67C140.116 268.51 139.806 267.15 139.806 265.59C139.806 264.01 140.116 262.64 140.736 261.48C141.356 260.3 142.226 259.39 143.346 258.75C144.466 258.09 145.756 257.76 147.216 257.76C148.676 257.76 149.926 258.09 150.966 258.75C152.026 259.39 152.836 260.24 153.396 261.3C153.976 262.36 154.266 263.52 154.266 264.78C154.266 264.98 154.266 265.2 154.266 265.44C154.266 265.66 154.256 265.9 154.236 266.16H141.816V264.18H151.596C151.536 262.88 151.086 261.86 150.246 261.12C149.426 260.38 148.396 260.01 147.156 260.01C146.316 260.01 145.536 260.2 144.816 260.58C144.096 260.94 143.516 261.49 143.076 262.23C142.656 262.95 142.446 263.85 142.446 264.93V265.74C142.446 266.92 142.666 267.91 143.106 268.71C143.546 269.51 144.126 270.11 144.846 270.51C145.566 270.91 146.336 271.11 147.156 271.11C148.156 271.11 148.996 270.88 149.676 270.42C150.356 269.96 150.856 269.33 151.176 268.53H153.846C153.586 269.43 153.156 270.25 152.556 270.99C151.956 271.73 151.196 272.31 150.276 272.73C149.376 273.15 148.346 273.36 147.186 273.36ZM162.227 273.36C160.407 273.36 158.887 272.94 157.667 272.1C156.447 271.24 155.737 269.99 155.537 268.35H158.327C158.487 269.21 158.917 269.89 159.617 270.39C160.317 270.89 161.217 271.14 162.317 271.14C163.357 271.14 164.157 270.92 164.717 270.48C165.277 270.04 165.557 269.48 165.557 268.8C165.557 268.3 165.377 267.92 165.017 267.66C164.677 267.38 164.037 267.16 163.097 267C162.717 266.92 162.307 266.84 161.867 266.76C161.447 266.68 161.047 266.61 160.667 266.55C159.987 266.41 159.307 266.18 158.627 265.86C157.967 265.54 157.417 265.09 156.977 264.51C156.537 263.93 156.317 263.18 156.317 262.26C156.317 260.98 156.807 259.91 157.787 259.05C158.767 258.19 160.107 257.76 161.807 257.76C163.447 257.76 164.807 258.14 165.887 258.9C166.967 259.64 167.577 260.8 167.717 262.38H165.047C164.967 261.52 164.617 260.91 163.997 260.55C163.397 260.17 162.657 259.98 161.777 259.98C160.917 259.98 160.207 260.17 159.647 260.55C159.107 260.93 158.837 261.43 158.837 262.05C158.837 263.13 159.647 263.83 161.267 264.15C161.507 264.17 161.757 264.21 162.017 264.27C162.297 264.31 162.577 264.36 162.857 264.42C163.137 264.46 163.387 264.5 163.607 264.54C164.087 264.62 164.587 264.74 165.107 264.9C165.627 265.04 166.117 265.26 166.577 265.56C167.037 265.84 167.407 266.23 167.687 266.73C167.987 267.21 168.137 267.83 168.137 268.59C168.137 269.51 167.897 270.33 167.417 271.05C166.937 271.77 166.257 272.34 165.377 272.76C164.497 273.16 163.447 273.36 162.227 273.36ZM185.469 273C184.629 273 183.919 272.9 183.339 272.7C182.759 272.48 182.319 272.08 182.019 271.5C181.739 270.92 181.599 270.1 181.599 269.04V260.4H179.019V258.12H181.599V254.49H184.299V258.12H188.499V260.4H184.299V268.62C184.299 269.26 184.349 269.73 184.449 270.03C184.549 270.33 184.759 270.52 185.079 270.6C185.399 270.66 185.859 270.69 186.459 270.69H188.289V273H185.469ZM191.064 273V251.4H193.764V260.64C194.264 259.74 194.964 259.04 195.864 258.54C196.784 258.02 197.784 257.76 198.864 257.76C200.604 257.76 201.984 258.3 203.004 259.38C204.044 260.46 204.564 262.12 204.564 264.36V273H201.894V264.63C201.894 263.11 201.584 261.97 200.964 261.21C200.364 260.45 199.454 260.07 198.234 260.07C196.974 260.07 195.914 260.53 195.054 261.45C194.194 262.35 193.764 263.63 193.764 265.29V273H191.064ZM212.974 273.36C211.774 273.36 210.764 273.16 209.944 272.76C209.124 272.34 208.504 271.79 208.084 271.11C207.684 270.41 207.484 269.67 207.484 268.89C207.484 267.27 208.064 266.04 209.224 265.2C210.404 264.34 211.944 263.91 213.844 263.91C214.684 263.91 215.444 263.97 216.124 264.09C216.804 264.21 217.364 264.35 217.804 264.51V263.85C217.804 262.57 217.464 261.61 216.784 260.97C216.124 260.31 215.234 259.98 214.114 259.98C213.194 259.98 212.394 260.17 211.714 260.55C211.054 260.93 210.644 261.57 210.484 262.47H207.784C207.904 261.41 208.264 260.53 208.864 259.83C209.484 259.13 210.254 258.61 211.174 258.27C212.094 257.93 213.074 257.76 214.114 257.76C216.234 257.76 217.824 258.32 218.884 259.44C219.964 260.54 220.504 262.01 220.504 263.85V268.32C220.504 269.04 220.544 269.57 220.624 269.91C220.724 270.25 220.884 270.46 221.104 270.54C221.324 270.62 221.624 270.66 222.004 270.66H222.214V273H221.644C220.664 273 219.864 272.84 219.244 272.52C218.624 272.2 218.204 271.56 217.984 270.6C217.524 271.38 216.884 272.04 216.064 272.58C215.264 273.1 214.234 273.36 212.974 273.36ZM213.394 271.17C214.274 271.17 215.024 270.95 215.644 270.51C216.284 270.07 216.784 269.49 217.144 268.77C217.504 268.05 217.704 267.29 217.744 266.49C217.284 266.35 216.724 266.23 216.064 266.13C215.404 266.01 214.744 265.95 214.084 265.95C212.724 265.95 211.734 266.22 211.114 266.76C210.514 267.28 210.214 267.94 210.214 268.74C210.214 269.44 210.484 270.02 211.024 270.48C211.584 270.94 212.374 271.17 213.394 271.17ZM229.356 273C228.516 273 227.806 272.9 227.226 272.7C226.646 272.48 226.206 272.08 225.906 271.5C225.626 270.92 225.486 270.1 225.486 269.04V260.4H222.906V258.12H225.486V254.49H228.186V258.12H232.386V260.4H228.186V268.62C228.186 269.26 228.236 269.73 228.336 270.03C228.436 270.33 228.646 270.52 228.966 270.6C229.286 270.66 229.746 270.69 230.346 270.69H232.176V273H229.356ZM33.8 303V288.12H36.5V290.46C36.84 289.68 37.3 289.08 37.88 288.66C38.46 288.22 39.17 288 40.01 288H42.23V290.52H39.74C39.1 290.52 38.53 290.7 38.03 291.06C37.55 291.42 37.17 292 36.89 292.8C36.63 293.58 36.5 294.62 36.5 295.92V303H33.8ZM50.2716 303.36C48.8316 303.36 47.5516 303.04 46.4316 302.4C45.3316 301.74 44.4616 300.83 43.8216 299.67C43.2016 298.51 42.8916 297.15 42.8916 295.59C42.8916 294.01 43.2016 292.64 43.8216 291.48C44.4416 290.3 45.3116 289.39 46.4316 288.75C47.5516 288.09 48.8416 287.76 50.3016 287.76C51.7616 287.76 53.0116 288.09 54.0516 288.75C55.1116 289.39 55.9216 290.24 56.4816 291.3C57.0616 292.36 57.3516 293.52 57.3516 294.78C57.3516 294.98 57.3516 295.2 57.3516 295.44C57.3516 295.66 57.3416 295.9 57.3216 296.16H44.9016V294.18H54.6816C54.6216 292.88 54.1716 291.86 53.3316 291.12C52.5116 290.38 51.4816 290.01 50.2416 290.01C49.4016 290.01 48.6216 290.2 47.9016 290.58C47.1816 290.94 46.6016 291.49 46.1616 292.23C45.7416 292.95 45.5316 293.85 45.5316 294.93V295.74C45.5316 296.92 45.7516 297.91 46.1916 298.71C46.6316 299.51 47.2116 300.11 47.9316 300.51C48.6516 300.91 49.4216 301.11 50.2416 301.11C51.2416 301.11 52.0816 300.88 52.7616 300.42C53.4416 299.96 53.9416 299.33 54.2616 298.53H56.9316C56.6716 299.43 56.2416 300.25 55.6416 300.99C55.0416 301.73 54.2816 302.31 53.3616 302.73C52.4616 303.15 51.4316 303.36 50.2716 303.36ZM65.3127 303.36C63.4927 303.36 61.9727 302.94 60.7527 302.1C59.5327 301.24 58.8227 299.99 58.6227 298.35H61.4127C61.5727 299.21 62.0027 299.89 62.7027 300.39C63.4027 300.89 64.3027 301.14 65.4027 301.14C66.4427 301.14 67.2427 300.92 67.8027 300.48C68.3627 300.04 68.6427 299.48 68.6427 298.8C68.6427 298.3 68.4627 297.92 68.1027 297.66C67.7627 297.38 67.1227 297.16 66.1827 297C65.8027 296.92 65.3927 296.84 64.9527 296.76C64.5327 296.68 64.1327 296.61 63.7527 296.55C63.0727 296.41 62.3927 296.18 61.7127 295.86C61.0527 295.54 60.5027 295.09 60.0627 294.51C59.6227 293.93 59.4027 293.18 59.4027 292.26C59.4027 290.98 59.8927 289.91 60.8727 289.05C61.8527 288.19 63.1927 287.76 64.8927 287.76C66.5327 287.76 67.8927 288.14 68.9727 288.9C70.0527 289.64 70.6627 290.8 70.8027 292.38H68.1327C68.0527 291.52 67.7027 290.91 67.0827 290.55C66.4827 290.17 65.7427 289.98 64.8627 289.98C64.0027 289.98 63.2927 290.17 62.7327 290.55C62.1927 290.93 61.9227 291.43 61.9227 292.05C61.9227 293.13 62.7327 293.83 64.3527 294.15C64.5927 294.17 64.8427 294.21 65.1027 294.27C65.3827 294.31 65.6627 294.36 65.9427 294.42C66.2227 294.46 66.4727 294.5 66.6927 294.54C67.1727 294.62 67.6727 294.74 68.1927 294.9C68.7127 295.04 69.2027 295.26 69.6627 295.56C70.1227 295.84 70.4927 296.23 70.7727 296.73C71.0727 297.21 71.2227 297.83 71.2227 298.59C71.2227 299.51 70.9827 300.33 70.5027 301.05C70.0227 301.77 69.3427 302.34 68.4627 302.76C67.5827 303.16 66.5327 303.36 65.3127 303.36ZM81.0397 303.36C79.5797 303.36 78.2697 303.04 77.1097 302.4C75.9497 301.74 75.0397 300.83 74.3797 299.67C73.7197 298.49 73.3897 297.12 73.3897 295.56C73.3897 293.98 73.7197 292.61 74.3797 291.45C75.0597 290.29 75.9797 289.39 77.1397 288.75C78.3197 288.09 79.6397 287.76 81.0997 287.76C82.5597 287.76 83.8697 288.09 85.0297 288.75C86.1897 289.39 87.0997 290.29 87.7597 291.45C88.4197 292.61 88.7497 293.98 88.7497 295.56C88.7497 297.12 88.4097 298.49 87.7297 299.67C87.0697 300.83 86.1597 301.74 84.9997 302.4C83.8397 303.04 82.5197 303.36 81.0397 303.36ZM81.0397 301.05C81.9397 301.05 82.7597 300.85 83.4997 300.45C84.2597 300.03 84.8597 299.41 85.2997 298.59C85.7597 297.77 85.9897 296.76 85.9897 295.56C85.9897 294.34 85.7597 293.33 85.2997 292.53C84.8597 291.71 84.2697 291.1 83.5297 290.7C82.7897 290.28 81.9797 290.07 81.0997 290.07C80.2197 290.07 79.3997 290.28 78.6397 290.7C77.8997 291.12 77.2997 291.73 76.8397 292.53C76.3797 293.33 76.1497 294.34 76.1497 295.56C76.1497 296.76 76.3697 297.77 76.8097 298.59C77.2697 299.41 77.8697 300.03 78.6097 300.45C79.3497 300.85 80.1597 301.05 81.0397 301.05ZM91.5148 303V288.12H94.2148V290.58C94.6948 289.7 95.3748 289.01 96.2548 288.51C97.1348 288.01 98.1348 287.76 99.2548 287.76C101.015 287.76 102.415 288.3 103.455 289.38C104.495 290.46 105.015 292.12 105.015 294.36V303H102.315V294.63C102.315 293.11 101.995 291.97 101.355 291.21C100.735 290.45 99.8048 290.07 98.5648 290.07C97.3048 290.07 96.2648 290.53 95.4448 291.45C94.6248 292.35 94.2148 293.63 94.2148 295.29V303H91.5148ZM113.335 303.36C112.135 303.36 111.125 303.16 110.305 302.76C109.485 302.34 108.865 301.79 108.445 301.11C108.045 300.41 107.845 299.67 107.845 298.89C107.845 297.27 108.425 296.04 109.585 295.2C110.765 294.34 112.305 293.91 114.205 293.91C115.045 293.91 115.805 293.97 116.485 294.09C117.165 294.21 117.725 294.35 118.165 294.51V293.85C118.165 292.57 117.825 291.61 117.145 290.97C116.485 290.31 115.595 289.98 114.475 289.98C113.555 289.98 112.755 290.17 112.075 290.55C111.415 290.93 111.005 291.57 110.845 292.47H108.145C108.265 291.41 108.625 290.53 109.225 289.83C109.845 289.13 110.615 288.61 111.535 288.27C112.455 287.93 113.435 287.76 114.475 287.76C116.595 287.76 118.185 288.32 119.245 289.44C120.325 290.54 120.865 292.01 120.865 293.85V298.32C120.865 299.04 120.905 299.57 120.985 299.91C121.085 300.25 121.245 300.46 121.465 300.54C121.685 300.62 121.985 300.66 122.365 300.66H122.575V303H122.005C121.025 303 120.225 302.84 119.605 302.52C118.985 302.2 118.565 301.56 118.345 300.6C117.885 301.38 117.245 302.04 116.425 302.58C115.625 303.1 114.595 303.36 113.335 303.36ZM113.755 301.17C114.635 301.17 115.385 300.95 116.005 300.51C116.645 300.07 117.145 299.49 117.505 298.77C117.865 298.05 118.065 297.29 118.105 296.49C117.645 296.35 117.085 296.23 116.425 296.13C115.765 296.01 115.105 295.95 114.445 295.95C113.085 295.95 112.095 296.22 111.475 296.76C110.875 297.28 110.575 297.94 110.575 298.74C110.575 299.44 110.845 300.02 111.385 300.48C111.945 300.94 112.735 301.17 113.755 301.17ZM129.718 303C128.878 303 128.168 302.9 127.588 302.7C127.008 302.48 126.568 302.08 126.268 301.5C125.988 300.92 125.848 300.1 125.848 299.04V290.4H123.268V288.12H125.848V284.49H128.548V288.12H132.748V290.4H128.548V298.62C128.548 299.26 128.598 299.73 128.698 300.03C128.798 300.33 129.008 300.52 129.328 300.6C129.648 300.66 130.108 300.69 130.708 300.69H132.538V303H129.718ZM141.356 303.36C139.916 303.36 138.636 303.04 137.516 302.4C136.416 301.74 135.546 300.83 134.906 299.67C134.286 298.51 133.976 297.15 133.976 295.59C133.976 294.01 134.286 292.64 134.906 291.48C135.526 290.3 136.396 289.39 137.516 288.75C138.636 288.09 139.926 287.76 141.386 287.76C142.846 287.76 144.096 288.09 145.136 288.75C146.196 289.39 147.006 290.24 147.566 291.3C148.146 292.36 148.436 293.52 148.436 294.78C148.436 294.98 148.436 295.2 148.436 295.44C148.436 295.66 148.426 295.9 148.406 296.16H135.986V294.18H145.766C145.706 292.88 145.256 291.86 144.416 291.12C143.596 290.38 142.566 290.01 141.326 290.01C140.486 290.01 139.706 290.2 138.986 290.58C138.266 290.94 137.686 291.49 137.246 292.23C136.826 292.95 136.616 293.85 136.616 294.93V295.74C136.616 296.92 136.836 297.91 137.276 298.71C137.716 299.51 138.296 300.11 139.016 300.51C139.736 300.91 140.506 301.11 141.326 301.11C142.326 301.11 143.166 300.88 143.846 300.42C144.526 299.96 145.026 299.33 145.346 298.53H148.016C147.756 299.43 147.326 300.25 146.726 300.99C146.126 301.73 145.366 302.31 144.446 302.73C143.546 303.15 142.516 303.36 141.356 303.36ZM164.554 303L160.204 288.12H162.904L166.294 300.9L165.604 300.87L169.474 288.12H172.534L176.404 300.87L175.714 300.9L179.104 288.12H181.804L177.454 303H174.694L170.644 289.68H171.364L167.314 303H164.554ZM184.475 303V288.12H187.175V303H184.475ZM184.175 285.27V281.97H187.445V285.27H184.175ZM195.753 303C194.913 303 194.203 302.9 193.623 302.7C193.043 302.48 192.603 302.08 192.303 301.5C192.023 300.92 191.883 300.1 191.883 299.04V290.4H189.303V288.12H191.883V284.49H194.583V288.12H198.783V290.4H194.583V298.62C194.583 299.26 194.633 299.73 194.733 300.03C194.833 300.33 195.043 300.52 195.363 300.6C195.683 300.66 196.143 300.69 196.743 300.69H198.573V303H195.753ZM201.347 303V281.4H204.047V290.64C204.547 289.74 205.247 289.04 206.147 288.54C207.067 288.02 208.067 287.76 209.147 287.76C210.887 287.76 212.267 288.3 213.287 289.38C214.327 290.46 214.847 292.12 214.847 294.36V303H212.177V294.63C212.177 293.11 211.867 291.97 211.247 291.21C210.647 290.45 209.737 290.07 208.517 290.07C207.257 290.07 206.197 290.53 205.337 291.45C204.477 292.35 204.047 293.63 204.047 295.29V303H201.347ZM232.696 303C231.856 303 231.146 302.9 230.566 302.7C229.986 302.48 229.546 302.08 229.246 301.5C228.966 300.92 228.826 300.1 228.826 299.04V290.4H226.246V288.12H228.826V284.49H231.526V288.12H235.726V290.4H231.526V298.62C231.526 299.26 231.576 299.73 231.676 300.03C231.776 300.33 231.986 300.52 232.306 300.6C232.626 300.66 233.086 300.69 233.686 300.69H235.516V303H232.696ZM238.29 303V281.4H240.99V290.64C241.49 289.74 242.19 289.04 243.09 288.54C244.01 288.02 245.01 287.76 246.09 287.76C247.83 287.76 249.21 288.3 250.23 289.38C251.27 290.46 251.79 292.12 251.79 294.36V303H249.12V294.63C249.12 293.11 248.81 291.97 248.19 291.21C247.59 290.45 246.68 290.07 245.46 290.07C244.2 290.07 243.14 290.53 242.28 291.45C241.42 292.35 240.99 293.63 240.99 295.29V303H238.29ZM262 303.36C260.56 303.36 259.28 303.04 258.16 302.4C257.06 301.74 256.19 300.83 255.55 299.67C254.93 298.51 254.62 297.15 254.62 295.59C254.62 294.01 254.93 292.64 255.55 291.48C256.17 290.3 257.04 289.39 258.16 288.75C259.28 288.09 260.57 287.76 262.03 287.76C263.49 287.76 264.74 288.09 265.78 288.75C266.84 289.39 267.65 290.24 268.21 291.3C268.79 292.36 269.08 293.52 269.08 294.78C269.08 294.98 269.08 295.2 269.08 295.44C269.08 295.66 269.07 295.9 269.05 296.16H256.63V294.18H266.41C266.35 292.88 265.9 291.86 265.06 291.12C264.24 290.38 263.21 290.01 261.97 290.01C261.13 290.01 260.35 290.2 259.63 290.58C258.91 290.94 258.33 291.49 257.89 292.23C257.47 292.95 257.26 293.85 257.26 294.93V295.74C257.26 296.92 257.48 297.91 257.92 298.71C258.36 299.51 258.94 300.11 259.66 300.51C260.38 300.91 261.15 301.11 261.97 301.11C262.97 301.11 263.81 300.88 264.49 300.42C265.17 299.96 265.67 299.33 265.99 298.53H268.66C268.4 299.43 267.97 300.25 267.37 300.99C266.77 301.73 266.01 302.31 265.09 302.73C264.19 303.15 263.16 303.36 262 303.36ZM272.219 303V288.12H274.919V290.16C275.399 289.4 276.029 288.81 276.809 288.39C277.609 287.97 278.499 287.76 279.479 287.76C280.639 287.76 281.649 288 282.509 288.48C283.369 288.96 284.019 289.68 284.459 290.64C284.979 289.74 285.689 289.04 286.589 288.54C287.509 288.02 288.499 287.76 289.559 287.76C291.359 287.76 292.789 288.3 293.849 289.38C294.929 290.46 295.469 292.12 295.469 294.36V303H292.769V294.63C292.769 293.11 292.469 291.97 291.869 291.21C291.269 290.45 290.389 290.07 289.229 290.07C288.069 290.07 287.099 290.53 286.319 291.45C285.559 292.35 285.179 293.63 285.179 295.29V303H282.509V294.63C282.509 293.11 282.199 291.97 281.579 291.21C280.979 290.45 280.109 290.07 278.969 290.07C277.809 290.07 276.839 290.53 276.059 291.45C275.299 292.35 274.919 293.63 274.919 295.29V303H272.219ZM298.872 303V299.43H302.532V303H298.872Z" fill="white"/>
</svg>
