<svg width="362" height="364" viewBox="0 0 362 364" fill="none" xmlns="http://www.w3.org/2000/svg">
<path d="M36.4949 75L44.8949 54.09H47.8049L56.2049 75H51.9749L46.3949 59.82L40.7249 75H36.4949ZM42.0149 70.92L43.2149 67.44H49.5149L50.7749 70.92H42.0149ZM63.7925 75.3C62.4925 75.3 61.3725 74.97 60.4325 74.31C59.4925 73.63 58.7625 72.71 58.2425 71.55C57.7425 70.37 57.4925 69.05 57.4925 67.59C57.4925 65.97 57.7725 64.59 58.3325 63.45C58.9125 62.31 59.6825 61.44 60.6425 60.84C61.6025 60.22 62.6525 59.91 63.7925 59.91C64.5925 59.91 65.3325 60.08 66.0125 60.42C66.7125 60.74 67.3125 61.23 67.8125 61.89C68.3125 62.55 68.6425 63.39 68.8025 64.41L68.0525 64.2V54.09H71.7425V75H68.0525V71.04L68.9225 70.62C68.6825 71.78 68.2925 72.71 67.7525 73.41C67.2325 74.09 66.6225 74.58 65.9225 74.88C65.2425 75.16 64.5325 75.3 63.7925 75.3ZM64.8125 71.88C65.5525 71.88 66.1825 71.7 66.7025 71.34C67.2425 70.98 67.6525 70.48 67.9325 69.84C68.2325 69.2 68.3825 68.45 68.3825 67.59C68.3825 66.73 68.2325 65.98 67.9325 65.34C67.6525 64.7 67.2425 64.21 66.7025 63.87C66.1825 63.51 65.5525 63.33 64.8125 63.33C64.0925 63.33 63.4625 63.51 62.9225 63.87C62.3825 64.21 61.9625 64.7 61.6625 65.34C61.3825 65.96 61.2425 66.71 61.2425 67.59C61.2425 68.47 61.3825 69.23 61.6625 69.87C61.9625 70.51 62.3825 71.01 62.9225 71.37C63.4625 71.71 64.0925 71.88 64.8125 71.88ZM75.5891 75V54.09H89.5691V57.57H79.4591V62.55H88.2491V66H79.4591V75H75.5891ZM92.1076 75V60.21H95.8276V75H92.1076ZM91.9876 57.93V54.09H95.9776V57.93H91.9876ZM102.941 75.3C101.921 75.3 101.081 74.99 100.421 74.37C99.7611 73.75 99.4311 72.77 99.4311 71.43V54.09H103.121V70.71C103.121 71.13 103.221 71.43 103.421 71.61C103.621 71.77 103.881 71.85 104.201 71.85C104.361 71.85 104.531 71.84 104.711 71.82C104.891 71.78 105.081 71.73 105.281 71.67V74.85C104.861 75.01 104.441 75.12 104.021 75.18C103.621 75.26 103.261 75.3 102.941 75.3ZM107.841 75V60.21H111.591V64.05L110.781 64.68C110.921 63.74 111.161 62.96 111.501 62.34C111.841 61.72 112.241 61.24 112.701 60.9C113.181 60.54 113.671 60.29 114.171 60.15C114.691 59.99 115.201 59.91 115.701 59.91C116.481 59.91 117.221 60.06 117.921 60.36C118.621 60.64 119.231 61.13 119.751 61.83C120.271 62.53 120.631 63.49 120.831 64.71L118.611 65.52C118.911 64.12 119.341 63.01 119.901 62.19C120.481 61.37 121.141 60.79 121.881 60.45C122.641 60.09 123.441 59.91 124.281 59.91C125.541 59.91 126.561 60.19 127.341 60.75C128.121 61.31 128.691 62.03 129.051 62.91C129.431 63.77 129.621 64.69 129.621 65.67V75H125.901V66.57C125.901 65.83 125.801 65.21 125.601 64.71C125.421 64.19 125.151 63.8 124.791 63.54C124.431 63.28 123.961 63.15 123.381 63.15C122.781 63.15 122.271 63.31 121.851 63.63C121.431 63.95 121.111 64.43 120.891 65.07C120.691 65.71 120.591 66.53 120.591 67.53V75H116.871V66.51C116.871 65.39 116.661 64.55 116.241 63.99C115.841 63.43 115.251 63.15 114.471 63.15C113.851 63.15 113.321 63.31 112.881 63.63C112.461 63.95 112.141 64.43 111.921 65.07C111.701 65.71 111.591 66.53 111.591 67.53V75H107.841ZM138.254 75.3C137.154 75.3 136.194 75.14 135.374 74.82C134.554 74.5 133.854 74.1 133.274 73.62C132.714 73.14 132.264 72.68 131.924 72.24L134.474 70.02C134.814 70.58 135.294 71.1 135.914 71.58C136.554 72.04 137.344 72.27 138.284 72.27C139.024 72.27 139.594 72.13 139.994 71.85C140.414 71.55 140.624 71.18 140.624 70.74C140.624 70.38 140.494 70.09 140.234 69.87C139.974 69.63 139.624 69.44 139.184 69.3C138.744 69.14 138.254 68.99 137.714 68.85C137.154 68.69 136.574 68.51 135.974 68.31C135.374 68.11 134.824 67.85 134.324 67.53C133.824 67.19 133.414 66.76 133.094 66.24C132.794 65.72 132.644 65.07 132.644 64.29C132.644 62.99 133.154 61.94 134.174 61.14C135.194 60.32 136.544 59.91 138.224 59.91C139.404 59.91 140.474 60.15 141.434 60.63C142.394 61.09 143.154 61.76 143.714 62.64L141.404 64.47C141.044 63.89 140.564 63.46 139.964 63.18C139.384 62.88 138.764 62.73 138.104 62.73C137.524 62.73 137.044 62.84 136.664 63.06C136.304 63.28 136.124 63.58 136.124 63.96C136.124 64.22 136.204 64.44 136.364 64.62C136.544 64.8 136.824 64.96 137.204 65.1C137.604 65.22 138.124 65.36 138.764 65.52C139.364 65.66 139.984 65.83 140.624 66.03C141.264 66.23 141.864 66.5 142.424 66.84C142.984 67.18 143.434 67.63 143.774 68.19C144.114 68.75 144.284 69.46 144.284 70.32C144.284 71.3 144.034 72.17 143.534 72.93C143.034 73.67 142.334 74.25 141.434 74.67C140.534 75.09 139.474 75.3 138.254 75.3ZM45.0149 135.33C42.9149 135.33 41.1949 134.78 39.8549 133.68C38.5149 132.58 37.6949 131.12 37.3949 129.3L39.9749 128.67C40.1949 130.07 40.7649 131.14 41.6849 131.88C42.6249 132.6 43.7649 132.96 45.1049 132.96C45.8849 132.96 46.5849 132.81 47.2049 132.51C47.8249 132.21 48.3149 131.79 48.6749 131.25C49.0349 130.69 49.2149 130.06 49.2149 129.36C49.2149 128.62 49.0149 128.01 48.6149 127.53C48.2149 127.05 47.6549 126.63 46.9349 126.27C46.2349 125.91 45.4149 125.55 44.4749 125.19C43.3149 124.75 42.2949 124.27 41.4149 123.75C40.5549 123.23 39.8849 122.61 39.4049 121.89C38.9249 121.15 38.6849 120.25 38.6849 119.19C38.6849 118.13 38.9449 117.19 39.4649 116.37C39.9849 115.55 40.7149 114.91 41.6549 114.45C42.5949 113.97 43.6849 113.73 44.9249 113.73C46.2449 113.73 47.4149 114.03 48.4349 114.63C49.4549 115.23 50.2749 116.12 50.8949 117.3L48.7949 118.59C48.3349 117.77 47.7749 117.15 47.1149 116.73C46.4549 116.29 45.6949 116.07 44.8349 116.07C44.1549 116.07 43.5449 116.2 43.0049 116.46C42.4849 116.72 42.0749 117.08 41.7749 117.54C41.4749 118 41.3249 118.53 41.3249 119.13C41.3249 119.77 41.5049 120.32 41.8649 120.78C42.2249 121.22 42.7449 121.61 43.4249 121.95C44.1049 122.29 44.9249 122.64 45.8849 123C47.1049 123.46 48.1549 123.96 49.0349 124.5C49.9149 125.04 50.5949 125.69 51.0749 126.45C51.5749 127.19 51.8249 128.11 51.8249 129.21C51.8249 130.39 51.5349 131.44 50.9549 132.36C50.3749 133.28 49.5749 134.01 48.5549 134.55C47.5349 135.07 46.3549 135.33 45.0149 135.33ZM61.4985 135.24C60.3985 135.24 59.4185 135.04 58.5585 134.64C57.7185 134.24 57.0085 133.69 56.4285 132.99C55.8485 132.27 55.4085 131.45 55.1085 130.53C54.8085 129.61 54.6585 128.63 54.6585 127.59C54.6585 126.57 54.8085 125.6 55.1085 124.68C55.4085 123.76 55.8485 122.95 56.4285 122.25C57.0085 121.53 57.7185 120.97 58.5585 120.57C59.4185 120.17 60.3985 119.97 61.4985 119.97C62.8985 119.97 64.1185 120.31 65.1585 120.99C66.2185 121.67 66.9985 122.71 67.4985 124.11L65.2485 124.98C64.9685 124.14 64.5185 123.46 63.8985 122.94C63.2785 122.42 62.4785 122.16 61.4985 122.16C60.5185 122.16 59.7085 122.42 59.0685 122.94C58.4285 123.46 57.9485 124.13 57.6285 124.95C57.3285 125.77 57.1785 126.65 57.1785 127.59C57.1785 128.53 57.3285 129.42 57.6285 130.26C57.9485 131.08 58.4285 131.75 59.0685 132.27C59.7085 132.77 60.5185 133.02 61.4985 133.02C62.4785 133.02 63.2785 132.77 63.8985 132.27C64.5185 131.75 64.9685 131.06 65.2485 130.2L67.4985 131.07C66.9985 132.47 66.2185 133.52 65.1585 134.22C64.1185 134.9 62.8985 135.24 61.4985 135.24ZM80.5958 135L80.4158 132.03V125.73C80.4158 124.59 80.0958 123.71 79.4558 123.09C78.8358 122.47 77.9058 122.16 76.6658 122.16C75.8658 122.16 75.1158 122.33 74.4158 122.67C73.7158 122.99 73.0358 123.54 72.3758 124.32L70.5458 122.76C71.3658 121.8 72.3058 121.1 73.3658 120.66C74.4258 120.2 75.5858 119.97 76.8458 119.97C78.7858 119.97 80.2858 120.47 81.3458 121.47C82.4058 122.47 82.9358 123.89 82.9358 125.73V135H80.5958ZM75.7058 135.24C74.5858 135.24 73.6058 135.05 72.7658 134.67C71.9458 134.27 71.3058 133.72 70.8458 133.02C70.4058 132.32 70.1858 131.51 70.1858 130.59C70.1858 129.77 70.3458 129.08 70.6658 128.52C71.0058 127.94 71.4358 127.49 71.9558 127.17C72.4758 126.83 73.0658 126.6 73.7258 126.48C74.4058 126.34 75.1158 126.27 75.8558 126.27H80.6558V128.19H76.2158C75.7758 128.19 75.3158 128.23 74.8358 128.31C74.3558 128.39 73.9358 128.56 73.5758 128.82C73.3158 129.02 73.1058 129.27 72.9458 129.57C72.8058 129.87 72.7358 130.22 72.7358 130.62C72.7358 131.4 73.0258 132.02 73.6058 132.48C74.1858 132.94 74.9658 133.17 75.9458 133.17C76.7658 133.17 77.5058 132.98 78.1658 132.6C78.8458 132.22 79.3858 131.7 79.7858 131.04C80.2058 130.36 80.4158 129.6 80.4158 128.76L81.4658 129.84C81.3458 130.9 81.0258 131.84 80.5058 132.66C79.9858 133.48 79.3158 134.12 78.4958 134.58C77.6958 135.02 76.7658 135.24 75.7058 135.24ZM90.047 135.24C89.147 135.24 88.417 134.96 87.857 134.4C87.297 133.84 87.017 132.95 87.017 131.73V114.09H89.537V131.25C89.537 131.83 89.657 132.25 89.897 132.51C90.137 132.77 90.457 132.9 90.857 132.9C91.037 132.9 91.237 132.88 91.457 132.84C91.677 132.8 91.907 132.74 92.147 132.66V134.82C91.807 134.96 91.447 135.06 91.067 135.12C90.687 135.2 90.347 135.24 90.047 135.24ZM104.736 135L104.556 132.03V125.73C104.556 124.59 104.236 123.71 103.596 123.09C102.976 122.47 102.046 122.16 100.806 122.16C100.006 122.16 99.2564 122.33 98.5564 122.67C97.8564 122.99 97.1764 123.54 96.5164 124.32L94.6864 122.76C95.5064 121.8 96.4464 121.1 97.5064 120.66C98.5664 120.2 99.7264 119.97 100.986 119.97C102.926 119.97 104.426 120.47 105.486 121.47C106.546 122.47 107.076 123.89 107.076 125.73V135H104.736ZM99.8464 135.24C98.7264 135.24 97.7464 135.05 96.9064 134.67C96.0864 134.27 95.4464 133.72 94.9864 133.02C94.5464 132.32 94.3264 131.51 94.3264 130.59C94.3264 129.77 94.4864 129.08 94.8064 128.52C95.1464 127.94 95.5764 127.49 96.0964 127.17C96.6164 126.83 97.2064 126.6 97.8664 126.48C98.5464 126.34 99.2564 126.27 99.9964 126.27H104.796V128.19H100.356C99.9164 128.19 99.4564 128.23 98.9764 128.31C98.4964 128.39 98.0764 128.56 97.7164 128.82C97.4564 129.02 97.2464 129.27 97.0864 129.57C96.9464 129.87 96.8764 130.22 96.8764 130.62C96.8764 131.4 97.1664 132.02 97.7464 132.48C98.3264 132.94 99.1064 133.17 100.086 133.17C100.906 133.17 101.646 132.98 102.306 132.6C102.986 132.22 103.526 131.7 103.926 131.04C104.346 130.36 104.556 129.6 104.556 128.76L105.606 129.84C105.486 130.9 105.166 131.84 104.646 132.66C104.126 133.48 103.456 134.12 102.636 134.58C101.836 135.02 100.906 135.24 99.8464 135.24ZM118.478 135.24C117.538 135.24 116.688 135.06 115.928 134.7C115.188 134.32 114.558 133.8 114.038 133.14C113.538 132.48 113.158 131.72 112.898 130.86L113.738 130.59V135H111.218V114.09H113.738V124.62L113.018 124.2C113.238 123.42 113.598 122.71 114.098 122.07C114.598 121.43 115.218 120.92 115.958 120.54C116.698 120.16 117.538 119.97 118.478 119.97C119.718 119.97 120.848 120.28 121.868 120.9C122.888 121.52 123.698 122.4 124.298 123.54C124.898 124.68 125.198 126.03 125.198 127.59C125.198 129.03 124.918 130.33 124.358 131.49C123.798 132.65 123.008 133.57 121.988 134.25C120.988 134.91 119.818 135.24 118.478 135.24ZM118.058 132.9C118.958 132.9 119.748 132.68 120.428 132.24C121.128 131.78 121.668 131.15 122.048 130.35C122.448 129.55 122.648 128.63 122.648 127.59C122.648 126.55 122.448 125.63 122.048 124.83C121.668 124.03 121.128 123.41 120.428 122.97C119.748 122.51 118.958 122.28 118.058 122.28C117.158 122.28 116.368 122.51 115.688 122.97C115.008 123.41 114.478 124.03 114.098 124.83C113.718 125.63 113.528 126.55 113.528 127.59C113.528 128.63 113.718 129.55 114.098 130.35C114.478 131.15 115.008 131.78 115.688 132.24C116.368 132.68 117.158 132.9 118.058 132.9ZM131.795 135.24C130.895 135.24 130.165 134.96 129.605 134.4C129.045 133.84 128.765 132.95 128.765 131.73V114.09H131.285V131.25C131.285 131.83 131.405 132.25 131.645 132.51C131.885 132.77 132.205 132.9 132.605 132.9C132.785 132.9 132.985 132.88 133.205 132.84C133.425 132.8 133.655 132.74 133.895 132.66V134.82C133.555 134.96 133.195 135.06 132.815 135.12C132.435 135.2 132.095 135.24 131.795 135.24ZM143.004 135.24C141.844 135.24 140.824 135.05 139.944 134.67C139.084 134.27 138.364 133.72 137.784 133.02C137.224 132.32 136.794 131.52 136.494 130.62C136.214 129.7 136.074 128.73 136.074 127.71C136.074 126.69 136.214 125.72 136.494 124.8C136.774 123.86 137.184 123.03 137.724 122.31C138.284 121.59 138.984 121.02 139.824 120.6C140.664 120.18 141.644 119.97 142.764 119.97C143.904 119.97 144.884 120.17 145.704 120.57C146.544 120.95 147.224 121.48 147.744 122.16C148.284 122.84 148.684 123.6 148.944 124.44C149.204 125.28 149.334 126.15 149.334 127.05C149.334 127.13 149.324 127.32 149.304 127.62C149.304 127.9 149.284 128.15 149.244 128.37H138.594C138.654 129.81 139.074 130.93 139.854 131.73C140.634 132.53 141.694 132.93 143.034 132.93C143.894 132.93 144.644 132.79 145.284 132.51C145.924 132.23 146.524 131.78 147.084 131.16L148.854 132.72C148.314 133.3 147.744 133.78 147.144 134.16C146.544 134.52 145.904 134.79 145.224 134.97C144.564 135.15 143.824 135.24 143.004 135.24ZM146.814 127.08C146.854 126.92 146.874 126.76 146.874 126.6C146.894 126.44 146.904 126.28 146.904 126.12C146.904 125.64 146.814 125.16 146.634 124.68C146.474 124.2 146.224 123.77 145.884 123.39C145.564 122.99 145.144 122.68 144.624 122.46C144.124 122.22 143.524 122.1 142.824 122.1C141.964 122.1 141.224 122.3 140.604 122.7C139.984 123.1 139.504 123.63 139.164 124.29C138.824 124.95 138.624 125.68 138.564 126.48H147.654L146.814 127.08ZM151.526 139.62L154.316 130.59H157.136L153.236 139.62H151.526ZM38.4149 171.12V150.21H40.9349V154.62L40.1249 154.05C40.3849 153.19 40.7649 152.46 41.2649 151.86C41.7849 151.24 42.4149 150.77 43.1549 150.45C43.8949 150.13 44.7349 149.97 45.6749 149.97C47.0149 149.97 48.1849 150.31 49.1849 150.99C50.2049 151.65 50.9949 152.56 51.5549 153.72C52.1149 154.86 52.3949 156.16 52.3949 157.62C52.3949 159.16 52.0949 160.51 51.4949 161.67C50.8949 162.81 50.0849 163.69 49.0649 164.31C48.0449 164.93 46.9149 165.24 45.6749 165.24C44.7349 165.24 43.8949 165.07 43.1549 164.73C42.4149 164.39 41.7949 163.92 41.2949 163.32C40.7949 162.72 40.4349 162.04 40.2149 161.28L40.9349 160.59V171.12H38.4149ZM45.2549 162.93C46.1549 162.93 46.9449 162.71 47.6249 162.27C48.3249 161.81 48.8649 161.18 49.2449 160.38C49.6449 159.58 49.8449 158.66 49.8449 157.62C49.8449 156.58 49.6449 155.66 49.2449 154.86C48.8649 154.06 48.3249 153.44 47.6249 153C46.9449 152.54 46.1549 152.31 45.2549 152.31C44.3549 152.31 43.5649 152.54 42.8849 153C42.2049 153.44 41.6749 154.06 41.2949 154.86C40.9149 155.66 40.7249 156.58 40.7249 157.62C40.7249 158.66 40.9149 159.58 41.2949 160.38C41.6749 161.18 42.2049 161.81 42.8849 162.27C43.5649 162.71 44.3549 162.93 45.2549 162.93ZM62.2623 165.24C61.1023 165.24 60.0823 165.05 59.2023 164.67C58.3423 164.27 57.6223 163.72 57.0423 163.02C56.4823 162.32 56.0523 161.52 55.7523 160.62C55.4723 159.7 55.3323 158.73 55.3323 157.71C55.3323 156.69 55.4723 155.72 55.7523 154.8C56.0323 153.86 56.4423 153.03 56.9823 152.31C57.5423 151.59 58.2423 151.02 59.0823 150.6C59.9223 150.18 60.9023 149.97 62.0223 149.97C63.1623 149.97 64.1423 150.17 64.9623 150.57C65.8023 150.95 66.4823 151.48 67.0023 152.16C67.5423 152.84 67.9423 153.6 68.2023 154.44C68.4623 155.28 68.5923 156.15 68.5923 157.05C68.5923 157.13 68.5823 157.32 68.5623 157.62C68.5623 157.9 68.5423 158.15 68.5023 158.37H57.8523C57.9123 159.81 58.3323 160.93 59.1123 161.73C59.8923 162.53 60.9523 162.93 62.2923 162.93C63.1523 162.93 63.9023 162.79 64.5423 162.51C65.1823 162.23 65.7823 161.78 66.3423 161.16L68.1123 162.72C67.5723 163.3 67.0023 163.78 66.4023 164.16C65.8023 164.52 65.1623 164.79 64.4823 164.97C63.8223 165.15 63.0823 165.24 62.2623 165.24ZM66.0723 157.08C66.1123 156.92 66.1323 156.76 66.1323 156.6C66.1523 156.44 66.1623 156.28 66.1623 156.12C66.1623 155.64 66.0723 155.16 65.8923 154.68C65.7323 154.2 65.4823 153.77 65.1423 153.39C64.8223 152.99 64.4023 152.68 63.8823 152.46C63.3823 152.22 62.7823 152.1 62.0823 152.1C61.2223 152.1 60.4823 152.3 59.8623 152.7C59.2423 153.1 58.7623 153.63 58.4223 154.29C58.0823 154.95 57.8823 155.68 57.8223 156.48H66.9123L66.0723 157.08ZM72.2235 165V150.21H74.7735V154.17L74.1135 154.32C74.2535 153.44 74.5835 152.68 75.1035 152.04C75.6435 151.38 76.2635 150.87 76.9635 150.51C77.6835 150.15 78.3835 149.97 79.0635 149.97C79.5235 149.97 79.9635 150.02 80.3835 150.12C80.8035 150.22 81.2335 150.39 81.6735 150.63L80.4135 152.91C80.1735 152.79 79.8835 152.69 79.5435 152.61C79.2235 152.53 78.9135 152.49 78.6135 152.49C78.1335 152.49 77.6535 152.58 77.1735 152.76C76.7135 152.94 76.2935 153.22 75.9135 153.6C75.5335 153.98 75.2435 154.49 75.0435 155.13C74.9635 155.41 74.8935 155.78 74.8335 156.24C74.7935 156.68 74.7735 157.29 74.7735 158.07V165H72.2235ZM88.8908 165.24C87.8908 165.24 86.9908 165.09 86.1908 164.79C85.3908 164.49 84.7008 164.09 84.1208 163.59C83.5608 163.09 83.1108 162.56 82.7708 162L84.5408 160.5C84.9208 161.26 85.4808 161.89 86.2208 162.39C86.9808 162.87 87.8808 163.11 88.9208 163.11C89.8608 163.11 90.6108 162.91 91.1708 162.51C91.7308 162.11 92.0108 161.57 92.0108 160.89C92.0108 160.33 91.8408 159.89 91.5008 159.57C91.1608 159.25 90.7108 158.99 90.1508 158.79C89.5908 158.59 88.9808 158.41 88.3208 158.25C87.7608 158.11 87.1908 157.94 86.6108 157.74C86.0508 157.54 85.5408 157.29 85.0808 156.99C84.6208 156.69 84.2508 156.3 83.9708 155.82C83.6908 155.34 83.5508 154.75 83.5508 154.05C83.5508 152.83 84.0208 151.85 84.9608 151.11C85.9208 150.35 87.1708 149.97 88.7108 149.97C89.8308 149.97 90.8508 150.21 91.7708 150.69C92.7108 151.15 93.4408 151.85 93.9608 152.79L92.3408 153.99C91.9408 153.29 91.4108 152.79 90.7508 152.49C90.1108 152.17 89.4008 152.01 88.6208 152.01C87.8408 152.01 87.1908 152.17 86.6708 152.49C86.1508 152.81 85.8908 153.25 85.8908 153.81C85.8908 154.23 86.0108 154.57 86.2508 154.83C86.4908 155.09 86.8408 155.31 87.3008 155.49C87.7808 155.67 88.3608 155.84 89.0408 156C89.6608 156.14 90.2908 156.31 90.9308 156.51C91.5708 156.71 92.1608 156.97 92.7008 157.29C93.2408 157.61 93.6708 158.04 93.9908 158.58C94.3308 159.1 94.5008 159.78 94.5008 160.62C94.5008 161.54 94.2708 162.35 93.8108 163.05C93.3508 163.75 92.7008 164.29 91.8608 164.67C91.0208 165.05 90.0308 165.24 88.8908 165.24ZM104.603 165.24C103.223 165.24 101.983 164.92 100.883 164.28C99.8026 163.62 98.9526 162.71 98.3326 161.55C97.7126 160.39 97.4026 159.07 97.4026 157.59C97.4026 156.11 97.7026 154.8 98.3026 153.66C98.9226 152.5 99.7726 151.6 100.853 150.96C101.953 150.3 103.203 149.97 104.603 149.97C106.003 149.97 107.233 150.3 108.293 150.96C109.373 151.6 110.223 152.5 110.843 153.66C111.463 154.8 111.773 156.11 111.773 157.59C111.773 159.07 111.463 160.39 110.843 161.55C110.223 162.69 109.373 163.59 108.293 164.25C107.213 164.91 105.983 165.24 104.603 165.24ZM104.603 162.99C105.543 162.99 106.353 162.77 107.033 162.33C107.733 161.87 108.273 161.24 108.653 160.44C109.033 159.62 109.223 158.67 109.223 157.59C109.223 156.49 109.033 155.54 108.653 154.74C108.273 153.92 107.733 153.29 107.033 152.85C106.353 152.41 105.543 152.19 104.603 152.19C103.643 152.19 102.813 152.42 102.113 152.88C101.413 153.32 100.873 153.94 100.493 154.74C100.113 155.54 99.9226 156.49 99.9226 157.59C99.9226 158.67 100.113 159.62 100.493 160.44C100.873 161.24 101.413 161.87 102.113 162.33C102.813 162.77 103.643 162.99 104.603 162.99ZM115.407 165V150.21H117.957V153.36L117.357 153.57C117.637 152.81 118.017 152.17 118.497 151.65C118.977 151.11 119.557 150.7 120.237 150.42C120.917 150.12 121.667 149.97 122.487 149.97C124.107 149.97 125.377 150.45 126.297 151.41C127.217 152.35 127.677 153.75 127.677 155.61V165H125.127V156.54C125.127 155.04 124.847 153.94 124.287 153.24C123.747 152.52 122.917 152.16 121.797 152.16C120.977 152.16 120.277 152.35 119.697 152.73C119.137 153.11 118.707 153.71 118.407 154.53C118.107 155.33 117.957 156.36 117.957 157.62V165H115.407ZM141.533 165L141.353 162.03V155.73C141.353 154.59 141.033 153.71 140.393 153.09C139.773 152.47 138.843 152.16 137.603 152.16C136.803 152.16 136.053 152.33 135.353 152.67C134.653 152.99 133.973 153.54 133.313 154.32L131.483 152.76C132.303 151.8 133.243 151.1 134.303 150.66C135.363 150.2 136.523 149.97 137.783 149.97C139.723 149.97 141.223 150.47 142.283 151.47C143.343 152.47 143.873 153.89 143.873 155.73V165H141.533ZM136.643 165.24C135.523 165.24 134.543 165.05 133.703 164.67C132.883 164.27 132.243 163.72 131.783 163.02C131.343 162.32 131.123 161.51 131.123 160.59C131.123 159.77 131.283 159.08 131.603 158.52C131.943 157.94 132.373 157.49 132.893 157.17C133.413 156.83 134.003 156.6 134.663 156.48C135.343 156.34 136.053 156.27 136.793 156.27H141.593V158.19H137.153C136.713 158.19 136.253 158.23 135.773 158.31C135.293 158.39 134.873 158.56 134.513 158.82C134.253 159.02 134.043 159.27 133.883 159.57C133.743 159.87 133.673 160.22 133.673 160.62C133.673 161.4 133.963 162.02 134.543 162.48C135.123 162.94 135.903 163.17 136.883 163.17C137.703 163.17 138.443 162.98 139.103 162.6C139.783 162.22 140.323 161.7 140.723 161.04C141.143 160.36 141.353 159.6 141.353 158.76L142.403 159.84C142.283 160.9 141.963 161.84 141.443 162.66C140.923 163.48 140.253 164.12 139.433 164.58C138.633 165.02 137.703 165.24 136.643 165.24ZM150.984 165.24C150.084 165.24 149.354 164.96 148.794 164.4C148.234 163.84 147.954 162.95 147.954 161.73V144.09H150.474V161.25C150.474 161.83 150.594 162.25 150.834 162.51C151.074 162.77 151.394 162.9 151.794 162.9C151.974 162.9 152.174 162.88 152.394 162.84C152.614 162.8 152.844 162.74 153.084 162.66V164.82C152.744 164.96 152.384 165.06 152.004 165.12C151.624 165.2 151.284 165.24 150.984 165.24ZM155.924 165V150.21H158.444V165H155.924ZM155.684 147.54V144.09H158.684V147.54H155.684ZM161.672 165V163.2L171.032 151.68L171.152 152.25H162.092V150.21H173.492V152.13L164.192 163.71L164.102 162.93H173.432V165H161.672ZM182.79 165.24C181.63 165.24 180.61 165.05 179.73 164.67C178.87 164.27 178.15 163.72 177.57 163.02C177.01 162.32 176.58 161.52 176.28 160.62C176 159.7 175.86 158.73 175.86 157.71C175.86 156.69 176 155.72 176.28 154.8C176.56 153.86 176.97 153.03 177.51 152.31C178.07 151.59 178.77 151.02 179.61 150.6C180.45 150.18 181.43 149.97 182.55 149.97C183.69 149.97 184.67 150.17 185.49 150.57C186.33 150.95 187.01 151.48 187.53 152.16C188.07 152.84 188.47 153.6 188.73 154.44C188.99 155.28 189.12 156.15 189.12 157.05C189.12 157.13 189.11 157.32 189.09 157.62C189.09 157.9 189.07 158.15 189.03 158.37H178.38C178.44 159.81 178.86 160.93 179.64 161.73C180.42 162.53 181.48 162.93 182.82 162.93C183.68 162.93 184.43 162.79 185.07 162.51C185.71 162.23 186.31 161.78 186.87 161.16L188.64 162.72C188.1 163.3 187.53 163.78 186.93 164.16C186.33 164.52 185.69 164.79 185.01 164.97C184.35 165.15 183.61 165.24 182.79 165.24ZM186.6 157.08C186.64 156.92 186.66 156.76 186.66 156.6C186.68 156.44 186.69 156.28 186.69 156.12C186.69 155.64 186.6 155.16 186.42 154.68C186.26 154.2 186.01 153.77 185.67 153.39C185.35 152.99 184.93 152.68 184.41 152.46C183.91 152.22 183.31 152.1 182.61 152.1C181.75 152.1 181.01 152.3 180.39 152.7C179.77 153.1 179.29 153.63 178.95 154.29C178.61 154.95 178.41 155.68 178.35 156.48H187.44L186.6 157.08ZM198.781 165.24C197.441 165.24 196.261 164.91 195.241 164.25C194.241 163.57 193.461 162.65 192.901 161.49C192.341 160.33 192.061 159.03 192.061 157.59C192.061 156.03 192.361 154.68 192.961 153.54C193.561 152.4 194.371 151.52 195.391 150.9C196.411 150.28 197.541 149.97 198.781 149.97C199.721 149.97 200.561 150.16 201.301 150.54C202.041 150.9 202.661 151.4 203.161 152.04C203.681 152.66 204.041 153.36 204.241 154.14L203.521 154.62V144.09H206.041V165H203.521V160.59L204.361 160.86C204.101 161.72 203.711 162.48 203.191 163.14C202.671 163.8 202.041 164.32 201.301 164.7C200.561 165.06 199.721 165.24 198.781 165.24ZM199.201 162.9C200.101 162.9 200.891 162.68 201.571 162.24C202.251 161.78 202.781 161.15 203.161 160.35C203.541 159.55 203.731 158.63 203.731 157.59C203.731 156.55 203.541 155.63 203.161 154.83C202.781 154.03 202.251 153.41 201.571 152.97C200.891 152.51 200.101 152.28 199.201 152.28C198.301 152.28 197.501 152.51 196.801 152.97C196.121 153.41 195.581 154.03 195.181 154.83C194.801 155.63 194.611 156.55 194.611 157.59C194.611 158.63 194.801 159.55 195.181 160.35C195.581 161.15 196.121 161.78 196.801 162.24C197.501 162.68 198.301 162.9 199.201 162.9ZM208.918 169.62L211.708 160.59H214.528L210.628 169.62H208.918ZM225.358 165V144.09H227.908V153.36L227.278 153.6C227.558 152.84 227.948 152.19 228.448 151.65C228.948 151.11 229.538 150.7 230.218 150.42C230.898 150.12 231.638 149.97 232.438 149.97C234.058 149.97 235.328 150.45 236.248 151.41C237.168 152.35 237.628 153.75 237.628 155.61V165H235.078V156.54C235.078 155.04 234.798 153.94 234.238 153.24C233.698 152.52 232.868 152.16 231.748 152.16C230.528 152.16 229.578 152.6 228.898 153.48C228.238 154.34 227.908 155.72 227.908 157.62V165H225.358ZM241.734 165V150.21H244.254V165H241.734ZM241.494 147.54V144.09H244.494V147.54H241.494ZM254.502 171.39C252.382 171.39 250.702 171 249.462 170.22C248.222 169.44 247.602 168.36 247.602 166.98C247.602 166.88 247.602 166.75 247.602 166.59C247.622 166.43 247.652 166.28 247.692 166.14L251.382 163.47L252.252 164.07L250.152 166.68C250.132 166.76 250.122 166.83 250.122 166.89C250.122 166.95 250.122 167.01 250.122 167.07C250.122 167.87 250.542 168.46 251.382 168.84C252.222 169.24 253.262 169.44 254.502 169.44C255.602 169.44 256.512 169.28 257.232 168.96C257.952 168.66 258.312 168.16 258.312 167.46C258.312 167.06 258.192 166.73 257.952 166.47C257.732 166.23 257.402 166.04 256.962 165.9C256.542 165.76 256.042 165.64 255.462 165.54C254.882 165.44 254.232 165.34 253.512 165.24C252.612 165.1 251.732 164.9 250.872 164.64C250.032 164.38 249.332 164 248.772 163.5C248.232 163 247.962 162.34 247.962 161.52C247.962 160.82 248.202 160.18 248.682 159.6C249.182 159.02 249.832 158.54 250.632 158.16L252.252 159.21C251.572 159.37 251.092 159.62 250.812 159.96C250.532 160.28 250.392 160.67 250.392 161.13C250.392 161.51 250.522 161.82 250.782 162.06C251.062 162.3 251.452 162.49 251.952 162.63C252.472 162.75 253.092 162.86 253.812 162.96C254.772 163.1 255.672 163.25 256.512 163.41C257.352 163.57 258.092 163.8 258.732 164.1C259.392 164.38 259.902 164.76 260.262 165.24C260.622 165.74 260.802 166.38 260.802 167.16C260.802 168.52 260.242 169.56 259.122 170.28C258.002 171.02 256.462 171.39 254.502 171.39ZM254.142 160.38C253.002 160.38 251.992 160.16 251.112 159.72C250.232 159.28 249.542 158.67 249.042 157.89C248.562 157.11 248.322 156.22 248.322 155.22C248.322 154.18 248.572 153.27 249.072 152.49C249.592 151.69 250.282 151.07 251.142 150.63C252.022 150.19 252.992 149.97 254.052 149.97C255.092 149.97 256.042 150.19 256.902 150.63C257.762 151.07 258.452 151.69 258.972 152.49C259.492 153.29 259.752 154.23 259.752 155.31C259.752 156.33 259.512 157.22 259.032 157.98C258.552 158.74 257.892 159.33 257.052 159.75C256.212 160.17 255.242 160.38 254.142 160.38ZM254.082 158.31C255.082 158.31 255.852 158.01 256.392 157.41C256.952 156.79 257.232 156.04 257.232 155.16C257.232 154.22 256.942 153.46 256.362 152.88C255.782 152.3 255.022 152.01 254.082 152.01C253.122 152.01 252.342 152.31 251.742 152.91C251.142 153.49 250.842 154.23 250.842 155.13C250.842 156.03 251.132 156.79 251.712 157.41C252.292 158.01 253.082 158.31 254.082 158.31ZM258.792 152.97L256.962 151.74L260.082 149.16L261.372 150.75L258.792 152.97ZM263.942 165V144.09H266.492V153.36L265.862 153.6C266.142 152.84 266.532 152.19 267.032 151.65C267.532 151.11 268.122 150.7 268.802 150.42C269.482 150.12 270.222 149.97 271.022 149.97C272.642 149.97 273.912 150.45 274.832 151.41C275.752 152.35 276.212 153.75 276.212 155.61V165H273.662V156.54C273.662 155.04 273.382 153.94 272.822 153.24C272.282 152.52 271.452 152.16 270.332 152.16C269.112 152.16 268.162 152.6 267.482 153.48C266.822 154.34 266.492 155.72 266.492 157.62V165H263.942ZM279.388 156.84V154.95H286.828V156.84H279.388ZM38.3849 195V180.21H40.9049V195H38.3849ZM38.1449 177.54V174.09H41.1449V177.54H38.1449ZM45.1825 195V180.21H47.7325V184.02H47.2225C47.4025 183.32 47.6425 182.72 47.9425 182.22C48.2625 181.7 48.6325 181.28 49.0525 180.96C49.4725 180.62 49.9225 180.37 50.4025 180.21C50.9025 180.05 51.4225 179.97 51.9625 179.97C52.8625 179.97 53.6525 180.14 54.3325 180.48C55.0125 180.82 55.5725 181.34 56.0125 182.04C56.4525 182.72 56.7525 183.59 56.9125 184.65L55.4725 184.74C55.7725 183.72 56.1525 182.86 56.6125 182.16C57.0725 181.44 57.6425 180.9 58.3225 180.54C59.0225 180.16 59.8525 179.97 60.8125 179.97C62.0325 179.97 63.0125 180.25 63.7525 180.81C64.4925 181.35 65.0325 182.08 65.3725 183C65.7125 183.9 65.8825 184.9 65.8825 186V195H63.3625V186.6C63.3625 185.68 63.2525 184.89 63.0325 184.23C62.8325 183.57 62.5025 183.06 62.0425 182.7C61.6025 182.34 61.0025 182.16 60.2425 182.16C59.5225 182.16 58.9025 182.34 58.3825 182.7C57.8825 183.06 57.4925 183.61 57.2125 184.35C56.9525 185.07 56.8225 185.97 56.8225 187.05V195H54.2725V186.39C54.2725 184.97 54.0125 183.91 53.4925 183.21C52.9725 182.51 52.2125 182.16 51.2125 182.16C50.4925 182.16 49.8725 182.35 49.3525 182.73C48.8325 183.09 48.4325 183.63 48.1525 184.35C47.8725 185.07 47.7325 185.97 47.7325 187.05V195H45.1825ZM70.0262 201.12V180.21H72.5462V184.62L71.7362 184.05C71.9962 183.19 72.3762 182.46 72.8762 181.86C73.3962 181.24 74.0262 180.77 74.7662 180.45C75.5062 180.13 76.3462 179.97 77.2862 179.97C78.6262 179.97 79.7962 180.31 80.7962 180.99C81.8162 181.65 82.6062 182.56 83.1662 183.72C83.7262 184.86 84.0062 186.16 84.0062 187.62C84.0062 189.16 83.7062 190.51 83.1062 191.67C82.5062 192.81 81.6962 193.69 80.6762 194.31C79.6562 194.93 78.5262 195.24 77.2862 195.24C76.3462 195.24 75.5062 195.07 74.7662 194.73C74.0262 194.39 73.4062 193.92 72.9062 193.32C72.4062 192.72 72.0462 192.04 71.8262 191.28L72.5462 190.59V201.12H70.0262ZM76.8662 192.93C77.7662 192.93 78.5562 192.71 79.2362 192.27C79.9362 191.81 80.4762 191.18 80.8562 190.38C81.2562 189.58 81.4562 188.66 81.4562 187.62C81.4562 186.58 81.2562 185.66 80.8562 184.86C80.4762 184.06 79.9362 183.44 79.2362 183C78.5562 182.54 77.7662 182.31 76.8662 182.31C75.9662 182.31 75.1762 182.54 74.4962 183C73.8162 183.44 73.2862 184.06 72.9062 184.86C72.5262 185.66 72.3362 186.58 72.3362 187.62C72.3362 188.66 72.5262 189.58 72.9062 190.38C73.2862 191.18 73.8162 191.81 74.4962 192.27C75.1762 192.71 75.9662 192.93 76.8662 192.93ZM97.3536 195L97.1736 192.03V185.73C97.1736 184.59 96.8536 183.71 96.2136 183.09C95.5936 182.47 94.6636 182.16 93.4236 182.16C92.6236 182.16 91.8736 182.33 91.1736 182.67C90.4736 182.99 89.7936 183.54 89.1336 184.32L87.3036 182.76C88.1236 181.8 89.0636 181.1 90.1236 180.66C91.1836 180.2 92.3436 179.97 93.6036 179.97C95.5436 179.97 97.0436 180.47 98.1036 181.47C99.1636 182.47 99.6936 183.89 99.6936 185.73V195H97.3536ZM92.4636 195.24C91.3436 195.24 90.3636 195.05 89.5236 194.67C88.7036 194.27 88.0636 193.72 87.6036 193.02C87.1636 192.32 86.9436 191.51 86.9436 190.59C86.9436 189.77 87.1036 189.08 87.4236 188.52C87.7636 187.94 88.1936 187.49 88.7136 187.17C89.2336 186.83 89.8236 186.6 90.4836 186.48C91.1636 186.34 91.8736 186.27 92.6136 186.27H97.4136V188.19H92.9736C92.5336 188.19 92.0736 188.23 91.5936 188.31C91.1136 188.39 90.6936 188.56 90.3336 188.82C90.0736 189.02 89.8636 189.27 89.7036 189.57C89.5636 189.87 89.4936 190.22 89.4936 190.62C89.4936 191.4 89.7836 192.02 90.3636 192.48C90.9436 192.94 91.7236 193.17 92.7036 193.17C93.5236 193.17 94.2636 192.98 94.9236 192.6C95.6036 192.22 96.1436 191.7 96.5436 191.04C96.9636 190.36 97.1736 189.6 97.1736 188.76L98.2236 189.84C98.1036 190.9 97.7836 191.84 97.2636 192.66C96.7436 193.48 96.0736 194.12 95.2536 194.58C94.4536 195.02 93.5236 195.24 92.4636 195.24ZM109.985 195.24C108.885 195.24 107.905 195.04 107.045 194.64C106.205 194.24 105.495 193.69 104.915 192.99C104.335 192.27 103.895 191.45 103.595 190.53C103.295 189.61 103.145 188.63 103.145 187.59C103.145 186.57 103.295 185.6 103.595 184.68C103.895 183.76 104.335 182.95 104.915 182.25C105.495 181.53 106.205 180.97 107.045 180.57C107.905 180.17 108.885 179.97 109.985 179.97C111.385 179.97 112.605 180.31 113.645 180.99C114.705 181.67 115.485 182.71 115.985 184.11L113.735 184.98C113.455 184.14 113.005 183.46 112.385 182.94C111.765 182.42 110.965 182.16 109.985 182.16C109.005 182.16 108.195 182.42 107.555 182.94C106.915 183.46 106.435 184.13 106.115 184.95C105.815 185.77 105.665 186.65 105.665 187.59C105.665 188.53 105.815 189.42 106.115 190.26C106.435 191.08 106.915 191.75 107.555 192.27C108.195 192.77 109.005 193.02 109.985 193.02C110.965 193.02 111.765 192.77 112.385 192.27C113.005 191.75 113.455 191.06 113.735 190.2L115.985 191.07C115.485 192.47 114.705 193.52 113.645 194.22C112.605 194.9 111.385 195.24 109.985 195.24ZM124.282 195.24C123.582 195.24 122.942 195.11 122.362 194.85C121.802 194.57 121.362 194.13 121.042 193.53C120.722 192.93 120.562 192.16 120.562 191.22V176.25L123.142 174.81V190.56C123.142 191.38 123.272 192.02 123.532 192.48C123.792 192.92 124.262 193.14 124.942 193.14C125.142 193.14 125.382 193.12 125.662 193.08C125.942 193.02 126.242 192.95 126.562 192.87V194.85C126.182 194.99 125.792 195.09 125.392 195.15C125.012 195.21 124.642 195.24 124.282 195.24ZM117.502 182.19V180.21H126.562V182.19H117.502ZM142.116 195L136.056 180.21H138.846L143.166 191.73L147.516 180.21H150.276L144.246 195H142.116ZM153.141 195V180.21H155.661V195H153.141ZM152.901 177.54V174.09H155.901V177.54H152.901ZM165.968 195.24C164.628 195.24 163.448 194.91 162.428 194.25C161.428 193.57 160.648 192.65 160.088 191.49C159.528 190.33 159.248 189.03 159.248 187.59C159.248 186.03 159.548 184.68 160.148 183.54C160.748 182.4 161.558 181.52 162.578 180.9C163.598 180.28 164.728 179.97 165.968 179.97C166.908 179.97 167.748 180.16 168.488 180.54C169.228 180.9 169.848 181.4 170.348 182.04C170.868 182.66 171.228 183.36 171.428 184.14L170.708 184.62V174.09H173.228V195H170.708V190.59L171.548 190.86C171.288 191.72 170.898 192.48 170.378 193.14C169.858 193.8 169.228 194.32 168.488 194.7C167.748 195.06 166.908 195.24 165.968 195.24ZM166.388 192.9C167.288 192.9 168.078 192.68 168.758 192.24C169.438 191.78 169.968 191.15 170.348 190.35C170.728 189.55 170.918 188.63 170.918 187.59C170.918 186.55 170.728 185.63 170.348 184.83C169.968 184.03 169.438 183.41 168.758 182.97C168.078 182.51 167.288 182.28 166.388 182.28C165.488 182.28 164.688 182.51 163.988 182.97C163.308 183.41 162.768 184.03 162.368 184.83C161.988 185.63 161.798 186.55 161.798 187.59C161.798 188.63 161.988 189.55 162.368 190.35C162.768 191.15 163.308 191.78 163.988 192.24C164.688 192.68 165.488 192.9 166.388 192.9ZM183.786 195.24C182.626 195.24 181.606 195.05 180.726 194.67C179.866 194.27 179.146 193.72 178.566 193.02C178.006 192.32 177.576 191.52 177.276 190.62C176.996 189.7 176.856 188.73 176.856 187.71C176.856 186.69 176.996 185.72 177.276 184.8C177.556 183.86 177.966 183.03 178.506 182.31C179.066 181.59 179.766 181.02 180.606 180.6C181.446 180.18 182.426 179.97 183.546 179.97C184.686 179.97 185.666 180.17 186.486 180.57C187.326 180.95 188.006 181.48 188.526 182.16C189.066 182.84 189.466 183.6 189.726 184.44C189.986 185.28 190.116 186.15 190.116 187.05C190.116 187.13 190.106 187.32 190.086 187.62C190.086 187.9 190.066 188.15 190.026 188.37H179.376C179.436 189.81 179.856 190.93 180.636 191.73C181.416 192.53 182.476 192.93 183.816 192.93C184.676 192.93 185.426 192.79 186.066 192.51C186.706 192.23 187.306 191.78 187.866 191.16L189.636 192.72C189.096 193.3 188.526 193.78 187.926 194.16C187.326 194.52 186.686 194.79 186.006 194.97C185.346 195.15 184.606 195.24 183.786 195.24ZM187.596 187.08C187.636 186.92 187.656 186.76 187.656 186.6C187.676 186.44 187.686 186.28 187.686 186.12C187.686 185.64 187.596 185.16 187.416 184.68C187.256 184.2 187.006 183.77 186.666 183.39C186.346 182.99 185.926 182.68 185.406 182.46C184.906 182.22 184.306 182.1 183.606 182.1C182.746 182.1 182.006 182.3 181.386 182.7C180.766 183.1 180.286 183.63 179.946 184.29C179.606 184.95 179.406 185.68 179.346 186.48H188.436L187.596 187.08ZM200.257 195.24C198.877 195.24 197.637 194.92 196.537 194.28C195.457 193.62 194.607 192.71 193.987 191.55C193.367 190.39 193.057 189.07 193.057 187.59C193.057 186.11 193.357 184.8 193.957 183.66C194.577 182.5 195.427 181.6 196.507 180.96C197.607 180.3 198.857 179.97 200.257 179.97C201.657 179.97 202.887 180.3 203.947 180.96C205.027 181.6 205.877 182.5 206.497 183.66C207.117 184.8 207.427 186.11 207.427 187.59C207.427 189.07 207.117 190.39 206.497 191.55C205.877 192.69 205.027 193.59 203.947 194.25C202.867 194.91 201.637 195.24 200.257 195.24ZM200.257 192.99C201.197 192.99 202.007 192.77 202.687 192.33C203.387 191.87 203.927 191.24 204.307 190.44C204.687 189.62 204.877 188.67 204.877 187.59C204.877 186.49 204.687 185.54 204.307 184.74C203.927 183.92 203.387 183.29 202.687 182.85C202.007 182.41 201.197 182.19 200.257 182.19C199.297 182.19 198.467 182.42 197.767 182.88C197.067 183.32 196.527 183.94 196.147 184.74C195.767 185.54 195.577 186.49 195.577 187.59C195.577 188.67 195.767 189.62 196.147 190.44C196.527 191.24 197.067 191.87 197.767 192.33C198.467 192.77 199.297 192.99 200.257 192.99ZM215.951 195.24C214.951 195.24 214.051 195.09 213.251 194.79C212.451 194.49 211.761 194.09 211.181 193.59C210.621 193.09 210.171 192.56 209.831 192L211.601 190.5C211.981 191.26 212.541 191.89 213.281 192.39C214.041 192.87 214.941 193.11 215.981 193.11C216.921 193.11 217.671 192.91 218.231 192.51C218.791 192.11 219.071 191.57 219.071 190.89C219.071 190.33 218.901 189.89 218.561 189.57C218.221 189.25 217.771 188.99 217.211 188.79C216.651 188.59 216.041 188.41 215.381 188.25C214.821 188.11 214.251 187.94 213.671 187.74C213.111 187.54 212.601 187.29 212.141 186.99C211.681 186.69 211.311 186.3 211.031 185.82C210.751 185.34 210.611 184.75 210.611 184.05C210.611 182.83 211.081 181.85 212.021 181.11C212.981 180.35 214.231 179.97 215.771 179.97C216.891 179.97 217.911 180.21 218.831 180.69C219.771 181.15 220.501 181.85 221.021 182.79L219.401 183.99C219.001 183.29 218.471 182.79 217.811 182.49C217.171 182.17 216.461 182.01 215.681 182.01C214.901 182.01 214.251 182.17 213.731 182.49C213.211 182.81 212.951 183.25 212.951 183.81C212.951 184.23 213.071 184.57 213.311 184.83C213.551 185.09 213.901 185.31 214.361 185.49C214.841 185.67 215.421 185.84 216.101 186C216.721 186.14 217.351 186.31 217.991 186.51C218.631 186.71 219.221 186.97 219.761 187.29C220.301 187.61 220.731 188.04 221.051 188.58C221.391 189.1 221.561 189.78 221.561 190.62C221.561 191.54 221.331 192.35 220.871 193.05C220.411 193.75 219.761 194.29 218.921 194.67C218.081 195.05 217.091 195.24 215.951 195.24ZM237.866 195.24C237.166 195.24 236.526 195.11 235.946 194.85C235.386 194.57 234.946 194.13 234.626 193.53C234.306 192.93 234.146 192.16 234.146 191.22V176.25L236.726 174.81V190.56C236.726 191.38 236.856 192.02 237.116 192.48C237.376 192.92 237.846 193.14 238.526 193.14C238.726 193.14 238.966 193.12 239.246 193.08C239.526 193.02 239.826 192.95 240.146 192.87V194.85C239.766 194.99 239.376 195.09 238.976 195.15C238.596 195.21 238.226 195.24 237.866 195.24ZM231.086 182.19V180.21H240.146V182.19H231.086ZM243.317 195V174.09H245.867V183.36L245.237 183.6C245.517 182.84 245.907 182.19 246.407 181.65C246.907 181.11 247.497 180.7 248.177 180.42C248.857 180.12 249.597 179.97 250.397 179.97C252.017 179.97 253.287 180.45 254.207 181.41C255.127 182.35 255.587 183.75 255.587 185.61V195H253.037V186.54C253.037 185.04 252.757 183.94 252.197 183.24C251.657 182.52 250.827 182.16 249.707 182.16C248.487 182.16 247.537 182.6 246.857 183.48C246.197 184.34 245.867 185.72 245.867 187.62V195H243.317ZM269.443 195L269.263 192.03V185.73C269.263 184.59 268.943 183.71 268.303 183.09C267.683 182.47 266.753 182.16 265.513 182.16C264.713 182.16 263.963 182.33 263.263 182.67C262.563 182.99 261.883 183.54 261.223 184.32L259.393 182.76C260.213 181.8 261.153 181.1 262.213 180.66C263.273 180.2 264.433 179.97 265.693 179.97C267.633 179.97 269.133 180.47 270.193 181.47C271.253 182.47 271.783 183.89 271.783 185.73V195H269.443ZM264.553 195.24C263.433 195.24 262.453 195.05 261.613 194.67C260.793 194.27 260.153 193.72 259.693 193.02C259.253 192.32 259.033 191.51 259.033 190.59C259.033 189.77 259.193 189.08 259.513 188.52C259.853 187.94 260.283 187.49 260.803 187.17C261.323 186.83 261.913 186.6 262.573 186.48C263.253 186.34 263.963 186.27 264.703 186.27H269.503V188.19H265.063C264.623 188.19 264.163 188.23 263.683 188.31C263.203 188.39 262.783 188.56 262.423 188.82C262.163 189.02 261.953 189.27 261.793 189.57C261.653 189.87 261.583 190.22 261.583 190.62C261.583 191.4 261.873 192.02 262.453 192.48C263.033 192.94 263.813 193.17 264.793 193.17C265.613 193.17 266.353 192.98 267.013 192.6C267.693 192.22 268.233 191.7 268.633 191.04C269.053 190.36 269.263 189.6 269.263 188.76L270.313 189.84C270.193 190.9 269.873 191.84 269.353 192.66C268.833 193.48 268.163 194.12 267.343 194.58C266.543 195.02 265.613 195.24 264.553 195.24ZM280.845 195.24C280.145 195.24 279.505 195.11 278.925 194.85C278.365 194.57 277.925 194.13 277.605 193.53C277.285 192.93 277.125 192.16 277.125 191.22V176.25L279.705 174.81V190.56C279.705 191.38 279.835 192.02 280.095 192.48C280.355 192.92 280.825 193.14 281.505 193.14C281.705 193.14 281.945 193.12 282.225 193.08C282.505 193.02 282.805 192.95 283.125 192.87V194.85C282.745 194.99 282.355 195.09 281.955 195.15C281.575 195.21 281.205 195.24 280.845 195.24ZM274.065 182.19V180.21H283.125V182.19H274.065ZM44.5649 225.24C43.4649 225.24 42.4849 225.04 41.6249 224.64C40.7849 224.24 40.0749 223.69 39.4949 222.99C38.9149 222.27 38.4749 221.45 38.1749 220.53C37.8749 219.61 37.7249 218.63 37.7249 217.59C37.7249 216.57 37.8749 215.6 38.1749 214.68C38.4749 213.76 38.9149 212.95 39.4949 212.25C40.0749 211.53 40.7849 210.97 41.6249 210.57C42.4849 210.17 43.4649 209.97 44.5649 209.97C45.9649 209.97 47.1849 210.31 48.2249 210.99C49.2849 211.67 50.0649 212.71 50.5649 214.11L48.3149 214.98C48.0349 214.14 47.5849 213.46 46.9649 212.94C46.3449 212.42 45.5449 212.16 44.5649 212.16C43.5849 212.16 42.7749 212.42 42.1349 212.94C41.4949 213.46 41.0149 214.13 40.6949 214.95C40.3949 215.77 40.2449 216.65 40.2449 217.59C40.2449 218.53 40.3949 219.42 40.6949 220.26C41.0149 221.08 41.4949 221.75 42.1349 222.27C42.7749 222.77 43.5849 223.02 44.5649 223.02C45.5449 223.02 46.3449 222.77 46.9649 222.27C47.5849 221.75 48.0349 221.06 48.3149 220.2L50.5649 221.07C50.0649 222.47 49.2849 223.52 48.2249 224.22C47.1849 224.9 45.9649 225.24 44.5649 225.24ZM60.4522 225.24C59.0722 225.24 57.8322 224.92 56.7322 224.28C55.6522 223.62 54.8022 222.71 54.1822 221.55C53.5622 220.39 53.2522 219.07 53.2522 217.59C53.2522 216.11 53.5522 214.8 54.1522 213.66C54.7722 212.5 55.6222 211.6 56.7022 210.96C57.8022 210.3 59.0522 209.97 60.4522 209.97C61.8522 209.97 63.0822 210.3 64.1422 210.96C65.2222 211.6 66.0722 212.5 66.6922 213.66C67.3122 214.8 67.6222 216.11 67.6222 217.59C67.6222 219.07 67.3122 220.39 66.6922 221.55C66.0722 222.69 65.2222 223.59 64.1422 224.25C63.0622 224.91 61.8322 225.24 60.4522 225.24ZM60.4522 222.99C61.3922 222.99 62.2022 222.77 62.8822 222.33C63.5822 221.87 64.1222 221.24 64.5022 220.44C64.8822 219.62 65.0722 218.67 65.0722 217.59C65.0722 216.49 64.8822 215.54 64.5022 214.74C64.1222 213.92 63.5822 213.29 62.8822 212.85C62.2022 212.41 61.3922 212.19 60.4522 212.19C59.4922 212.19 58.6622 212.42 57.9622 212.88C57.2622 213.32 56.7222 213.94 56.3422 214.74C55.9622 215.54 55.7722 216.49 55.7722 217.59C55.7722 218.67 55.9622 219.62 56.3422 220.44C56.7222 221.24 57.2622 221.87 57.9622 222.33C58.6622 222.77 59.4922 222.99 60.4522 222.99ZM71.2567 225V210.21H73.8067V213.36L73.2067 213.57C73.4867 212.81 73.8667 212.17 74.3467 211.65C74.8267 211.11 75.4067 210.7 76.0867 210.42C76.7667 210.12 77.5167 209.97 78.3367 209.97C79.9567 209.97 81.2267 210.45 82.1467 211.41C83.0667 212.35 83.5267 213.75 83.5267 215.61V225H80.9767V216.54C80.9767 215.04 80.6967 213.94 80.1367 213.24C79.5967 212.52 78.7667 212.16 77.6467 212.16C76.8267 212.16 76.1267 212.35 75.5467 212.73C74.9867 213.11 74.5567 213.71 74.2567 214.53C73.9567 215.33 73.8067 216.36 73.8067 217.62V225H71.2567ZM87.6629 225V210.21H90.2129V213.36L89.6129 213.57C89.8929 212.81 90.2729 212.17 90.7529 211.65C91.2329 211.11 91.8129 210.7 92.4929 210.42C93.1729 210.12 93.9229 209.97 94.7429 209.97C96.3629 209.97 97.6329 210.45 98.5529 211.41C99.4729 212.35 99.9329 213.75 99.9329 215.61V225H97.3829V216.54C97.3829 215.04 97.1029 213.94 96.5429 213.24C96.0029 212.52 95.1729 212.16 94.0529 212.16C93.2329 212.16 92.5329 212.35 91.9529 212.73C91.3929 213.11 90.9629 213.71 90.6629 214.53C90.3629 215.33 90.2129 216.36 90.2129 217.62V225H87.6629ZM110.309 225.24C109.149 225.24 108.129 225.05 107.249 224.67C106.389 224.27 105.669 223.72 105.089 223.02C104.529 222.32 104.099 221.52 103.799 220.62C103.519 219.7 103.379 218.73 103.379 217.71C103.379 216.69 103.519 215.72 103.799 214.8C104.079 213.86 104.489 213.03 105.029 212.31C105.589 211.59 106.289 211.02 107.129 210.6C107.969 210.18 108.949 209.97 110.069 209.97C111.209 209.97 112.189 210.17 113.009 210.57C113.849 210.95 114.529 211.48 115.049 212.16C115.589 212.84 115.989 213.6 116.249 214.44C116.509 215.28 116.639 216.15 116.639 217.05C116.639 217.13 116.629 217.32 116.609 217.62C116.609 217.9 116.589 218.15 116.549 218.37H105.899C105.959 219.81 106.379 220.93 107.159 221.73C107.939 222.53 108.999 222.93 110.339 222.93C111.199 222.93 111.949 222.79 112.589 222.51C113.229 222.23 113.829 221.78 114.389 221.16L116.159 222.72C115.619 223.3 115.049 223.78 114.449 224.16C113.849 224.52 113.209 224.79 112.529 224.97C111.869 225.15 111.129 225.24 110.309 225.24ZM114.119 217.08C114.159 216.92 114.179 216.76 114.179 216.6C114.199 216.44 114.209 216.28 114.209 216.12C114.209 215.64 114.119 215.16 113.939 214.68C113.779 214.2 113.529 213.77 113.189 213.39C112.869 212.99 112.449 212.68 111.929 212.46C111.429 212.22 110.829 212.1 110.129 212.1C109.269 212.1 108.529 212.3 107.909 212.7C107.289 213.1 106.809 213.63 106.469 214.29C106.129 214.95 105.929 215.68 105.869 216.48H114.959L114.119 217.08ZM126.42 225.24C125.32 225.24 124.34 225.04 123.48 224.64C122.64 224.24 121.93 223.69 121.35 222.99C120.77 222.27 120.33 221.45 120.03 220.53C119.73 219.61 119.58 218.63 119.58 217.59C119.58 216.57 119.73 215.6 120.03 214.68C120.33 213.76 120.77 212.95 121.35 212.25C121.93 211.53 122.64 210.97 123.48 210.57C124.34 210.17 125.32 209.97 126.42 209.97C127.82 209.97 129.04 210.31 130.08 210.99C131.14 211.67 131.92 212.71 132.42 214.11L130.17 214.98C129.89 214.14 129.44 213.46 128.82 212.94C128.2 212.42 127.4 212.16 126.42 212.16C125.44 212.16 124.63 212.42 123.99 212.94C123.35 213.46 122.87 214.13 122.55 214.95C122.25 215.77 122.1 216.65 122.1 217.59C122.1 218.53 122.25 219.42 122.55 220.26C122.87 221.08 123.35 221.75 123.99 222.27C124.63 222.77 125.44 223.02 126.42 223.02C127.4 223.02 128.2 222.77 128.82 222.27C129.44 221.75 129.89 221.06 130.17 220.2L132.42 221.07C131.92 222.47 131.14 223.52 130.08 224.22C129.04 224.9 127.82 225.24 126.42 225.24ZM140.718 225.24C140.018 225.24 139.378 225.11 138.798 224.85C138.238 224.57 137.798 224.13 137.478 223.53C137.158 222.93 136.998 222.16 136.998 221.22V206.25L139.578 204.81V220.56C139.578 221.38 139.708 222.02 139.968 222.48C140.228 222.92 140.698 223.14 141.378 223.14C141.578 223.14 141.818 223.12 142.098 223.08C142.378 223.02 142.678 222.95 142.998 222.87V224.85C142.618 224.99 142.228 225.09 141.828 225.15C141.448 225.21 141.078 225.24 140.718 225.24ZM133.938 212.19V210.21H142.998V212.19H133.938ZM157.022 225L152.642 210.21H155.342L158.342 221.16L161.882 210.21H164.132L167.672 221.1L170.702 210.21H173.402L168.992 225H166.652L163.022 213.75L159.392 225H157.022ZM176.373 225V210.21H178.893V225H176.373ZM176.133 207.54V204.09H179.133V207.54H176.133ZM188.091 225.24C187.391 225.24 186.751 225.11 186.171 224.85C185.611 224.57 185.171 224.13 184.851 223.53C184.531 222.93 184.371 222.16 184.371 221.22V206.25L186.951 204.81V220.56C186.951 221.38 187.081 222.02 187.341 222.48C187.601 222.92 188.071 223.14 188.751 223.14C188.951 223.14 189.191 223.12 189.471 223.08C189.751 223.02 190.051 222.95 190.371 222.87V224.85C189.991 224.99 189.601 225.09 189.201 225.15C188.821 225.21 188.451 225.24 188.091 225.24ZM181.311 212.19V210.21H190.371V212.19H181.311ZM193.542 225V204.09H196.092V213.36L195.462 213.6C195.742 212.84 196.132 212.19 196.632 211.65C197.132 211.11 197.722 210.7 198.402 210.42C199.082 210.12 199.822 209.97 200.622 209.97C202.242 209.97 203.512 210.45 204.432 211.41C205.352 212.35 205.812 213.75 205.812 215.61V225H203.262V216.54C203.262 215.04 202.982 213.94 202.422 213.24C201.882 212.52 201.052 212.16 199.932 212.16C198.712 212.16 197.762 212.6 197.082 213.48C196.422 214.34 196.092 215.72 196.092 217.62V225H193.542ZM217.741 225V210.21H220.291V214.02H219.781C219.961 213.32 220.201 212.72 220.501 212.22C220.821 211.7 221.191 211.28 221.611 210.96C222.031 210.62 222.481 210.37 222.961 210.21C223.461 210.05 223.981 209.97 224.521 209.97C225.421 209.97 226.211 210.14 226.891 210.48C227.571 210.82 228.131 211.34 228.571 212.04C229.011 212.72 229.311 213.59 229.471 214.65L228.031 214.74C228.331 213.72 228.711 212.86 229.171 212.16C229.631 211.44 230.201 210.9 230.881 210.54C231.581 210.16 232.411 209.97 233.371 209.97C234.591 209.97 235.571 210.25 236.311 210.81C237.051 211.35 237.591 212.08 237.931 213C238.271 213.9 238.441 214.9 238.441 216V225H235.921V216.6C235.921 215.68 235.811 214.89 235.591 214.23C235.391 213.57 235.061 213.06 234.601 212.7C234.161 212.34 233.561 212.16 232.801 212.16C232.081 212.16 231.461 212.34 230.941 212.7C230.441 213.06 230.051 213.61 229.771 214.35C229.511 215.07 229.381 215.97 229.381 217.05V225H226.831V216.39C226.831 214.97 226.571 213.91 226.051 213.21C225.531 212.51 224.771 212.16 223.771 212.16C223.051 212.16 222.431 212.35 221.911 212.73C221.391 213.09 220.991 213.63 220.711 214.35C220.431 215.07 220.291 215.97 220.291 217.05V225H217.741ZM247.565 225.24C246.505 225.24 245.585 225.03 244.805 224.61C244.025 224.17 243.425 223.53 243.005 222.69C242.605 221.85 242.405 220.81 242.405 219.57V210.21H244.925V218.67C244.925 219.65 245.045 220.47 245.285 221.13C245.545 221.77 245.925 222.25 246.425 222.57C246.925 222.87 247.545 223.02 248.285 223.02C249.105 223.02 249.795 222.83 250.355 222.45C250.935 222.05 251.375 221.45 251.675 220.65C251.975 219.85 252.125 218.82 252.125 217.56V210.21H254.645V225H252.125V221.85H252.755C252.335 222.95 251.665 223.79 250.745 224.37C249.825 224.95 248.765 225.24 247.565 225.24ZM261.961 225.24C261.061 225.24 260.331 224.96 259.771 224.4C259.211 223.84 258.931 222.95 258.931 221.73V204.09H261.451V221.25C261.451 221.83 261.571 222.25 261.811 222.51C262.051 222.77 262.371 222.9 262.771 222.9C262.951 222.9 263.151 222.88 263.371 222.84C263.591 222.8 263.821 222.74 264.061 222.66V224.82C263.721 224.96 263.361 225.06 262.981 225.12C262.601 225.2 262.261 225.24 261.961 225.24ZM271.558 225.24C270.858 225.24 270.218 225.11 269.638 224.85C269.078 224.57 268.638 224.13 268.318 223.53C267.998 222.93 267.838 222.16 267.838 221.22V206.25L270.418 204.81V220.56C270.418 221.38 270.548 222.02 270.808 222.48C271.068 222.92 271.538 223.14 272.218 223.14C272.418 223.14 272.658 223.12 272.938 223.08C273.218 223.02 273.518 222.95 273.838 222.87V224.85C273.458 224.99 273.068 225.09 272.668 225.15C272.288 225.21 271.918 225.24 271.558 225.24ZM264.778 212.19V210.21H273.838V212.19H264.778ZM276.979 225V210.21H279.499V225H276.979ZM276.739 207.54V204.09H279.739V207.54H276.739ZM283.776 231.12V210.21H286.296V214.62L285.486 214.05C285.746 213.19 286.126 212.46 286.626 211.86C287.146 211.24 287.776 210.77 288.516 210.45C289.256 210.13 290.096 209.97 291.036 209.97C292.376 209.97 293.546 210.31 294.546 210.99C295.566 211.65 296.356 212.56 296.916 213.72C297.476 214.86 297.756 216.16 297.756 217.62C297.756 219.16 297.456 220.51 296.856 221.67C296.256 222.81 295.446 223.69 294.426 224.31C293.406 224.93 292.276 225.24 291.036 225.24C290.096 225.24 289.256 225.07 288.516 224.73C287.776 224.39 287.156 223.92 286.656 223.32C286.156 222.72 285.796 222.04 285.576 221.28L286.296 220.59V231.12H283.776ZM290.616 222.93C291.516 222.93 292.306 222.71 292.986 222.27C293.686 221.81 294.226 221.18 294.606 220.38C295.006 219.58 295.206 218.66 295.206 217.62C295.206 216.58 295.006 215.66 294.606 214.86C294.226 214.06 293.686 213.44 292.986 213C292.306 212.54 291.516 212.31 290.616 212.31C289.716 212.31 288.926 212.54 288.246 213C287.566 213.44 287.036 214.06 286.656 214.86C286.276 215.66 286.086 216.58 286.086 217.62C286.086 218.66 286.276 219.58 286.656 220.38C287.036 221.18 287.566 221.81 288.246 222.27C288.926 222.71 289.716 222.93 290.616 222.93ZM304.354 225.24C303.454 225.24 302.724 224.96 302.164 224.4C301.604 223.84 301.324 222.95 301.324 221.73V204.09H303.844V221.25C303.844 221.83 303.964 222.25 304.204 222.51C304.444 222.77 304.764 222.9 305.164 222.9C305.344 222.9 305.544 222.88 305.764 222.84C305.984 222.8 306.214 222.74 306.454 222.66V224.82C306.114 224.96 305.754 225.06 305.374 225.12C304.994 225.2 304.654 225.24 304.354 225.24ZM315.563 225.24C314.403 225.24 313.383 225.05 312.503 224.67C311.643 224.27 310.923 223.72 310.343 223.02C309.783 222.32 309.353 221.52 309.053 220.62C308.773 219.7 308.633 218.73 308.633 217.71C308.633 216.69 308.773 215.72 309.053 214.8C309.333 213.86 309.743 213.03 310.283 212.31C310.843 211.59 311.543 211.02 312.383 210.6C313.223 210.18 314.203 209.97 315.323 209.97C316.463 209.97 317.443 210.17 318.263 210.57C319.103 210.95 319.783 211.48 320.303 212.16C320.843 212.84 321.243 213.6 321.503 214.44C321.763 215.28 321.893 216.15 321.893 217.05C321.893 217.13 321.883 217.32 321.863 217.62C321.863 217.9 321.843 218.15 321.803 218.37H311.153C311.213 219.81 311.633 220.93 312.413 221.73C313.193 222.53 314.253 222.93 315.593 222.93C316.453 222.93 317.203 222.79 317.843 222.51C318.483 222.23 319.083 221.78 319.643 221.16L321.413 222.72C320.873 223.3 320.303 223.78 319.703 224.16C319.103 224.52 318.463 224.79 317.783 224.97C317.123 225.15 316.383 225.24 315.563 225.24ZM319.373 217.08C319.413 216.92 319.433 216.76 319.433 216.6C319.453 216.44 319.463 216.28 319.463 216.12C319.463 215.64 319.373 215.16 319.193 214.68C319.033 214.2 318.783 213.77 318.443 213.39C318.123 212.99 317.703 212.68 317.183 212.46C316.683 212.22 316.083 212.1 315.383 212.1C314.523 212.1 313.783 212.3 313.163 212.7C312.543 213.1 312.063 213.63 311.723 214.29C311.383 214.95 311.183 215.68 311.123 216.48H320.213L319.373 217.08ZM48.1349 255L47.9549 252.03V245.73C47.9549 244.59 47.6349 243.71 46.9949 243.09C46.3749 242.47 45.4449 242.16 44.2049 242.16C43.4049 242.16 42.6549 242.33 41.9549 242.67C41.2549 242.99 40.5749 243.54 39.9149 244.32L38.0849 242.76C38.9049 241.8 39.8449 241.1 40.9049 240.66C41.9649 240.2 43.1249 239.97 44.3849 239.97C46.3249 239.97 47.8249 240.47 48.8849 241.47C49.9449 242.47 50.4749 243.89 50.4749 245.73V255H48.1349ZM43.2449 255.24C42.1249 255.24 41.1449 255.05 40.3049 254.67C39.4849 254.27 38.8449 253.72 38.3849 253.02C37.9449 252.32 37.7249 251.51 37.7249 250.59C37.7249 249.77 37.8849 249.08 38.2049 248.52C38.5449 247.94 38.9749 247.49 39.4949 247.17C40.0149 246.83 40.6049 246.6 41.2649 246.48C41.9449 246.34 42.6549 246.27 43.3949 246.27H48.1949V248.19H43.7549C43.3149 248.19 42.8549 248.23 42.3749 248.31C41.8949 248.39 41.4749 248.56 41.1149 248.82C40.8549 249.02 40.6449 249.27 40.4849 249.57C40.3449 249.87 40.2749 250.22 40.2749 250.62C40.2749 251.4 40.5649 252.02 41.1449 252.48C41.7249 252.94 42.5049 253.17 43.4849 253.17C44.3049 253.17 45.0449 252.98 45.7049 252.6C46.3849 252.22 46.9249 251.7 47.3249 251.04C47.7449 250.36 47.9549 249.6 47.9549 248.76L49.0049 249.84C48.8849 250.9 48.5649 251.84 48.0449 252.66C47.5249 253.48 46.8549 254.12 46.0349 254.58C45.2349 255.02 44.3049 255.24 43.2449 255.24ZM59.5961 255.24C58.5361 255.24 57.6161 255.03 56.8361 254.61C56.0561 254.17 55.4561 253.53 55.0361 252.69C54.6361 251.85 54.4361 250.81 54.4361 249.57V240.21H56.9561V248.67C56.9561 249.65 57.0761 250.47 57.3161 251.13C57.5761 251.77 57.9561 252.25 58.4561 252.57C58.9561 252.87 59.5761 253.02 60.3161 253.02C61.1361 253.02 61.8261 252.83 62.3861 252.45C62.9661 252.05 63.4061 251.45 63.7061 250.65C64.0061 249.85 64.1561 248.82 64.1561 247.56V240.21H66.6761V255H64.1561V251.85H64.7861C64.3661 252.95 63.6961 253.79 62.7761 254.37C61.8561 254.95 60.7961 255.24 59.5961 255.24ZM77.0523 255.24C75.7123 255.24 74.5323 254.91 73.5123 254.25C72.5123 253.57 71.7323 252.65 71.1723 251.49C70.6123 250.33 70.3323 249.03 70.3323 247.59C70.3323 246.03 70.6323 244.68 71.2323 243.54C71.8323 242.4 72.6423 241.52 73.6623 240.9C74.6823 240.28 75.8123 239.97 77.0523 239.97C77.9923 239.97 78.8323 240.16 79.5723 240.54C80.3123 240.9 80.9323 241.4 81.4323 242.04C81.9523 242.66 82.3123 243.36 82.5123 244.14L81.7923 244.62V234.09H84.3123V255H81.7923V250.59L82.6323 250.86C82.3723 251.72 81.9823 252.48 81.4623 253.14C80.9423 253.8 80.3123 254.32 79.5723 254.7C78.8323 255.06 77.9923 255.24 77.0523 255.24ZM77.4723 252.9C78.3723 252.9 79.1623 252.68 79.8423 252.24C80.5223 251.78 81.0523 251.15 81.4323 250.35C81.8123 249.55 82.0023 248.63 82.0023 247.59C82.0023 246.55 81.8123 245.63 81.4323 244.83C81.0523 244.03 80.5223 243.41 79.8423 242.97C79.1623 242.51 78.3723 242.28 77.4723 242.28C76.5723 242.28 75.7723 242.51 75.0723 242.97C74.3923 243.41 73.8523 244.03 73.4523 244.83C73.0723 245.63 72.8823 246.55 72.8823 247.59C72.8823 248.63 73.0723 249.55 73.4523 250.35C73.8523 251.15 74.3923 251.78 75.0723 252.24C75.7723 252.68 76.5723 252.9 77.4723 252.9ZM88.5997 255V240.21H91.1197V255H88.5997ZM88.3597 237.54V234.09H91.3597V237.54H88.3597ZM101.637 255.24C100.477 255.24 99.4573 255.05 98.5773 254.67C97.7173 254.27 96.9973 253.72 96.4173 253.02C95.8573 252.32 95.4273 251.52 95.1273 250.62C94.8473 249.7 94.7073 248.73 94.7073 247.71C94.7073 246.69 94.8473 245.72 95.1273 244.8C95.4073 243.86 95.8173 243.03 96.3573 242.31C96.9173 241.59 97.6173 241.02 98.4573 240.6C99.2973 240.18 100.277 239.97 101.397 239.97C102.537 239.97 103.517 240.17 104.337 240.57C105.177 240.95 105.857 241.48 106.377 242.16C106.917 242.84 107.317 243.6 107.577 244.44C107.837 245.28 107.967 246.15 107.967 247.05C107.967 247.13 107.957 247.32 107.937 247.62C107.937 247.9 107.917 248.15 107.877 248.37H97.2273C97.2873 249.81 97.7073 250.93 98.4873 251.73C99.2673 252.53 100.327 252.93 101.667 252.93C102.527 252.93 103.277 252.79 103.917 252.51C104.557 252.23 105.157 251.78 105.717 251.16L107.487 252.72C106.947 253.3 106.377 253.78 105.777 254.16C105.177 254.52 104.537 254.79 103.857 254.97C103.197 255.15 102.457 255.24 101.637 255.24ZM105.447 247.08C105.487 246.92 105.507 246.76 105.507 246.6C105.527 246.44 105.537 246.28 105.537 246.12C105.537 245.64 105.447 245.16 105.267 244.68C105.107 244.2 104.857 243.77 104.517 243.39C104.197 242.99 103.777 242.68 103.257 242.46C102.757 242.22 102.157 242.1 101.457 242.1C100.597 242.1 99.8573 242.3 99.2373 242.7C98.6173 243.1 98.1373 243.63 97.7973 244.29C97.4573 244.95 97.2573 245.68 97.1973 246.48H106.287L105.447 247.08ZM111.598 255V240.21H114.148V243.36L113.548 243.57C113.828 242.81 114.208 242.17 114.688 241.65C115.168 241.11 115.748 240.7 116.428 240.42C117.108 240.12 117.858 239.97 118.678 239.97C120.298 239.97 121.568 240.45 122.488 241.41C123.408 242.35 123.868 243.75 123.868 245.61V255H121.318V246.54C121.318 245.04 121.038 243.94 120.478 243.24C119.938 242.52 119.108 242.16 117.988 242.16C117.168 242.16 116.468 242.35 115.888 242.73C115.328 243.11 114.898 243.71 114.598 244.53C114.298 245.33 114.148 246.36 114.148 247.62V255H111.598ZM134.155 255.24C133.055 255.24 132.075 255.04 131.215 254.64C130.375 254.24 129.665 253.69 129.085 252.99C128.505 252.27 128.065 251.45 127.765 250.53C127.465 249.61 127.315 248.63 127.315 247.59C127.315 246.57 127.465 245.6 127.765 244.68C128.065 243.76 128.505 242.95 129.085 242.25C129.665 241.53 130.375 240.97 131.215 240.57C132.075 240.17 133.055 239.97 134.155 239.97C135.555 239.97 136.775 240.31 137.815 240.99C138.875 241.67 139.655 242.71 140.155 244.11L137.905 244.98C137.625 244.14 137.175 243.46 136.555 242.94C135.935 242.42 135.135 242.16 134.155 242.16C133.175 242.16 132.365 242.42 131.725 242.94C131.085 243.46 130.605 244.13 130.285 244.95C129.985 245.77 129.835 246.65 129.835 247.59C129.835 248.53 129.985 249.42 130.285 250.26C130.605 251.08 131.085 251.75 131.725 252.27C132.365 252.77 133.175 253.02 134.155 253.02C135.135 253.02 135.935 252.77 136.555 252.27C137.175 251.75 137.625 251.06 137.905 250.2L140.155 251.07C139.655 252.47 138.875 253.52 137.815 254.22C136.775 254.9 135.555 255.24 134.155 255.24ZM149.772 255.24C148.612 255.24 147.592 255.05 146.712 254.67C145.852 254.27 145.132 253.72 144.552 253.02C143.992 252.32 143.562 251.52 143.262 250.62C142.982 249.7 142.842 248.73 142.842 247.71C142.842 246.69 142.982 245.72 143.262 244.8C143.542 243.86 143.952 243.03 144.492 242.31C145.052 241.59 145.752 241.02 146.592 240.6C147.432 240.18 148.412 239.97 149.532 239.97C150.672 239.97 151.652 240.17 152.472 240.57C153.312 240.95 153.992 241.48 154.512 242.16C155.052 242.84 155.452 243.6 155.712 244.44C155.972 245.28 156.102 246.15 156.102 247.05C156.102 247.13 156.092 247.32 156.072 247.62C156.072 247.9 156.052 248.15 156.012 248.37H145.362C145.422 249.81 145.842 250.93 146.622 251.73C147.402 252.53 148.462 252.93 149.802 252.93C150.662 252.93 151.412 252.79 152.052 252.51C152.692 252.23 153.292 251.78 153.852 251.16L155.622 252.72C155.082 253.3 154.512 253.78 153.912 254.16C153.312 254.52 152.672 254.79 151.992 254.97C151.332 255.15 150.592 255.24 149.772 255.24ZM153.582 247.08C153.622 246.92 153.642 246.76 153.642 246.6C153.662 246.44 153.672 246.28 153.672 246.12C153.672 245.64 153.582 245.16 153.402 244.68C153.242 244.2 152.992 243.77 152.652 243.39C152.332 242.99 151.912 242.68 151.392 242.46C150.892 242.22 150.292 242.1 149.592 242.1C148.732 242.1 147.992 242.3 147.372 242.7C146.752 243.1 146.272 243.63 145.932 244.29C145.592 244.95 145.392 245.68 145.332 246.48H154.422L153.582 247.08ZM164.623 255.24C163.623 255.24 162.723 255.09 161.923 254.79C161.123 254.49 160.433 254.09 159.853 253.59C159.293 253.09 158.843 252.56 158.503 252L160.273 250.5C160.653 251.26 161.213 251.89 161.953 252.39C162.713 252.87 163.613 253.11 164.653 253.11C165.593 253.11 166.343 252.91 166.903 252.51C167.463 252.11 167.743 251.57 167.743 250.89C167.743 250.33 167.573 249.89 167.233 249.57C166.893 249.25 166.443 248.99 165.883 248.79C165.323 248.59 164.713 248.41 164.053 248.25C163.493 248.11 162.923 247.94 162.343 247.74C161.783 247.54 161.273 247.29 160.813 246.99C160.353 246.69 159.983 246.3 159.703 245.82C159.423 245.34 159.283 244.75 159.283 244.05C159.283 242.83 159.753 241.85 160.693 241.11C161.653 240.35 162.903 239.97 164.443 239.97C165.563 239.97 166.583 240.21 167.503 240.69C168.443 241.15 169.173 241.85 169.693 242.79L168.073 243.99C167.673 243.29 167.143 242.79 166.483 242.49C165.843 242.17 165.133 242.01 164.353 242.01C163.573 242.01 162.923 242.17 162.403 242.49C161.883 242.81 161.623 243.25 161.623 243.81C161.623 244.23 161.743 244.57 161.983 244.83C162.223 245.09 162.573 245.31 163.033 245.49C163.513 245.67 164.093 245.84 164.773 246C165.393 246.14 166.023 246.31 166.663 246.51C167.303 246.71 167.893 246.97 168.433 247.29C168.973 247.61 169.403 248.04 169.723 248.58C170.063 249.1 170.233 249.78 170.233 250.62C170.233 251.54 170.003 252.35 169.543 253.05C169.083 253.75 168.433 254.29 167.593 254.67C166.753 255.05 165.763 255.24 164.623 255.24ZM191.338 255L191.158 252.03V245.73C191.158 244.59 190.838 243.71 190.198 243.09C189.578 242.47 188.648 242.16 187.408 242.16C186.608 242.16 185.858 242.33 185.158 242.67C184.458 242.99 183.778 243.54 183.118 244.32L181.288 242.76C182.108 241.8 183.048 241.1 184.108 240.66C185.168 240.2 186.328 239.97 187.588 239.97C189.528 239.97 191.028 240.47 192.088 241.47C193.148 242.47 193.678 243.89 193.678 245.73V255H191.338ZM186.448 255.24C185.328 255.24 184.348 255.05 183.508 254.67C182.688 254.27 182.048 253.72 181.588 253.02C181.148 252.32 180.928 251.51 180.928 250.59C180.928 249.77 181.088 249.08 181.408 248.52C181.748 247.94 182.178 247.49 182.698 247.17C183.218 246.83 183.808 246.6 184.468 246.48C185.148 246.34 185.858 246.27 186.598 246.27H191.398V248.19H186.958C186.518 248.19 186.058 248.23 185.578 248.31C185.098 248.39 184.678 248.56 184.318 248.82C184.058 249.02 183.848 249.27 183.688 249.57C183.548 249.87 183.478 250.22 183.478 250.62C183.478 251.4 183.768 252.02 184.348 252.48C184.928 252.94 185.708 253.17 186.688 253.17C187.508 253.17 188.248 252.98 188.908 252.6C189.588 252.22 190.128 251.7 190.528 251.04C190.948 250.36 191.158 249.6 191.158 248.76L192.208 249.84C192.088 250.9 191.768 251.84 191.248 252.66C190.728 253.48 190.058 254.12 189.238 254.58C188.438 255.02 187.508 255.24 186.448 255.24ZM202.739 255.24C202.039 255.24 201.399 255.11 200.819 254.85C200.259 254.57 199.819 254.13 199.499 253.53C199.179 252.93 199.019 252.16 199.019 251.22V236.25L201.599 234.81V250.56C201.599 251.38 201.729 252.02 201.989 252.48C202.249 252.92 202.719 253.14 203.399 253.14C203.599 253.14 203.839 253.12 204.119 253.08C204.399 253.02 204.699 252.95 205.019 252.87V254.85C204.639 254.99 204.249 255.09 203.849 255.15C203.469 255.21 203.099 255.24 202.739 255.24ZM195.959 242.19V240.21H205.019V242.19H195.959ZM220.903 255.24C220.203 255.24 219.563 255.11 218.983 254.85C218.423 254.57 217.983 254.13 217.663 253.53C217.343 252.93 217.183 252.16 217.183 251.22V236.25L219.763 234.81V250.56C219.763 251.38 219.893 252.02 220.153 252.48C220.413 252.92 220.883 253.14 221.563 253.14C221.763 253.14 222.003 253.12 222.283 253.08C222.563 253.02 222.863 252.95 223.183 252.87V254.85C222.803 254.99 222.413 255.09 222.013 255.15C221.633 255.21 221.263 255.24 220.903 255.24ZM214.123 242.19V240.21H223.183V242.19H214.123ZM226.354 255V234.09H228.904V243.36L228.274 243.6C228.554 242.84 228.944 242.19 229.444 241.65C229.944 241.11 230.534 240.7 231.214 240.42C231.894 240.12 232.634 239.97 233.434 239.97C235.054 239.97 236.324 240.45 237.244 241.41C238.164 242.35 238.624 243.75 238.624 245.61V255H236.074V246.54C236.074 245.04 235.794 243.94 235.234 243.24C234.694 242.52 233.864 242.16 232.744 242.16C231.524 242.16 230.574 242.6 229.894 243.48C229.234 244.34 228.904 245.72 228.904 247.62V255H226.354ZM249.001 255.24C247.841 255.24 246.821 255.05 245.941 254.67C245.081 254.27 244.361 253.72 243.781 253.02C243.221 252.32 242.791 251.52 242.491 250.62C242.211 249.7 242.071 248.73 242.071 247.71C242.071 246.69 242.211 245.72 242.491 244.8C242.771 243.86 243.181 243.03 243.721 242.31C244.281 241.59 244.981 241.02 245.821 240.6C246.661 240.18 247.641 239.97 248.761 239.97C249.901 239.97 250.881 240.17 251.701 240.57C252.541 240.95 253.221 241.48 253.741 242.16C254.281 242.84 254.681 243.6 254.941 244.44C255.201 245.28 255.331 246.15 255.331 247.05C255.331 247.13 255.321 247.32 255.301 247.62C255.301 247.9 255.281 248.15 255.241 248.37H244.591C244.651 249.81 245.071 250.93 245.851 251.73C246.631 252.53 247.691 252.93 249.031 252.93C249.891 252.93 250.641 252.79 251.281 252.51C251.921 252.23 252.521 251.78 253.081 251.16L254.851 252.72C254.311 253.3 253.741 253.78 253.141 254.16C252.541 254.52 251.901 254.79 251.221 254.97C250.561 255.15 249.821 255.24 249.001 255.24ZM252.811 247.08C252.851 246.92 252.871 246.76 252.871 246.6C252.891 246.44 252.901 246.28 252.901 246.12C252.901 245.64 252.811 245.16 252.631 244.68C252.471 244.2 252.221 243.77 251.881 243.39C251.561 242.99 251.141 242.68 250.621 242.46C250.121 242.22 249.521 242.1 248.821 242.1C247.961 242.1 247.221 242.3 246.601 242.7C245.981 243.1 245.501 243.63 245.161 244.29C244.821 244.95 244.621 245.68 244.561 246.48H253.651L252.811 247.08ZM43.3049 285.24C42.3049 285.24 41.4049 285.09 40.6049 284.79C39.8049 284.49 39.1149 284.09 38.5349 283.59C37.9749 283.09 37.5249 282.56 37.1849 282L38.9549 280.5C39.3349 281.26 39.8949 281.89 40.6349 282.39C41.3949 282.87 42.2949 283.11 43.3349 283.11C44.2749 283.11 45.0249 282.91 45.5849 282.51C46.1449 282.11 46.4249 281.57 46.4249 280.89C46.4249 280.33 46.2549 279.89 45.9149 279.57C45.5749 279.25 45.1249 278.99 44.5649 278.79C44.0049 278.59 43.3949 278.41 42.7349 278.25C42.1749 278.11 41.6049 277.94 41.0249 277.74C40.4649 277.54 39.9549 277.29 39.4949 276.99C39.0349 276.69 38.6649 276.3 38.3849 275.82C38.1049 275.34 37.9649 274.75 37.9649 274.05C37.9649 272.83 38.4349 271.85 39.3749 271.11C40.3349 270.35 41.5849 269.97 43.1249 269.97C44.2449 269.97 45.2649 270.21 46.1849 270.69C47.1249 271.15 47.8549 271.85 48.3749 272.79L46.7549 273.99C46.3549 273.29 45.8249 272.79 45.1649 272.49C44.5249 272.17 43.8149 272.01 43.0349 272.01C42.2549 272.01 41.6049 272.17 41.0849 272.49C40.5649 272.81 40.3049 273.25 40.3049 273.81C40.3049 274.23 40.4249 274.57 40.6649 274.83C40.9049 275.09 41.2549 275.31 41.7149 275.49C42.1949 275.67 42.7749 275.84 43.4549 276C44.0749 276.14 44.7049 276.31 45.3449 276.51C45.9849 276.71 46.5749 276.97 47.1149 277.29C47.6549 277.61 48.0849 278.04 48.4049 278.58C48.7449 279.1 48.9149 279.78 48.9149 280.62C48.9149 281.54 48.6849 282.35 48.2249 283.05C47.7649 283.75 47.1149 284.29 46.2749 284.67C45.4349 285.05 44.4449 285.24 43.3049 285.24ZM62.2267 285L62.0467 282.03V275.73C62.0467 274.59 61.7267 273.71 61.0867 273.09C60.4667 272.47 59.5367 272.16 58.2967 272.16C57.4967 272.16 56.7467 272.33 56.0467 272.67C55.3467 272.99 54.6667 273.54 54.0067 274.32L52.1767 272.76C52.9967 271.8 53.9367 271.1 54.9967 270.66C56.0567 270.2 57.2167 269.97 58.4767 269.97C60.4167 269.97 61.9167 270.47 62.9767 271.47C64.0367 272.47 64.5667 273.89 64.5667 275.73V285H62.2267ZM57.3367 285.24C56.2167 285.24 55.2367 285.05 54.3967 284.67C53.5767 284.27 52.9367 283.72 52.4767 283.02C52.0367 282.32 51.8167 281.51 51.8167 280.59C51.8167 279.77 51.9767 279.08 52.2967 278.52C52.6367 277.94 53.0667 277.49 53.5867 277.17C54.1067 276.83 54.6967 276.6 55.3567 276.48C56.0367 276.34 56.7467 276.27 57.4867 276.27H62.2867V278.19H57.8467C57.4067 278.19 56.9467 278.23 56.4667 278.31C55.9867 278.39 55.5667 278.56 55.2067 278.82C54.9467 279.02 54.7367 279.27 54.5767 279.57C54.4367 279.87 54.3667 280.22 54.3667 280.62C54.3667 281.4 54.6567 282.02 55.2367 282.48C55.8167 282.94 56.5967 283.17 57.5767 283.17C58.3967 283.17 59.1367 282.98 59.7967 282.6C60.4767 282.22 61.0167 281.7 61.4167 281.04C61.8367 280.36 62.0467 279.6 62.0467 278.76L63.0967 279.84C62.9767 280.9 62.6567 281.84 62.1367 282.66C61.6167 283.48 60.9467 284.12 60.1267 284.58C59.3267 285.02 58.3967 285.24 57.3367 285.24ZM68.7079 285V270.21H71.2579V274.02H70.7479C70.9279 273.32 71.1679 272.72 71.4679 272.22C71.7879 271.7 72.1579 271.28 72.5779 270.96C72.9979 270.62 73.4479 270.37 73.9279 270.21C74.4279 270.05 74.9479 269.97 75.4879 269.97C76.3879 269.97 77.1779 270.14 77.8579 270.48C78.5379 270.82 79.0979 271.34 79.5379 272.04C79.9779 272.72 80.2779 273.59 80.4379 274.65L78.9979 274.74C79.2979 273.72 79.6779 272.86 80.1379 272.16C80.5979 271.44 81.1679 270.9 81.8479 270.54C82.5479 270.16 83.3779 269.97 84.3379 269.97C85.5579 269.97 86.5379 270.25 87.2779 270.81C88.0179 271.35 88.5579 272.08 88.8979 273C89.2379 273.9 89.4079 274.9 89.4079 276V285H86.8879V276.6C86.8879 275.68 86.7779 274.89 86.5579 274.23C86.3579 273.57 86.0279 273.06 85.5679 272.7C85.1279 272.34 84.5279 272.16 83.7679 272.16C83.0479 272.16 82.4279 272.34 81.9079 272.7C81.4079 273.06 81.0179 273.61 80.7379 274.35C80.4779 275.07 80.3479 275.97 80.3479 277.05V285H77.7979V276.39C77.7979 274.97 77.5379 273.91 77.0179 273.21C76.4979 272.51 75.7379 272.16 74.7379 272.16C74.0179 272.16 73.3979 272.35 72.8779 272.73C72.3579 273.09 71.9579 273.63 71.6779 274.35C71.3979 275.07 71.2579 275.97 71.2579 277.05V285H68.7079ZM99.7916 285.24C98.6316 285.24 97.6116 285.05 96.7316 284.67C95.8716 284.27 95.1516 283.72 94.5716 283.02C94.0116 282.32 93.5816 281.52 93.2816 280.62C93.0016 279.7 92.8616 278.73 92.8616 277.71C92.8616 276.69 93.0016 275.72 93.2816 274.8C93.5616 273.86 93.9716 273.03 94.5116 272.31C95.0716 271.59 95.7716 271.02 96.6116 270.6C97.4516 270.18 98.4316 269.97 99.5516 269.97C100.692 269.97 101.672 270.17 102.492 270.57C103.332 270.95 104.012 271.48 104.532 272.16C105.072 272.84 105.472 273.6 105.732 274.44C105.992 275.28 106.122 276.15 106.122 277.05C106.122 277.13 106.112 277.32 106.092 277.62C106.092 277.9 106.072 278.15 106.032 278.37H95.3816C95.4416 279.81 95.8616 280.93 96.6416 281.73C97.4216 282.53 98.4816 282.93 99.8216 282.93C100.682 282.93 101.432 282.79 102.072 282.51C102.712 282.23 103.312 281.78 103.872 281.16L105.642 282.72C105.102 283.3 104.532 283.78 103.932 284.16C103.332 284.52 102.692 284.79 102.012 284.97C101.352 285.15 100.612 285.24 99.7916 285.24ZM103.602 277.08C103.642 276.92 103.662 276.76 103.662 276.6C103.682 276.44 103.692 276.28 103.692 276.12C103.692 275.64 103.602 275.16 103.422 274.68C103.262 274.2 103.012 273.77 102.672 273.39C102.352 272.99 101.932 272.68 101.412 272.46C100.912 272.22 100.312 272.1 99.6116 272.1C98.7516 272.1 98.0116 272.3 97.3916 272.7C96.7716 273.1 96.2916 273.63 95.9516 274.29C95.6116 274.95 95.4116 275.68 95.3516 276.48H104.442L103.602 277.08ZM122.466 285.24C121.766 285.24 121.126 285.11 120.546 284.85C119.986 284.57 119.546 284.13 119.226 283.53C118.906 282.93 118.746 282.16 118.746 281.22V266.25L121.326 264.81V280.56C121.326 281.38 121.456 282.02 121.716 282.48C121.976 282.92 122.446 283.14 123.126 283.14C123.326 283.14 123.566 283.12 123.846 283.08C124.126 283.02 124.426 282.95 124.746 282.87V284.85C124.366 284.99 123.976 285.09 123.576 285.15C123.196 285.21 122.826 285.24 122.466 285.24ZM115.686 272.19V270.21H124.746V272.19H115.686ZM127.887 285V270.21H130.407V285H127.887ZM127.647 267.54V264.09H130.647V267.54H127.647ZM134.684 285V270.21H137.234V274.02H136.724C136.904 273.32 137.144 272.72 137.444 272.22C137.764 271.7 138.134 271.28 138.554 270.96C138.974 270.62 139.424 270.37 139.904 270.21C140.404 270.05 140.924 269.97 141.464 269.97C142.364 269.97 143.154 270.14 143.834 270.48C144.514 270.82 145.074 271.34 145.514 272.04C145.954 272.72 146.254 273.59 146.414 274.65L144.974 274.74C145.274 273.72 145.654 272.86 146.114 272.16C146.574 271.44 147.144 270.9 147.824 270.54C148.524 270.16 149.354 269.97 150.314 269.97C151.534 269.97 152.514 270.25 153.254 270.81C153.994 271.35 154.534 272.08 154.874 273C155.214 273.9 155.384 274.9 155.384 276V285H152.864V276.6C152.864 275.68 152.754 274.89 152.534 274.23C152.334 273.57 152.004 273.06 151.544 272.7C151.104 272.34 150.504 272.16 149.744 272.16C149.024 272.16 148.404 272.34 147.884 272.7C147.384 273.06 146.994 273.61 146.714 274.35C146.454 275.07 146.324 275.97 146.324 277.05V285H143.774V276.39C143.774 274.97 143.514 273.91 142.994 273.21C142.474 272.51 141.714 272.16 140.714 272.16C139.994 272.16 139.374 272.35 138.854 272.73C138.334 273.09 137.934 273.63 137.654 274.35C137.374 275.07 137.234 275.97 137.234 277.05V285H134.684ZM165.768 285.24C164.608 285.24 163.588 285.05 162.708 284.67C161.848 284.27 161.128 283.72 160.548 283.02C159.988 282.32 159.558 281.52 159.258 280.62C158.978 279.7 158.838 278.73 158.838 277.71C158.838 276.69 158.978 275.72 159.258 274.8C159.538 273.86 159.948 273.03 160.488 272.31C161.048 271.59 161.748 271.02 162.588 270.6C163.428 270.18 164.408 269.97 165.528 269.97C166.668 269.97 167.648 270.17 168.468 270.57C169.308 270.95 169.988 271.48 170.508 272.16C171.048 272.84 171.448 273.6 171.708 274.44C171.968 275.28 172.098 276.15 172.098 277.05C172.098 277.13 172.088 277.32 172.068 277.62C172.068 277.9 172.048 278.15 172.008 278.37H161.358C161.418 279.81 161.838 280.93 162.618 281.73C163.398 282.53 164.458 282.93 165.798 282.93C166.658 282.93 167.408 282.79 168.048 282.51C168.688 282.23 169.288 281.78 169.848 281.16L171.618 282.72C171.078 283.3 170.508 283.78 169.908 284.16C169.308 284.52 168.668 284.79 167.988 284.97C167.328 285.15 166.588 285.24 165.768 285.24ZM169.578 277.08C169.618 276.92 169.638 276.76 169.638 276.6C169.658 276.44 169.668 276.28 169.668 276.12C169.668 275.64 169.578 275.16 169.398 274.68C169.238 274.2 168.988 273.77 168.648 273.39C168.328 272.99 167.908 272.68 167.388 272.46C166.888 272.22 166.288 272.1 165.588 272.1C164.728 272.1 163.988 272.3 163.368 272.7C162.748 273.1 162.268 273.63 161.928 274.29C161.588 274.95 161.388 275.68 161.328 276.48H170.418L169.578 277.08ZM175.669 285V281.52H178.669V285H175.669Z" fill="white"/>
<mask id="path-2-inside-1_263_188" fill="white">
<path fill-rule="evenodd" clip-rule="evenodd" d="M0 0H326.763V18.1532H344.009V36.307H361.255V363.07H34.4918V344.916H17.2461V326.763H0V0Z"/>
</mask>
<path d="M326.763 0H327.763V-1H326.763V0ZM0 0V-1H-1V0H0ZM326.763 18.1532H325.763V19.1532H326.763V18.1532ZM344.009 18.1532H345.009V17.1532H344.009V18.1532ZM344.009 36.307H343.009V37.307H344.009V36.307ZM361.255 36.307H362.255V35.307H361.255V36.307ZM361.255 363.07V364.07H362.255V363.07H361.255ZM34.4918 363.07H33.4918V364.07H34.4918V363.07ZM34.4918 344.916H35.4918V343.916H34.4918V344.916ZM17.2461 344.916H16.2461V345.916H17.2461V344.916ZM17.2461 326.763H18.2461V325.763H17.2461V326.763ZM0 326.763H-1V327.763H0V326.763ZM326.763 -1H0V1H326.763V-1ZM327.763 18.1532V0H325.763V18.1532H327.763ZM344.009 17.1532H326.763V19.1532H344.009V17.1532ZM345.009 36.307V18.1532H343.009V36.307H345.009ZM344.009 37.307H361.255V35.307H344.009V37.307ZM360.255 36.307V363.07H362.255V36.307H360.255ZM361.255 362.07H34.4918V364.07H361.255V362.07ZM35.4918 363.07V344.916H33.4918V363.07H35.4918ZM17.2461 345.916H34.4918V343.916H17.2461V345.916ZM16.2461 326.763V344.916H18.2461V326.763H16.2461ZM0 327.763H17.2461V325.763H0V327.763ZM-1 0V326.763H1V0H-1Z" fill="white" mask="url(#path-2-inside-1_263_188)"/>
</svg>
