<svg width="362" height="364" viewBox="0 0 362 364" fill="none" xmlns="http://www.w3.org/2000/svg">
<path d="M36.4949 76L44.1449 55H48.5549L56.2349 76H52.1249L45.5549 57.16H47.1449L40.5749 76H36.4949ZM40.0349 71.17L41.0849 68.11H51.6449L52.6949 71.17H40.0349ZM63.9517 76.36C62.5517 76.36 61.2917 76.02 60.1717 75.34C59.0717 74.66 58.2017 73.73 57.5617 72.55C56.9217 71.35 56.6017 70.01 56.6017 68.53C56.6017 67.03 56.9217 65.7 57.5617 64.54C58.2017 63.36 59.0717 62.44 60.1717 61.78C61.2917 61.1 62.5517 60.76 63.9517 60.76C65.0717 60.76 66.0417 60.97 66.8617 61.39C67.7017 61.81 68.3717 62.39 68.8717 63.13V54.4H72.7717V76H68.8717V73.87C68.4117 74.53 67.7817 75.11 66.9817 75.61C66.2017 76.11 65.1917 76.36 63.9517 76.36ZM64.7917 72.97C65.6117 72.97 66.3317 72.78 66.9517 72.4C67.5917 72.02 68.0817 71.5 68.4217 70.84C68.7817 70.16 68.9617 69.4 68.9617 68.56C68.9617 67.7 68.7817 66.94 68.4217 66.28C68.0817 65.62 67.5917 65.1 66.9517 64.72C66.3317 64.34 65.6117 64.15 64.7917 64.15C63.9917 64.15 63.2717 64.34 62.6317 64.72C61.9917 65.1 61.4917 65.62 61.1317 66.28C60.7717 66.92 60.5917 67.67 60.5917 68.53C60.5917 69.39 60.7717 70.16 61.1317 70.84C61.4917 71.5 61.9917 72.02 62.6317 72.4C63.2717 72.78 63.9917 72.97 64.7917 72.97ZM75.5486 76V55H89.1686V58.15H79.4486V63.94H87.3086V67H79.4486V76H75.5486ZM90.9517 76V61.12H94.8517V76H90.9517ZM91.0417 58.66V54.88H94.8217V58.66H91.0417ZM97.3091 76V54.4H101.209V76H97.3091ZM103.667 76V61.12H107.567V62.95C108.047 62.27 108.677 61.74 109.457 61.36C110.237 60.96 111.117 60.76 112.097 60.76C113.237 60.76 114.217 60.99 115.037 61.45C115.857 61.89 116.497 62.54 116.957 63.4C117.517 62.58 118.247 61.94 119.147 61.48C120.047 61 121.047 60.76 122.147 60.76C124.087 60.76 125.577 61.35 126.617 62.53C127.657 63.69 128.177 65.39 128.177 67.63V76H124.307V67.99C124.307 66.71 124.057 65.74 123.557 65.08C123.077 64.4 122.317 64.06 121.277 64.06C120.257 64.06 119.437 64.44 118.817 65.2C118.197 65.94 117.887 66.98 117.887 68.32V76H114.017V67.99C114.017 66.71 113.757 65.74 113.237 65.08C112.737 64.4 111.977 64.06 110.957 64.06C109.957 64.06 109.137 64.44 108.497 65.2C107.877 65.94 107.567 66.98 107.567 68.32V76H103.667ZM136.742 76.36C134.782 76.36 133.162 75.9 131.882 74.98C130.622 74.06 129.912 72.83 129.752 71.29H133.742C133.882 71.91 134.232 72.41 134.792 72.79C135.372 73.17 136.072 73.36 136.892 73.36C137.752 73.36 138.402 73.2 138.842 72.88C139.302 72.56 139.532 72.17 139.532 71.71C139.532 71.33 139.372 71.03 139.052 70.81C138.732 70.59 138.162 70.43 137.342 70.33C137.042 70.29 136.652 70.23 136.172 70.15C135.692 70.07 135.302 70 135.002 69.94C134.182 69.78 133.432 69.52 132.752 69.16C132.072 68.8 131.522 68.32 131.102 67.72C130.702 67.12 130.502 66.37 130.502 65.47C130.502 64.15 130.992 63.04 131.972 62.14C132.972 61.22 134.422 60.76 136.322 60.76C138.222 60.76 139.732 61.18 140.852 62.02C141.972 62.86 142.602 64.04 142.742 65.56H138.962C138.902 64.96 138.612 64.51 138.092 64.21C137.592 63.91 137.012 63.76 136.352 63.76C135.572 63.76 134.972 63.91 134.552 64.21C134.132 64.49 133.922 64.84 133.922 65.26C133.922 65.98 134.582 66.46 135.902 66.7C136.102 66.72 136.352 66.76 136.652 66.82C136.972 66.86 137.302 66.91 137.642 66.97C137.982 67.01 138.252 67.05 138.452 67.09C139.032 67.17 139.602 67.3 140.162 67.48C140.722 67.66 141.222 67.91 141.662 68.23C142.122 68.53 142.482 68.94 142.742 69.46C143.022 69.98 143.162 70.62 143.162 71.38C143.162 72.36 142.912 73.23 142.412 73.99C141.912 74.73 141.182 75.31 140.222 75.73C139.282 76.15 138.122 76.36 136.742 76.36ZM47.6549 136.36C45.5949 136.36 43.7849 135.91 42.2249 135.01C40.6649 134.09 39.4449 132.82 38.5649 131.2C37.7049 129.56 37.2749 127.66 37.2749 125.5C37.2749 123.36 37.7049 121.48 38.5649 119.86C39.4449 118.22 40.6649 116.94 42.2249 116.02C43.7849 115.1 45.5949 114.64 47.6549 114.64C49.7349 114.64 51.5449 115.1 53.0849 116.02C54.6449 116.94 55.8549 118.22 56.7149 119.86C57.5949 121.48 58.0349 123.36 58.0349 125.5C58.0349 127.66 57.5949 129.56 56.7149 131.2C55.8549 132.82 54.6449 134.09 53.0849 135.01C51.5449 135.91 49.7349 136.36 47.6549 136.36ZM47.6549 133.96C49.1749 133.96 50.5049 133.63 51.6449 132.97C52.7849 132.29 53.6749 131.32 54.3149 130.06C54.9549 128.78 55.2749 127.26 55.2749 125.5C55.2749 123.74 54.9549 122.23 54.3149 120.97C53.6749 119.71 52.7849 118.74 51.6449 118.06C50.5049 117.38 49.1749 117.04 47.6549 117.04C46.1549 117.04 44.8249 117.38 43.6649 118.06C42.5249 118.74 41.6349 119.71 40.9949 120.97C40.3749 122.23 40.0649 123.74 40.0649 125.5C40.0649 127.26 40.3749 128.78 40.9949 130.06C41.6349 131.32 42.5249 132.29 43.6649 132.97C44.8249 133.63 46.1549 133.96 47.6549 133.96ZM65.8349 136.36C64.2149 136.36 62.8949 135.82 61.8749 134.74C60.8549 133.66 60.3449 132 60.3449 129.76V121.12H63.0449V129.49C63.0449 131.01 63.3449 132.15 63.9449 132.91C64.5649 133.67 65.4149 134.05 66.4949 134.05C67.7549 134.05 68.7449 133.6 69.4649 132.7C70.1849 131.78 70.5449 130.49 70.5449 128.83V121.12H73.2449V136H70.5449V133.6C70.1049 134.46 69.4749 135.14 68.6549 135.64C67.8549 136.12 66.9149 136.36 65.8349 136.36ZM76.6975 136V121.12H79.3975V123.46C79.7375 122.68 80.1975 122.08 80.7775 121.66C81.3575 121.22 82.0675 121 82.9075 121H85.1275V123.52H82.6375C81.9975 123.52 81.4275 123.7 80.9275 124.06C80.4475 124.42 80.0675 125 79.7875 125.8C79.5275 126.58 79.3975 127.62 79.3975 128.92V136H76.6975ZM103.112 136.36C101.292 136.36 99.7725 135.94 98.5525 135.1C97.3325 134.24 96.6225 132.99 96.4225 131.35H99.2125C99.3725 132.21 99.8025 132.89 100.502 133.39C101.202 133.89 102.102 134.14 103.202 134.14C104.242 134.14 105.042 133.92 105.602 133.48C106.162 133.04 106.442 132.48 106.442 131.8C106.442 131.3 106.262 130.92 105.902 130.66C105.562 130.38 104.922 130.16 103.982 130C103.602 129.92 103.192 129.84 102.752 129.76C102.332 129.68 101.932 129.61 101.552 129.55C100.872 129.41 100.192 129.18 99.5125 128.86C98.8525 128.54 98.3025 128.09 97.8625 127.51C97.4225 126.93 97.2025 126.18 97.2025 125.26C97.2025 123.98 97.6925 122.91 98.6725 122.05C99.6525 121.19 100.992 120.76 102.692 120.76C104.332 120.76 105.692 121.14 106.772 121.9C107.852 122.64 108.462 123.8 108.602 125.38H105.932C105.852 124.52 105.502 123.91 104.882 123.55C104.282 123.17 103.542 122.98 102.662 122.98C101.802 122.98 101.092 123.17 100.532 123.55C99.9925 123.93 99.7225 124.43 99.7225 125.05C99.7225 126.13 100.532 126.83 102.152 127.15C102.392 127.17 102.642 127.21 102.902 127.27C103.182 127.31 103.462 127.36 103.742 127.42C104.022 127.46 104.272 127.5 104.492 127.54C104.972 127.62 105.472 127.74 105.992 127.9C106.512 128.04 107.002 128.26 107.462 128.56C107.922 128.84 108.292 129.23 108.572 129.73C108.872 130.21 109.022 130.83 109.022 131.59C109.022 132.51 108.782 133.33 108.302 134.05C107.822 134.77 107.142 135.34 106.262 135.76C105.382 136.16 104.332 136.36 103.112 136.36ZM118.659 136.36C117.239 136.36 115.959 136.03 114.819 135.37C113.699 134.71 112.809 133.8 112.149 132.64C111.489 131.46 111.159 130.1 111.159 128.56C111.159 127 111.489 125.64 112.149 124.48C112.809 123.32 113.699 122.41 114.819 121.75C115.959 121.09 117.239 120.76 118.659 120.76C120.459 120.76 121.959 121.23 123.159 122.17C124.379 123.09 125.159 124.33 125.499 125.89H122.709C122.509 125.01 122.029 124.32 121.269 123.82C120.529 123.32 119.659 123.07 118.659 123.07C117.839 123.07 117.059 123.28 116.319 123.7C115.599 124.12 115.019 124.74 114.579 125.56C114.139 126.36 113.919 127.36 113.919 128.56C113.919 129.74 114.139 130.74 114.579 131.56C115.019 132.38 115.599 133 116.319 133.42C117.059 133.84 117.839 134.05 118.659 134.05C119.659 134.05 120.529 133.81 121.269 133.33C122.029 132.83 122.509 132.13 122.709 131.23H125.499C125.179 132.75 124.409 133.99 123.189 134.95C121.969 135.89 120.459 136.36 118.659 136.36ZM132.766 136.36C131.566 136.36 130.556 136.16 129.736 135.76C128.916 135.34 128.296 134.79 127.876 134.11C127.476 133.41 127.276 132.67 127.276 131.89C127.276 130.27 127.856 129.04 129.016 128.2C130.196 127.34 131.736 126.91 133.636 126.91C134.476 126.91 135.236 126.97 135.916 127.09C136.596 127.21 137.156 127.35 137.596 127.51V126.85C137.596 125.57 137.256 124.61 136.576 123.97C135.916 123.31 135.026 122.98 133.906 122.98C132.986 122.98 132.186 123.17 131.506 123.55C130.846 123.93 130.436 124.57 130.276 125.47H127.576C127.696 124.41 128.056 123.53 128.656 122.83C129.276 122.13 130.046 121.61 130.966 121.27C131.886 120.93 132.866 120.76 133.906 120.76C136.026 120.76 137.616 121.32 138.676 122.44C139.756 123.54 140.296 125.01 140.296 126.85V131.32C140.296 132.04 140.336 132.57 140.416 132.91C140.516 133.25 140.676 133.46 140.896 133.54C141.116 133.62 141.416 133.66 141.796 133.66H142.006V136H141.436C140.456 136 139.656 135.84 139.036 135.52C138.416 135.2 137.996 134.56 137.776 133.6C137.316 134.38 136.676 135.04 135.856 135.58C135.056 136.1 134.026 136.36 132.766 136.36ZM133.186 134.17C134.066 134.17 134.816 133.95 135.436 133.51C136.076 133.07 136.576 132.49 136.936 131.77C137.296 131.05 137.496 130.29 137.536 129.49C137.076 129.35 136.516 129.23 135.856 129.13C135.196 129.01 134.536 128.95 133.876 128.95C132.516 128.95 131.526 129.22 130.906 129.76C130.306 130.28 130.006 130.94 130.006 131.74C130.006 132.44 130.276 133.02 130.816 133.48C131.376 133.94 132.166 134.17 133.186 134.17ZM144.696 136V114.4H147.396V136H144.696ZM155.764 136.36C154.564 136.36 153.554 136.16 152.734 135.76C151.914 135.34 151.294 134.79 150.874 134.11C150.474 133.41 150.274 132.67 150.274 131.89C150.274 130.27 150.854 129.04 152.014 128.2C153.194 127.34 154.734 126.91 156.634 126.91C157.474 126.91 158.234 126.97 158.914 127.09C159.594 127.21 160.154 127.35 160.594 127.51V126.85C160.594 125.57 160.254 124.61 159.574 123.97C158.914 123.31 158.024 122.98 156.904 122.98C155.984 122.98 155.184 123.17 154.504 123.55C153.844 123.93 153.434 124.57 153.274 125.47H150.574C150.694 124.41 151.054 123.53 151.654 122.83C152.274 122.13 153.044 121.61 153.964 121.27C154.884 120.93 155.864 120.76 156.904 120.76C159.024 120.76 160.614 121.32 161.674 122.44C162.754 123.54 163.294 125.01 163.294 126.85V131.32C163.294 132.04 163.334 132.57 163.414 132.91C163.514 133.25 163.674 133.46 163.894 133.54C164.114 133.62 164.414 133.66 164.794 133.66H165.004V136H164.434C163.454 136 162.654 135.84 162.034 135.52C161.414 135.2 160.994 134.56 160.774 133.6C160.314 134.38 159.674 135.04 158.854 135.58C158.054 136.1 157.024 136.36 155.764 136.36ZM156.184 134.17C157.064 134.17 157.814 133.95 158.434 133.51C159.074 133.07 159.574 132.49 159.934 131.77C160.294 131.05 160.494 130.29 160.534 129.49C160.074 129.35 159.514 129.23 158.854 129.13C158.194 129.01 157.534 128.95 156.874 128.95C155.514 128.95 154.524 129.22 153.904 129.76C153.304 130.28 153.004 130.94 153.004 131.74C153.004 132.44 153.274 133.02 153.814 133.48C154.374 133.94 155.164 134.17 156.184 134.17ZM175.614 136.36C174.394 136.36 173.324 136.12 172.404 135.64C171.484 135.14 170.764 134.45 170.244 133.57V136H167.544V114.4H170.244V123.55C170.724 122.83 171.404 122.19 172.284 121.63C173.164 121.05 174.284 120.76 175.644 120.76C177.104 120.76 178.384 121.1 179.484 121.78C180.584 122.46 181.444 123.39 182.064 124.57C182.684 125.75 182.994 127.09 182.994 128.59C182.994 130.09 182.684 131.43 182.064 132.61C181.444 133.77 180.584 134.69 179.484 135.37C178.384 136.03 177.094 136.36 175.614 136.36ZM175.254 134.02C176.234 134.02 177.094 133.79 177.834 133.33C178.594 132.87 179.184 132.23 179.604 131.41C180.044 130.59 180.264 129.64 180.264 128.56C180.264 127.48 180.044 126.53 179.604 125.71C179.184 124.89 178.594 124.25 177.834 123.79C177.094 123.33 176.234 123.1 175.254 123.1C174.294 123.1 173.434 123.33 172.674 123.79C171.934 124.25 171.354 124.89 170.934 125.71C170.514 126.53 170.304 127.48 170.304 128.56C170.304 129.64 170.514 130.59 170.934 131.41C171.354 132.23 171.934 132.87 172.674 133.33C173.434 133.79 174.294 134.02 175.254 134.02ZM185.741 136V114.4H188.441V136H185.741ZM198.609 136.36C197.169 136.36 195.889 136.04 194.769 135.4C193.669 134.74 192.799 133.83 192.159 132.67C191.539 131.51 191.229 130.15 191.229 128.59C191.229 127.01 191.539 125.64 192.159 124.48C192.779 123.3 193.649 122.39 194.769 121.75C195.889 121.09 197.179 120.76 198.639 120.76C200.099 120.76 201.349 121.09 202.389 121.75C203.449 122.39 204.259 123.24 204.819 124.3C205.399 125.36 205.689 126.52 205.689 127.78C205.689 127.98 205.689 128.2 205.689 128.44C205.689 128.66 205.679 128.9 205.659 129.16H193.239V127.18H203.019C202.959 125.88 202.509 124.86 201.669 124.12C200.849 123.38 199.819 123.01 198.579 123.01C197.739 123.01 196.959 123.2 196.239 123.58C195.519 123.94 194.939 124.49 194.499 125.23C194.079 125.95 193.869 126.85 193.869 127.93V128.74C193.869 129.92 194.089 130.91 194.529 131.71C194.969 132.51 195.549 133.11 196.269 133.51C196.989 133.91 197.759 134.11 198.579 134.11C199.579 134.11 200.419 133.88 201.099 133.42C201.779 132.96 202.279 132.33 202.599 131.53H205.269C205.009 132.43 204.579 133.25 203.979 133.99C203.379 134.73 202.619 135.31 201.699 135.73C200.799 136.15 199.769 136.36 198.609 136.36ZM207.785 140.71V138.4H208.565C208.845 138.4 209.065 138.32 209.225 138.16C209.385 138 209.465 137.76 209.465 137.44V136.18H208.055V132.58H211.805V137.44C211.805 138.36 211.525 139.13 210.965 139.75C210.425 140.39 209.635 140.71 208.595 140.71H207.785ZM37.9349 172.6V151.12H40.6349V153.55C41.1149 152.83 41.7949 152.19 42.6749 151.63C43.5549 151.05 44.6749 150.76 46.0349 150.76C47.4949 150.76 48.7749 151.1 49.8749 151.78C50.9749 152.46 51.8349 153.39 52.4549 154.57C53.0749 155.75 53.3849 157.09 53.3849 158.59C53.3849 160.09 53.0749 161.43 52.4549 162.61C51.8349 163.77 50.9749 164.69 49.8749 165.37C48.7749 166.03 47.4849 166.36 46.0049 166.36C44.7849 166.36 43.7149 166.12 42.7949 165.64C41.8749 165.14 41.1549 164.45 40.6349 163.57V172.6H37.9349ZM45.6449 164.02C46.6249 164.02 47.4849 163.79 48.2249 163.33C48.9849 162.87 49.5749 162.23 49.9949 161.41C50.4349 160.59 50.6549 159.64 50.6549 158.56C50.6549 157.48 50.4349 156.53 49.9949 155.71C49.5749 154.89 48.9849 154.25 48.2249 153.79C47.4849 153.33 46.6249 153.1 45.6449 153.1C44.6849 153.1 43.8249 153.33 43.0649 153.79C42.3249 154.25 41.7449 154.89 41.3249 155.71C40.9049 156.53 40.6949 157.48 40.6949 158.56C40.6949 159.64 40.9049 160.59 41.3249 161.41C41.7449 162.23 42.3249 162.87 43.0649 163.33C43.8249 163.79 44.6849 164.02 45.6449 164.02ZM62.6418 166.36C61.2018 166.36 59.9218 166.04 58.8018 165.4C57.7018 164.74 56.8318 163.83 56.1918 162.67C55.5718 161.51 55.2618 160.15 55.2618 158.59C55.2618 157.01 55.5718 155.64 56.1918 154.48C56.8118 153.3 57.6818 152.39 58.8018 151.75C59.9218 151.09 61.2118 150.76 62.6718 150.76C64.1318 150.76 65.3818 151.09 66.4218 151.75C67.4818 152.39 68.2918 153.24 68.8518 154.3C69.4318 155.36 69.7218 156.52 69.7218 157.78C69.7218 157.98 69.7218 158.2 69.7218 158.44C69.7218 158.66 69.7118 158.9 69.6918 159.16H57.2718V157.18H67.0518C66.9918 155.88 66.5418 154.86 65.7018 154.12C64.8818 153.38 63.8518 153.01 62.6118 153.01C61.7718 153.01 60.9918 153.2 60.2718 153.58C59.5518 153.94 58.9718 154.49 58.5318 155.23C58.1118 155.95 57.9018 156.85 57.9018 157.93V158.74C57.9018 159.92 58.1218 160.91 58.5618 161.71C59.0018 162.51 59.5818 163.11 60.3018 163.51C61.0218 163.91 61.7918 164.11 62.6118 164.11C63.6118 164.11 64.4518 163.88 65.1318 163.42C65.8118 162.96 66.3118 162.33 66.6318 161.53H69.3018C69.0418 162.43 68.6118 163.25 68.0118 163.99C67.4118 164.73 66.6518 165.31 65.7318 165.73C64.8318 166.15 63.8018 166.36 62.6418 166.36ZM72.801 166V151.12H75.501V153.46C75.841 152.68 76.301 152.08 76.881 151.66C77.461 151.22 78.171 151 79.011 151H81.231V153.52H78.741C78.101 153.52 77.531 153.7 77.031 154.06C76.551 154.42 76.171 155 75.891 155.8C75.631 156.58 75.501 157.62 75.501 158.92V166H72.801ZM89.05 166.36C87.23 166.36 85.71 165.94 84.49 165.1C83.27 164.24 82.56 162.99 82.36 161.35H85.15C85.31 162.21 85.74 162.89 86.44 163.39C87.14 163.89 88.04 164.14 89.14 164.14C90.18 164.14 90.98 163.92 91.54 163.48C92.1 163.04 92.38 162.48 92.38 161.8C92.38 161.3 92.2 160.92 91.84 160.66C91.5 160.38 90.86 160.16 89.92 160C89.54 159.92 89.13 159.84 88.69 159.76C88.27 159.68 87.87 159.61 87.49 159.55C86.81 159.41 86.13 159.18 85.45 158.86C84.79 158.54 84.24 158.09 83.8 157.51C83.36 156.93 83.14 156.18 83.14 155.26C83.14 153.98 83.63 152.91 84.61 152.05C85.59 151.19 86.93 150.76 88.63 150.76C90.27 150.76 91.63 151.14 92.71 151.9C93.79 152.64 94.4 153.8 94.54 155.38H91.87C91.79 154.52 91.44 153.91 90.82 153.55C90.22 153.17 89.48 152.98 88.6 152.98C87.74 152.98 87.03 153.17 86.47 153.55C85.93 153.93 85.66 154.43 85.66 155.05C85.66 156.13 86.47 156.83 88.09 157.15C88.33 157.17 88.58 157.21 88.84 157.27C89.12 157.31 89.4 157.36 89.68 157.42C89.96 157.46 90.21 157.5 90.43 157.54C90.91 157.62 91.41 157.74 91.93 157.9C92.45 158.04 92.94 158.26 93.4 158.56C93.86 158.84 94.23 159.23 94.51 159.73C94.81 160.21 94.96 160.83 94.96 161.59C94.96 162.51 94.72 163.33 94.24 164.05C93.76 164.77 93.08 165.34 92.2 165.76C91.32 166.16 90.27 166.36 89.05 166.36ZM104.777 166.36C103.317 166.36 102.007 166.04 100.847 165.4C99.687 164.74 98.777 163.83 98.117 162.67C97.457 161.49 97.127 160.12 97.127 158.56C97.127 156.98 97.457 155.61 98.117 154.45C98.797 153.29 99.717 152.39 100.877 151.75C102.057 151.09 103.377 150.76 104.837 150.76C106.297 150.76 107.607 151.09 108.767 151.75C109.927 152.39 110.837 153.29 111.497 154.45C112.157 155.61 112.487 156.98 112.487 158.56C112.487 160.12 112.147 161.49 111.467 162.67C110.807 163.83 109.897 164.74 108.737 165.4C107.577 166.04 106.257 166.36 104.777 166.36ZM104.777 164.05C105.677 164.05 106.497 163.85 107.237 163.45C107.997 163.03 108.597 162.41 109.037 161.59C109.497 160.77 109.727 159.76 109.727 158.56C109.727 157.34 109.497 156.33 109.037 155.53C108.597 154.71 108.007 154.1 107.267 153.7C106.527 153.28 105.717 153.07 104.837 153.07C103.957 153.07 103.137 153.28 102.377 153.7C101.637 154.12 101.037 154.73 100.577 155.53C100.117 156.33 99.887 157.34 99.887 158.56C99.887 159.76 100.107 160.77 100.547 161.59C101.007 162.41 101.607 163.03 102.347 163.45C103.087 163.85 103.897 164.05 104.777 164.05ZM115.252 166V151.12H117.952V153.58C118.432 152.7 119.112 152.01 119.992 151.51C120.872 151.01 121.872 150.76 122.992 150.76C124.752 150.76 126.152 151.3 127.192 152.38C128.232 153.46 128.752 155.12 128.752 157.36V166H126.052V157.63C126.052 156.11 125.732 154.97 125.092 154.21C124.472 153.45 123.542 153.07 122.302 153.07C121.042 153.07 120.002 153.53 119.182 154.45C118.362 155.35 117.952 156.63 117.952 158.29V166H115.252ZM137.072 166.36C135.872 166.36 134.862 166.16 134.042 165.76C133.222 165.34 132.602 164.79 132.182 164.11C131.782 163.41 131.582 162.67 131.582 161.89C131.582 160.27 132.162 159.04 133.322 158.2C134.502 157.34 136.042 156.91 137.942 156.91C138.782 156.91 139.542 156.97 140.222 157.09C140.902 157.21 141.462 157.35 141.902 157.51V156.85C141.902 155.57 141.562 154.61 140.882 153.97C140.222 153.31 139.332 152.98 138.212 152.98C137.292 152.98 136.492 153.17 135.812 153.55C135.152 153.93 134.742 154.57 134.582 155.47H131.882C132.002 154.41 132.362 153.53 132.962 152.83C133.582 152.13 134.352 151.61 135.272 151.27C136.192 150.93 137.172 150.76 138.212 150.76C140.332 150.76 141.922 151.32 142.982 152.44C144.062 153.54 144.602 155.01 144.602 156.85V161.32C144.602 162.04 144.642 162.57 144.722 162.91C144.822 163.25 144.982 163.46 145.202 163.54C145.422 163.62 145.722 163.66 146.102 163.66H146.312V166H145.742C144.762 166 143.962 165.84 143.342 165.52C142.722 165.2 142.302 164.56 142.082 163.6C141.622 164.38 140.982 165.04 140.162 165.58C139.362 166.1 138.332 166.36 137.072 166.36ZM137.492 164.17C138.372 164.17 139.122 163.95 139.742 163.51C140.382 163.07 140.882 162.49 141.242 161.77C141.602 161.05 141.802 160.29 141.842 159.49C141.382 159.35 140.822 159.23 140.162 159.13C139.502 159.01 138.842 158.95 138.182 158.95C136.822 158.95 135.832 159.22 135.212 159.76C134.612 160.28 134.312 160.94 134.312 161.74C134.312 162.44 134.582 163.02 135.122 163.48C135.682 163.94 136.472 164.17 137.492 164.17ZM149.003 166V144.4H151.703V166H149.003ZM155.39 166V151.12H158.09V166H155.39ZM155.09 148.27V144.97H158.36V148.27H155.09ZM161.058 166V163.81L169.248 153.37H161.178V151.12H172.278V153.31L164.058 163.75H172.428V166H161.058ZM182.027 166.36C180.587 166.36 179.307 166.04 178.187 165.4C177.087 164.74 176.217 163.83 175.577 162.67C174.957 161.51 174.647 160.15 174.647 158.59C174.647 157.01 174.957 155.64 175.577 154.48C176.197 153.3 177.067 152.39 178.187 151.75C179.307 151.09 180.597 150.76 182.057 150.76C183.517 150.76 184.767 151.09 185.807 151.75C186.867 152.39 187.677 153.24 188.237 154.3C188.817 155.36 189.107 156.52 189.107 157.78C189.107 157.98 189.107 158.2 189.107 158.44C189.107 158.66 189.097 158.9 189.077 159.16H176.657V157.18H186.437C186.377 155.88 185.927 154.86 185.087 154.12C184.267 153.38 183.237 153.01 181.997 153.01C181.157 153.01 180.377 153.2 179.657 153.58C178.937 153.94 178.357 154.49 177.917 155.23C177.497 155.95 177.287 156.85 177.287 157.93V158.74C177.287 159.92 177.507 160.91 177.947 161.71C178.387 162.51 178.967 163.11 179.687 163.51C180.407 163.91 181.177 164.11 181.997 164.11C182.997 164.11 183.837 163.88 184.517 163.42C185.197 162.96 185.697 162.33 186.017 161.53H188.687C188.427 162.43 187.997 163.25 187.397 163.99C186.797 164.73 186.037 165.31 185.117 165.73C184.217 166.15 183.187 166.36 182.027 166.36ZM198.696 166.36C197.216 166.36 195.926 166.02 194.826 165.34C193.726 164.66 192.866 163.73 192.246 162.55C191.626 161.37 191.316 160.03 191.316 158.53C191.316 157.03 191.626 155.7 192.246 154.54C192.866 153.36 193.726 152.44 194.826 151.78C195.946 151.1 197.236 150.76 198.696 150.76C199.916 150.76 200.986 151.01 201.906 151.51C202.846 151.99 203.566 152.67 204.066 153.55V144.4H206.766V166H204.066V163.57C203.586 164.29 202.906 164.94 202.026 165.52C201.166 166.08 200.056 166.36 198.696 166.36ZM199.056 164.02C200.036 164.02 200.896 163.79 201.636 163.33C202.376 162.87 202.956 162.23 203.376 161.41C203.796 160.59 204.006 159.64 204.006 158.56C204.006 157.48 203.796 156.53 203.376 155.71C202.956 154.89 202.376 154.25 201.636 153.79C200.896 153.33 200.036 153.1 199.056 153.1C198.096 153.1 197.236 153.33 196.476 153.79C195.716 154.25 195.126 154.89 194.706 155.71C194.286 156.51 194.076 157.46 194.076 158.56C194.076 159.64 194.286 160.59 194.706 161.41C195.126 162.23 195.716 162.87 196.476 163.33C197.236 163.79 198.096 164.02 199.056 164.02ZM209.543 170.71V168.4H210.323C210.603 168.4 210.823 168.32 210.983 168.16C211.143 168 211.223 167.76 211.223 167.44V166.18H209.813V162.58H213.563V167.44C213.563 168.36 213.283 169.13 212.723 169.75C212.183 170.39 211.393 170.71 210.353 170.71H209.543ZM225.992 166V144.4H228.692V153.64C229.192 152.74 229.892 152.04 230.792 151.54C231.712 151.02 232.712 150.76 233.792 150.76C235.532 150.76 236.912 151.3 237.932 152.38C238.972 153.46 239.492 155.12 239.492 157.36V166H236.822V157.63C236.822 156.11 236.512 154.97 235.892 154.21C235.292 153.45 234.382 153.07 233.162 153.07C231.902 153.07 230.842 153.53 229.982 154.45C229.122 155.35 228.692 156.63 228.692 158.29V166H225.992ZM243.222 166V151.12H245.922V166H243.222ZM242.922 148.27V144.97H246.192V148.27H242.922ZM256.84 172.96C255.54 172.96 254.35 172.73 253.27 172.27C252.19 171.83 251.28 171.18 250.54 170.32C249.82 169.48 249.36 168.45 249.16 167.23H251.83C252.11 168.23 252.7 169.04 253.6 169.66C254.52 170.3 255.59 170.62 256.81 170.62C257.77 170.62 258.63 170.41 259.39 169.99C260.15 169.59 260.75 168.98 261.19 168.16C261.65 167.36 261.88 166.37 261.88 165.19V163.06C261.56 163.6 261.13 164.12 260.59 164.62C260.07 165.1 259.44 165.5 258.7 165.82C257.98 166.12 257.14 166.27 256.18 166.27C254.78 166.27 253.51 165.93 252.37 165.25C251.23 164.57 250.33 163.65 249.67 162.49C249.01 161.31 248.68 159.98 248.68 158.5C248.68 157 249.01 155.67 249.67 154.51C250.33 153.35 251.23 152.44 252.37 151.78C253.51 151.1 254.78 150.76 256.18 150.76C257.48 150.76 258.62 151.05 259.6 151.63C260.6 152.21 261.36 152.9 261.88 153.7V151.12H264.58V165.1C264.58 166.74 264.24 168.14 263.56 169.3C262.9 170.48 261.98 171.38 260.8 172C259.64 172.64 258.32 172.96 256.84 172.96ZM256.6 163.93C257.6 163.93 258.49 163.7 259.27 163.24C260.05 162.78 260.66 162.14 261.1 161.32C261.54 160.5 261.76 159.56 261.76 158.5C261.76 157.42 261.54 156.48 261.1 155.68C260.66 154.86 260.05 154.23 259.27 153.79C258.49 153.33 257.6 153.1 256.6 153.1C255.62 153.1 254.74 153.33 253.96 153.79C253.18 154.23 252.56 154.86 252.1 155.68C251.66 156.48 251.44 157.42 251.44 158.5C251.44 159.54 251.66 160.48 252.1 161.32C252.56 162.14 253.18 162.78 253.96 163.24C254.74 163.7 255.62 163.93 256.6 163.93ZM268.033 166V144.4H270.733V153.64C271.233 152.74 271.933 152.04 272.833 151.54C273.753 151.02 274.753 150.76 275.833 150.76C277.573 150.76 278.953 151.3 279.973 152.38C281.013 153.46 281.533 155.12 281.533 157.36V166H278.863V157.63C278.863 156.11 278.553 154.97 277.933 154.21C277.333 153.45 276.423 153.07 275.203 153.07C273.943 153.07 272.883 153.53 272.023 154.45C271.163 155.35 270.733 156.63 270.733 158.29V166H268.033ZM283.943 156.64V154.36H297.563V156.64H283.943ZM38.1149 196V181.12H40.8149V196H38.1149ZM37.8149 178.27V174.97H41.0849V178.27H37.8149ZM44.4723 196V181.12H47.1723V183.16C47.6523 182.4 48.2823 181.81 49.0623 181.39C49.8623 180.97 50.7523 180.76 51.7323 180.76C52.8923 180.76 53.9023 181 54.7623 181.48C55.6223 181.96 56.2723 182.68 56.7123 183.64C57.2323 182.74 57.9423 182.04 58.8423 181.54C59.7623 181.02 60.7523 180.76 61.8123 180.76C63.6123 180.76 65.0423 181.3 66.1023 182.38C67.1823 183.46 67.7223 185.12 67.7223 187.36V196H65.0223V187.63C65.0223 186.11 64.7223 184.97 64.1223 184.21C63.5223 183.45 62.6423 183.07 61.4823 183.07C60.3223 183.07 59.3523 183.53 58.5723 184.45C57.8123 185.35 57.4323 186.63 57.4323 188.29V196H54.7623V187.63C54.7623 186.11 54.4523 184.97 53.8323 184.21C53.2323 183.45 52.3623 183.07 51.2223 183.07C50.0623 183.07 49.0923 183.53 48.3123 184.45C47.5523 185.35 47.1723 186.63 47.1723 188.29V196H44.4723ZM71.2747 202.6V181.12H73.9747V183.55C74.4547 182.83 75.1347 182.19 76.0147 181.63C76.8947 181.05 78.0147 180.76 79.3747 180.76C80.8347 180.76 82.1147 181.1 83.2147 181.78C84.3147 182.46 85.1747 183.39 85.7947 184.57C86.4147 185.75 86.7247 187.09 86.7247 188.59C86.7247 190.09 86.4147 191.43 85.7947 192.61C85.1747 193.77 84.3147 194.69 83.2147 195.37C82.1147 196.03 80.8247 196.36 79.3447 196.36C78.1247 196.36 77.0547 196.12 76.1347 195.64C75.2147 195.14 74.4947 194.45 73.9747 193.57V202.6H71.2747ZM78.9847 194.02C79.9647 194.02 80.8247 193.79 81.5647 193.33C82.3247 192.87 82.9147 192.23 83.3347 191.41C83.7747 190.59 83.9947 189.64 83.9947 188.56C83.9947 187.48 83.7747 186.53 83.3347 185.71C82.9147 184.89 82.3247 184.25 81.5647 183.79C80.8247 183.33 79.9647 183.1 78.9847 183.1C78.0247 183.1 77.1647 183.33 76.4047 183.79C75.6647 184.25 75.0847 184.89 74.6647 185.71C74.2447 186.53 74.0347 187.48 74.0347 188.56C74.0347 189.64 74.2447 190.59 74.6647 191.41C75.0847 192.23 75.6647 192.87 76.4047 193.33C77.1647 193.79 78.0247 194.02 78.9847 194.02ZM93.8886 196.36C92.6886 196.36 91.6786 196.16 90.8586 195.76C90.0386 195.34 89.4186 194.79 88.9986 194.11C88.5986 193.41 88.3986 192.67 88.3986 191.89C88.3986 190.27 88.9786 189.04 90.1386 188.2C91.3186 187.34 92.8586 186.91 94.7586 186.91C95.5986 186.91 96.3586 186.97 97.0386 187.09C97.7186 187.21 98.2786 187.35 98.7186 187.51V186.85C98.7186 185.57 98.3786 184.61 97.6986 183.97C97.0386 183.31 96.1486 182.98 95.0286 182.98C94.1086 182.98 93.3086 183.17 92.6286 183.55C91.9686 183.93 91.5586 184.57 91.3986 185.47H88.6986C88.8186 184.41 89.1786 183.53 89.7786 182.83C90.3986 182.13 91.1686 181.61 92.0886 181.27C93.0086 180.93 93.9886 180.76 95.0286 180.76C97.1486 180.76 98.7386 181.32 99.7986 182.44C100.879 183.54 101.419 185.01 101.419 186.85V191.32C101.419 192.04 101.459 192.57 101.539 192.91C101.639 193.25 101.799 193.46 102.019 193.54C102.239 193.62 102.539 193.66 102.919 193.66H103.129V196H102.559C101.579 196 100.779 195.84 100.159 195.52C99.5386 195.2 99.1186 194.56 98.8986 193.6C98.4386 194.38 97.7986 195.04 96.9786 195.58C96.1786 196.1 95.1486 196.36 93.8886 196.36ZM94.3086 194.17C95.1886 194.17 95.9386 193.95 96.5586 193.51C97.1986 193.07 97.6986 192.49 98.0586 191.77C98.4186 191.05 98.6186 190.29 98.6586 189.49C98.1986 189.35 97.6386 189.23 96.9786 189.13C96.3186 189.01 95.6586 188.95 94.9986 188.95C93.6386 188.95 92.6486 189.22 92.0286 189.76C91.4286 190.28 91.1286 190.94 91.1286 191.74C91.1286 192.44 91.3986 193.02 91.9386 193.48C92.4986 193.94 93.2886 194.17 94.3086 194.17ZM112.273 196.36C110.853 196.36 109.573 196.03 108.433 195.37C107.313 194.71 106.423 193.8 105.763 192.64C105.103 191.46 104.773 190.1 104.773 188.56C104.773 187 105.103 185.64 105.763 184.48C106.423 183.32 107.313 182.41 108.433 181.75C109.573 181.09 110.853 180.76 112.273 180.76C114.073 180.76 115.573 181.23 116.773 182.17C117.993 183.09 118.773 184.33 119.113 185.89H116.323C116.123 185.01 115.643 184.32 114.883 183.82C114.143 183.32 113.273 183.07 112.273 183.07C111.453 183.07 110.673 183.28 109.933 183.7C109.213 184.12 108.633 184.74 108.193 185.56C107.753 186.36 107.533 187.36 107.533 188.56C107.533 189.74 107.753 190.74 108.193 191.56C108.633 192.38 109.213 193 109.933 193.42C110.673 193.84 111.453 194.05 112.273 194.05C113.273 194.05 114.143 193.81 114.883 193.33C115.643 192.83 116.123 192.13 116.323 191.23H119.113C118.793 192.75 118.023 193.99 116.803 194.95C115.583 195.89 114.073 196.36 112.273 196.36ZM126.765 196C125.925 196 125.215 195.9 124.635 195.7C124.055 195.48 123.615 195.08 123.315 194.5C123.035 193.92 122.895 193.1 122.895 192.04V183.4H120.315V181.12H122.895V177.49H125.595V181.12H129.795V183.4H125.595V191.62C125.595 192.26 125.645 192.73 125.745 193.03C125.845 193.33 126.055 193.52 126.375 193.6C126.695 193.66 127.155 193.69 127.755 193.69H129.585V196H126.765ZM146.569 196L140.929 181.12H143.779L148.159 193.42L152.539 181.12H155.329L149.719 196H146.569ZM158.261 196V181.12H160.961V196H158.261ZM157.961 178.27V174.97H161.231V178.27H157.961ZM171.069 196.36C169.589 196.36 168.299 196.02 167.199 195.34C166.099 194.66 165.239 193.73 164.619 192.55C163.999 191.37 163.689 190.03 163.689 188.53C163.689 187.03 163.999 185.7 164.619 184.54C165.239 183.36 166.099 182.44 167.199 181.78C168.319 181.1 169.609 180.76 171.069 180.76C172.289 180.76 173.359 181.01 174.279 181.51C175.219 181.99 175.939 182.67 176.439 183.55V174.4H179.139V196H176.439V193.57C175.959 194.29 175.279 194.94 174.399 195.52C173.539 196.08 172.429 196.36 171.069 196.36ZM171.429 194.02C172.409 194.02 173.269 193.79 174.009 193.33C174.749 192.87 175.329 192.23 175.749 191.41C176.169 190.59 176.379 189.64 176.379 188.56C176.379 187.48 176.169 186.53 175.749 185.71C175.329 184.89 174.749 184.25 174.009 183.79C173.269 183.33 172.409 183.1 171.429 183.1C170.469 183.1 169.609 183.33 168.849 183.79C168.089 184.25 167.499 184.89 167.079 185.71C166.659 186.51 166.449 187.46 166.449 188.56C166.449 189.64 166.659 190.59 167.079 191.41C167.499 192.23 168.089 192.87 168.849 193.33C169.609 193.79 170.469 194.02 171.429 194.02ZM189.146 196.36C187.706 196.36 186.426 196.04 185.306 195.4C184.206 194.74 183.336 193.83 182.696 192.67C182.076 191.51 181.766 190.15 181.766 188.59C181.766 187.01 182.076 185.64 182.696 184.48C183.316 183.3 184.186 182.39 185.306 181.75C186.426 181.09 187.716 180.76 189.176 180.76C190.636 180.76 191.886 181.09 192.926 181.75C193.986 182.39 194.796 183.24 195.356 184.3C195.936 185.36 196.226 186.52 196.226 187.78C196.226 187.98 196.226 188.2 196.226 188.44C196.226 188.66 196.216 188.9 196.196 189.16H183.776V187.18H193.556C193.496 185.88 193.046 184.86 192.206 184.12C191.386 183.38 190.356 183.01 189.116 183.01C188.276 183.01 187.496 183.2 186.776 183.58C186.056 183.94 185.476 184.49 185.036 185.23C184.616 185.95 184.406 186.85 184.406 187.93V188.74C184.406 189.92 184.626 190.91 185.066 191.71C185.506 192.51 186.086 193.11 186.806 193.51C187.526 193.91 188.296 194.11 189.116 194.11C190.116 194.11 190.956 193.88 191.636 193.42C192.316 192.96 192.816 192.33 193.136 191.53H195.806C195.546 192.43 195.116 193.25 194.516 193.99C193.916 194.73 193.156 195.31 192.236 195.73C191.336 196.15 190.306 196.36 189.146 196.36ZM206.115 196.36C204.655 196.36 203.345 196.04 202.185 195.4C201.025 194.74 200.115 193.83 199.455 192.67C198.795 191.49 198.465 190.12 198.465 188.56C198.465 186.98 198.795 185.61 199.455 184.45C200.135 183.29 201.055 182.39 202.215 181.75C203.395 181.09 204.715 180.76 206.175 180.76C207.635 180.76 208.945 181.09 210.105 181.75C211.265 182.39 212.175 183.29 212.835 184.45C213.495 185.61 213.825 186.98 213.825 188.56C213.825 190.12 213.485 191.49 212.805 192.67C212.145 193.83 211.235 194.74 210.075 195.4C208.915 196.04 207.595 196.36 206.115 196.36ZM206.115 194.05C207.015 194.05 207.835 193.85 208.575 193.45C209.335 193.03 209.935 192.41 210.375 191.59C210.835 190.77 211.065 189.76 211.065 188.56C211.065 187.34 210.835 186.33 210.375 185.53C209.935 184.71 209.345 184.1 208.605 183.7C207.865 183.28 207.055 183.07 206.175 183.07C205.295 183.07 204.475 183.28 203.715 183.7C202.975 184.12 202.375 184.73 201.915 185.53C201.455 186.33 201.225 187.34 201.225 188.56C201.225 189.76 201.445 190.77 201.885 191.59C202.345 192.41 202.945 193.03 203.685 193.45C204.425 193.85 205.235 194.05 206.115 194.05ZM222.087 196.36C220.267 196.36 218.747 195.94 217.527 195.1C216.307 194.24 215.597 192.99 215.397 191.35H218.187C218.347 192.21 218.777 192.89 219.477 193.39C220.177 193.89 221.077 194.14 222.177 194.14C223.217 194.14 224.017 193.92 224.577 193.48C225.137 193.04 225.417 192.48 225.417 191.8C225.417 191.3 225.237 190.92 224.877 190.66C224.537 190.38 223.897 190.16 222.957 190C222.577 189.92 222.167 189.84 221.727 189.76C221.307 189.68 220.907 189.61 220.527 189.55C219.847 189.41 219.167 189.18 218.487 188.86C217.827 188.54 217.277 188.09 216.837 187.51C216.397 186.93 216.177 186.18 216.177 185.26C216.177 183.98 216.667 182.91 217.647 182.05C218.627 181.19 219.967 180.76 221.667 180.76C223.307 180.76 224.667 181.14 225.747 181.9C226.827 182.64 227.437 183.8 227.577 185.38H224.907C224.827 184.52 224.477 183.91 223.857 183.55C223.257 183.17 222.517 182.98 221.637 182.98C220.777 182.98 220.067 183.17 219.507 183.55C218.967 183.93 218.697 184.43 218.697 185.05C218.697 186.13 219.507 186.83 221.127 187.15C221.367 187.17 221.617 187.21 221.877 187.27C222.157 187.31 222.437 187.36 222.717 187.42C222.997 187.46 223.247 187.5 223.467 187.54C223.947 187.62 224.447 187.74 224.967 187.9C225.487 188.04 225.977 188.26 226.437 188.56C226.897 188.84 227.267 189.23 227.547 189.73C227.847 190.21 227.997 190.83 227.997 191.59C227.997 192.51 227.757 193.33 227.277 194.05C226.797 194.77 226.117 195.34 225.237 195.76C224.357 196.16 223.307 196.36 222.087 196.36ZM245.33 196C244.49 196 243.78 195.9 243.2 195.7C242.62 195.48 242.18 195.08 241.88 194.5C241.6 193.92 241.46 193.1 241.46 192.04V183.4H238.88V181.12H241.46V177.49H244.16V181.12H248.36V183.4H244.16V191.62C244.16 192.26 244.21 192.73 244.31 193.03C244.41 193.33 244.62 193.52 244.94 193.6C245.26 193.66 245.72 193.69 246.32 193.69H248.15V196H245.33ZM250.924 196V174.4H253.624V183.64C254.124 182.74 254.824 182.04 255.724 181.54C256.644 181.02 257.644 180.76 258.724 180.76C260.464 180.76 261.844 181.3 262.864 182.38C263.904 183.46 264.424 185.12 264.424 187.36V196H261.754V187.63C261.754 186.11 261.444 184.97 260.824 184.21C260.224 183.45 259.314 183.07 258.094 183.07C256.834 183.07 255.774 183.53 254.914 184.45C254.054 185.35 253.624 186.63 253.624 188.29V196H250.924ZM272.834 196.36C271.634 196.36 270.624 196.16 269.804 195.76C268.984 195.34 268.364 194.79 267.944 194.11C267.544 193.41 267.344 192.67 267.344 191.89C267.344 190.27 267.924 189.04 269.084 188.2C270.264 187.34 271.804 186.91 273.704 186.91C274.544 186.91 275.304 186.97 275.984 187.09C276.664 187.21 277.224 187.35 277.664 187.51V186.85C277.664 185.57 277.324 184.61 276.644 183.97C275.984 183.31 275.094 182.98 273.974 182.98C273.054 182.98 272.254 183.17 271.574 183.55C270.914 183.93 270.504 184.57 270.344 185.47H267.644C267.764 184.41 268.124 183.53 268.724 182.83C269.344 182.13 270.114 181.61 271.034 181.27C271.954 180.93 272.934 180.76 273.974 180.76C276.094 180.76 277.684 181.32 278.744 182.44C279.824 183.54 280.364 185.01 280.364 186.85V191.32C280.364 192.04 280.404 192.57 280.484 192.91C280.584 193.25 280.744 193.46 280.964 193.54C281.184 193.62 281.484 193.66 281.864 193.66H282.074V196H281.504C280.524 196 279.724 195.84 279.104 195.52C278.484 195.2 278.064 194.56 277.844 193.6C277.384 194.38 276.744 195.04 275.924 195.58C275.124 196.1 274.094 196.36 272.834 196.36ZM273.254 194.17C274.134 194.17 274.884 193.95 275.504 193.51C276.144 193.07 276.644 192.49 277.004 191.77C277.364 191.05 277.564 190.29 277.604 189.49C277.144 189.35 276.584 189.23 275.924 189.13C275.264 189.01 274.604 188.95 273.944 188.95C272.584 188.95 271.594 189.22 270.974 189.76C270.374 190.28 270.074 190.94 270.074 191.74C270.074 192.44 270.344 193.02 270.884 193.48C271.444 193.94 272.234 194.17 273.254 194.17ZM289.217 196C288.377 196 287.667 195.9 287.087 195.7C286.507 195.48 286.067 195.08 285.767 194.5C285.487 193.92 285.347 193.1 285.347 192.04V183.4H282.767V181.12H285.347V177.49H288.047V181.12H292.247V183.4H288.047V191.62C288.047 192.26 288.097 192.73 288.197 193.03C288.297 193.33 288.507 193.52 288.827 193.6C289.147 193.66 289.607 193.69 290.207 193.69H292.037V196H289.217ZM44.6849 226.36C43.2649 226.36 41.9849 226.03 40.8449 225.37C39.7249 224.71 38.8349 223.8 38.1749 222.64C37.5149 221.46 37.1849 220.1 37.1849 218.56C37.1849 217 37.5149 215.64 38.1749 214.48C38.8349 213.32 39.7249 212.41 40.8449 211.75C41.9849 211.09 43.2649 210.76 44.6849 210.76C46.4849 210.76 47.9849 211.23 49.1849 212.17C50.4049 213.09 51.1849 214.33 51.5249 215.89H48.7349C48.5349 215.01 48.0549 214.32 47.2949 213.82C46.5549 213.32 45.6849 213.07 44.6849 213.07C43.8649 213.07 43.0849 213.28 42.3449 213.7C41.6249 214.12 41.0449 214.74 40.6049 215.56C40.1649 216.36 39.9449 217.36 39.9449 218.56C39.9449 219.74 40.1649 220.74 40.6049 221.56C41.0449 222.38 41.6249 223 42.3449 223.42C43.0849 223.84 43.8649 224.05 44.6849 224.05C45.6849 224.05 46.5549 223.81 47.2949 223.33C48.0549 222.83 48.5349 222.13 48.7349 221.23H51.5249C51.2049 222.75 50.4349 223.99 49.2149 224.95C47.9949 225.89 46.4849 226.36 44.6849 226.36ZM61.3004 226.36C59.8404 226.36 58.5304 226.04 57.3704 225.4C56.2104 224.74 55.3004 223.83 54.6404 222.67C53.9804 221.49 53.6504 220.12 53.6504 218.56C53.6504 216.98 53.9804 215.61 54.6404 214.45C55.3204 213.29 56.2404 212.39 57.4004 211.75C58.5804 211.09 59.9004 210.76 61.3604 210.76C62.8204 210.76 64.1304 211.09 65.2904 211.75C66.4504 212.39 67.3604 213.29 68.0204 214.45C68.6804 215.61 69.0104 216.98 69.0104 218.56C69.0104 220.12 68.6704 221.49 67.9904 222.67C67.3304 223.83 66.4204 224.74 65.2604 225.4C64.1004 226.04 62.7804 226.36 61.3004 226.36ZM61.3004 224.05C62.2004 224.05 63.0204 223.85 63.7604 223.45C64.5204 223.03 65.1204 222.41 65.5604 221.59C66.0204 220.77 66.2504 219.76 66.2504 218.56C66.2504 217.34 66.0204 216.33 65.5604 215.53C65.1204 214.71 64.5304 214.1 63.7904 213.7C63.0504 213.28 62.2404 213.07 61.3604 213.07C60.4804 213.07 59.6604 213.28 58.9004 213.7C58.1604 214.12 57.5604 214.73 57.1004 215.53C56.6404 216.33 56.4104 217.34 56.4104 218.56C56.4104 219.76 56.6304 220.77 57.0704 221.59C57.5304 222.41 58.1304 223.03 58.8704 223.45C59.6104 223.85 60.4204 224.05 61.3004 224.05ZM71.7756 226V211.12H74.4756V213.58C74.9556 212.7 75.6356 212.01 76.5156 211.51C77.3956 211.01 78.3956 210.76 79.5156 210.76C81.2756 210.76 82.6756 211.3 83.7156 212.38C84.7556 213.46 85.2756 215.12 85.2756 217.36V226H82.5756V217.63C82.5756 216.11 82.2556 214.97 81.6156 214.21C80.9956 213.45 80.0656 213.07 78.8256 213.07C77.5656 213.07 76.5256 213.53 75.7056 214.45C74.8856 215.35 74.4756 216.63 74.4756 218.29V226H71.7756ZM88.8557 226V211.12H91.5557V213.58C92.0357 212.7 92.7157 212.01 93.5957 211.51C94.4757 211.01 95.4757 210.76 96.5957 210.76C98.3557 210.76 99.7557 211.3 100.796 212.38C101.836 213.46 102.356 215.12 102.356 217.36V226H99.6557V217.63C99.6557 216.11 99.3357 214.97 98.6957 214.21C98.0757 213.45 97.1457 213.07 95.9057 213.07C94.6457 213.07 93.6057 213.53 92.7857 214.45C91.9657 215.35 91.5557 216.63 91.5557 218.29V226H88.8557ZM112.476 226.36C111.036 226.36 109.756 226.04 108.636 225.4C107.536 224.74 106.666 223.83 106.026 222.67C105.406 221.51 105.096 220.15 105.096 218.59C105.096 217.01 105.406 215.64 106.026 214.48C106.646 213.3 107.516 212.39 108.636 211.75C109.756 211.09 111.046 210.76 112.506 210.76C113.966 210.76 115.216 211.09 116.256 211.75C117.316 212.39 118.126 213.24 118.686 214.3C119.266 215.36 119.556 216.52 119.556 217.78C119.556 217.98 119.556 218.2 119.556 218.44C119.556 218.66 119.546 218.9 119.526 219.16H107.106V217.18H116.886C116.826 215.88 116.376 214.86 115.536 214.12C114.716 213.38 113.686 213.01 112.446 213.01C111.606 213.01 110.826 213.2 110.106 213.58C109.386 213.94 108.806 214.49 108.366 215.23C107.946 215.95 107.736 216.85 107.736 217.93V218.74C107.736 219.92 107.956 220.91 108.396 221.71C108.836 222.51 109.416 223.11 110.136 223.51C110.856 223.91 111.626 224.11 112.446 224.11C113.446 224.11 114.286 223.88 114.966 223.42C115.646 222.96 116.146 222.33 116.466 221.53H119.136C118.876 222.43 118.446 223.25 117.846 223.99C117.246 224.73 116.486 225.31 115.566 225.73C114.666 226.15 113.636 226.36 112.476 226.36ZM129.265 226.36C127.845 226.36 126.565 226.03 125.425 225.37C124.305 224.71 123.415 223.8 122.755 222.64C122.095 221.46 121.765 220.1 121.765 218.56C121.765 217 122.095 215.64 122.755 214.48C123.415 213.32 124.305 212.41 125.425 211.75C126.565 211.09 127.845 210.76 129.265 210.76C131.065 210.76 132.565 211.23 133.765 212.17C134.985 213.09 135.765 214.33 136.105 215.89H133.315C133.115 215.01 132.635 214.32 131.875 213.82C131.135 213.32 130.265 213.07 129.265 213.07C128.445 213.07 127.665 213.28 126.925 213.7C126.205 214.12 125.625 214.74 125.185 215.56C124.745 216.36 124.525 217.36 124.525 218.56C124.525 219.74 124.745 220.74 125.185 221.56C125.625 222.38 126.205 223 126.925 223.42C127.665 223.84 128.445 224.05 129.265 224.05C130.265 224.05 131.135 223.81 131.875 223.33C132.635 222.83 133.115 222.13 133.315 221.23H136.105C135.785 222.75 135.015 223.99 133.795 224.95C132.575 225.89 131.065 226.36 129.265 226.36ZM143.758 226C142.918 226 142.208 225.9 141.628 225.7C141.048 225.48 140.608 225.08 140.308 224.5C140.028 223.92 139.888 223.1 139.888 222.04V213.4H137.308V211.12H139.888V207.49H142.588V211.12H146.788V213.4H142.588V221.62C142.588 222.26 142.638 222.73 142.738 223.03C142.838 223.33 143.048 223.52 143.368 223.6C143.688 223.66 144.148 223.69 144.748 223.69H146.578V226H143.758ZM162.481 226L158.131 211.12H160.831L164.221 223.9L163.531 223.87L167.401 211.12H170.461L174.331 223.87L173.641 223.9L177.031 211.12H179.731L175.381 226H172.621L168.571 212.68H169.291L165.241 226H162.481ZM182.402 226V211.12H185.102V226H182.402ZM182.102 208.27V204.97H185.372V208.27H182.102ZM193.679 226C192.839 226 192.129 225.9 191.549 225.7C190.969 225.48 190.529 225.08 190.229 224.5C189.949 223.92 189.809 223.1 189.809 222.04V213.4H187.229V211.12H189.809V207.49H192.509V211.12H196.709V213.4H192.509V221.62C192.509 222.26 192.559 222.73 192.659 223.03C192.759 223.33 192.969 223.52 193.289 223.6C193.609 223.66 194.069 223.69 194.669 223.69H196.499V226H193.679ZM199.273 226V204.4H201.973V213.64C202.473 212.74 203.173 212.04 204.073 211.54C204.993 211.02 205.993 210.76 207.073 210.76C208.813 210.76 210.193 211.3 211.213 212.38C212.253 213.46 212.773 215.12 212.773 217.36V226H210.103V217.63C210.103 216.11 209.793 214.97 209.173 214.21C208.573 213.45 207.663 213.07 206.443 213.07C205.183 213.07 204.123 213.53 203.263 214.45C202.403 215.35 201.973 216.63 201.973 218.29V226H199.273ZM38.1149 256V241.12H40.8149V243.16C41.2949 242.4 41.9249 241.81 42.7049 241.39C43.5049 240.97 44.3949 240.76 45.3749 240.76C46.5349 240.76 47.5449 241 48.4049 241.48C49.2649 241.96 49.9149 242.68 50.3549 243.64C50.8749 242.74 51.5849 242.04 52.4849 241.54C53.4049 241.02 54.3949 240.76 55.4549 240.76C57.2549 240.76 58.6849 241.3 59.7449 242.38C60.8249 243.46 61.3649 245.12 61.3649 247.36V256H58.6649V247.63C58.6649 246.11 58.3649 244.97 57.7649 244.21C57.1649 243.45 56.2849 243.07 55.1249 243.07C53.9649 243.07 52.9949 243.53 52.2149 244.45C51.4549 245.35 51.0749 246.63 51.0749 248.29V256H48.4049V247.63C48.4049 246.11 48.0949 244.97 47.4749 244.21C46.8749 243.45 46.0049 243.07 44.8649 243.07C43.7049 243.07 42.7349 243.53 41.9549 244.45C41.1949 245.35 40.8149 246.63 40.8149 248.29V256H38.1149ZM70.3173 256.36C68.6973 256.36 67.3773 255.82 66.3573 254.74C65.3373 253.66 64.8273 252 64.8273 249.76V241.12H67.5273V249.49C67.5273 251.01 67.8273 252.15 68.4273 252.91C69.0473 253.67 69.8973 254.05 70.9773 254.05C72.2373 254.05 73.2273 253.6 73.9473 252.7C74.6673 251.78 75.0273 250.49 75.0273 248.83V241.12H77.7273V256H75.0273V253.6C74.5873 254.46 73.9573 255.14 73.1373 255.64C72.3373 256.12 71.3973 256.36 70.3173 256.36ZM81.2099 256V234.4H83.9099V256H81.2099ZM92.5173 256C91.6773 256 90.9673 255.9 90.3873 255.7C89.8073 255.48 89.3673 255.08 89.0673 254.5C88.7873 253.92 88.6473 253.1 88.6473 252.04V243.4H86.0673V241.12H88.6473V237.49H91.3473V241.12H95.5473V243.4H91.3473V251.62C91.3473 252.26 91.3973 252.73 91.4973 253.03C91.5973 253.33 91.8073 253.52 92.1273 253.6C92.4473 253.66 92.9073 253.69 93.5073 253.69H95.3373V256H92.5173ZM98.2614 256V241.12H100.961V256H98.2614ZM97.9614 238.27V234.97H101.231V238.27H97.9614ZM104.439 262.6V241.12H107.139V243.55C107.619 242.83 108.299 242.19 109.179 241.63C110.059 241.05 111.179 240.76 112.539 240.76C113.999 240.76 115.279 241.1 116.379 241.78C117.479 242.46 118.339 243.39 118.959 244.57C119.579 245.75 119.889 247.09 119.889 248.59C119.889 250.09 119.579 251.43 118.959 252.61C118.339 253.77 117.479 254.69 116.379 255.37C115.279 256.03 113.989 256.36 112.509 256.36C111.289 256.36 110.219 256.12 109.299 255.64C108.379 255.14 107.659 254.45 107.139 253.57V262.6H104.439ZM112.149 254.02C113.129 254.02 113.989 253.79 114.729 253.33C115.489 252.87 116.079 252.23 116.499 251.41C116.939 250.59 117.159 249.64 117.159 248.56C117.159 247.48 116.939 246.53 116.499 245.71C116.079 244.89 115.489 244.25 114.729 243.79C113.989 243.33 113.129 243.1 112.149 243.1C111.189 243.1 110.329 243.33 109.569 243.79C108.829 244.25 108.249 244.89 107.829 245.71C107.409 246.53 107.199 247.48 107.199 248.56C107.199 249.64 107.409 250.59 107.829 251.41C108.249 252.23 108.829 252.87 109.569 253.33C110.329 253.79 111.189 254.02 112.149 254.02ZM122.636 256V234.4H125.336V256H122.636ZM135.503 256.36C134.063 256.36 132.783 256.04 131.663 255.4C130.563 254.74 129.693 253.83 129.053 252.67C128.433 251.51 128.123 250.15 128.123 248.59C128.123 247.01 128.433 245.64 129.053 244.48C129.673 243.3 130.543 242.39 131.663 241.75C132.783 241.09 134.073 240.76 135.533 240.76C136.993 240.76 138.243 241.09 139.283 241.75C140.343 242.39 141.153 243.24 141.713 244.3C142.293 245.36 142.583 246.52 142.583 247.78C142.583 247.98 142.583 248.2 142.583 248.44C142.583 248.66 142.573 248.9 142.553 249.16H130.133V247.18H139.913C139.853 245.88 139.403 244.86 138.563 244.12C137.743 243.38 136.713 243.01 135.473 243.01C134.633 243.01 133.853 243.2 133.133 243.58C132.413 243.94 131.833 244.49 131.393 245.23C130.973 245.95 130.763 246.85 130.763 247.93V248.74C130.763 249.92 130.983 250.91 131.423 251.71C131.863 252.51 132.443 253.11 133.163 253.51C133.883 253.91 134.653 254.11 135.473 254.11C136.473 254.11 137.313 253.88 137.993 253.42C138.673 252.96 139.173 252.33 139.493 251.53H142.163C141.903 252.43 141.473 253.25 140.873 253.99C140.273 254.73 139.513 255.31 138.593 255.73C137.693 256.15 136.663 256.36 135.503 256.36ZM159.602 256.36C158.402 256.36 157.392 256.16 156.572 255.76C155.752 255.34 155.132 254.79 154.712 254.11C154.312 253.41 154.112 252.67 154.112 251.89C154.112 250.27 154.692 249.04 155.852 248.2C157.032 247.34 158.572 246.91 160.472 246.91C161.312 246.91 162.072 246.97 162.752 247.09C163.432 247.21 163.992 247.35 164.432 247.51V246.85C164.432 245.57 164.092 244.61 163.412 243.97C162.752 243.31 161.862 242.98 160.742 242.98C159.822 242.98 159.022 243.17 158.342 243.55C157.682 243.93 157.272 244.57 157.112 245.47H154.412C154.532 244.41 154.892 243.53 155.492 242.83C156.112 242.13 156.882 241.61 157.802 241.27C158.722 240.93 159.702 240.76 160.742 240.76C162.862 240.76 164.452 241.32 165.512 242.44C166.592 243.54 167.132 245.01 167.132 246.85V251.32C167.132 252.04 167.172 252.57 167.252 252.91C167.352 253.25 167.512 253.46 167.732 253.54C167.952 253.62 168.252 253.66 168.632 253.66H168.842V256H168.272C167.292 256 166.492 255.84 165.872 255.52C165.252 255.2 164.832 254.56 164.612 253.6C164.152 254.38 163.512 255.04 162.692 255.58C161.892 256.1 160.862 256.36 159.602 256.36ZM160.022 254.17C160.902 254.17 161.652 253.95 162.272 253.51C162.912 253.07 163.412 252.49 163.772 251.77C164.132 251.05 164.332 250.29 164.372 249.49C163.912 249.35 163.352 249.23 162.692 249.13C162.032 249.01 161.372 248.95 160.712 248.95C159.352 248.95 158.362 249.22 157.742 249.76C157.142 250.28 156.842 250.94 156.842 251.74C156.842 252.44 157.112 253.02 157.652 253.48C158.212 253.94 159.002 254.17 160.022 254.17ZM176.782 256.36C175.162 256.36 173.842 255.82 172.822 254.74C171.802 253.66 171.292 252 171.292 249.76V241.12H173.992V249.49C173.992 251.01 174.292 252.15 174.892 252.91C175.512 253.67 176.362 254.05 177.442 254.05C178.702 254.05 179.692 253.6 180.412 252.7C181.132 251.78 181.492 250.49 181.492 248.83V241.12H184.192V256H181.492V253.6C181.052 254.46 180.422 255.14 179.602 255.64C178.802 256.12 177.862 256.36 176.782 256.36ZM194.155 256.36C192.675 256.36 191.385 256.02 190.285 255.34C189.185 254.66 188.325 253.73 187.705 252.55C187.085 251.37 186.775 250.03 186.775 248.53C186.775 247.03 187.085 245.7 187.705 244.54C188.325 243.36 189.185 242.44 190.285 241.78C191.405 241.1 192.695 240.76 194.155 240.76C195.375 240.76 196.445 241.01 197.365 241.51C198.305 241.99 199.025 242.67 199.525 243.55V234.4H202.225V256H199.525V253.57C199.045 254.29 198.365 254.94 197.485 255.52C196.625 256.08 195.515 256.36 194.155 256.36ZM194.515 254.02C195.495 254.02 196.355 253.79 197.095 253.33C197.835 252.87 198.415 252.23 198.835 251.41C199.255 250.59 199.465 249.64 199.465 248.56C199.465 247.48 199.255 246.53 198.835 245.71C198.415 244.89 197.835 244.25 197.095 243.79C196.355 243.33 195.495 243.1 194.515 243.1C193.555 243.1 192.695 243.33 191.935 243.79C191.175 244.25 190.585 244.89 190.165 245.71C189.745 246.51 189.535 247.46 189.535 248.56C189.535 249.64 189.745 250.59 190.165 251.41C190.585 252.23 191.175 252.87 191.935 253.33C192.695 253.79 193.555 254.02 194.515 254.02ZM205.752 256V241.12H208.452V256H205.752ZM205.452 238.27V234.97H208.722V238.27H205.452ZM218.589 256.36C217.149 256.36 215.869 256.04 214.749 255.4C213.649 254.74 212.779 253.83 212.139 252.67C211.519 251.51 211.209 250.15 211.209 248.59C211.209 247.01 211.519 245.64 212.139 244.48C212.759 243.3 213.629 242.39 214.749 241.75C215.869 241.09 217.159 240.76 218.619 240.76C220.079 240.76 221.329 241.09 222.369 241.75C223.429 242.39 224.239 243.24 224.799 244.3C225.379 245.36 225.669 246.52 225.669 247.78C225.669 247.98 225.669 248.2 225.669 248.44C225.669 248.66 225.659 248.9 225.639 249.16H213.219V247.18H222.999C222.939 245.88 222.489 244.86 221.649 244.12C220.829 243.38 219.799 243.01 218.559 243.01C217.719 243.01 216.939 243.2 216.219 243.58C215.499 243.94 214.919 244.49 214.479 245.23C214.059 245.95 213.849 246.85 213.849 247.93V248.74C213.849 249.92 214.069 250.91 214.509 251.71C214.949 252.51 215.529 253.11 216.249 253.51C216.969 253.91 217.739 254.11 218.559 254.11C219.559 254.11 220.399 253.88 221.079 253.42C221.759 252.96 222.259 252.33 222.579 251.53H225.249C224.989 252.43 224.559 253.25 223.959 253.99C223.359 254.73 222.599 255.31 221.679 255.73C220.779 256.15 219.749 256.36 218.589 256.36ZM228.748 256V241.12H231.448V243.58C231.928 242.7 232.608 242.01 233.488 241.51C234.368 241.01 235.368 240.76 236.488 240.76C238.248 240.76 239.648 241.3 240.688 242.38C241.728 243.46 242.248 245.12 242.248 247.36V256H239.548V247.63C239.548 246.11 239.228 244.97 238.588 244.21C237.968 243.45 237.038 243.07 235.798 243.07C234.538 243.07 233.498 243.53 232.678 244.45C231.858 245.35 231.448 246.63 231.448 248.29V256H228.748ZM252.458 256.36C251.038 256.36 249.758 256.03 248.618 255.37C247.498 254.71 246.608 253.8 245.948 252.64C245.288 251.46 244.958 250.1 244.958 248.56C244.958 247 245.288 245.64 245.948 244.48C246.608 243.32 247.498 242.41 248.618 241.75C249.758 241.09 251.038 240.76 252.458 240.76C254.258 240.76 255.758 241.23 256.958 242.17C258.178 243.09 258.958 244.33 259.298 245.89H256.508C256.308 245.01 255.828 244.32 255.068 243.82C254.328 243.32 253.458 243.07 252.458 243.07C251.638 243.07 250.858 243.28 250.118 243.7C249.398 244.12 248.818 244.74 248.378 245.56C247.938 246.36 247.718 247.36 247.718 248.56C247.718 249.74 247.938 250.74 248.378 251.56C248.818 252.38 249.398 253 250.118 253.42C250.858 253.84 251.638 254.05 252.458 254.05C253.458 254.05 254.328 253.81 255.068 253.33C255.828 252.83 256.308 252.13 256.508 251.23H259.298C258.978 252.75 258.208 253.99 256.988 254.95C255.768 255.89 254.258 256.36 252.458 256.36ZM268.804 256.36C267.364 256.36 266.084 256.04 264.964 255.4C263.864 254.74 262.994 253.83 262.354 252.67C261.734 251.51 261.424 250.15 261.424 248.59C261.424 247.01 261.734 245.64 262.354 244.48C262.974 243.3 263.844 242.39 264.964 241.75C266.084 241.09 267.374 240.76 268.834 240.76C270.294 240.76 271.544 241.09 272.584 241.75C273.644 242.39 274.454 243.24 275.014 244.3C275.594 245.36 275.884 246.52 275.884 247.78C275.884 247.98 275.884 248.2 275.884 248.44C275.884 248.66 275.874 248.9 275.854 249.16H263.434V247.18H273.214C273.154 245.88 272.704 244.86 271.864 244.12C271.044 243.38 270.014 243.01 268.774 243.01C267.934 243.01 267.154 243.2 266.434 243.58C265.714 243.94 265.134 244.49 264.694 245.23C264.274 245.95 264.064 246.85 264.064 247.93V248.74C264.064 249.92 264.284 250.91 264.724 251.71C265.164 252.51 265.744 253.11 266.464 253.51C267.184 253.91 267.954 254.11 268.774 254.11C269.774 254.11 270.614 253.88 271.294 253.42C271.974 252.96 272.474 252.33 272.794 251.53H275.464C275.204 252.43 274.774 253.25 274.174 253.99C273.574 254.73 272.814 255.31 271.894 255.73C270.994 256.15 269.964 256.36 268.804 256.36ZM283.845 256.36C282.025 256.36 280.505 255.94 279.285 255.1C278.065 254.24 277.355 252.99 277.155 251.35H279.945C280.105 252.21 280.535 252.89 281.235 253.39C281.935 253.89 282.835 254.14 283.935 254.14C284.975 254.14 285.775 253.92 286.335 253.48C286.895 253.04 287.175 252.48 287.175 251.8C287.175 251.3 286.995 250.92 286.635 250.66C286.295 250.38 285.655 250.16 284.715 250C284.335 249.92 283.925 249.84 283.485 249.76C283.065 249.68 282.665 249.61 282.285 249.55C281.605 249.41 280.925 249.18 280.245 248.86C279.585 248.54 279.035 248.09 278.595 247.51C278.155 246.93 277.935 246.18 277.935 245.26C277.935 243.98 278.425 242.91 279.405 242.05C280.385 241.19 281.725 240.76 283.425 240.76C285.065 240.76 286.425 241.14 287.505 241.9C288.585 242.64 289.195 243.8 289.335 245.38H286.665C286.585 244.52 286.235 243.91 285.615 243.55C285.015 243.17 284.275 242.98 283.395 242.98C282.535 242.98 281.825 243.17 281.265 243.55C280.725 243.93 280.455 244.43 280.455 245.05C280.455 246.13 281.265 246.83 282.885 247.15C283.125 247.17 283.375 247.21 283.635 247.27C283.915 247.31 284.195 247.36 284.475 247.42C284.755 247.46 285.005 247.5 285.225 247.54C285.705 247.62 286.205 247.74 286.725 247.9C287.245 248.04 287.735 248.26 288.195 248.56C288.655 248.84 289.025 249.23 289.305 249.73C289.605 250.21 289.755 250.83 289.755 251.59C289.755 252.51 289.515 253.33 289.035 254.05C288.555 254.77 287.875 255.34 286.995 255.76C286.115 256.16 285.065 256.36 283.845 256.36ZM43.8449 286.36C42.0249 286.36 40.5049 285.94 39.2849 285.1C38.0649 284.24 37.3549 282.99 37.1549 281.35H39.9449C40.1049 282.21 40.5349 282.89 41.2349 283.39C41.9349 283.89 42.8349 284.14 43.9349 284.14C44.9749 284.14 45.7749 283.92 46.3349 283.48C46.8949 283.04 47.1749 282.48 47.1749 281.8C47.1749 281.3 46.9949 280.92 46.6349 280.66C46.2949 280.38 45.6549 280.16 44.7149 280C44.3349 279.92 43.9249 279.84 43.4849 279.76C43.0649 279.68 42.6649 279.61 42.2849 279.55C41.6049 279.41 40.9249 279.18 40.2449 278.86C39.5849 278.54 39.0349 278.09 38.5949 277.51C38.1549 276.93 37.9349 276.18 37.9349 275.26C37.9349 273.98 38.4249 272.91 39.4049 272.05C40.3849 271.19 41.7249 270.76 43.4249 270.76C45.0649 270.76 46.4249 271.14 47.5049 271.9C48.5849 272.64 49.1949 273.8 49.3349 275.38H46.6649C46.5849 274.52 46.2349 273.91 45.6149 273.55C45.0149 273.17 44.2749 272.98 43.3949 272.98C42.5349 272.98 41.8249 273.17 41.2649 273.55C40.7249 273.93 40.4549 274.43 40.4549 275.05C40.4549 276.13 41.2649 276.83 42.8849 277.15C43.1249 277.17 43.3749 277.21 43.6349 277.27C43.9149 277.31 44.1949 277.36 44.4749 277.42C44.7549 277.46 45.0049 277.5 45.2249 277.54C45.7049 277.62 46.2049 277.74 46.7249 277.9C47.2449 278.04 47.7349 278.26 48.1949 278.56C48.6549 278.84 49.0249 279.23 49.3049 279.73C49.6049 280.21 49.7549 280.83 49.7549 281.59C49.7549 282.51 49.5149 283.33 49.0349 284.05C48.5549 284.77 47.8749 285.34 46.9949 285.76C46.1149 286.16 45.0649 286.36 43.8449 286.36ZM52.9684 286V271.12H55.6684V286H52.9684ZM52.6684 268.27V264.97H55.9384V268.27H52.6684ZM59.3258 286V271.12H62.0258V273.16C62.5058 272.4 63.1358 271.81 63.9158 271.39C64.7158 270.97 65.6058 270.76 66.5858 270.76C67.7458 270.76 68.7558 271 69.6158 271.48C70.4758 271.96 71.1258 272.68 71.5658 273.64C72.0858 272.74 72.7958 272.04 73.6958 271.54C74.6158 271.02 75.6058 270.76 76.6658 270.76C78.4658 270.76 79.8958 271.3 80.9558 272.38C82.0358 273.46 82.5758 275.12 82.5758 277.36V286H79.8758V277.63C79.8758 276.11 79.5758 274.97 78.9758 274.21C78.3758 273.45 77.4958 273.07 76.3358 273.07C75.1758 273.07 74.2058 273.53 73.4258 274.45C72.6658 275.35 72.2858 276.63 72.2858 278.29V286H69.6158V277.63C69.6158 276.11 69.3058 274.97 68.6858 274.21C68.0858 273.45 67.2158 273.07 66.0758 273.07C64.9158 273.07 63.9458 273.53 63.1658 274.45C62.4058 275.35 62.0258 276.63 62.0258 278.29V286H59.3258ZM91.5282 286.36C89.9082 286.36 88.5882 285.82 87.5682 284.74C86.5482 283.66 86.0382 282 86.0382 279.76V271.12H88.7382V279.49C88.7382 281.01 89.0382 282.15 89.6382 282.91C90.2582 283.67 91.1082 284.05 92.1882 284.05C93.4482 284.05 94.4382 283.6 95.1582 282.7C95.8782 281.78 96.2382 280.49 96.2382 278.83V271.12H98.9382V286H96.2382V283.6C95.7982 284.46 95.1682 285.14 94.3482 285.64C93.5482 286.12 92.6082 286.36 91.5282 286.36ZM102.421 286V264.4H105.121V286H102.421ZM113.728 286C112.888 286 112.178 285.9 111.598 285.7C111.018 285.48 110.578 285.08 110.278 284.5C109.998 283.92 109.858 283.1 109.858 282.04V273.4H107.278V271.12H109.858V267.49H112.558V271.12H116.758V273.4H112.558V281.62C112.558 282.26 112.608 282.73 112.708 283.03C112.808 283.33 113.018 283.52 113.338 283.6C113.658 283.66 114.118 283.69 114.718 283.69H116.548V286H113.728ZM123.713 286.36C122.513 286.36 121.503 286.16 120.683 285.76C119.863 285.34 119.243 284.79 118.823 284.11C118.423 283.41 118.223 282.67 118.223 281.89C118.223 280.27 118.803 279.04 119.963 278.2C121.143 277.34 122.683 276.91 124.583 276.91C125.423 276.91 126.183 276.97 126.863 277.09C127.543 277.21 128.103 277.35 128.543 277.51V276.85C128.543 275.57 128.203 274.61 127.523 273.97C126.863 273.31 125.973 272.98 124.853 272.98C123.933 272.98 123.133 273.17 122.453 273.55C121.793 273.93 121.383 274.57 121.223 275.47H118.523C118.643 274.41 119.003 273.53 119.603 272.83C120.223 272.13 120.993 271.61 121.913 271.27C122.833 270.93 123.813 270.76 124.853 270.76C126.973 270.76 128.563 271.32 129.623 272.44C130.703 273.54 131.243 275.01 131.243 276.85V281.32C131.243 282.04 131.283 282.57 131.363 282.91C131.463 283.25 131.623 283.46 131.843 283.54C132.063 283.62 132.363 283.66 132.743 283.66H132.953V286H132.383C131.403 286 130.603 285.84 129.983 285.52C129.363 285.2 128.943 284.56 128.723 283.6C128.263 284.38 127.623 285.04 126.803 285.58C126.003 286.1 124.973 286.36 123.713 286.36ZM124.133 284.17C125.013 284.17 125.763 283.95 126.383 283.51C127.023 283.07 127.523 282.49 127.883 281.77C128.243 281.05 128.443 280.29 128.483 279.49C128.023 279.35 127.463 279.23 126.803 279.13C126.143 279.01 125.483 278.95 124.823 278.95C123.463 278.95 122.473 279.22 121.853 279.76C121.253 280.28 120.953 280.94 120.953 281.74C120.953 282.44 121.223 283.02 121.763 283.48C122.323 283.94 123.113 284.17 124.133 284.17ZM135.613 286V271.12H138.313V273.58C138.793 272.7 139.473 272.01 140.353 271.51C141.233 271.01 142.233 270.76 143.353 270.76C145.113 270.76 146.513 271.3 147.553 272.38C148.593 273.46 149.113 275.12 149.113 277.36V286H146.413V277.63C146.413 276.11 146.093 274.97 145.453 274.21C144.833 273.45 143.903 273.07 142.663 273.07C141.403 273.07 140.363 273.53 139.543 274.45C138.723 275.35 138.313 276.63 138.313 278.29V286H135.613ZM159.234 286.36C157.794 286.36 156.514 286.04 155.394 285.4C154.294 284.74 153.424 283.83 152.784 282.67C152.164 281.51 151.854 280.15 151.854 278.59C151.854 277.01 152.164 275.64 152.784 274.48C153.404 273.3 154.274 272.39 155.394 271.75C156.514 271.09 157.804 270.76 159.264 270.76C160.724 270.76 161.974 271.09 163.014 271.75C164.074 272.39 164.884 273.24 165.444 274.3C166.024 275.36 166.314 276.52 166.314 277.78C166.314 277.98 166.314 278.2 166.314 278.44C166.314 278.66 166.304 278.9 166.284 279.16H153.864V277.18H163.644C163.584 275.88 163.134 274.86 162.294 274.12C161.474 273.38 160.444 273.01 159.204 273.01C158.364 273.01 157.584 273.2 156.864 273.58C156.144 273.94 155.564 274.49 155.124 275.23C154.704 275.95 154.494 276.85 154.494 277.93V278.74C154.494 279.92 154.714 280.91 155.154 281.71C155.594 282.51 156.174 283.11 156.894 283.51C157.614 283.91 158.384 284.11 159.204 284.11C160.204 284.11 161.044 283.88 161.724 283.42C162.404 282.96 162.904 282.33 163.224 281.53H165.894C165.634 282.43 165.204 283.25 164.604 283.99C164.004 284.73 163.244 285.31 162.324 285.73C161.424 286.15 160.394 286.36 159.234 286.36ZM176.203 286.36C174.743 286.36 173.433 286.04 172.273 285.4C171.113 284.74 170.203 283.83 169.543 282.67C168.883 281.49 168.553 280.12 168.553 278.56C168.553 276.98 168.883 275.61 169.543 274.45C170.223 273.29 171.143 272.39 172.303 271.75C173.483 271.09 174.803 270.76 176.263 270.76C177.723 270.76 179.033 271.09 180.193 271.75C181.353 272.39 182.263 273.29 182.923 274.45C183.583 275.61 183.913 276.98 183.913 278.56C183.913 280.12 183.573 281.49 182.893 282.67C182.233 283.83 181.323 284.74 180.163 285.4C179.003 286.04 177.683 286.36 176.203 286.36ZM176.203 284.05C177.103 284.05 177.923 283.85 178.663 283.45C179.423 283.03 180.023 282.41 180.463 281.59C180.923 280.77 181.153 279.76 181.153 278.56C181.153 277.34 180.923 276.33 180.463 275.53C180.023 274.71 179.433 274.1 178.693 273.7C177.953 273.28 177.143 273.07 176.263 273.07C175.383 273.07 174.563 273.28 173.803 273.7C173.063 274.12 172.463 274.73 172.003 275.53C171.543 276.33 171.313 277.34 171.313 278.56C171.313 279.76 171.533 280.77 171.973 281.59C172.433 282.41 173.033 283.03 173.773 283.45C174.513 283.85 175.323 284.05 176.203 284.05ZM191.958 286.36C190.338 286.36 189.018 285.82 187.998 284.74C186.978 283.66 186.468 282 186.468 279.76V271.12H189.168V279.49C189.168 281.01 189.468 282.15 190.068 282.91C190.688 283.67 191.538 284.05 192.618 284.05C193.878 284.05 194.868 283.6 195.588 282.7C196.308 281.78 196.668 280.49 196.668 278.83V271.12H199.368V286H196.668V283.6C196.228 284.46 195.598 285.14 194.778 285.64C193.978 286.12 193.038 286.36 191.958 286.36ZM208.464 286.36C206.644 286.36 205.124 285.94 203.904 285.1C202.684 284.24 201.974 282.99 201.774 281.35H204.564C204.724 282.21 205.154 282.89 205.854 283.39C206.554 283.89 207.454 284.14 208.554 284.14C209.594 284.14 210.394 283.92 210.954 283.48C211.514 283.04 211.794 282.48 211.794 281.8C211.794 281.3 211.614 280.92 211.254 280.66C210.914 280.38 210.274 280.16 209.334 280C208.954 279.92 208.544 279.84 208.104 279.76C207.684 279.68 207.284 279.61 206.904 279.55C206.224 279.41 205.544 279.18 204.864 278.86C204.204 278.54 203.654 278.09 203.214 277.51C202.774 276.93 202.554 276.18 202.554 275.26C202.554 273.98 203.044 272.91 204.024 272.05C205.004 271.19 206.344 270.76 208.044 270.76C209.684 270.76 211.044 271.14 212.124 271.9C213.204 272.64 213.814 273.8 213.954 275.38H211.284C211.204 274.52 210.854 273.91 210.234 273.55C209.634 273.17 208.894 272.98 208.014 272.98C207.154 272.98 206.444 273.17 205.884 273.55C205.344 273.93 205.074 274.43 205.074 275.05C205.074 276.13 205.884 276.83 207.504 277.15C207.744 277.17 207.994 277.21 208.254 277.27C208.534 277.31 208.814 277.36 209.094 277.42C209.374 277.46 209.624 277.5 209.844 277.54C210.324 277.62 210.824 277.74 211.344 277.9C211.864 278.04 212.354 278.26 212.814 278.56C213.274 278.84 213.644 279.23 213.924 279.73C214.224 280.21 214.374 280.83 214.374 281.59C214.374 282.51 214.134 283.33 213.654 284.05C213.174 284.77 212.494 285.34 211.614 285.76C210.734 286.16 209.684 286.36 208.464 286.36ZM217.558 286V264.4H220.258V286H217.558ZM223.113 292.6V290.38H226.143C226.423 290.38 226.653 290.33 226.833 290.23C227.033 290.15 227.223 289.96 227.403 289.66C227.583 289.36 227.803 288.91 228.063 288.31L229.743 284.62L229.503 286.03L222.993 271.12H225.903L230.733 282.55L235.833 271.12H238.653L230.583 289.03C230.223 289.83 229.913 290.47 229.653 290.95C229.393 291.43 229.143 291.78 228.903 292C228.683 292.24 228.423 292.4 228.123 292.48C227.843 292.56 227.473 292.6 227.013 292.6H223.113ZM238.674 286V282.43H242.334V286H238.674Z" fill="white"/>
<mask id="path-2-inside-1_2_626" fill="white">
<path fill-rule="evenodd" clip-rule="evenodd" d="M0 0H326.763V18.1531H344.009V36.3071H361.255V363.07H34.4917V344.916H17.2461V326.763H0V0Z"/>
</mask>
<path d="M326.763 0H327.763V-1H326.763V0ZM0 0V-1H-1V0H0ZM326.763 18.1531H325.763V19.1531H326.763V18.1531ZM344.009 18.1531H345.009V17.1531H344.009V18.1531ZM344.009 36.3071H343.009V37.3071H344.009V36.3071ZM361.255 36.3071H362.255V35.3071H361.255V36.3071ZM361.255 363.07V364.07H362.255V363.07H361.255ZM34.4917 363.07H33.4917V364.07H34.4917V363.07ZM34.4917 344.916H35.4917V343.916H34.4917V344.916ZM17.2461 344.916H16.2461V345.916H17.2461V344.916ZM17.2461 326.763H18.2461V325.763H17.2461V326.763ZM0 326.763H-1V327.763H0V326.763ZM326.763 -1H0V1H326.763V-1ZM327.763 18.1531V0H325.763V18.1531H327.763ZM344.009 17.1531H326.763V19.1531H344.009V17.1531ZM345.009 36.3071V18.1531H343.009V36.3071H345.009ZM344.009 37.3071H361.255V35.3071H344.009V37.3071ZM360.255 36.3071V363.07H362.255V36.3071H360.255ZM361.255 362.07H34.4917V364.07H361.255V362.07ZM35.4917 363.07V344.916H33.4917V363.07H35.4917ZM17.2461 345.916H34.4917V343.916H17.2461V345.916ZM16.2461 326.763V344.916H18.2461V326.763H16.2461ZM0 327.763H17.2461V325.763H0V327.763ZM-1 0V326.763H1V0H-1Z" fill="white" mask="url(#path-2-inside-1_2_626)"/>
</svg>
