<svg width="362" height="364" viewBox="0 0 362 364" fill="none" xmlns="http://www.w3.org/2000/svg">
<mask id="path-1-inside-1_251_188" fill="white">
<path fill-rule="evenodd" clip-rule="evenodd" d="M0 0H326.763V18.1532H344.009V36.307H361.255V363.07H34.4918V344.916H17.2461V326.763H0V0Z"/>
</mask>
<path d="M326.763 0H327.763V-1H326.763V0ZM0 0V-1H-1V0H0ZM326.763 18.1532H325.763V19.1532H326.763V18.1532ZM344.009 18.1532H345.009V17.1532H344.009V18.1532ZM344.009 36.307H343.009V37.307H344.009V36.307ZM361.255 36.307H362.255V35.307H361.255V36.307ZM361.255 363.07V364.07H362.255V363.07H361.255ZM34.4918 363.07H33.4918V364.07H34.4918V363.07ZM34.4918 344.916H35.4918V343.916H34.4918V344.916ZM17.2461 344.916H16.2461V345.916H17.2461V344.916ZM17.2461 326.763H18.2461V325.763H17.2461V326.763ZM0 326.763H-1V327.763H0V326.763ZM326.763 -1H0V1H326.763V-1ZM327.763 18.1532V0H325.763V18.1532H327.763ZM344.009 17.1532H326.763V19.1532H344.009V17.1532ZM345.009 36.307V18.1532H343.009V36.307H345.009ZM344.009 37.307H361.255V35.307H344.009V37.307ZM360.255 36.307V363.07H362.255V36.307H360.255ZM361.255 362.07H34.4918V364.07H361.255V362.07ZM35.4918 363.07V344.916H33.4918V363.07H35.4918ZM17.2461 345.916H34.4918V343.916H17.2461V345.916ZM16.2461 326.763V344.916H18.2461V326.763H16.2461ZM0 327.763H17.2461V325.763H0V327.763ZM-1 0V326.763H1V0H-1Z" fill="white" mask="url(#path-1-inside-1_251_188)"/>
<path d="M32.24 62L40.64 41.09H43.55L51.95 62H47.72L42.14 46.82L36.47 62H32.24ZM37.76 57.92L38.96 54.44H45.26L46.52 57.92H37.76ZM59.5377 62.3C58.2377 62.3 57.1177 61.97 56.1777 61.31C55.2377 60.63 54.5077 59.71 53.9877 58.55C53.4877 57.37 53.2377 56.05 53.2377 54.59C53.2377 52.97 53.5177 51.59 54.0777 50.45C54.6577 49.31 55.4277 48.44 56.3877 47.84C57.3477 47.22 58.3977 46.91 59.5377 46.91C60.3377 46.91 61.0777 47.08 61.7577 47.42C62.4577 47.74 63.0577 48.23 63.5577 48.89C64.0577 49.55 64.3877 50.39 64.5477 51.41L63.7977 51.2V41.09H67.4877V62H63.7977V58.04L64.6677 57.62C64.4277 58.78 64.0377 59.71 63.4977 60.41C62.9777 61.09 62.3677 61.58 61.6677 61.88C60.9877 62.16 60.2777 62.3 59.5377 62.3ZM60.5577 58.88C61.2977 58.88 61.9277 58.7 62.4477 58.34C62.9877 57.98 63.3977 57.48 63.6777 56.84C63.9777 56.2 64.1277 55.45 64.1277 54.59C64.1277 53.73 63.9777 52.98 63.6777 52.34C63.3977 51.7 62.9877 51.21 62.4477 50.87C61.9277 50.51 61.2977 50.33 60.5577 50.33C59.8377 50.33 59.2077 50.51 58.6677 50.87C58.1277 51.21 57.7077 51.7 57.4077 52.34C57.1277 52.96 56.9877 53.71 56.9877 54.59C56.9877 55.47 57.1277 56.23 57.4077 56.87C57.7077 57.51 58.1277 58.01 58.6677 58.37C59.2077 58.71 59.8377 58.88 60.5577 58.88ZM71.3342 62V41.09H75.3242L85.0742 56.93H84.1142V41.09H87.9842V62H83.9642L74.2442 46.13H75.2042V62H71.3342ZM98.4378 62.3C97.1578 62.3 96.0578 62.09 95.1378 61.67C94.2178 61.25 93.4578 60.69 92.8578 59.99C92.2778 59.27 91.8478 58.46 91.5678 57.56C91.2878 56.64 91.1478 55.68 91.1478 54.68C91.1478 53.72 91.2878 52.78 91.5678 51.86C91.8478 50.94 92.2678 50.11 92.8278 49.37C93.3878 48.63 94.1078 48.04 94.9878 47.6C95.8878 47.14 96.9578 46.91 98.1978 46.91C99.3578 46.91 100.368 47.11 101.228 47.51C102.088 47.89 102.798 48.43 103.358 49.13C103.918 49.81 104.338 50.61 104.618 51.53C104.918 52.45 105.068 53.43 105.068 54.47C105.068 54.61 105.058 54.81 105.038 55.07C105.038 55.31 105.018 55.57 104.978 55.85H94.8678C94.9678 56.91 95.3578 57.71 96.0378 58.25C96.7378 58.79 97.6078 59.06 98.6478 59.06C99.4078 59.06 100.148 58.93 100.868 58.67C101.588 58.39 102.228 58 102.788 57.5L104.648 60.02C103.948 60.56 103.288 61 102.668 61.34C102.048 61.68 101.398 61.92 100.718 62.06C100.058 62.22 99.2978 62.3 98.4378 62.3ZM101.378 53.99C101.418 53.83 101.448 53.67 101.468 53.51C101.508 53.35 101.528 53.2 101.528 53.06C101.528 52.64 101.448 52.25 101.288 51.89C101.128 51.51 100.908 51.18 100.628 50.9C100.348 50.62 100.008 50.41 99.6078 50.27C99.2278 50.11 98.7878 50.03 98.2878 50.03C97.5478 50.03 96.9278 50.18 96.4278 50.48C95.9278 50.78 95.5478 51.17 95.2878 51.65C95.0478 52.11 94.8978 52.59 94.8378 53.09H102.638L101.378 53.99ZM113.288 62.3C112.088 62.3 111.078 62.06 110.258 61.58C109.458 61.1 108.858 60.42 108.458 59.54C108.078 58.66 107.888 57.63 107.888 56.45V47.21H111.608V55.52C111.608 56.2 111.688 56.81 111.848 57.35C112.008 57.87 112.288 58.29 112.688 58.61C113.108 58.91 113.678 59.06 114.398 59.06C115.278 59.06 115.938 58.81 116.378 58.31C116.838 57.81 117.148 57.12 117.308 56.24C117.488 55.34 117.578 54.29 117.578 53.09V47.21H121.298V62H117.578V58.79L118.088 59.09C117.648 60.23 116.998 61.05 116.138 61.55C115.278 62.05 114.328 62.3 113.288 62.3ZM125.002 62V47.21H128.752V51.23L128.182 51.29C128.242 50.43 128.502 49.67 128.962 49.01C129.422 48.35 129.982 47.84 130.642 47.48C131.322 47.1 132.012 46.91 132.712 46.91C133.212 46.91 133.682 46.98 134.122 47.12C134.582 47.24 135.052 47.45 135.532 47.75L133.732 51.11C133.512 50.99 133.232 50.88 132.892 50.78C132.552 50.68 132.212 50.63 131.872 50.63C131.472 50.63 131.082 50.7 130.702 50.84C130.342 50.98 130.012 51.2 129.712 51.5C129.432 51.8 129.202 52.2 129.022 52.7C128.942 52.98 128.872 53.34 128.812 53.78C128.772 54.2 128.752 54.82 128.752 55.64V62H125.002ZM146.962 62L146.662 59.78V52.67C146.662 51.79 146.382 51.14 145.822 50.72C145.282 50.28 144.542 50.06 143.602 50.06C142.822 50.06 142.022 50.22 141.202 50.54C140.402 50.84 139.692 51.27 139.072 51.83L137.182 49.28C138.222 48.44 139.282 47.84 140.362 47.48C141.462 47.1 142.642 46.91 143.902 46.91C145.942 46.91 147.532 47.42 148.672 48.44C149.812 49.46 150.382 50.87 150.382 52.67V62H146.962ZM142.492 62.3C141.412 62.3 140.442 62.1 139.582 61.7C138.742 61.3 138.072 60.73 137.572 59.99C137.092 59.25 136.852 58.4 136.852 57.44C136.852 56.58 137.022 55.85 137.362 55.25C137.722 54.63 138.192 54.16 138.772 53.84C139.272 53.54 139.822 53.33 140.422 53.21C141.042 53.09 141.702 53.03 142.402 53.03H146.992V55.79H142.942C142.622 55.79 142.302 55.82 141.982 55.88C141.682 55.92 141.422 56.03 141.202 56.21C141.002 56.35 140.852 56.53 140.752 56.75C140.652 56.95 140.602 57.18 140.602 57.44C140.602 58 140.822 58.45 141.262 58.79C141.702 59.13 142.292 59.3 143.032 59.3C143.692 59.3 144.292 59.16 144.832 58.88C145.392 58.58 145.832 58.18 146.152 57.68C146.492 57.16 146.662 56.57 146.662 55.91L147.652 57.89C147.392 58.93 146.992 59.78 146.452 60.44C145.932 61.08 145.332 61.55 144.652 61.85C143.972 62.15 143.252 62.3 142.492 62.3ZM162.259 50.63V41.09H165.319L167.329 47.42L169.339 41.09H172.369V50.63H170.479V43.07L167.929 50.15H166.729L164.149 43.01V50.63H162.259ZM155.629 50.63V42.83H152.899V41.09H160.219V42.83H157.519V50.63H155.629ZM34.37 122V101.09H37.16L47.87 118.58H47.27V101.09H49.91V122H47.06L36.41 104.48H37.01V122H34.37ZM60.6734 122.24C59.5134 122.24 58.4934 122.05 57.6134 121.67C56.7534 121.27 56.0334 120.72 55.4534 120.02C54.8934 119.32 54.4634 118.52 54.1634 117.62C53.8834 116.7 53.7434 115.73 53.7434 114.71C53.7434 113.69 53.8834 112.72 54.1634 111.8C54.4434 110.86 54.8534 110.03 55.3934 109.31C55.9534 108.59 56.6534 108.02 57.4934 107.6C58.3334 107.18 59.3134 106.97 60.4334 106.97C61.5734 106.97 62.5534 107.17 63.3734 107.57C64.2134 107.95 64.8934 108.48 65.4134 109.16C65.9534 109.84 66.3534 110.6 66.6134 111.44C66.8734 112.28 67.0034 113.15 67.0034 114.05C67.0034 114.13 66.9934 114.32 66.9734 114.62C66.9734 114.9 66.9534 115.15 66.9134 115.37H56.2634C56.3234 116.81 56.7434 117.93 57.5234 118.73C58.3034 119.53 59.3634 119.93 60.7034 119.93C61.5634 119.93 62.3134 119.79 62.9534 119.51C63.5934 119.23 64.1934 118.78 64.7534 118.16L66.5234 119.72C65.9834 120.3 65.4134 120.78 64.8134 121.16C64.2134 121.52 63.5734 121.79 62.8934 121.97C62.2334 122.15 61.4934 122.24 60.6734 122.24ZM64.4834 114.08C64.5234 113.92 64.5434 113.76 64.5434 113.6C64.5634 113.44 64.5734 113.28 64.5734 113.12C64.5734 112.64 64.4834 112.16 64.3034 111.68C64.1434 111.2 63.8934 110.77 63.5534 110.39C63.2334 109.99 62.8134 109.68 62.2934 109.46C61.7934 109.22 61.1934 109.1 60.4934 109.1C59.6334 109.1 58.8934 109.3 58.2734 109.7C57.6534 110.1 57.1734 110.63 56.8334 111.29C56.4934 111.95 56.2934 112.68 56.2334 113.48H65.3234L64.4834 114.08ZM75.6146 122.24C74.5546 122.24 73.6346 122.03 72.8546 121.61C72.0746 121.17 71.4746 120.53 71.0546 119.69C70.6546 118.85 70.4546 117.81 70.4546 116.57V107.21H72.9746V115.67C72.9746 116.65 73.0946 117.47 73.3346 118.13C73.5946 118.77 73.9746 119.25 74.4746 119.57C74.9746 119.87 75.5946 120.02 76.3346 120.02C77.1546 120.02 77.8446 119.83 78.4046 119.45C78.9846 119.05 79.4246 118.45 79.7246 117.65C80.0246 116.85 80.1746 115.82 80.1746 114.56V107.21H82.6946V122H80.1746V118.85H80.8046C80.3846 119.95 79.7146 120.79 78.7946 121.37C77.8746 121.95 76.8146 122.24 75.6146 122.24ZM87.0409 122V107.21H89.5909V111.17L88.9309 111.32C89.0709 110.44 89.4009 109.68 89.9209 109.04C90.4609 108.38 91.0809 107.87 91.7809 107.51C92.5009 107.15 93.2009 106.97 93.8809 106.97C94.3409 106.97 94.7809 107.02 95.2009 107.12C95.6209 107.22 96.0509 107.39 96.4909 107.63L95.2309 109.91C94.9909 109.79 94.7009 109.69 94.3609 109.61C94.0409 109.53 93.7309 109.49 93.4309 109.49C92.9509 109.49 92.4709 109.58 91.9909 109.76C91.5309 109.94 91.1109 110.22 90.7309 110.6C90.3509 110.98 90.0609 111.49 89.8609 112.13C89.7809 112.41 89.7109 112.78 89.6509 113.24C89.6109 113.68 89.5909 114.29 89.5909 115.07V122H87.0409ZM108.597 122L108.417 119.03V112.73C108.417 111.59 108.097 110.71 107.457 110.09C106.837 109.47 105.907 109.16 104.667 109.16C103.867 109.16 103.117 109.33 102.417 109.67C101.717 109.99 101.037 110.54 100.377 111.32L98.5468 109.76C99.3668 108.8 100.307 108.1 101.367 107.66C102.427 107.2 103.587 106.97 104.847 106.97C106.787 106.97 108.287 107.47 109.347 108.47C110.407 109.47 110.937 110.89 110.937 112.73V122H108.597ZM103.707 122.24C102.587 122.24 101.607 122.05 100.767 121.67C99.9468 121.27 99.3068 120.72 98.8468 120.02C98.4068 119.32 98.1868 118.51 98.1868 117.59C98.1868 116.77 98.3468 116.08 98.6668 115.52C99.0068 114.94 99.4368 114.49 99.9568 114.17C100.477 113.83 101.067 113.6 101.727 113.48C102.407 113.34 103.117 113.27 103.857 113.27H108.657V115.19H104.217C103.777 115.19 103.317 115.23 102.837 115.31C102.357 115.39 101.937 115.56 101.577 115.82C101.317 116.02 101.107 116.27 100.947 116.57C100.807 116.87 100.737 117.22 100.737 117.62C100.737 118.4 101.027 119.02 101.607 119.48C102.187 119.94 102.967 120.17 103.947 120.17C104.767 120.17 105.507 119.98 106.167 119.6C106.847 119.22 107.387 118.7 107.787 118.04C108.207 117.36 108.417 116.6 108.417 115.76L109.467 116.84C109.347 117.9 109.027 118.84 108.507 119.66C107.987 120.48 107.317 121.12 106.497 121.58C105.697 122.02 104.767 122.24 103.707 122.24ZM118.048 122.24C117.148 122.24 116.418 121.96 115.858 121.4C115.298 120.84 115.018 119.95 115.018 118.73V101.09H117.538V118.25C117.538 118.83 117.658 119.25 117.898 119.51C118.138 119.77 118.458 119.9 118.858 119.9C119.038 119.9 119.238 119.88 119.458 119.84C119.678 119.8 119.908 119.74 120.148 119.66V121.82C119.808 121.96 119.448 122.06 119.068 122.12C118.688 122.2 118.348 122.24 118.048 122.24ZM130.81 122V107.21H133.36V110.36L132.76 110.57C133.04 109.81 133.42 109.17 133.9 108.65C134.38 108.11 134.96 107.7 135.64 107.42C136.32 107.12 137.07 106.97 137.89 106.97C139.51 106.97 140.78 107.45 141.7 108.41C142.62 109.35 143.08 110.75 143.08 112.61V122H140.53V113.54C140.53 112.04 140.25 110.94 139.69 110.24C139.15 109.52 138.32 109.16 137.2 109.16C136.38 109.16 135.68 109.35 135.1 109.73C134.54 110.11 134.11 110.71 133.81 111.53C133.51 112.33 133.36 113.36 133.36 114.62V122H130.81ZM153.457 122.24C152.297 122.24 151.277 122.05 150.397 121.67C149.537 121.27 148.817 120.72 148.237 120.02C147.677 119.32 147.247 118.52 146.947 117.62C146.667 116.7 146.527 115.73 146.527 114.71C146.527 113.69 146.667 112.72 146.947 111.8C147.227 110.86 147.637 110.03 148.177 109.31C148.737 108.59 149.437 108.02 150.277 107.6C151.117 107.18 152.097 106.97 153.217 106.97C154.357 106.97 155.337 107.17 156.157 107.57C156.997 107.95 157.677 108.48 158.197 109.16C158.737 109.84 159.137 110.6 159.397 111.44C159.657 112.28 159.787 113.15 159.787 114.05C159.787 114.13 159.777 114.32 159.757 114.62C159.757 114.9 159.737 115.15 159.697 115.37H149.047C149.107 116.81 149.527 117.93 150.307 118.73C151.087 119.53 152.147 119.93 153.487 119.93C154.347 119.93 155.097 119.79 155.737 119.51C156.377 119.23 156.977 118.78 157.537 118.16L159.307 119.72C158.767 120.3 158.197 120.78 157.597 121.16C156.997 121.52 156.357 121.79 155.677 121.97C155.017 122.15 154.277 122.24 153.457 122.24ZM157.267 114.08C157.307 113.92 157.327 113.76 157.327 113.6C157.347 113.44 157.357 113.28 157.357 113.12C157.357 112.64 157.267 112.16 157.087 111.68C156.927 111.2 156.677 110.77 156.337 110.39C156.017 109.99 155.597 109.68 155.077 109.46C154.577 109.22 153.977 109.1 153.277 109.1C152.417 109.1 151.677 109.3 151.057 109.7C150.437 110.1 149.957 110.63 149.617 111.29C149.277 111.95 149.077 112.68 149.017 113.48H158.107L157.267 114.08ZM168.191 122.24C167.491 122.24 166.851 122.11 166.271 121.85C165.711 121.57 165.271 121.13 164.951 120.53C164.631 119.93 164.471 119.16 164.471 118.22V103.25L167.051 101.81V117.56C167.051 118.38 167.181 119.02 167.441 119.48C167.701 119.92 168.171 120.14 168.851 120.14C169.051 120.14 169.291 120.12 169.571 120.08C169.851 120.02 170.151 119.95 170.471 119.87V121.85C170.091 121.99 169.701 122.09 169.301 122.15C168.921 122.21 168.551 122.24 168.191 122.24ZM161.411 109.19V107.21H170.471V109.19H161.411ZM176.702 122L172.322 107.21H175.022L178.022 118.16L181.562 107.21H183.812L187.352 118.1L190.382 107.21H193.082L188.672 122H186.332L182.702 110.75L179.072 122H176.702ZM202.594 122.24C201.214 122.24 199.974 121.92 198.874 121.28C197.794 120.62 196.944 119.71 196.324 118.55C195.704 117.39 195.394 116.07 195.394 114.59C195.394 113.11 195.694 111.8 196.294 110.66C196.914 109.5 197.764 108.6 198.844 107.96C199.944 107.3 201.194 106.97 202.594 106.97C203.994 106.97 205.224 107.3 206.284 107.96C207.364 108.6 208.214 109.5 208.834 110.66C209.454 111.8 209.764 113.11 209.764 114.59C209.764 116.07 209.454 117.39 208.834 118.55C208.214 119.69 207.364 120.59 206.284 121.25C205.204 121.91 203.974 122.24 202.594 122.24ZM202.594 119.99C203.534 119.99 204.344 119.77 205.024 119.33C205.724 118.87 206.264 118.24 206.644 117.44C207.024 116.62 207.214 115.67 207.214 114.59C207.214 113.49 207.024 112.54 206.644 111.74C206.264 110.92 205.724 110.29 205.024 109.85C204.344 109.41 203.534 109.19 202.594 109.19C201.634 109.19 200.804 109.42 200.104 109.88C199.404 110.32 198.864 110.94 198.484 111.74C198.104 112.54 197.914 113.49 197.914 114.59C197.914 115.67 198.104 116.62 198.484 117.44C198.864 118.24 199.404 118.87 200.104 119.33C200.804 119.77 201.634 119.99 202.594 119.99ZM213.398 122V107.21H215.948V111.17L215.288 111.32C215.428 110.44 215.758 109.68 216.278 109.04C216.818 108.38 217.438 107.87 218.138 107.51C218.858 107.15 219.558 106.97 220.238 106.97C220.698 106.97 221.138 107.02 221.558 107.12C221.978 107.22 222.408 107.39 222.848 107.63L221.588 109.91C221.348 109.79 221.058 109.69 220.718 109.61C220.398 109.53 220.088 109.49 219.788 109.49C219.308 109.49 218.828 109.58 218.348 109.76C217.888 109.94 217.468 110.22 217.088 110.6C216.708 110.98 216.418 111.49 216.218 112.13C216.138 112.41 216.068 112.78 216.008 113.24C215.968 113.68 215.948 114.29 215.948 115.07V122H213.398ZM235.695 122L230.775 114.38L227.865 117.5V114.23L234.675 107.21H237.945L232.635 112.67L238.725 122H235.695ZM225.615 122V101.09H228.165V122H225.615ZM34.16 158.12V137.21H36.68V141.62L35.87 141.05C36.13 140.19 36.51 139.46 37.01 138.86C37.53 138.24 38.16 137.77 38.9 137.45C39.64 137.13 40.48 136.97 41.42 136.97C42.76 136.97 43.93 137.31 44.93 137.99C45.95 138.65 46.74 139.56 47.3 140.72C47.86 141.86 48.14 143.16 48.14 144.62C48.14 146.16 47.84 147.51 47.24 148.67C46.64 149.81 45.83 150.69 44.81 151.31C43.79 151.93 42.66 152.24 41.42 152.24C40.48 152.24 39.64 152.07 38.9 151.73C38.16 151.39 37.54 150.92 37.04 150.32C36.54 149.72 36.18 149.04 35.96 148.28L36.68 147.59V158.12H34.16ZM41 149.93C41.9 149.93 42.69 149.71 43.37 149.27C44.07 148.81 44.61 148.18 44.99 147.38C45.39 146.58 45.59 145.66 45.59 144.62C45.59 143.58 45.39 142.66 44.99 141.86C44.61 141.06 44.07 140.44 43.37 140C42.69 139.54 41.9 139.31 41 139.31C40.1 139.31 39.31 139.54 38.63 140C37.95 140.44 37.42 141.06 37.04 141.86C36.66 142.66 36.47 143.58 36.47 144.62C36.47 145.66 36.66 146.58 37.04 147.38C37.42 148.18 37.95 148.81 38.63 149.27C39.31 149.71 40.1 149.93 41 149.93ZM54.7374 152.24C53.8374 152.24 53.1074 151.96 52.5474 151.4C51.9874 150.84 51.7074 149.95 51.7074 148.73V131.09H54.2274V148.25C54.2274 148.83 54.3474 149.25 54.5874 149.51C54.8274 149.77 55.1474 149.9 55.5474 149.9C55.7274 149.9 55.9274 149.88 56.1474 149.84C56.3674 149.8 56.5974 149.74 56.8374 149.66V151.82C56.4974 151.96 56.1374 152.06 55.7574 152.12C55.3774 152.2 55.0374 152.24 54.7374 152.24ZM69.4269 152L69.2469 149.03V142.73C69.2469 141.59 68.9269 140.71 68.2869 140.09C67.6669 139.47 66.7369 139.16 65.4969 139.16C64.6969 139.16 63.9469 139.33 63.2469 139.67C62.5469 139.99 61.8669 140.54 61.2069 141.32L59.3769 139.76C60.1969 138.8 61.1369 138.1 62.1969 137.66C63.2569 137.2 64.4169 136.97 65.6769 136.97C67.6169 136.97 69.1169 137.47 70.1769 138.47C71.2369 139.47 71.7669 140.89 71.7669 142.73V152H69.4269ZM64.5369 152.24C63.4169 152.24 62.4369 152.05 61.5969 151.67C60.7769 151.27 60.1369 150.72 59.6769 150.02C59.2369 149.32 59.0169 148.51 59.0169 147.59C59.0169 146.77 59.1769 146.08 59.4969 145.52C59.8369 144.94 60.2669 144.49 60.7869 144.17C61.3069 143.83 61.8969 143.6 62.5569 143.48C63.2369 143.34 63.9469 143.27 64.6869 143.27H69.4869V145.19H65.0469C64.6069 145.19 64.1469 145.23 63.6669 145.31C63.1869 145.39 62.7669 145.56 62.4069 145.82C62.1469 146.02 61.9369 146.27 61.7769 146.57C61.6369 146.87 61.5669 147.22 61.5669 147.62C61.5669 148.4 61.8569 149.02 62.4369 149.48C63.0169 149.94 63.7969 150.17 64.7769 150.17C65.5969 150.17 66.3369 149.98 66.9969 149.6C67.6769 149.22 68.2169 148.7 68.6169 148.04C69.0369 147.36 69.2469 146.6 69.2469 145.76L70.2969 146.84C70.1769 147.9 69.8569 148.84 69.3369 149.66C68.8169 150.48 68.1469 151.12 67.3269 151.58C66.5269 152.02 65.5969 152.24 64.5369 152.24ZM80.828 152.24C80.128 152.24 79.488 152.11 78.908 151.85C78.348 151.57 77.908 151.13 77.588 150.53C77.268 149.93 77.108 149.16 77.108 148.22V133.25L79.688 131.81V147.56C79.688 148.38 79.818 149.02 80.078 149.48C80.338 149.92 80.808 150.14 81.488 150.14C81.688 150.14 81.928 150.12 82.208 150.08C82.488 150.02 82.788 149.95 83.108 149.87V151.85C82.728 151.99 82.338 152.09 81.938 152.15C81.558 152.21 81.188 152.24 80.828 152.24ZM74.048 139.19V137.21H83.108V139.19H74.048ZM87.4791 152V139.19H84.4191V137.21H87.5091V135.29C87.5091 134.17 87.6891 133.29 88.0491 132.65C88.4091 131.99 88.8991 131.53 89.5191 131.27C90.1591 130.99 90.8691 130.85 91.6491 130.85C92.1891 130.85 92.6691 130.9 93.0891 131C93.5091 131.1 93.9091 131.25 94.2891 131.45L93.4491 133.37C93.2291 133.25 92.9891 133.16 92.7291 133.1C92.4691 133.02 92.1991 132.98 91.9191 132.98C91.2791 132.98 90.7991 133.18 90.4791 133.58C90.1791 133.98 90.0291 134.55 90.0291 135.29V137.21H93.4791V139.19H90.0291V152H87.4791ZM101.93 152.24C100.55 152.24 99.3098 151.92 98.2098 151.28C97.1298 150.62 96.2798 149.71 95.6598 148.55C95.0398 147.39 94.7298 146.07 94.7298 144.59C94.7298 143.11 95.0298 141.8 95.6298 140.66C96.2498 139.5 97.0998 138.6 98.1798 137.96C99.2798 137.3 100.53 136.97 101.93 136.97C103.33 136.97 104.56 137.3 105.62 137.96C106.7 138.6 107.55 139.5 108.17 140.66C108.79 141.8 109.1 143.11 109.1 144.59C109.1 146.07 108.79 147.39 108.17 148.55C107.55 149.69 106.7 150.59 105.62 151.25C104.54 151.91 103.31 152.24 101.93 152.24ZM101.93 149.99C102.87 149.99 103.68 149.77 104.36 149.33C105.06 148.87 105.6 148.24 105.98 147.44C106.36 146.62 106.55 145.67 106.55 144.59C106.55 143.49 106.36 142.54 105.98 141.74C105.6 140.92 105.06 140.29 104.36 139.85C103.68 139.41 102.87 139.19 101.93 139.19C100.97 139.19 100.14 139.42 99.4398 139.88C98.7398 140.32 98.1998 140.94 97.8198 141.74C97.4398 142.54 97.2498 143.49 97.2498 144.59C97.2498 145.67 97.4398 146.62 97.8198 147.44C98.1998 148.24 98.7398 148.87 99.4398 149.33C100.14 149.77 100.97 149.99 101.93 149.99ZM112.734 152V137.21H115.284V141.17L114.624 141.32C114.764 140.44 115.094 139.68 115.614 139.04C116.154 138.38 116.774 137.87 117.474 137.51C118.194 137.15 118.894 136.97 119.574 136.97C120.034 136.97 120.474 137.02 120.894 137.12C121.314 137.22 121.744 137.39 122.184 137.63L120.924 139.91C120.684 139.79 120.394 139.69 120.054 139.61C119.734 139.53 119.424 139.49 119.124 139.49C118.644 139.49 118.164 139.58 117.684 139.76C117.224 139.94 116.804 140.22 116.424 140.6C116.044 140.98 115.754 141.49 115.554 142.13C115.474 142.41 115.404 142.78 115.344 143.24C115.304 143.68 115.284 144.29 115.284 145.07V152H112.734ZM124.951 152V137.21H127.501V141.02H126.991C127.171 140.32 127.411 139.72 127.711 139.22C128.031 138.7 128.401 138.28 128.821 137.96C129.241 137.62 129.691 137.37 130.171 137.21C130.671 137.05 131.191 136.97 131.731 136.97C132.631 136.97 133.421 137.14 134.101 137.48C134.781 137.82 135.341 138.34 135.781 139.04C136.221 139.72 136.521 140.59 136.681 141.65L135.241 141.74C135.541 140.72 135.921 139.86 136.381 139.16C136.841 138.44 137.411 137.9 138.091 137.54C138.791 137.16 139.621 136.97 140.581 136.97C141.801 136.97 142.781 137.25 143.521 137.81C144.261 138.35 144.801 139.08 145.141 140C145.481 140.9 145.651 141.9 145.651 143V152H143.131V143.6C143.131 142.68 143.021 141.89 142.801 141.23C142.601 140.57 142.271 140.06 141.811 139.7C141.371 139.34 140.771 139.16 140.011 139.16C139.291 139.16 138.671 139.34 138.151 139.7C137.651 140.06 137.261 140.61 136.981 141.35C136.721 142.07 136.591 142.97 136.591 144.05V152H134.041V143.39C134.041 141.97 133.781 140.91 133.261 140.21C132.741 139.51 131.981 139.16 130.981 139.16C130.261 139.16 129.641 139.35 129.121 139.73C128.601 140.09 128.201 140.63 127.921 141.35C127.641 142.07 127.501 142.97 127.501 144.05V152H124.951ZM162.508 152.24C161.808 152.24 161.168 152.11 160.588 151.85C160.028 151.57 159.588 151.13 159.268 150.53C158.948 149.93 158.788 149.16 158.788 148.22V133.25L161.368 131.81V147.56C161.368 148.38 161.498 149.02 161.758 149.48C162.018 149.92 162.488 150.14 163.168 150.14C163.368 150.14 163.608 150.12 163.888 150.08C164.168 150.02 164.468 149.95 164.788 149.87V151.85C164.408 151.99 164.018 152.09 163.618 152.15C163.238 152.21 162.868 152.24 162.508 152.24ZM155.728 139.19V137.21H164.788V139.19H155.728ZM167.959 152V131.09H170.509V140.36L169.879 140.6C170.159 139.84 170.549 139.19 171.049 138.65C171.549 138.11 172.139 137.7 172.819 137.42C173.499 137.12 174.239 136.97 175.039 136.97C176.659 136.97 177.929 137.45 178.849 138.41C179.769 139.35 180.229 140.75 180.229 142.61V152H177.679V143.54C177.679 142.04 177.399 140.94 176.839 140.24C176.299 139.52 175.469 139.16 174.349 139.16C173.129 139.16 172.179 139.6 171.499 140.48C170.839 141.34 170.509 142.72 170.509 144.62V152H167.959ZM194.085 152L193.905 149.03V142.73C193.905 141.59 193.585 140.71 192.945 140.09C192.325 139.47 191.395 139.16 190.155 139.16C189.355 139.16 188.605 139.33 187.905 139.67C187.205 139.99 186.525 140.54 185.865 141.32L184.035 139.76C184.855 138.8 185.795 138.1 186.855 137.66C187.915 137.2 189.075 136.97 190.335 136.97C192.275 136.97 193.775 137.47 194.835 138.47C195.895 139.47 196.425 140.89 196.425 142.73V152H194.085ZM189.195 152.24C188.075 152.24 187.095 152.05 186.255 151.67C185.435 151.27 184.795 150.72 184.335 150.02C183.895 149.32 183.675 148.51 183.675 147.59C183.675 146.77 183.835 146.08 184.155 145.52C184.495 144.94 184.925 144.49 185.445 144.17C185.965 143.83 186.555 143.6 187.215 143.48C187.895 143.34 188.605 143.27 189.345 143.27H194.145V145.19H189.705C189.265 145.19 188.805 145.23 188.325 145.31C187.845 145.39 187.425 145.56 187.065 145.82C186.805 146.02 186.595 146.27 186.435 146.57C186.295 146.87 186.225 147.22 186.225 147.62C186.225 148.4 186.515 149.02 187.095 149.48C187.675 149.94 188.455 150.17 189.435 150.17C190.255 150.17 190.995 149.98 191.655 149.6C192.335 149.22 192.875 148.7 193.275 148.04C193.695 147.36 193.905 146.6 193.905 145.76L194.955 146.84C194.835 147.9 194.515 148.84 193.995 149.66C193.475 150.48 192.805 151.12 191.985 151.58C191.185 152.02 190.255 152.24 189.195 152.24ZM205.486 152.24C204.786 152.24 204.146 152.11 203.566 151.85C203.006 151.57 202.566 151.13 202.246 150.53C201.926 149.93 201.766 149.16 201.766 148.22V133.25L204.346 131.81V147.56C204.346 148.38 204.476 149.02 204.736 149.48C204.996 149.92 205.466 150.14 206.146 150.14C206.346 150.14 206.586 150.12 206.866 150.08C207.146 150.02 207.446 149.95 207.766 149.87V151.85C207.386 151.99 206.996 152.09 206.596 152.15C206.216 152.21 205.846 152.24 205.486 152.24ZM198.706 139.19V137.21H207.766V139.19H198.706ZM40.31 182.24C39.21 182.24 38.23 182.04 37.37 181.64C36.53 181.24 35.82 180.69 35.24 179.99C34.66 179.27 34.22 178.45 33.92 177.53C33.62 176.61 33.47 175.63 33.47 174.59C33.47 173.57 33.62 172.6 33.92 171.68C34.22 170.76 34.66 169.95 35.24 169.25C35.82 168.53 36.53 167.97 37.37 167.57C38.23 167.17 39.21 166.97 40.31 166.97C41.71 166.97 42.93 167.31 43.97 167.99C45.03 168.67 45.81 169.71 46.31 171.11L44.06 171.98C43.78 171.14 43.33 170.46 42.71 169.94C42.09 169.42 41.29 169.16 40.31 169.16C39.33 169.16 38.52 169.42 37.88 169.94C37.24 170.46 36.76 171.13 36.44 171.95C36.14 172.77 35.99 173.65 35.99 174.59C35.99 175.53 36.14 176.42 36.44 177.26C36.76 178.08 37.24 178.75 37.88 179.27C38.52 179.77 39.33 180.02 40.31 180.02C41.29 180.02 42.09 179.77 42.71 179.27C43.33 178.75 43.78 178.06 44.06 177.2L46.31 178.07C45.81 179.47 45.03 180.52 43.97 181.22C42.93 181.9 41.71 182.24 40.31 182.24ZM56.1973 182.24C54.8173 182.24 53.5773 181.92 52.4773 181.28C51.3973 180.62 50.5473 179.71 49.9273 178.55C49.3073 177.39 48.9973 176.07 48.9973 174.59C48.9973 173.11 49.2973 171.8 49.8973 170.66C50.5173 169.5 51.3673 168.6 52.4473 167.96C53.5473 167.3 54.7973 166.97 56.1973 166.97C57.5973 166.97 58.8273 167.3 59.8873 167.96C60.9673 168.6 61.8173 169.5 62.4373 170.66C63.0573 171.8 63.3673 173.11 63.3673 174.59C63.3673 176.07 63.0573 177.39 62.4373 178.55C61.8173 179.69 60.9673 180.59 59.8873 181.25C58.8073 181.91 57.5773 182.24 56.1973 182.24ZM56.1973 179.99C57.1373 179.99 57.9473 179.77 58.6273 179.33C59.3273 178.87 59.8673 178.24 60.2473 177.44C60.6273 176.62 60.8173 175.67 60.8173 174.59C60.8173 173.49 60.6273 172.54 60.2473 171.74C59.8673 170.92 59.3273 170.29 58.6273 169.85C57.9473 169.41 57.1373 169.19 56.1973 169.19C55.2373 169.19 54.4073 169.42 53.7073 169.88C53.0073 170.32 52.4673 170.94 52.0873 171.74C51.7073 172.54 51.5173 173.49 51.5173 174.59C51.5173 175.67 51.7073 176.62 52.0873 177.44C52.4673 178.24 53.0073 178.87 53.7073 179.33C54.4073 179.77 55.2373 179.99 56.1973 179.99ZM67.0018 182V167.21H69.5518V170.36L68.9518 170.57C69.2318 169.81 69.6118 169.17 70.0918 168.65C70.5718 168.11 71.1518 167.7 71.8318 167.42C72.5118 167.12 73.2618 166.97 74.0818 166.97C75.7018 166.97 76.9718 167.45 77.8918 168.41C78.8118 169.35 79.2718 170.75 79.2718 172.61V182H76.7218V173.54C76.7218 172.04 76.4418 170.94 75.8818 170.24C75.3418 169.52 74.5118 169.16 73.3918 169.16C72.5718 169.16 71.8718 169.35 71.2918 169.73C70.7318 170.11 70.3018 170.71 70.0018 171.53C69.7018 172.33 69.5518 173.36 69.5518 174.62V182H67.0018ZM88.328 182.24C87.628 182.24 86.988 182.11 86.408 181.85C85.848 181.57 85.408 181.13 85.088 180.53C84.768 179.93 84.608 179.16 84.608 178.22V163.25L87.188 161.81V177.56C87.188 178.38 87.318 179.02 87.578 179.48C87.838 179.92 88.308 180.14 88.988 180.14C89.188 180.14 89.428 180.12 89.708 180.08C89.988 180.02 90.288 179.95 90.608 179.87V181.85C90.228 181.99 89.838 182.09 89.438 182.15C89.058 182.21 88.688 182.24 88.328 182.24ZM81.548 169.19V167.21H90.608V169.19H81.548ZM93.7491 182V167.21H96.2691V182H93.7491ZM93.5091 164.54V161.09H96.5091V164.54H93.5091ZM100.547 182V167.21H103.097V170.36L102.497 170.57C102.777 169.81 103.157 169.17 103.637 168.65C104.117 168.11 104.697 167.7 105.377 167.42C106.057 167.12 106.807 166.97 107.627 166.97C109.247 166.97 110.517 167.45 111.437 168.41C112.357 169.35 112.817 170.75 112.817 172.61V182H110.267V173.54C110.267 172.04 109.987 170.94 109.427 170.24C108.887 169.52 108.057 169.16 106.937 169.16C106.117 169.16 105.417 169.35 104.837 169.73C104.277 170.11 103.847 170.71 103.547 171.53C103.247 172.33 103.097 173.36 103.097 174.62V182H100.547ZM121.933 182.24C120.873 182.24 119.953 182.03 119.173 181.61C118.393 181.17 117.793 180.53 117.373 179.69C116.973 178.85 116.773 177.81 116.773 176.57V167.21H119.293V175.67C119.293 176.65 119.413 177.47 119.653 178.13C119.913 178.77 120.293 179.25 120.793 179.57C121.293 179.87 121.913 180.02 122.653 180.02C123.473 180.02 124.163 179.83 124.723 179.45C125.303 179.05 125.743 178.45 126.043 177.65C126.343 176.85 126.493 175.82 126.493 174.56V167.21H129.013V182H126.493V178.85H127.123C126.703 179.95 126.033 180.79 125.113 181.37C124.193 181.95 123.133 182.24 121.933 182.24ZM139.869 182.24C138.489 182.24 137.249 181.92 136.149 181.28C135.069 180.62 134.219 179.71 133.599 178.55C132.979 177.39 132.669 176.07 132.669 174.59C132.669 173.11 132.969 171.8 133.569 170.66C134.189 169.5 135.039 168.6 136.119 167.96C137.219 167.3 138.469 166.97 139.869 166.97C141.269 166.97 142.499 167.3 143.559 167.96C144.639 168.6 145.489 169.5 146.109 170.66C146.729 171.8 147.039 173.11 147.039 174.59C147.039 176.07 146.729 177.39 146.109 178.55C145.489 179.69 144.639 180.59 143.559 181.25C142.479 181.91 141.249 182.24 139.869 182.24ZM139.869 179.99C140.809 179.99 141.619 179.77 142.299 179.33C142.999 178.87 143.539 178.24 143.919 177.44C144.299 176.62 144.489 175.67 144.489 174.59C144.489 173.49 144.299 172.54 143.919 171.74C143.539 170.92 142.999 170.29 142.299 169.85C141.619 169.41 140.809 169.19 139.869 169.19C138.909 169.19 138.079 169.42 137.379 169.88C136.679 170.32 136.139 170.94 135.759 171.74C135.379 172.54 135.189 173.49 135.189 174.59C135.189 175.67 135.379 176.62 135.759 177.44C136.139 178.24 136.679 178.87 137.379 179.33C138.079 179.77 138.909 179.99 139.869 179.99ZM155.654 182.24C154.594 182.24 153.674 182.03 152.894 181.61C152.114 181.17 151.514 180.53 151.094 179.69C150.694 178.85 150.494 177.81 150.494 176.57V167.21H153.014V175.67C153.014 176.65 153.134 177.47 153.374 178.13C153.634 178.77 154.014 179.25 154.514 179.57C155.014 179.87 155.634 180.02 156.374 180.02C157.194 180.02 157.884 179.83 158.444 179.45C159.024 179.05 159.464 178.45 159.764 177.65C160.064 176.85 160.214 175.82 160.214 174.56V167.21H162.734V182H160.214V178.85H160.844C160.424 179.95 159.754 180.79 158.834 181.37C157.914 181.95 156.854 182.24 155.654 182.24ZM171.97 182.24C170.97 182.24 170.07 182.09 169.27 181.79C168.47 181.49 167.78 181.09 167.2 180.59C166.64 180.09 166.19 179.56 165.85 179L167.62 177.5C168 178.26 168.56 178.89 169.3 179.39C170.06 179.87 170.96 180.11 172 180.11C172.94 180.11 173.69 179.91 174.25 179.51C174.81 179.11 175.09 178.57 175.09 177.89C175.09 177.33 174.92 176.89 174.58 176.57C174.24 176.25 173.79 175.99 173.23 175.79C172.67 175.59 172.06 175.41 171.4 175.25C170.84 175.11 170.27 174.94 169.69 174.74C169.13 174.54 168.62 174.29 168.16 173.99C167.7 173.69 167.33 173.3 167.05 172.82C166.77 172.34 166.63 171.75 166.63 171.05C166.63 169.83 167.1 168.85 168.04 168.11C169 167.35 170.25 166.97 171.79 166.97C172.91 166.97 173.93 167.21 174.85 167.69C175.79 168.15 176.52 168.85 177.04 169.79L175.42 170.99C175.02 170.29 174.49 169.79 173.83 169.49C173.19 169.17 172.48 169.01 171.7 169.01C170.92 169.01 170.27 169.17 169.75 169.49C169.23 169.81 168.97 170.25 168.97 170.81C168.97 171.23 169.09 171.57 169.33 171.83C169.57 172.09 169.92 172.31 170.38 172.49C170.86 172.67 171.44 172.84 172.12 173C172.74 173.14 173.37 173.31 174.01 173.51C174.65 173.71 175.24 173.97 175.78 174.29C176.32 174.61 176.75 175.04 177.07 175.58C177.41 176.1 177.58 176.78 177.58 177.62C177.58 178.54 177.35 179.35 176.89 180.05C176.43 180.75 175.78 181.29 174.94 181.67C174.1 182.05 173.11 182.24 171.97 182.24ZM184.142 182.24C183.242 182.24 182.512 181.96 181.952 181.4C181.392 180.84 181.112 179.95 181.112 178.73V161.09H183.632V178.25C183.632 178.83 183.752 179.25 183.992 179.51C184.232 179.77 184.552 179.9 184.952 179.9C185.132 179.9 185.332 179.88 185.552 179.84C185.772 179.8 186.002 179.74 186.242 179.66V181.82C185.902 181.96 185.542 182.06 185.162 182.12C184.782 182.2 184.442 182.24 184.142 182.24ZM190.581 188.09L193.401 181.28L187.641 167.21H190.431L194.751 178.73L199.101 167.21H201.861L193.341 188.09H190.581ZM212.519 182V167.21H215.039V182H212.519ZM212.279 164.54V161.09H215.279V164.54H212.279ZM225.346 182.24C224.006 182.24 222.826 181.91 221.806 181.25C220.806 180.57 220.026 179.65 219.466 178.49C218.906 177.33 218.626 176.03 218.626 174.59C218.626 173.03 218.926 171.68 219.526 170.54C220.126 169.4 220.936 168.52 221.956 167.9C222.976 167.28 224.106 166.97 225.346 166.97C226.286 166.97 227.126 167.16 227.866 167.54C228.606 167.9 229.226 168.4 229.726 169.04C230.246 169.66 230.606 170.36 230.806 171.14L230.086 171.62V161.09H232.606V182H230.086V177.59L230.926 177.86C230.666 178.72 230.276 179.48 229.756 180.14C229.236 180.8 228.606 181.32 227.866 181.7C227.126 182.06 226.286 182.24 225.346 182.24ZM225.766 179.9C226.666 179.9 227.456 179.68 228.136 179.24C228.816 178.78 229.346 178.15 229.726 177.35C230.106 176.55 230.296 175.63 230.296 174.59C230.296 173.55 230.106 172.63 229.726 171.83C229.346 171.03 228.816 170.41 228.136 169.97C227.456 169.51 226.666 169.28 225.766 169.28C224.866 169.28 224.066 169.51 223.366 169.97C222.686 170.41 222.146 171.03 221.746 171.83C221.366 172.63 221.176 173.55 221.176 174.59C221.176 175.63 221.366 176.55 221.746 177.35C222.146 178.15 222.686 178.78 223.366 179.24C224.066 179.68 224.866 179.9 225.766 179.9ZM243.164 182.24C242.004 182.24 240.984 182.05 240.104 181.67C239.244 181.27 238.524 180.72 237.944 180.02C237.384 179.32 236.954 178.52 236.654 177.62C236.374 176.7 236.234 175.73 236.234 174.71C236.234 173.69 236.374 172.72 236.654 171.8C236.934 170.86 237.344 170.03 237.884 169.31C238.444 168.59 239.144 168.02 239.984 167.6C240.824 167.18 241.804 166.97 242.924 166.97C244.064 166.97 245.044 167.17 245.864 167.57C246.704 167.95 247.384 168.48 247.904 169.16C248.444 169.84 248.844 170.6 249.104 171.44C249.364 172.28 249.494 173.15 249.494 174.05C249.494 174.13 249.484 174.32 249.464 174.62C249.464 174.9 249.444 175.15 249.404 175.37H238.754C238.814 176.81 239.234 177.93 240.014 178.73C240.794 179.53 241.854 179.93 243.194 179.93C244.054 179.93 244.804 179.79 245.444 179.51C246.084 179.23 246.684 178.78 247.244 178.16L249.014 179.72C248.474 180.3 247.904 180.78 247.304 181.16C246.704 181.52 246.064 181.79 245.384 181.97C244.724 182.15 243.984 182.24 243.164 182.24ZM246.974 174.08C247.014 173.92 247.034 173.76 247.034 173.6C247.054 173.44 247.064 173.28 247.064 173.12C247.064 172.64 246.974 172.16 246.794 171.68C246.634 171.2 246.384 170.77 246.044 170.39C245.724 169.99 245.304 169.68 244.784 169.46C244.284 169.22 243.684 169.1 242.984 169.1C242.124 169.1 241.384 169.3 240.764 169.7C240.144 170.1 239.664 170.63 239.324 171.29C238.984 171.95 238.784 172.68 238.724 173.48H247.814L246.974 174.08ZM253.125 182V167.21H255.675V170.36L255.075 170.57C255.355 169.81 255.735 169.17 256.215 168.65C256.695 168.11 257.275 167.7 257.955 167.42C258.635 167.12 259.385 166.97 260.205 166.97C261.825 166.97 263.095 167.45 264.015 168.41C264.935 169.35 265.395 170.75 265.395 172.61V182H262.845V173.54C262.845 172.04 262.565 170.94 262.005 170.24C261.465 169.52 260.635 169.16 259.515 169.16C258.695 169.16 257.995 169.35 257.415 169.73C256.855 170.11 256.425 170.71 256.125 171.53C255.825 172.33 255.675 173.36 255.675 174.62V182H253.125ZM274.451 182.24C273.751 182.24 273.111 182.11 272.531 181.85C271.971 181.57 271.531 181.13 271.211 180.53C270.891 179.93 270.731 179.16 270.731 178.22V163.25L273.311 161.81V177.56C273.311 178.38 273.441 179.02 273.701 179.48C273.961 179.92 274.431 180.14 275.111 180.14C275.311 180.14 275.551 180.12 275.831 180.08C276.111 180.02 276.411 179.95 276.731 179.87V181.85C276.351 181.99 275.961 182.09 275.561 182.15C275.181 182.21 274.811 182.24 274.451 182.24ZM267.671 169.19V167.21H276.731V169.19H267.671ZM279.872 182V167.21H282.392V182H279.872ZM279.632 164.54V161.09H282.632V164.54H279.632ZM287.39 182V169.19H284.81V167.21H287.39V166.04C287.39 164.88 287.64 163.92 288.14 163.16C288.66 162.38 289.34 161.8 290.18 161.42C291.04 161.04 291.97 160.85 292.97 160.85C294.01 160.85 294.92 160.97 295.7 161.21C296.48 161.45 297.21 161.8 297.89 162.26L296.69 164.06C296.19 163.68 295.64 163.4 295.04 163.22C294.44 163.02 293.79 162.92 293.09 162.92C292.05 162.92 291.26 163.19 290.72 163.73C290.18 164.25 289.91 165.09 289.91 166.25V167.21H296.24V169.19H289.91V182H287.39ZM295.34 182V167.21H297.86V182H295.34ZM308.173 182.24C307.013 182.24 305.993 182.05 305.113 181.67C304.253 181.27 303.533 180.72 302.953 180.02C302.393 179.32 301.963 178.52 301.663 177.62C301.383 176.7 301.243 175.73 301.243 174.71C301.243 173.69 301.383 172.72 301.663 171.8C301.943 170.86 302.353 170.03 302.893 169.31C303.453 168.59 304.153 168.02 304.993 167.6C305.833 167.18 306.813 166.97 307.933 166.97C309.073 166.97 310.053 167.17 310.873 167.57C311.713 167.95 312.393 168.48 312.913 169.16C313.453 169.84 313.853 170.6 314.113 171.44C314.373 172.28 314.503 173.15 314.503 174.05C314.503 174.13 314.493 174.32 314.473 174.62C314.473 174.9 314.453 175.15 314.413 175.37H303.763C303.823 176.81 304.243 177.93 305.023 178.73C305.803 179.53 306.863 179.93 308.203 179.93C309.063 179.93 309.813 179.79 310.453 179.51C311.093 179.23 311.693 178.78 312.253 178.16L314.023 179.72C313.483 180.3 312.913 180.78 312.313 181.16C311.713 181.52 311.073 181.79 310.393 181.97C309.733 182.15 308.993 182.24 308.173 182.24ZM311.983 174.08C312.023 173.92 312.043 173.76 312.043 173.6C312.063 173.44 312.073 173.28 312.073 173.12C312.073 172.64 311.983 172.16 311.803 171.68C311.643 171.2 311.393 170.77 311.053 170.39C310.733 169.99 310.313 169.68 309.793 169.46C309.293 169.22 308.693 169.1 307.993 169.1C307.133 169.1 306.393 169.3 305.773 169.7C305.153 170.1 304.673 170.63 304.333 171.29C303.993 171.95 303.793 172.68 303.733 173.48H312.823L311.983 174.08ZM323.025 182.24C322.025 182.24 321.125 182.09 320.325 181.79C319.525 181.49 318.835 181.09 318.255 180.59C317.695 180.09 317.245 179.56 316.905 179L318.675 177.5C319.055 178.26 319.615 178.89 320.355 179.39C321.115 179.87 322.015 180.11 323.055 180.11C323.995 180.11 324.745 179.91 325.305 179.51C325.865 179.11 326.145 178.57 326.145 177.89C326.145 177.33 325.975 176.89 325.635 176.57C325.295 176.25 324.845 175.99 324.285 175.79C323.725 175.59 323.115 175.41 322.455 175.25C321.895 175.11 321.325 174.94 320.745 174.74C320.185 174.54 319.675 174.29 319.215 173.99C318.755 173.69 318.385 173.3 318.105 172.82C317.825 172.34 317.685 171.75 317.685 171.05C317.685 169.83 318.155 168.85 319.095 168.11C320.055 167.35 321.305 166.97 322.845 166.97C323.965 166.97 324.985 167.21 325.905 167.69C326.845 168.15 327.575 168.85 328.095 169.79L326.475 170.99C326.075 170.29 325.545 169.79 324.885 169.49C324.245 169.17 323.535 169.01 322.755 169.01C321.975 169.01 321.325 169.17 320.805 169.49C320.285 169.81 320.025 170.25 320.025 170.81C320.025 171.23 320.145 171.57 320.385 171.83C320.625 172.09 320.975 172.31 321.435 172.49C321.915 172.67 322.495 172.84 323.175 173C323.795 173.14 324.425 173.31 325.065 173.51C325.705 173.71 326.295 173.97 326.835 174.29C327.375 174.61 327.805 175.04 328.125 175.58C328.465 176.1 328.635 176.78 328.635 177.62C328.635 178.54 328.405 179.35 327.945 180.05C327.485 180.75 326.835 181.29 325.995 181.67C325.155 182.05 324.165 182.24 323.025 182.24ZM43.88 212L43.7 209.03V202.73C43.7 201.59 43.38 200.71 42.74 200.09C42.12 199.47 41.19 199.16 39.95 199.16C39.15 199.16 38.4 199.33 37.7 199.67C37 199.99 36.32 200.54 35.66 201.32L33.83 199.76C34.65 198.8 35.59 198.1 36.65 197.66C37.71 197.2 38.87 196.97 40.13 196.97C42.07 196.97 43.57 197.47 44.63 198.47C45.69 199.47 46.22 200.89 46.22 202.73V212H43.88ZM38.99 212.24C37.87 212.24 36.89 212.05 36.05 211.67C35.23 211.27 34.59 210.72 34.13 210.02C33.69 209.32 33.47 208.51 33.47 207.59C33.47 206.77 33.63 206.08 33.95 205.52C34.29 204.94 34.72 204.49 35.24 204.17C35.76 203.83 36.35 203.6 37.01 203.48C37.69 203.34 38.4 203.27 39.14 203.27H43.94V205.19H39.5C39.06 205.19 38.6 205.23 38.12 205.31C37.64 205.39 37.22 205.56 36.86 205.82C36.6 206.02 36.39 206.27 36.23 206.57C36.09 206.87 36.02 207.22 36.02 207.62C36.02 208.4 36.31 209.02 36.89 209.48C37.47 209.94 38.25 210.17 39.23 210.17C40.05 210.17 40.79 209.98 41.45 209.6C42.13 209.22 42.67 208.7 43.07 208.04C43.49 207.36 43.7 206.6 43.7 205.76L44.75 206.84C44.63 207.9 44.31 208.84 43.79 209.66C43.27 210.48 42.6 211.12 41.78 211.58C40.98 212.02 40.05 212.24 38.99 212.24ZM55.3412 212.24C54.2812 212.24 53.3612 212.03 52.5812 211.61C51.8012 211.17 51.2012 210.53 50.7812 209.69C50.3812 208.85 50.1812 207.81 50.1812 206.57V197.21H52.7012V205.67C52.7012 206.65 52.8212 207.47 53.0612 208.13C53.3212 208.77 53.7012 209.25 54.2012 209.57C54.7012 209.87 55.3212 210.02 56.0612 210.02C56.8812 210.02 57.5712 209.83 58.1312 209.45C58.7112 209.05 59.1512 208.45 59.4512 207.65C59.7512 206.85 59.9012 205.82 59.9012 204.56V197.21H62.4212V212H59.9012V208.85H60.5312C60.1112 209.95 59.4412 210.79 58.5212 211.37C57.6012 211.95 56.5412 212.24 55.3412 212.24ZM72.7974 212.24C71.4574 212.24 70.2774 211.91 69.2574 211.25C68.2574 210.57 67.4774 209.65 66.9174 208.49C66.3574 207.33 66.0774 206.03 66.0774 204.59C66.0774 203.03 66.3774 201.68 66.9774 200.54C67.5774 199.4 68.3874 198.52 69.4074 197.9C70.4274 197.28 71.5574 196.97 72.7974 196.97C73.7374 196.97 74.5774 197.16 75.3174 197.54C76.0574 197.9 76.6774 198.4 77.1774 199.04C77.6974 199.66 78.0574 200.36 78.2574 201.14L77.5374 201.62V191.09H80.0574V212H77.5374V207.59L78.3774 207.86C78.1174 208.72 77.7274 209.48 77.2074 210.14C76.6874 210.8 76.0574 211.32 75.3174 211.7C74.5774 212.06 73.7374 212.24 72.7974 212.24ZM73.2174 209.9C74.1174 209.9 74.9074 209.68 75.5874 209.24C76.2674 208.78 76.7974 208.15 77.1774 207.35C77.5574 206.55 77.7474 205.63 77.7474 204.59C77.7474 203.55 77.5574 202.63 77.1774 201.83C76.7974 201.03 76.2674 200.41 75.5874 199.97C74.9074 199.51 74.1174 199.28 73.2174 199.28C72.3174 199.28 71.5174 199.51 70.8174 199.97C70.1374 200.41 69.5974 201.03 69.1974 201.83C68.8174 202.63 68.6274 203.55 68.6274 204.59C68.6274 205.63 68.8174 206.55 69.1974 207.35C69.5974 208.15 70.1374 208.78 70.8174 209.24C71.5174 209.68 72.3174 209.9 73.2174 209.9ZM84.3448 212V197.21H86.8648V212H84.3448ZM84.1048 194.54V191.09H87.1048V194.54H84.1048ZM97.3824 212.24C96.2224 212.24 95.2024 212.05 94.3224 211.67C93.4624 211.27 92.7424 210.72 92.1624 210.02C91.6024 209.32 91.1724 208.52 90.8724 207.62C90.5924 206.7 90.4524 205.73 90.4524 204.71C90.4524 203.69 90.5924 202.72 90.8724 201.8C91.1524 200.86 91.5624 200.03 92.1024 199.31C92.6624 198.59 93.3624 198.02 94.2024 197.6C95.0424 197.18 96.0224 196.97 97.1424 196.97C98.2824 196.97 99.2624 197.17 100.082 197.57C100.922 197.95 101.602 198.48 102.122 199.16C102.662 199.84 103.062 200.6 103.322 201.44C103.582 202.28 103.712 203.15 103.712 204.05C103.712 204.13 103.702 204.32 103.682 204.62C103.682 204.9 103.662 205.15 103.622 205.37H92.9724C93.0324 206.81 93.4524 207.93 94.2324 208.73C95.0124 209.53 96.0724 209.93 97.4124 209.93C98.2724 209.93 99.0224 209.79 99.6624 209.51C100.302 209.23 100.902 208.78 101.462 208.16L103.232 209.72C102.692 210.3 102.122 210.78 101.522 211.16C100.922 211.52 100.282 211.79 99.6024 211.97C98.9424 212.15 98.2024 212.24 97.3824 212.24ZM101.192 204.08C101.232 203.92 101.252 203.76 101.252 203.6C101.272 203.44 101.282 203.28 101.282 203.12C101.282 202.64 101.192 202.16 101.012 201.68C100.852 201.2 100.602 200.77 100.262 200.39C99.9424 199.99 99.5224 199.68 99.0024 199.46C98.5024 199.22 97.9024 199.1 97.2024 199.1C96.3424 199.1 95.6024 199.3 94.9824 199.7C94.3624 200.1 93.8824 200.63 93.5424 201.29C93.2024 201.95 93.0024 202.68 92.9424 203.48H102.032L101.192 204.08ZM107.344 212V197.21H109.894V200.36L109.294 200.57C109.574 199.81 109.954 199.17 110.434 198.65C110.914 198.11 111.494 197.7 112.174 197.42C112.854 197.12 113.604 196.97 114.424 196.97C116.044 196.97 117.314 197.45 118.234 198.41C119.154 199.35 119.614 200.75 119.614 202.61V212H117.064V203.54C117.064 202.04 116.784 200.94 116.224 200.24C115.684 199.52 114.854 199.16 113.734 199.16C112.914 199.16 112.214 199.35 111.634 199.73C111.074 200.11 110.644 200.71 110.344 201.53C110.044 202.33 109.894 203.36 109.894 204.62V212H107.344ZM129.9 212.24C128.8 212.24 127.82 212.04 126.96 211.64C126.12 211.24 125.41 210.69 124.83 209.99C124.25 209.27 123.81 208.45 123.51 207.53C123.21 206.61 123.06 205.63 123.06 204.59C123.06 203.57 123.21 202.6 123.51 201.68C123.81 200.76 124.25 199.95 124.83 199.25C125.41 198.53 126.12 197.97 126.96 197.57C127.82 197.17 128.8 196.97 129.9 196.97C131.3 196.97 132.52 197.31 133.56 197.99C134.62 198.67 135.4 199.71 135.9 201.11L133.65 201.98C133.37 201.14 132.92 200.46 132.3 199.94C131.68 199.42 130.88 199.16 129.9 199.16C128.92 199.16 128.11 199.42 127.47 199.94C126.83 200.46 126.35 201.13 126.03 201.95C125.73 202.77 125.58 203.65 125.58 204.59C125.58 205.53 125.73 206.42 126.03 207.26C126.35 208.08 126.83 208.75 127.47 209.27C128.11 209.77 128.92 210.02 129.9 210.02C130.88 210.02 131.68 209.77 132.3 209.27C132.92 208.75 133.37 208.06 133.65 207.2L135.9 208.07C135.4 209.47 134.62 210.52 133.56 211.22C132.52 211.9 131.3 212.24 129.9 212.24ZM145.517 212.24C144.357 212.24 143.337 212.05 142.457 211.67C141.597 211.27 140.877 210.72 140.297 210.02C139.737 209.32 139.307 208.52 139.007 207.62C138.727 206.7 138.587 205.73 138.587 204.71C138.587 203.69 138.727 202.72 139.007 201.8C139.287 200.86 139.697 200.03 140.237 199.31C140.797 198.59 141.497 198.02 142.337 197.6C143.177 197.18 144.157 196.97 145.277 196.97C146.417 196.97 147.397 197.17 148.217 197.57C149.057 197.95 149.737 198.48 150.257 199.16C150.797 199.84 151.197 200.6 151.457 201.44C151.717 202.28 151.847 203.15 151.847 204.05C151.847 204.13 151.837 204.32 151.817 204.62C151.817 204.9 151.797 205.15 151.757 205.37H141.107C141.167 206.81 141.587 207.93 142.367 208.73C143.147 209.53 144.207 209.93 145.547 209.93C146.407 209.93 147.157 209.79 147.797 209.51C148.437 209.23 149.037 208.78 149.597 208.16L151.367 209.72C150.827 210.3 150.257 210.78 149.657 211.16C149.057 211.52 148.417 211.79 147.737 211.97C147.077 212.15 146.337 212.24 145.517 212.24ZM149.327 204.08C149.367 203.92 149.387 203.76 149.387 203.6C149.407 203.44 149.417 203.28 149.417 203.12C149.417 202.64 149.327 202.16 149.147 201.68C148.987 201.2 148.737 200.77 148.397 200.39C148.077 199.99 147.657 199.68 147.137 199.46C146.637 199.22 146.037 199.1 145.337 199.1C144.477 199.1 143.737 199.3 143.117 199.7C142.497 200.1 142.017 200.63 141.677 201.29C141.337 201.95 141.137 202.68 141.077 203.48H150.167L149.327 204.08ZM168.161 212.24C167.161 212.24 166.261 212.09 165.461 211.79C164.661 211.49 163.971 211.09 163.391 210.59C162.831 210.09 162.381 209.56 162.041 209L163.811 207.5C164.191 208.26 164.751 208.89 165.491 209.39C166.251 209.87 167.151 210.11 168.191 210.11C169.131 210.11 169.881 209.91 170.441 209.51C171.001 209.11 171.281 208.57 171.281 207.89C171.281 207.33 171.111 206.89 170.771 206.57C170.431 206.25 169.981 205.99 169.421 205.79C168.861 205.59 168.251 205.41 167.591 205.25C167.031 205.11 166.461 204.94 165.881 204.74C165.321 204.54 164.811 204.29 164.351 203.99C163.891 203.69 163.521 203.3 163.241 202.82C162.961 202.34 162.821 201.75 162.821 201.05C162.821 199.83 163.291 198.85 164.231 198.11C165.191 197.35 166.441 196.97 167.981 196.97C169.101 196.97 170.121 197.21 171.041 197.69C171.981 198.15 172.711 198.85 173.231 199.79L171.611 200.99C171.211 200.29 170.681 199.79 170.021 199.49C169.381 199.17 168.671 199.01 167.891 199.01C167.111 199.01 166.461 199.17 165.941 199.49C165.421 199.81 165.161 200.25 165.161 200.81C165.161 201.23 165.281 201.57 165.521 201.83C165.761 202.09 166.111 202.31 166.571 202.49C167.051 202.67 167.631 202.84 168.311 203C168.931 203.14 169.561 203.31 170.201 203.51C170.841 203.71 171.431 203.97 171.971 204.29C172.511 204.61 172.941 205.04 173.261 205.58C173.601 206.1 173.771 206.78 173.771 207.62C173.771 208.54 173.541 209.35 173.081 210.05C172.621 210.75 171.971 211.29 171.131 211.67C170.291 212.05 169.301 212.24 168.161 212.24ZM183.603 212.24C182.443 212.24 181.423 212.05 180.543 211.67C179.683 211.27 178.963 210.72 178.383 210.02C177.823 209.32 177.393 208.52 177.093 207.62C176.813 206.7 176.673 205.73 176.673 204.71C176.673 203.69 176.813 202.72 177.093 201.8C177.373 200.86 177.783 200.03 178.323 199.31C178.883 198.59 179.583 198.02 180.423 197.6C181.263 197.18 182.243 196.97 183.363 196.97C184.503 196.97 185.483 197.17 186.303 197.57C187.143 197.95 187.823 198.48 188.343 199.16C188.883 199.84 189.283 200.6 189.543 201.44C189.803 202.28 189.933 203.15 189.933 204.05C189.933 204.13 189.923 204.32 189.903 204.62C189.903 204.9 189.883 205.15 189.843 205.37H179.193C179.253 206.81 179.673 207.93 180.453 208.73C181.233 209.53 182.293 209.93 183.633 209.93C184.493 209.93 185.243 209.79 185.883 209.51C186.523 209.23 187.123 208.78 187.683 208.16L189.453 209.72C188.913 210.3 188.343 210.78 187.743 211.16C187.143 211.52 186.503 211.79 185.823 211.97C185.163 212.15 184.423 212.24 183.603 212.24ZM187.413 204.08C187.453 203.92 187.473 203.76 187.473 203.6C187.493 203.44 187.503 203.28 187.503 203.12C187.503 202.64 187.413 202.16 187.233 201.68C187.073 201.2 186.823 200.77 186.483 200.39C186.163 199.99 185.743 199.68 185.223 199.46C184.723 199.22 184.123 199.1 183.423 199.1C182.563 199.1 181.823 199.3 181.203 199.7C180.583 200.1 180.103 200.63 179.763 201.29C179.423 201.95 179.223 202.68 179.163 203.48H188.253L187.413 204.08ZM199.534 218.39C197.414 218.39 195.734 218 194.494 217.22C193.254 216.44 192.634 215.36 192.634 213.98C192.634 213.88 192.634 213.75 192.634 213.59C192.654 213.43 192.684 213.28 192.724 213.14L196.414 210.47L197.284 211.07L195.184 213.68C195.164 213.76 195.154 213.83 195.154 213.89C195.154 213.95 195.154 214.01 195.154 214.07C195.154 214.87 195.574 215.46 196.414 215.84C197.254 216.24 198.294 216.44 199.534 216.44C200.634 216.44 201.544 216.28 202.264 215.96C202.984 215.66 203.344 215.16 203.344 214.46C203.344 214.06 203.224 213.73 202.984 213.47C202.764 213.23 202.434 213.04 201.994 212.9C201.574 212.76 201.074 212.64 200.494 212.54C199.914 212.44 199.264 212.34 198.544 212.24C197.644 212.1 196.764 211.9 195.904 211.64C195.064 211.38 194.364 211 193.804 210.5C193.264 210 192.994 209.34 192.994 208.52C192.994 207.82 193.234 207.18 193.714 206.6C194.214 206.02 194.864 205.54 195.664 205.16L197.284 206.21C196.604 206.37 196.124 206.62 195.844 206.96C195.564 207.28 195.424 207.67 195.424 208.13C195.424 208.51 195.554 208.82 195.814 209.06C196.094 209.3 196.484 209.49 196.984 209.63C197.504 209.75 198.124 209.86 198.844 209.96C199.804 210.1 200.704 210.25 201.544 210.41C202.384 210.57 203.124 210.8 203.764 211.1C204.424 211.38 204.934 211.76 205.294 212.24C205.654 212.74 205.834 213.38 205.834 214.16C205.834 215.52 205.274 216.56 204.154 217.28C203.034 218.02 201.494 218.39 199.534 218.39ZM199.174 207.38C198.034 207.38 197.024 207.16 196.144 206.72C195.264 206.28 194.574 205.67 194.074 204.89C193.594 204.11 193.354 203.22 193.354 202.22C193.354 201.18 193.604 200.27 194.104 199.49C194.624 198.69 195.314 198.07 196.174 197.63C197.054 197.19 198.024 196.97 199.084 196.97C200.124 196.97 201.074 197.19 201.934 197.63C202.794 198.07 203.484 198.69 204.004 199.49C204.524 200.29 204.784 201.23 204.784 202.31C204.784 203.33 204.544 204.22 204.064 204.98C203.584 205.74 202.924 206.33 202.084 206.75C201.244 207.17 200.274 207.38 199.174 207.38ZM199.114 205.31C200.114 205.31 200.884 205.01 201.424 204.41C201.984 203.79 202.264 203.04 202.264 202.16C202.264 201.22 201.974 200.46 201.394 199.88C200.814 199.3 200.054 199.01 199.114 199.01C198.154 199.01 197.374 199.31 196.774 199.91C196.174 200.49 195.874 201.23 195.874 202.13C195.874 203.03 196.164 203.79 196.744 204.41C197.324 205.01 198.114 205.31 199.114 205.31ZM203.824 199.97L201.994 198.74L205.114 196.16L206.404 197.75L203.824 199.97ZM208.974 212V197.21H211.524V201.02H211.014C211.194 200.32 211.434 199.72 211.734 199.22C212.054 198.7 212.424 198.28 212.844 197.96C213.264 197.62 213.714 197.37 214.194 197.21C214.694 197.05 215.214 196.97 215.754 196.97C216.654 196.97 217.444 197.14 218.124 197.48C218.804 197.82 219.364 198.34 219.804 199.04C220.244 199.72 220.544 200.59 220.704 201.65L219.264 201.74C219.564 200.72 219.944 199.86 220.404 199.16C220.864 198.44 221.434 197.9 222.114 197.54C222.814 197.16 223.644 196.97 224.604 196.97C225.824 196.97 226.804 197.25 227.544 197.81C228.284 198.35 228.824 199.08 229.164 200C229.504 200.9 229.674 201.9 229.674 203V212H227.154V203.6C227.154 202.68 227.044 201.89 226.824 201.23C226.624 200.57 226.294 200.06 225.834 199.7C225.394 199.34 224.794 199.16 224.034 199.16C223.314 199.16 222.694 199.34 222.174 199.7C221.674 200.06 221.284 200.61 221.004 201.35C220.744 202.07 220.614 202.97 220.614 204.05V212H218.064V203.39C218.064 201.97 217.804 200.91 217.284 200.21C216.764 199.51 216.004 199.16 215.004 199.16C214.284 199.16 213.664 199.35 213.144 199.73C212.624 200.09 212.224 200.63 211.944 201.35C211.664 202.07 211.524 202.97 211.524 204.05V212H208.974ZM240.058 212.24C238.898 212.24 237.878 212.05 236.998 211.67C236.138 211.27 235.418 210.72 234.838 210.02C234.278 209.32 233.848 208.52 233.548 207.62C233.268 206.7 233.128 205.73 233.128 204.71C233.128 203.69 233.268 202.72 233.548 201.8C233.828 200.86 234.238 200.03 234.778 199.31C235.338 198.59 236.038 198.02 236.878 197.6C237.718 197.18 238.698 196.97 239.818 196.97C240.958 196.97 241.938 197.17 242.758 197.57C243.598 197.95 244.278 198.48 244.798 199.16C245.338 199.84 245.738 200.6 245.998 201.44C246.258 202.28 246.388 203.15 246.388 204.05C246.388 204.13 246.378 204.32 246.358 204.62C246.358 204.9 246.338 205.15 246.298 205.37H235.648C235.708 206.81 236.128 207.93 236.908 208.73C237.688 209.53 238.748 209.93 240.088 209.93C240.948 209.93 241.698 209.79 242.338 209.51C242.978 209.23 243.578 208.78 244.138 208.16L245.908 209.72C245.368 210.3 244.798 210.78 244.198 211.16C243.598 211.52 242.958 211.79 242.278 211.97C241.618 212.15 240.878 212.24 240.058 212.24ZM243.868 204.08C243.908 203.92 243.928 203.76 243.928 203.6C243.948 203.44 243.958 203.28 243.958 203.12C243.958 202.64 243.868 202.16 243.688 201.68C243.528 201.2 243.278 200.77 242.938 200.39C242.618 199.99 242.198 199.68 241.678 199.46C241.178 199.22 240.578 199.1 239.878 199.1C239.018 199.1 238.278 199.3 237.658 199.7C237.038 200.1 236.558 200.63 236.218 201.29C235.878 201.95 235.678 202.68 235.618 203.48H244.708L243.868 204.08ZM250.019 212V197.21H252.569V200.36L251.969 200.57C252.249 199.81 252.629 199.17 253.109 198.65C253.589 198.11 254.169 197.7 254.849 197.42C255.529 197.12 256.279 196.97 257.099 196.97C258.719 196.97 259.989 197.45 260.909 198.41C261.829 199.35 262.289 200.75 262.289 202.61V212H259.739V203.54C259.739 202.04 259.459 200.94 258.899 200.24C258.359 199.52 257.529 199.16 256.409 199.16C255.589 199.16 254.889 199.35 254.309 199.73C253.749 200.11 253.319 200.71 253.019 201.53C252.719 202.33 252.569 203.36 252.569 204.62V212H250.019ZM271.346 212.24C270.646 212.24 270.006 212.11 269.426 211.85C268.866 211.57 268.426 211.13 268.106 210.53C267.786 209.93 267.626 209.16 267.626 208.22V193.25L270.206 191.81V207.56C270.206 208.38 270.336 209.02 270.596 209.48C270.856 209.92 271.326 210.14 272.006 210.14C272.206 210.14 272.446 210.12 272.726 210.08C273.006 210.02 273.306 209.95 273.626 209.87V211.85C273.246 211.99 272.856 212.09 272.456 212.15C272.076 212.21 271.706 212.24 271.346 212.24ZM264.566 199.19V197.21H273.626V199.19H264.566ZM281.687 212.24C280.687 212.24 279.787 212.09 278.987 211.79C278.187 211.49 277.497 211.09 276.917 210.59C276.357 210.09 275.907 209.56 275.567 209L277.337 207.5C277.717 208.26 278.277 208.89 279.017 209.39C279.777 209.87 280.677 210.11 281.717 210.11C282.657 210.11 283.407 209.91 283.967 209.51C284.527 209.11 284.807 208.57 284.807 207.89C284.807 207.33 284.637 206.89 284.297 206.57C283.957 206.25 283.507 205.99 282.947 205.79C282.387 205.59 281.777 205.41 281.117 205.25C280.557 205.11 279.987 204.94 279.407 204.74C278.847 204.54 278.337 204.29 277.877 203.99C277.417 203.69 277.047 203.3 276.767 202.82C276.487 202.34 276.347 201.75 276.347 201.05C276.347 199.83 276.817 198.85 277.757 198.11C278.717 197.35 279.967 196.97 281.507 196.97C282.627 196.97 283.647 197.21 284.567 197.69C285.507 198.15 286.237 198.85 286.757 199.79L285.137 200.99C284.737 200.29 284.207 199.79 283.547 199.49C282.907 199.17 282.197 199.01 281.417 199.01C280.637 199.01 279.987 199.17 279.467 199.49C278.947 199.81 278.687 200.25 278.687 200.81C278.687 201.23 278.807 201.57 279.047 201.83C279.287 202.09 279.637 202.31 280.097 202.49C280.577 202.67 281.157 202.84 281.837 203C282.457 203.14 283.087 203.31 283.727 203.51C284.367 203.71 284.957 203.97 285.497 204.29C286.037 204.61 286.467 205.04 286.787 205.58C287.127 206.1 287.297 206.78 287.297 207.62C287.297 208.54 287.067 209.35 286.607 210.05C286.147 210.75 285.497 211.29 284.657 211.67C283.817 212.05 282.827 212.24 281.687 212.24ZM43.88 242L43.7 239.03V232.73C43.7 231.59 43.38 230.71 42.74 230.09C42.12 229.47 41.19 229.16 39.95 229.16C39.15 229.16 38.4 229.33 37.7 229.67C37 229.99 36.32 230.54 35.66 231.32L33.83 229.76C34.65 228.8 35.59 228.1 36.65 227.66C37.71 227.2 38.87 226.97 40.13 226.97C42.07 226.97 43.57 227.47 44.63 228.47C45.69 229.47 46.22 230.89 46.22 232.73V242H43.88ZM38.99 242.24C37.87 242.24 36.89 242.05 36.05 241.67C35.23 241.27 34.59 240.72 34.13 240.02C33.69 239.32 33.47 238.51 33.47 237.59C33.47 236.77 33.63 236.08 33.95 235.52C34.29 234.94 34.72 234.49 35.24 234.17C35.76 233.83 36.35 233.6 37.01 233.48C37.69 233.34 38.4 233.27 39.14 233.27H43.94V235.19H39.5C39.06 235.19 38.6 235.23 38.12 235.31C37.64 235.39 37.22 235.56 36.86 235.82C36.6 236.02 36.39 236.27 36.23 236.57C36.09 236.87 36.02 237.22 36.02 237.62C36.02 238.4 36.31 239.02 36.89 239.48C37.47 239.94 38.25 240.17 39.23 240.17C40.05 240.17 40.79 239.98 41.45 239.6C42.13 239.22 42.67 238.7 43.07 238.04C43.49 237.36 43.7 236.6 43.7 235.76L44.75 236.84C44.63 237.9 44.31 238.84 43.79 239.66C43.27 240.48 42.6 241.12 41.78 241.58C40.98 242.02 40.05 242.24 38.99 242.24ZM50.3612 242V227.21H52.9112V230.36L52.3112 230.57C52.5912 229.81 52.9712 229.17 53.4512 228.65C53.9312 228.11 54.5112 227.7 55.1912 227.42C55.8712 227.12 56.6212 226.97 57.4412 226.97C59.0612 226.97 60.3312 227.45 61.2512 228.41C62.1712 229.35 62.6312 230.75 62.6312 232.61V242H60.0812V233.54C60.0812 232.04 59.8012 230.94 59.2412 230.24C58.7012 229.52 57.8712 229.16 56.7512 229.16C55.9312 229.16 55.2312 229.35 54.6512 229.73C54.0912 230.11 53.6612 230.71 53.3612 231.53C53.0612 232.33 52.9112 233.36 52.9112 234.62V242H50.3612ZM72.7974 242.24C71.4574 242.24 70.2774 241.91 69.2574 241.25C68.2574 240.57 67.4774 239.65 66.9174 238.49C66.3574 237.33 66.0774 236.03 66.0774 234.59C66.0774 233.03 66.3774 231.68 66.9774 230.54C67.5774 229.4 68.3874 228.52 69.4074 227.9C70.4274 227.28 71.5574 226.97 72.7974 226.97C73.7374 226.97 74.5774 227.16 75.3174 227.54C76.0574 227.9 76.6774 228.4 77.1774 229.04C77.6974 229.66 78.0574 230.36 78.2574 231.14L77.5374 231.62V221.09H80.0574V242H77.5374V237.59L78.3774 237.86C78.1174 238.72 77.7274 239.48 77.2074 240.14C76.6874 240.8 76.0574 241.32 75.3174 241.7C74.5774 242.06 73.7374 242.24 72.7974 242.24ZM73.2174 239.9C74.1174 239.9 74.9074 239.68 75.5874 239.24C76.2674 238.78 76.7974 238.15 77.1774 237.35C77.5574 236.55 77.7474 235.63 77.7474 234.59C77.7474 233.55 77.5574 232.63 77.1774 231.83C76.7974 231.03 76.2674 230.41 75.5874 229.97C74.9074 229.51 74.1174 229.28 73.2174 229.28C72.3174 229.28 71.5174 229.51 70.8174 229.97C70.1374 230.41 69.5974 231.03 69.1974 231.83C68.8174 232.63 68.6274 233.55 68.6274 234.59C68.6274 235.63 68.8174 236.55 69.1974 237.35C69.5974 238.15 70.1374 238.78 70.8174 239.24C71.5174 239.68 72.3174 239.9 73.2174 239.9ZM97.0878 242.24C96.3878 242.24 95.7478 242.11 95.1678 241.85C94.6078 241.57 94.1678 241.13 93.8478 240.53C93.5278 239.93 93.3678 239.16 93.3678 238.22V223.25L95.9478 221.81V237.56C95.9478 238.38 96.0778 239.02 96.3378 239.48C96.5978 239.92 97.0678 240.14 97.7478 240.14C97.9478 240.14 98.1878 240.12 98.4678 240.08C98.7478 240.02 99.0478 239.95 99.3678 239.87V241.85C98.9878 241.99 98.5978 242.09 98.1978 242.15C97.8178 242.21 97.4478 242.24 97.0878 242.24ZM90.3078 229.19V227.21H99.3678V229.19H90.3078ZM102.539 242V221.09H105.089V230.36L104.459 230.6C104.739 229.84 105.129 229.19 105.629 228.65C106.129 228.11 106.719 227.7 107.399 227.42C108.079 227.12 108.819 226.97 109.619 226.97C111.239 226.97 112.509 227.45 113.429 228.41C114.349 229.35 114.809 230.75 114.809 232.61V242H112.259V233.54C112.259 232.04 111.979 230.94 111.419 230.24C110.879 229.52 110.049 229.16 108.929 229.16C107.709 229.16 106.759 229.6 106.079 230.48C105.419 231.34 105.089 232.72 105.089 234.62V242H102.539ZM125.185 242.24C124.025 242.24 123.005 242.05 122.125 241.67C121.265 241.27 120.545 240.72 119.965 240.02C119.405 239.32 118.975 238.52 118.675 237.62C118.395 236.7 118.255 235.73 118.255 234.71C118.255 233.69 118.395 232.72 118.675 231.8C118.955 230.86 119.365 230.03 119.905 229.31C120.465 228.59 121.165 228.02 122.005 227.6C122.845 227.18 123.825 226.97 124.945 226.97C126.085 226.97 127.065 227.17 127.885 227.57C128.725 227.95 129.405 228.48 129.925 229.16C130.465 229.84 130.865 230.6 131.125 231.44C131.385 232.28 131.515 233.15 131.515 234.05C131.515 234.13 131.505 234.32 131.485 234.62C131.485 234.9 131.465 235.15 131.425 235.37H120.775C120.835 236.81 121.255 237.93 122.035 238.73C122.815 239.53 123.875 239.93 125.215 239.93C126.075 239.93 126.825 239.79 127.465 239.51C128.105 239.23 128.705 238.78 129.265 238.16L131.035 239.72C130.495 240.3 129.925 240.78 129.325 241.16C128.725 241.52 128.085 241.79 127.405 241.97C126.745 242.15 126.005 242.24 125.185 242.24ZM128.995 234.08C129.035 233.92 129.055 233.76 129.055 233.6C129.075 233.44 129.085 233.28 129.085 233.12C129.085 232.64 128.995 232.16 128.815 231.68C128.655 231.2 128.405 230.77 128.065 230.39C127.745 229.99 127.325 229.68 126.805 229.46C126.305 229.22 125.705 229.1 125.005 229.1C124.145 229.1 123.405 229.3 122.785 229.7C122.165 230.1 121.685 230.63 121.345 231.29C121.005 231.95 120.805 232.68 120.745 233.48H129.835L128.995 234.08ZM142.939 242V227.21H145.489V231.02H144.979C145.159 230.32 145.399 229.72 145.699 229.22C146.019 228.7 146.389 228.28 146.809 227.96C147.229 227.62 147.679 227.37 148.159 227.21C148.659 227.05 149.179 226.97 149.719 226.97C150.619 226.97 151.409 227.14 152.089 227.48C152.769 227.82 153.329 228.34 153.769 229.04C154.209 229.72 154.509 230.59 154.669 231.65L153.229 231.74C153.529 230.72 153.909 229.86 154.369 229.16C154.829 228.44 155.399 227.9 156.079 227.54C156.779 227.16 157.609 226.97 158.569 226.97C159.789 226.97 160.769 227.25 161.509 227.81C162.249 228.35 162.789 229.08 163.129 230C163.469 230.9 163.639 231.9 163.639 233V242H161.119V233.6C161.119 232.68 161.009 231.89 160.789 231.23C160.589 230.57 160.259 230.06 159.799 229.7C159.359 229.34 158.759 229.16 157.999 229.16C157.279 229.16 156.659 229.34 156.139 229.7C155.639 230.06 155.249 230.61 154.969 231.35C154.709 232.07 154.579 232.97 154.579 234.05V242H152.029V233.39C152.029 231.97 151.769 230.91 151.249 230.21C150.729 229.51 149.969 229.16 148.969 229.16C148.249 229.16 147.629 229.35 147.109 229.73C146.589 230.09 146.189 230.63 145.909 231.35C145.629 232.07 145.489 232.97 145.489 234.05V242H142.939ZM174.023 242.24C172.863 242.24 171.843 242.05 170.963 241.67C170.103 241.27 169.383 240.72 168.803 240.02C168.243 239.32 167.813 238.52 167.513 237.62C167.233 236.7 167.093 235.73 167.093 234.71C167.093 233.69 167.233 232.72 167.513 231.8C167.793 230.86 168.203 230.03 168.743 229.31C169.303 228.59 170.003 228.02 170.843 227.6C171.683 227.18 172.663 226.97 173.783 226.97C174.923 226.97 175.903 227.17 176.723 227.57C177.563 227.95 178.243 228.48 178.763 229.16C179.303 229.84 179.703 230.6 179.963 231.44C180.223 232.28 180.353 233.15 180.353 234.05C180.353 234.13 180.343 234.32 180.323 234.62C180.323 234.9 180.303 235.15 180.263 235.37H169.613C169.673 236.81 170.093 237.93 170.873 238.73C171.653 239.53 172.713 239.93 174.053 239.93C174.913 239.93 175.663 239.79 176.303 239.51C176.943 239.23 177.543 238.78 178.103 238.16L179.873 239.72C179.333 240.3 178.763 240.78 178.163 241.16C177.563 241.52 176.923 241.79 176.243 241.97C175.583 242.15 174.843 242.24 174.023 242.24ZM177.833 234.08C177.873 233.92 177.893 233.76 177.893 233.6C177.913 233.44 177.923 233.28 177.923 233.12C177.923 232.64 177.833 232.16 177.653 231.68C177.493 231.2 177.243 230.77 176.903 230.39C176.583 229.99 176.163 229.68 175.643 229.46C175.143 229.22 174.543 229.1 173.843 229.1C172.983 229.1 172.243 229.3 171.623 229.7C171.003 230.1 170.523 230.63 170.183 231.29C169.843 231.95 169.643 232.68 169.583 233.48H178.673L177.833 234.08ZM188.874 242.24C187.874 242.24 186.974 242.09 186.174 241.79C185.374 241.49 184.684 241.09 184.104 240.59C183.544 240.09 183.094 239.56 182.754 239L184.524 237.5C184.904 238.26 185.464 238.89 186.204 239.39C186.964 239.87 187.864 240.11 188.904 240.11C189.844 240.11 190.594 239.91 191.154 239.51C191.714 239.11 191.994 238.57 191.994 237.89C191.994 237.33 191.824 236.89 191.484 236.57C191.144 236.25 190.694 235.99 190.134 235.79C189.574 235.59 188.964 235.41 188.304 235.25C187.744 235.11 187.174 234.94 186.594 234.74C186.034 234.54 185.524 234.29 185.064 233.99C184.604 233.69 184.234 233.3 183.954 232.82C183.674 232.34 183.534 231.75 183.534 231.05C183.534 229.83 184.004 228.85 184.944 228.11C185.904 227.35 187.154 226.97 188.694 226.97C189.814 226.97 190.834 227.21 191.754 227.69C192.694 228.15 193.424 228.85 193.944 229.79L192.324 230.99C191.924 230.29 191.394 229.79 190.734 229.49C190.094 229.17 189.384 229.01 188.604 229.01C187.824 229.01 187.174 229.17 186.654 229.49C186.134 229.81 185.874 230.25 185.874 230.81C185.874 231.23 185.994 231.57 186.234 231.83C186.474 232.09 186.824 232.31 187.284 232.49C187.764 232.67 188.344 232.84 189.024 233C189.644 233.14 190.274 233.31 190.914 233.51C191.554 233.71 192.144 233.97 192.684 234.29C193.224 234.61 193.654 235.04 193.974 235.58C194.314 236.1 194.484 236.78 194.484 237.62C194.484 238.54 194.254 239.35 193.794 240.05C193.334 240.75 192.684 241.29 191.844 241.67C191.004 242.05 190.014 242.24 188.874 242.24ZM202.966 242.24C201.966 242.24 201.066 242.09 200.266 241.79C199.466 241.49 198.776 241.09 198.196 240.59C197.636 240.09 197.186 239.56 196.846 239L198.616 237.5C198.996 238.26 199.556 238.89 200.296 239.39C201.056 239.87 201.956 240.11 202.996 240.11C203.936 240.11 204.686 239.91 205.246 239.51C205.806 239.11 206.086 238.57 206.086 237.89C206.086 237.33 205.916 236.89 205.576 236.57C205.236 236.25 204.786 235.99 204.226 235.79C203.666 235.59 203.056 235.41 202.396 235.25C201.836 235.11 201.266 234.94 200.686 234.74C200.126 234.54 199.616 234.29 199.156 233.99C198.696 233.69 198.326 233.3 198.046 232.82C197.766 232.34 197.626 231.75 197.626 231.05C197.626 229.83 198.096 228.85 199.036 228.11C199.996 227.35 201.246 226.97 202.786 226.97C203.906 226.97 204.926 227.21 205.846 227.69C206.786 228.15 207.516 228.85 208.036 229.79L206.416 230.99C206.016 230.29 205.486 229.79 204.826 229.49C204.186 229.17 203.476 229.01 202.696 229.01C201.916 229.01 201.266 229.17 200.746 229.49C200.226 229.81 199.966 230.25 199.966 230.81C199.966 231.23 200.086 231.57 200.326 231.83C200.566 232.09 200.916 232.31 201.376 232.49C201.856 232.67 202.436 232.84 203.116 233C203.736 233.14 204.366 233.31 205.006 233.51C205.646 233.71 206.236 233.97 206.776 234.29C207.316 234.61 207.746 235.04 208.066 235.58C208.406 236.1 208.576 236.78 208.576 237.62C208.576 238.54 208.346 239.35 207.886 240.05C207.426 240.75 206.776 241.29 205.936 241.67C205.096 242.05 204.106 242.24 202.966 242.24ZM221.888 242L221.708 239.03V232.73C221.708 231.59 221.388 230.71 220.748 230.09C220.128 229.47 219.198 229.16 217.958 229.16C217.158 229.16 216.408 229.33 215.708 229.67C215.008 229.99 214.328 230.54 213.668 231.32L211.838 229.76C212.658 228.8 213.598 228.1 214.658 227.66C215.718 227.2 216.878 226.97 218.138 226.97C220.078 226.97 221.578 227.47 222.638 228.47C223.698 229.47 224.228 230.89 224.228 232.73V242H221.888ZM216.998 242.24C215.878 242.24 214.898 242.05 214.058 241.67C213.238 241.27 212.598 240.72 212.138 240.02C211.698 239.32 211.478 238.51 211.478 237.59C211.478 236.77 211.638 236.08 211.958 235.52C212.298 234.94 212.728 234.49 213.248 234.17C213.768 233.83 214.358 233.6 215.018 233.48C215.698 233.34 216.408 233.27 217.148 233.27H221.948V235.19H217.508C217.068 235.19 216.608 235.23 216.128 235.31C215.648 235.39 215.228 235.56 214.868 235.82C214.608 236.02 214.398 236.27 214.238 236.57C214.098 236.87 214.028 237.22 214.028 237.62C214.028 238.4 214.318 239.02 214.898 239.48C215.478 239.94 216.258 240.17 217.238 240.17C218.058 240.17 218.798 239.98 219.458 239.6C220.138 239.22 220.678 238.7 221.078 238.04C221.498 237.36 221.708 236.6 221.708 235.76L222.758 236.84C222.638 237.9 222.318 238.84 221.798 239.66C221.278 240.48 220.608 241.12 219.788 241.58C218.988 242.02 218.058 242.24 216.998 242.24ZM234.339 248.39C232.219 248.39 230.539 248 229.299 247.22C228.059 246.44 227.439 245.36 227.439 243.98C227.439 243.88 227.439 243.75 227.439 243.59C227.459 243.43 227.489 243.28 227.529 243.14L231.219 240.47L232.089 241.07L229.989 243.68C229.969 243.76 229.959 243.83 229.959 243.89C229.959 243.95 229.959 244.01 229.959 244.07C229.959 244.87 230.379 245.46 231.219 245.84C232.059 246.24 233.099 246.44 234.339 246.44C235.439 246.44 236.349 246.28 237.069 245.96C237.789 245.66 238.149 245.16 238.149 244.46C238.149 244.06 238.029 243.73 237.789 243.47C237.569 243.23 237.239 243.04 236.799 242.9C236.379 242.76 235.879 242.64 235.299 242.54C234.719 242.44 234.069 242.34 233.349 242.24C232.449 242.1 231.569 241.9 230.709 241.64C229.869 241.38 229.169 241 228.609 240.5C228.069 240 227.799 239.34 227.799 238.52C227.799 237.82 228.039 237.18 228.519 236.6C229.019 236.02 229.669 235.54 230.469 235.16L232.089 236.21C231.409 236.37 230.929 236.62 230.649 236.96C230.369 237.28 230.229 237.67 230.229 238.13C230.229 238.51 230.359 238.82 230.619 239.06C230.899 239.3 231.289 239.49 231.789 239.63C232.309 239.75 232.929 239.86 233.649 239.96C234.609 240.1 235.509 240.25 236.349 240.41C237.189 240.57 237.929 240.8 238.569 241.1C239.229 241.38 239.739 241.76 240.099 242.24C240.459 242.74 240.639 243.38 240.639 244.16C240.639 245.52 240.079 246.56 238.959 247.28C237.839 248.02 236.299 248.39 234.339 248.39ZM233.979 237.38C232.839 237.38 231.829 237.16 230.949 236.72C230.069 236.28 229.379 235.67 228.879 234.89C228.399 234.11 228.159 233.22 228.159 232.22C228.159 231.18 228.409 230.27 228.909 229.49C229.429 228.69 230.119 228.07 230.979 227.63C231.859 227.19 232.829 226.97 233.889 226.97C234.929 226.97 235.879 227.19 236.739 227.63C237.599 228.07 238.289 228.69 238.809 229.49C239.329 230.29 239.589 231.23 239.589 232.31C239.589 233.33 239.349 234.22 238.869 234.98C238.389 235.74 237.729 236.33 236.889 236.75C236.049 237.17 235.079 237.38 233.979 237.38ZM233.919 235.31C234.919 235.31 235.689 235.01 236.229 234.41C236.789 233.79 237.069 233.04 237.069 232.16C237.069 231.22 236.779 230.46 236.199 229.88C235.619 229.3 234.859 229.01 233.919 229.01C232.959 229.01 232.179 229.31 231.579 229.91C230.979 230.49 230.679 231.23 230.679 232.13C230.679 233.03 230.969 233.79 231.549 234.41C232.129 235.01 232.919 235.31 233.919 235.31ZM238.629 229.97L236.799 228.74L239.919 226.16L241.209 227.75L238.629 229.97ZM249.755 242.24C248.595 242.24 247.575 242.05 246.695 241.67C245.835 241.27 245.115 240.72 244.535 240.02C243.975 239.32 243.545 238.52 243.245 237.62C242.965 236.7 242.825 235.73 242.825 234.71C242.825 233.69 242.965 232.72 243.245 231.8C243.525 230.86 243.935 230.03 244.475 229.31C245.035 228.59 245.735 228.02 246.575 227.6C247.415 227.18 248.395 226.97 249.515 226.97C250.655 226.97 251.635 227.17 252.455 227.57C253.295 227.95 253.975 228.48 254.495 229.16C255.035 229.84 255.435 230.6 255.695 231.44C255.955 232.28 256.085 233.15 256.085 234.05C256.085 234.13 256.075 234.32 256.055 234.62C256.055 234.9 256.035 235.15 255.995 235.37H245.345C245.405 236.81 245.825 237.93 246.605 238.73C247.385 239.53 248.445 239.93 249.785 239.93C250.645 239.93 251.395 239.79 252.035 239.51C252.675 239.23 253.275 238.78 253.835 238.16L255.605 239.72C255.065 240.3 254.495 240.78 253.895 241.16C253.295 241.52 252.655 241.79 251.975 241.97C251.315 242.15 250.575 242.24 249.755 242.24ZM253.565 234.08C253.605 233.92 253.625 233.76 253.625 233.6C253.645 233.44 253.655 233.28 253.655 233.12C253.655 232.64 253.565 232.16 253.385 231.68C253.225 231.2 252.975 230.77 252.635 230.39C252.315 229.99 251.895 229.68 251.375 229.46C250.875 229.22 250.275 229.1 249.575 229.1C248.715 229.1 247.975 229.3 247.355 229.7C246.735 230.1 246.255 230.63 245.915 231.29C245.575 231.95 245.375 232.68 245.315 233.48H254.405L253.565 234.08ZM264.607 242.24C263.607 242.24 262.707 242.09 261.907 241.79C261.107 241.49 260.417 241.09 259.837 240.59C259.277 240.09 258.827 239.56 258.487 239L260.257 237.5C260.637 238.26 261.197 238.89 261.937 239.39C262.697 239.87 263.597 240.11 264.637 240.11C265.577 240.11 266.327 239.91 266.887 239.51C267.447 239.11 267.727 238.57 267.727 237.89C267.727 237.33 267.557 236.89 267.217 236.57C266.877 236.25 266.427 235.99 265.867 235.79C265.307 235.59 264.697 235.41 264.037 235.25C263.477 235.11 262.907 234.94 262.327 234.74C261.767 234.54 261.257 234.29 260.797 233.99C260.337 233.69 259.967 233.3 259.687 232.82C259.407 232.34 259.267 231.75 259.267 231.05C259.267 229.83 259.737 228.85 260.677 228.11C261.637 227.35 262.887 226.97 264.427 226.97C265.547 226.97 266.567 227.21 267.487 227.69C268.427 228.15 269.157 228.85 269.677 229.79L268.057 230.99C267.657 230.29 267.127 229.79 266.467 229.49C265.827 229.17 265.117 229.01 264.337 229.01C263.557 229.01 262.907 229.17 262.387 229.49C261.867 229.81 261.607 230.25 261.607 230.81C261.607 231.23 261.727 231.57 261.967 231.83C262.207 232.09 262.557 232.31 263.017 232.49C263.497 232.67 264.077 232.84 264.757 233C265.377 233.14 266.007 233.31 266.647 233.51C267.287 233.71 267.877 233.97 268.417 234.29C268.957 234.61 269.387 235.04 269.707 235.58C270.047 236.1 270.217 236.78 270.217 237.62C270.217 238.54 269.987 239.35 269.527 240.05C269.067 240.75 268.417 241.29 267.577 241.67C266.737 242.05 265.747 242.24 264.607 242.24ZM39.08 272.24C38.38 272.24 37.74 272.11 37.16 271.85C36.6 271.57 36.16 271.13 35.84 270.53C35.52 269.93 35.36 269.16 35.36 268.22V253.25L37.94 251.81V267.56C37.94 268.38 38.07 269.02 38.33 269.48C38.59 269.92 39.06 270.14 39.74 270.14C39.94 270.14 40.18 270.12 40.46 270.08C40.74 270.02 41.04 269.95 41.36 269.87V271.85C40.98 271.99 40.59 272.09 40.19 272.15C39.81 272.21 39.44 272.24 39.08 272.24ZM32.3 259.19V257.21H41.36V259.19H32.3ZM44.5311 272V251.09H47.0811V260.36L46.4511 260.6C46.7311 259.84 47.1211 259.19 47.6211 258.65C48.1211 258.11 48.7111 257.7 49.3911 257.42C50.0711 257.12 50.8111 256.97 51.6111 256.97C53.2311 256.97 54.5011 257.45 55.4211 258.41C56.3411 259.35 56.8011 260.75 56.8011 262.61V272H54.2511V263.54C54.2511 262.04 53.9711 260.94 53.4111 260.24C52.8711 259.52 52.0411 259.16 50.9211 259.16C49.7011 259.16 48.7511 259.6 48.0711 260.48C47.4111 261.34 47.0811 262.72 47.0811 264.62V272H44.5311ZM70.6573 272L70.4773 269.03V262.73C70.4773 261.59 70.1573 260.71 69.5173 260.09C68.8973 259.47 67.9673 259.16 66.7273 259.16C65.9273 259.16 65.1773 259.33 64.4773 259.67C63.7773 259.99 63.0973 260.54 62.4373 261.32L60.6073 259.76C61.4273 258.8 62.3673 258.1 63.4273 257.66C64.4873 257.2 65.6473 256.97 66.9073 256.97C68.8473 256.97 70.3473 257.47 71.4073 258.47C72.4673 259.47 72.9973 260.89 72.9973 262.73V272H70.6573ZM65.7673 272.24C64.6473 272.24 63.6673 272.05 62.8273 271.67C62.0073 271.27 61.3673 270.72 60.9073 270.02C60.4673 269.32 60.2473 268.51 60.2473 267.59C60.2473 266.77 60.4073 266.08 60.7273 265.52C61.0673 264.94 61.4973 264.49 62.0173 264.17C62.5373 263.83 63.1273 263.6 63.7873 263.48C64.4673 263.34 65.1773 263.27 65.9173 263.27H70.7173V265.19H66.2773C65.8373 265.19 65.3773 265.23 64.8973 265.31C64.4173 265.39 63.9973 265.56 63.6373 265.82C63.3773 266.02 63.1673 266.27 63.0073 266.57C62.8673 266.87 62.7973 267.22 62.7973 267.62C62.7973 268.4 63.0873 269.02 63.6673 269.48C64.2473 269.94 65.0273 270.17 66.0073 270.17C66.8273 270.17 67.5673 269.98 68.2273 269.6C68.9073 269.22 69.4473 268.7 69.8473 268.04C70.2673 267.36 70.4773 266.6 70.4773 265.76L71.5273 266.84C71.4073 267.9 71.0873 268.84 70.5673 269.66C70.0473 270.48 69.3773 271.12 68.5573 271.58C67.7573 272.02 66.8273 272.24 65.7673 272.24ZM82.0585 272.24C81.3585 272.24 80.7185 272.11 80.1385 271.85C79.5785 271.57 79.1385 271.13 78.8185 270.53C78.4985 269.93 78.3385 269.16 78.3385 268.22V253.25L80.9185 251.81V267.56C80.9185 268.38 81.0485 269.02 81.3085 269.48C81.5685 269.92 82.0385 270.14 82.7185 270.14C82.9185 270.14 83.1585 270.12 83.4385 270.08C83.7185 270.02 84.0185 269.95 84.3385 269.87V271.85C83.9585 271.99 83.5685 272.09 83.1685 272.15C82.7885 272.21 82.4185 272.24 82.0585 272.24ZM75.2785 259.19V257.21H84.3385V259.19H75.2785ZM95.3026 272V257.21H97.8526V261.17L97.1926 261.32C97.3326 260.44 97.6626 259.68 98.1826 259.04C98.7226 258.38 99.3426 257.87 100.043 257.51C100.763 257.15 101.463 256.97 102.143 256.97C102.603 256.97 103.043 257.02 103.463 257.12C103.883 257.22 104.313 257.39 104.753 257.63L103.493 259.91C103.253 259.79 102.963 259.69 102.623 259.61C102.303 259.53 101.993 259.49 101.693 259.49C101.213 259.49 100.733 259.58 100.253 259.76C99.7926 259.94 99.3726 260.22 98.9926 260.6C98.6126 260.98 98.3226 261.49 98.1226 262.13C98.0426 262.41 97.9726 262.78 97.9126 263.24C97.8726 263.68 97.8526 264.29 97.8526 265.07V272H95.3026ZM112.91 272.24C111.75 272.24 110.73 272.05 109.85 271.67C108.99 271.27 108.27 270.72 107.69 270.02C107.13 269.32 106.7 268.52 106.4 267.62C106.12 266.7 105.98 265.73 105.98 264.71C105.98 263.69 106.12 262.72 106.4 261.8C106.68 260.86 107.09 260.03 107.63 259.31C108.19 258.59 108.89 258.02 109.73 257.6C110.57 257.18 111.55 256.97 112.67 256.97C113.81 256.97 114.79 257.17 115.61 257.57C116.45 257.95 117.13 258.48 117.65 259.16C118.19 259.84 118.59 260.6 118.85 261.44C119.11 262.28 119.24 263.15 119.24 264.05C119.24 264.13 119.23 264.32 119.21 264.62C119.21 264.9 119.19 265.15 119.15 265.37H108.5C108.56 266.81 108.98 267.93 109.76 268.73C110.54 269.53 111.6 269.93 112.94 269.93C113.8 269.93 114.55 269.79 115.19 269.51C115.83 269.23 116.43 268.78 116.99 268.16L118.76 269.72C118.22 270.3 117.65 270.78 117.05 271.16C116.45 271.52 115.81 271.79 115.13 271.97C114.47 272.15 113.73 272.24 112.91 272.24ZM116.72 264.08C116.76 263.92 116.78 263.76 116.78 263.6C116.8 263.44 116.81 263.28 116.81 263.12C116.81 262.64 116.72 262.16 116.54 261.68C116.38 261.2 116.13 260.77 115.79 260.39C115.47 259.99 115.05 259.68 114.53 259.46C114.03 259.22 113.43 259.1 112.73 259.1C111.87 259.1 111.13 259.3 110.51 259.7C109.89 260.1 109.41 260.63 109.07 261.29C108.73 261.95 108.53 262.68 108.47 263.48H117.56L116.72 264.08ZM127.761 272.24C126.761 272.24 125.861 272.09 125.061 271.79C124.261 271.49 123.571 271.09 122.991 270.59C122.431 270.09 121.981 269.56 121.641 269L123.411 267.5C123.791 268.26 124.351 268.89 125.091 269.39C125.851 269.87 126.751 270.11 127.791 270.11C128.731 270.11 129.481 269.91 130.041 269.51C130.601 269.11 130.881 268.57 130.881 267.89C130.881 267.33 130.711 266.89 130.371 266.57C130.031 266.25 129.581 265.99 129.021 265.79C128.461 265.59 127.851 265.41 127.191 265.25C126.631 265.11 126.061 264.94 125.481 264.74C124.921 264.54 124.411 264.29 123.951 263.99C123.491 263.69 123.121 263.3 122.841 262.82C122.561 262.34 122.421 261.75 122.421 261.05C122.421 259.83 122.891 258.85 123.831 258.11C124.791 257.35 126.041 256.97 127.581 256.97C128.701 256.97 129.721 257.21 130.641 257.69C131.581 258.15 132.311 258.85 132.831 259.79L131.211 260.99C130.811 260.29 130.281 259.79 129.621 259.49C128.981 259.17 128.271 259.01 127.491 259.01C126.711 259.01 126.061 259.17 125.541 259.49C125.021 259.81 124.761 260.25 124.761 260.81C124.761 261.23 124.881 261.57 125.121 261.83C125.361 262.09 125.711 262.31 126.171 262.49C126.651 262.67 127.231 262.84 127.911 263C128.531 263.14 129.161 263.31 129.801 263.51C130.441 263.71 131.031 263.97 131.571 264.29C132.111 264.61 132.541 265.04 132.861 265.58C133.201 266.1 133.371 266.78 133.371 267.62C133.371 268.54 133.141 269.35 132.681 270.05C132.221 270.75 131.571 271.29 130.731 271.67C129.891 272.05 128.901 272.24 127.761 272.24ZM143.473 272.24C142.093 272.24 140.853 271.92 139.753 271.28C138.673 270.62 137.823 269.71 137.203 268.55C136.583 267.39 136.273 266.07 136.273 264.59C136.273 263.11 136.573 261.8 137.173 260.66C137.793 259.5 138.643 258.6 139.723 257.96C140.823 257.3 142.073 256.97 143.473 256.97C144.873 256.97 146.103 257.3 147.163 257.96C148.243 258.6 149.093 259.5 149.713 260.66C150.333 261.8 150.643 263.11 150.643 264.59C150.643 266.07 150.333 267.39 149.713 268.55C149.093 269.69 148.243 270.59 147.163 271.25C146.083 271.91 144.853 272.24 143.473 272.24ZM143.473 269.99C144.413 269.99 145.223 269.77 145.903 269.33C146.603 268.87 147.143 268.24 147.523 267.44C147.903 266.62 148.093 265.67 148.093 264.59C148.093 263.49 147.903 262.54 147.523 261.74C147.143 260.92 146.603 260.29 145.903 259.85C145.223 259.41 144.413 259.19 143.473 259.19C142.513 259.19 141.683 259.42 140.983 259.88C140.283 260.32 139.743 260.94 139.363 261.74C138.983 262.54 138.793 263.49 138.793 264.59C138.793 265.67 138.983 266.62 139.363 267.44C139.743 268.24 140.283 268.87 140.983 269.33C141.683 269.77 142.513 269.99 143.473 269.99ZM154.277 272V257.21H156.827V260.36L156.227 260.57C156.507 259.81 156.887 259.17 157.367 258.65C157.847 258.11 158.427 257.7 159.107 257.42C159.787 257.12 160.537 256.97 161.357 256.97C162.977 256.97 164.247 257.45 165.167 258.41C166.087 259.35 166.547 260.75 166.547 262.61V272H163.997V263.54C163.997 262.04 163.717 260.94 163.157 260.24C162.617 259.52 161.787 259.16 160.667 259.16C159.847 259.16 159.147 259.35 158.567 259.73C158.007 260.11 157.577 260.71 157.277 261.53C156.977 262.33 156.827 263.36 156.827 264.62V272H154.277ZM180.403 272L180.223 269.03V262.73C180.223 261.59 179.903 260.71 179.263 260.09C178.643 259.47 177.713 259.16 176.473 259.16C175.673 259.16 174.923 259.33 174.223 259.67C173.523 259.99 172.843 260.54 172.183 261.32L170.353 259.76C171.173 258.8 172.113 258.1 173.173 257.66C174.233 257.2 175.393 256.97 176.653 256.97C178.593 256.97 180.093 257.47 181.153 258.47C182.213 259.47 182.743 260.89 182.743 262.73V272H180.403ZM175.513 272.24C174.393 272.24 173.413 272.05 172.573 271.67C171.753 271.27 171.113 270.72 170.653 270.02C170.213 269.32 169.993 268.51 169.993 267.59C169.993 266.77 170.153 266.08 170.473 265.52C170.813 264.94 171.243 264.49 171.763 264.17C172.283 263.83 172.873 263.6 173.533 263.48C174.213 263.34 174.923 263.27 175.663 263.27H180.463V265.19H176.023C175.583 265.19 175.123 265.23 174.643 265.31C174.163 265.39 173.743 265.56 173.383 265.82C173.123 266.02 172.913 266.27 172.753 266.57C172.613 266.87 172.543 267.22 172.543 267.62C172.543 268.4 172.833 269.02 173.413 269.48C173.993 269.94 174.773 270.17 175.753 270.17C176.573 270.17 177.313 269.98 177.973 269.6C178.653 269.22 179.193 268.7 179.593 268.04C180.013 267.36 180.223 266.6 180.223 265.76L181.273 266.84C181.153 267.9 180.833 268.84 180.313 269.66C179.793 270.48 179.123 271.12 178.303 271.58C177.503 272.02 176.573 272.24 175.513 272.24ZM191.805 272.24C191.105 272.24 190.465 272.11 189.885 271.85C189.325 271.57 188.885 271.13 188.565 270.53C188.245 269.93 188.085 269.16 188.085 268.22V253.25L190.665 251.81V267.56C190.665 268.38 190.795 269.02 191.055 269.48C191.315 269.92 191.785 270.14 192.465 270.14C192.665 270.14 192.905 270.12 193.185 270.08C193.465 270.02 193.765 269.95 194.085 269.87V271.85C193.705 271.99 193.315 272.09 192.915 272.15C192.535 272.21 192.165 272.24 191.805 272.24ZM185.025 259.19V257.21H194.085V259.19H185.025ZM203.203 272.24C202.043 272.24 201.023 272.05 200.143 271.67C199.283 271.27 198.563 270.72 197.983 270.02C197.423 269.32 196.993 268.52 196.693 267.62C196.413 266.7 196.273 265.73 196.273 264.71C196.273 263.69 196.413 262.72 196.693 261.8C196.973 260.86 197.383 260.03 197.923 259.31C198.483 258.59 199.183 258.02 200.023 257.6C200.863 257.18 201.843 256.97 202.963 256.97C204.103 256.97 205.083 257.17 205.903 257.57C206.743 257.95 207.423 258.48 207.943 259.16C208.483 259.84 208.883 260.6 209.143 261.44C209.403 262.28 209.533 263.15 209.533 264.05C209.533 264.13 209.523 264.32 209.503 264.62C209.503 264.9 209.483 265.15 209.443 265.37H198.793C198.853 266.81 199.273 267.93 200.053 268.73C200.833 269.53 201.893 269.93 203.233 269.93C204.093 269.93 204.843 269.79 205.483 269.51C206.123 269.23 206.723 268.78 207.283 268.16L209.053 269.72C208.513 270.3 207.943 270.78 207.343 271.16C206.743 271.52 206.103 271.79 205.423 271.97C204.763 272.15 204.023 272.24 203.203 272.24ZM207.013 264.08C207.053 263.92 207.073 263.76 207.073 263.6C207.093 263.44 207.103 263.28 207.103 263.12C207.103 262.64 207.013 262.16 206.833 261.68C206.673 261.2 206.423 260.77 206.083 260.39C205.763 259.99 205.343 259.68 204.823 259.46C204.323 259.22 203.723 259.1 203.023 259.1C202.163 259.1 201.423 259.3 200.803 259.7C200.183 260.1 199.703 260.63 199.363 261.29C199.023 261.95 198.823 262.68 198.763 263.48H207.853L207.013 264.08ZM224.017 272L219.637 257.21H222.337L225.337 268.16L228.877 257.21H231.127L234.667 268.1L237.697 257.21H240.397L235.987 272H233.647L230.017 260.75L226.387 272H224.017ZM243.368 272V257.21H245.888V272H243.368ZM243.128 254.54V251.09H246.128V254.54H243.128ZM255.086 272.24C254.386 272.24 253.746 272.11 253.166 271.85C252.606 271.57 252.166 271.13 251.846 270.53C251.526 269.93 251.366 269.16 251.366 268.22V253.25L253.946 251.81V267.56C253.946 268.38 254.076 269.02 254.336 269.48C254.596 269.92 255.066 270.14 255.746 270.14C255.946 270.14 256.186 270.12 256.466 270.08C256.746 270.02 257.046 269.95 257.366 269.87V271.85C256.986 271.99 256.596 272.09 256.196 272.15C255.816 272.21 255.446 272.24 255.086 272.24ZM248.306 259.19V257.21H257.366V259.19H248.306ZM260.537 272V251.09H263.087V260.36L262.457 260.6C262.737 259.84 263.127 259.19 263.627 258.65C264.127 258.11 264.717 257.7 265.397 257.42C266.077 257.12 266.817 256.97 267.617 256.97C269.237 256.97 270.507 257.45 271.427 258.41C272.347 259.35 272.807 260.75 272.807 262.61V272H270.257V263.54C270.257 262.04 269.977 260.94 269.417 260.24C268.877 259.52 268.047 259.16 266.927 259.16C265.707 259.16 264.757 259.6 264.077 260.48C263.417 261.34 263.087 262.72 263.087 264.62V272H260.537ZM39.08 302.24C38.38 302.24 37.74 302.11 37.16 301.85C36.6 301.57 36.16 301.13 35.84 300.53C35.52 299.93 35.36 299.16 35.36 298.22V283.25L37.94 281.81V297.56C37.94 298.38 38.07 299.02 38.33 299.48C38.59 299.92 39.06 300.14 39.74 300.14C39.94 300.14 40.18 300.12 40.46 300.08C40.74 300.02 41.04 299.95 41.36 299.87V301.85C40.98 301.99 40.59 302.09 40.19 302.15C39.81 302.21 39.44 302.24 39.08 302.24ZM32.3 289.19V287.21H41.36V289.19H32.3ZM44.5311 302V281.09H47.0811V290.36L46.4511 290.6C46.7311 289.84 47.1211 289.19 47.6211 288.65C48.1211 288.11 48.7111 287.7 49.3911 287.42C50.0711 287.12 50.8111 286.97 51.6111 286.97C53.2311 286.97 54.5011 287.45 55.4211 288.41C56.3411 289.35 56.8011 290.75 56.8011 292.61V302H54.2511V293.54C54.2511 292.04 53.9711 290.94 53.4111 290.24C52.8711 289.52 52.0411 289.16 50.9211 289.16C49.7011 289.16 48.7511 289.6 48.0711 290.48C47.4111 291.34 47.0811 292.72 47.0811 294.62V302H44.5311ZM67.1773 302.24C66.0173 302.24 64.9973 302.05 64.1173 301.67C63.2573 301.27 62.5373 300.72 61.9573 300.02C61.3973 299.32 60.9673 298.52 60.6673 297.62C60.3873 296.7 60.2473 295.73 60.2473 294.71C60.2473 293.69 60.3873 292.72 60.6673 291.8C60.9473 290.86 61.3573 290.03 61.8973 289.31C62.4573 288.59 63.1573 288.02 63.9973 287.6C64.8373 287.18 65.8173 286.97 66.9373 286.97C68.0773 286.97 69.0573 287.17 69.8773 287.57C70.7173 287.95 71.3973 288.48 71.9173 289.16C72.4573 289.84 72.8573 290.6 73.1173 291.44C73.3773 292.28 73.5073 293.15 73.5073 294.05C73.5073 294.13 73.4973 294.32 73.4773 294.62C73.4773 294.9 73.4573 295.15 73.4173 295.37H62.7673C62.8273 296.81 63.2473 297.93 64.0273 298.73C64.8073 299.53 65.8673 299.93 67.2073 299.93C68.0673 299.93 68.8173 299.79 69.4573 299.51C70.0973 299.23 70.6973 298.78 71.2573 298.16L73.0273 299.72C72.4873 300.3 71.9173 300.78 71.3173 301.16C70.7173 301.52 70.0773 301.79 69.3973 301.97C68.7373 302.15 67.9973 302.24 67.1773 302.24ZM70.9873 294.08C71.0273 293.92 71.0473 293.76 71.0473 293.6C71.0673 293.44 71.0773 293.28 71.0773 293.12C71.0773 292.64 70.9873 292.16 70.8073 291.68C70.6473 291.2 70.3973 290.77 70.0573 290.39C69.7373 289.99 69.3173 289.68 68.7973 289.46C68.2973 289.22 67.6973 289.1 66.9973 289.1C66.1373 289.1 65.3973 289.3 64.7773 289.7C64.1573 290.1 63.6773 290.63 63.3373 291.29C62.9973 291.95 62.7973 292.68 62.7373 293.48H71.8273L70.9873 294.08ZM77.1385 302V287.21H79.6885V291.02H79.1785C79.3585 290.32 79.5985 289.72 79.8985 289.22C80.2185 288.7 80.5885 288.28 81.0085 287.96C81.4285 287.62 81.8785 287.37 82.3585 287.21C82.8585 287.05 83.3785 286.97 83.9185 286.97C84.8185 286.97 85.6085 287.14 86.2885 287.48C86.9685 287.82 87.5285 288.34 87.9685 289.04C88.4085 289.72 88.7085 290.59 88.8685 291.65L87.4285 291.74C87.7285 290.72 88.1085 289.86 88.5685 289.16C89.0285 288.44 89.5985 287.9 90.2785 287.54C90.9785 287.16 91.8085 286.97 92.7685 286.97C93.9885 286.97 94.9685 287.25 95.7085 287.81C96.4485 288.35 96.9885 289.08 97.3285 290C97.6685 290.9 97.8385 291.9 97.8385 293V302H95.3185V293.6C95.3185 292.68 95.2085 291.89 94.9885 291.23C94.7885 290.57 94.4585 290.06 93.9985 289.7C93.5585 289.34 92.9585 289.16 92.1985 289.16C91.4785 289.16 90.8585 289.34 90.3385 289.7C89.8385 290.06 89.4485 290.61 89.1685 291.35C88.9085 292.07 88.7785 292.97 88.7785 294.05V302H86.2285V293.39C86.2285 291.97 85.9685 290.91 85.4485 290.21C84.9285 289.51 84.1685 289.16 83.1685 289.16C82.4485 289.16 81.8285 289.35 81.3085 289.73C80.7885 290.09 80.3885 290.63 80.1085 291.35C79.8285 292.07 79.6885 292.97 79.6885 294.05V302H77.1385ZM101.922 302V298.52H104.922V302H101.922Z" fill="white"/>
</svg>
